%TF.GenerationSoftware,KiCad,Pcbnew,10.0.1*%
%TF.CreationDate,2026-07-02T23:40:42+08:00*%
%TF.ProjectId,Z80Badge,5a383042-6164-4676-952e-6b696361645f,rev?*%
%TF.SameCoordinates,Original*%
%TF.FileFunction,Copper,L1,Top*%
%TF.FilePolarity,Positive*%
%FSLAX46Y46*%
G04 Gerber Fmt 4.6, Leading zero omitted, Abs format (unit mm)*
G04 Created by KiCad (PCBNEW 10.0.1) date 2026-07-02 23:40:42*
%MOMM*%
%LPD*%
G01*
G04 APERTURE LIST*
G04 Aperture macros list*
%AMRoundRect*
0 Rectangle with rounded corners*
0 $1 Rounding radius*
0 $2 $3 $4 $5 $6 $7 $8 $9 X,Y pos of 4 corners*
0 Add a 4 corners polygon primitive as box body*
4,1,4,$2,$3,$4,$5,$6,$7,$8,$9,$2,$3,0*
0 Add four circle primitives for the rounded corners*
1,1,$1+$1,$2,$3*
1,1,$1+$1,$4,$5*
1,1,$1+$1,$6,$7*
1,1,$1+$1,$8,$9*
0 Add four rect primitives between the rounded corners*
20,1,$1+$1,$2,$3,$4,$5,0*
20,1,$1+$1,$4,$5,$6,$7,0*
20,1,$1+$1,$6,$7,$8,$9,0*
20,1,$1+$1,$8,$9,$2,$3,0*%
G04 Aperture macros list end*
%TA.AperFunction,SMDPad,CuDef*%
%ADD10RoundRect,0.250000X-0.625000X0.400000X-0.625000X-0.400000X0.625000X-0.400000X0.625000X0.400000X0*%
%TD*%
%TA.AperFunction,ComponentPad*%
%ADD11C,3.000000*%
%TD*%
%TA.AperFunction,ComponentPad*%
%ADD12R,1.800000X2.600000*%
%TD*%
%TA.AperFunction,ComponentPad*%
%ADD13O,1.800000X2.600000*%
%TD*%
%TA.AperFunction,SMDPad,CuDef*%
%ADD14RoundRect,0.250000X0.625000X-0.400000X0.625000X0.400000X-0.625000X0.400000X-0.625000X-0.400000X0*%
%TD*%
%TA.AperFunction,ComponentPad*%
%ADD15R,1.560000X1.560000*%
%TD*%
%TA.AperFunction,ComponentPad*%
%ADD16C,1.560000*%
%TD*%
%TA.AperFunction,SMDPad,CuDef*%
%ADD17RoundRect,0.250000X0.650000X-0.412500X0.650000X0.412500X-0.650000X0.412500X-0.650000X-0.412500X0*%
%TD*%
%TA.AperFunction,ComponentPad*%
%ADD18C,2.000000*%
%TD*%
%TA.AperFunction,SMDPad,CuDef*%
%ADD19RoundRect,0.250000X0.412500X0.650000X-0.412500X0.650000X-0.412500X-0.650000X0.412500X-0.650000X0*%
%TD*%
%TA.AperFunction,ComponentPad*%
%ADD20R,1.600000X1.600000*%
%TD*%
%TA.AperFunction,ComponentPad*%
%ADD21C,1.600000*%
%TD*%
%TA.AperFunction,SMDPad,CuDef*%
%ADD22RoundRect,0.250000X-0.400000X-0.625000X0.400000X-0.625000X0.400000X0.625000X-0.400000X0.625000X0*%
%TD*%
%TA.AperFunction,SMDPad,CuDef*%
%ADD23R,2.000000X1.900000*%
%TD*%
%TA.AperFunction,SMDPad,CuDef*%
%ADD24R,0.400000X1.500000*%
%TD*%
%TA.AperFunction,SMDPad,CuDef*%
%ADD25RoundRect,0.150000X-0.425000X0.150000X-0.425000X-0.150000X0.425000X-0.150000X0.425000X0.150000X0*%
%TD*%
%TA.AperFunction,SMDPad,CuDef*%
%ADD26RoundRect,0.075000X-0.500000X0.075000X-0.500000X-0.075000X0.500000X-0.075000X0.500000X0.075000X0*%
%TD*%
%TA.AperFunction,ComponentPad*%
%ADD27O,2.100000X1.000000*%
%TD*%
%TA.AperFunction,ComponentPad*%
%ADD28O,1.800000X1.000000*%
%TD*%
%TA.AperFunction,SMDPad,CuDef*%
%ADD29RoundRect,0.150000X0.825000X0.150000X-0.825000X0.150000X-0.825000X-0.150000X0.825000X-0.150000X0*%
%TD*%
%TA.AperFunction,ComponentPad*%
%ADD30RoundRect,0.250000X-0.550000X0.550000X-0.550000X-0.550000X0.550000X-0.550000X0.550000X0.550000X0*%
%TD*%
%TA.AperFunction,ComponentPad*%
%ADD31RoundRect,0.250000X0.550000X-0.550000X0.550000X0.550000X-0.550000X0.550000X-0.550000X-0.550000X0*%
%TD*%
%TA.AperFunction,ComponentPad*%
%ADD32RoundRect,0.250000X-0.550000X-0.550000X0.550000X-0.550000X0.550000X0.550000X-0.550000X0.550000X0*%
%TD*%
%TA.AperFunction,SMDPad,CuDef*%
%ADD33RoundRect,0.250000X-0.650000X0.412500X-0.650000X-0.412500X0.650000X-0.412500X0.650000X0.412500X0*%
%TD*%
%TA.AperFunction,SMDPad,CuDef*%
%ADD34RoundRect,0.100000X-0.100000X0.450000X-0.100000X-0.450000X0.100000X-0.450000X0.100000X0.450000X0*%
%TD*%
%TA.AperFunction,ComponentPad*%
%ADD35R,1.440000X2.000000*%
%TD*%
%TA.AperFunction,ComponentPad*%
%ADD36O,1.440000X2.000000*%
%TD*%
%TA.AperFunction,ViaPad*%
%ADD37C,0.600000*%
%TD*%
%TA.AperFunction,Conductor*%
%ADD38C,0.200000*%
%TD*%
G04 APERTURE END LIST*
D10*
%TO.P,R9,1*%
%TO.N,Net-(J2-CC1)*%
X38400000Y-35050000D03*
%TO.P,R9,2*%
%TO.N,/GND*%
X38400000Y-38150000D03*
%TD*%
D11*
%TO.P,DS1,*%
%TO.N,*%
X36500900Y34600000D03*
X36500900Y3599300D03*
X111499480Y3599300D03*
X111500000Y34600000D03*
D12*
%TO.P,DS1,1,VSS_1*%
%TO.N,/GND*%
X42000000Y34600000D03*
D13*
%TO.P,DS1,2,VDD_2*%
%TO.N,/VCC*%
X44540000Y34600000D03*
%TO.P,DS1,3,VO_3*%
%TO.N,Net-(DS1-VO)*%
X47080000Y34600000D03*
%TO.P,DS1,4,RS_4*%
%TO.N,/1602_RS*%
X49620000Y34600000D03*
%TO.P,DS1,5,R/W_5*%
%TO.N,/GND*%
X52160000Y34600000D03*
%TO.P,DS1,6,E_6*%
%TO.N,/1602_E*%
X54700000Y34600000D03*
%TO.P,DS1,7,D0_7*%
%TO.N,/1602_D0*%
X57240000Y34600000D03*
%TO.P,DS1,8,D1_8*%
%TO.N,/1602_D1*%
X59780000Y34600000D03*
%TO.P,DS1,9,D2_9*%
%TO.N,/1602_D2*%
X62320000Y34600000D03*
%TO.P,DS1,10,D3_10*%
%TO.N,/1602_D3*%
X64860000Y34600000D03*
%TO.P,DS1,11,D4_11*%
%TO.N,/1602_D4*%
X67400000Y34600000D03*
%TO.P,DS1,12,D5_12*%
%TO.N,/1602_D5*%
X69940000Y34600000D03*
%TO.P,DS1,13,D6_13*%
%TO.N,/1602_D6*%
X72480000Y34600000D03*
%TO.P,DS1,14,D7_14*%
%TO.N,/1602_D7*%
X75020000Y34600000D03*
%TO.P,DS1,15,LED(+)_15*%
%TO.N,Net-(DS1-LED(+))*%
X77560000Y34600000D03*
%TO.P,DS1,16,LED(-)_16*%
%TO.N,/GND*%
X80100000Y34600000D03*
%TD*%
D14*
%TO.P,R3,1*%
%TO.N,Net-(U6-~{ASTB})*%
X40800000Y28650000D03*
%TO.P,R3,2*%
%TO.N,/VCC*%
X40800000Y31750000D03*
%TD*%
D15*
%TO.P,RV1,1,1_1*%
%TO.N,/VCC*%
X88030000Y30000000D03*
D16*
%TO.P,RV1,2,2_2*%
%TO.N,Net-(DS1-VO)*%
X85530000Y35000000D03*
%TO.P,RV1,3,3_3*%
%TO.N,/GND*%
X83030000Y30000000D03*
%TD*%
D17*
%TO.P,C1,1*%
%TO.N,Net-(U5-GND)*%
X43800000Y-24162500D03*
%TO.P,C1,2*%
%TO.N,Net-(U5-V3)*%
X43800000Y-21037500D03*
%TD*%
D18*
%TO.P,SW1,1,1_1*%
%TO.N,/VCC*%
X57710000Y-67100000D03*
X64210000Y-67100000D03*
%TO.P,SW1,2,2_2*%
%TO.N,/SW1*%
X57710000Y-71600000D03*
X64210000Y-71600000D03*
%TD*%
%TO.P,SW4,1,1_1*%
%TO.N,/VCC*%
X87150000Y-67100000D03*
X93650000Y-67100000D03*
%TO.P,SW4,2,2_2*%
%TO.N,/SW3*%
X87150000Y-71600000D03*
X93650000Y-71600000D03*
%TD*%
D19*
%TO.P,C4,1*%
%TO.N,/GND*%
X55800000Y-60800000D03*
%TO.P,C4,2*%
%TO.N,/VCC*%
X52675000Y-60800000D03*
%TD*%
D10*
%TO.P,R6,1*%
%TO.N,Net-(U7-~{BSTB})*%
X59000000Y-60890000D03*
%TO.P,R6,2*%
%TO.N,/VCC*%
X59000000Y-63990000D03*
%TD*%
D20*
%TO.P,Y1,1,EN_1*%
%TO.N,/VCC*%
X107820000Y25710000D03*
D21*
%TO.P,Y1,7,GND_7*%
%TO.N,/GND*%
X92580000Y25710000D03*
%TO.P,Y1,8,OUT_8*%
%TO.N,/~{CLK}*%
X92580000Y18090000D03*
%TO.P,Y1,14,Vcc_14*%
%TO.N,/VCC*%
X107820000Y18090000D03*
%TD*%
D18*
%TO.P,SW5,1,1_1*%
%TO.N,/VCC*%
X96975000Y-67100000D03*
X103475000Y-67100000D03*
%TO.P,SW5,2,2_2*%
%TO.N,/SW5*%
X96975000Y-71600000D03*
X103475000Y-71600000D03*
%TD*%
D10*
%TO.P,R2,1*%
%TO.N,/~{INT}*%
X43200000Y-53850000D03*
%TO.P,R2,2*%
%TO.N,/VCC*%
X43200000Y-56950000D03*
%TD*%
%TO.P,R8,1*%
%TO.N,Net-(J2-CC2)*%
X40800000Y-35050000D03*
%TO.P,R8,2*%
%TO.N,/GND*%
X40800000Y-38150000D03*
%TD*%
D22*
%TO.P,R1,1*%
%TO.N,/~{RESET}*%
X40400000Y-40600000D03*
%TO.P,R1,2*%
%TO.N,/VCC*%
X43500000Y-40600000D03*
%TD*%
D18*
%TO.P,SW7,1,1_1*%
%TO.N,/~{RESET}*%
X43250000Y-44150000D03*
X43250000Y-50650000D03*
%TO.P,SW7,2,2_2*%
%TO.N,/GND*%
X38750000Y-44150000D03*
X38750000Y-50650000D03*
%TD*%
D20*
%TO.P,Y2,1,EN_1*%
%TO.N,/VCC*%
X92580000Y4380000D03*
D21*
%TO.P,Y2,7,GND_7*%
%TO.N,/GND*%
X107820000Y4380000D03*
%TO.P,Y2,8,OUT_8*%
%TO.N,Net-(U4-Rx_CLK)*%
X107820000Y12000000D03*
%TO.P,Y2,14,Vcc_14*%
%TO.N,/VCC*%
X92580000Y12000000D03*
%TD*%
D23*
%TO.P,S1,1*%
%TO.N,/J1*%
X39600000Y-65200000D03*
%TO.P,S1,2*%
%TO.N,/J2*%
X39600000Y-69200000D03*
%TO.P,S1,3*%
%TO.N,/J3*%
X39600000Y-73200000D03*
%TO.P,S1,4*%
%TO.N,/J4*%
X54600000Y-65200000D03*
%TO.P,S1,5*%
%TO.N,/J5*%
X54600000Y-69200000D03*
%TO.P,S1,6*%
%TO.N,/VCC*%
X54600000Y-73200000D03*
%TD*%
D10*
%TO.P,R5,1*%
%TO.N,Net-(U7-~{ASTB})*%
X61400000Y-60890000D03*
%TO.P,R5,2*%
%TO.N,/VCC*%
X61400000Y-63990000D03*
%TD*%
D18*
%TO.P,SW6,1,1_1*%
%TO.N,/VCC*%
X106800000Y-67100000D03*
X113300000Y-67100000D03*
%TO.P,SW6,2,2_2*%
%TO.N,/SW6*%
X106800000Y-71600000D03*
X113300000Y-71600000D03*
%TD*%
D24*
%TO.P,U8,1,NC_1*%
%TO.N,unconnected-(U8-NC-Pad1)*%
X80100000Y6930000D03*
%TO.P,U8,2*%
%TO.N,/A15*%
X79450000Y6930000D03*
%TO.P,U8,3,GND_3*%
%TO.N,/GND*%
X78800000Y6930000D03*
%TO.P,U8,4*%
%TO.N,Net-(U10-Pad6)*%
X78800000Y4270000D03*
%TO.P,U8,5,VCC_5*%
%TO.N,/VCC*%
X80100000Y4270000D03*
%TD*%
D25*
%TO.P,J2,A1,GND_A1*%
%TO.N,/GND*%
X41080000Y-24200000D03*
%TO.P,J2,A4,VBUS_A4*%
%TO.N,/VCC*%
X41080000Y-25000000D03*
D26*
%TO.P,J2,A5,CC1_A5*%
%TO.N,Net-(J2-CC1)*%
X41080000Y-26150000D03*
%TO.P,J2,A6,D+_A6*%
%TO.N,Net-(U5-UD+)*%
X41080000Y-27150000D03*
%TO.P,J2,A7,D-_A7*%
%TO.N,Net-(U5-UD-)*%
X41080000Y-27650000D03*
%TO.P,J2,A8,SBU1_A8*%
%TO.N,unconnected-(J2-SBU1-PadA8)*%
X41080000Y-28650000D03*
D25*
%TO.P,J2,A9,VBUS_A9*%
%TO.N,/VCC*%
X41080000Y-29800000D03*
%TO.P,J2,A12,GND_A12*%
%TO.N,/GND*%
X41080000Y-30600000D03*
%TO.P,J2,B1,GND_B1*%
X41080000Y-30600000D03*
%TO.P,J2,B4,VBUS_B4*%
%TO.N,/VCC*%
X41080000Y-29800000D03*
D26*
%TO.P,J2,B5,CC2_B5*%
%TO.N,Net-(J2-CC2)*%
X41080000Y-29150000D03*
%TO.P,J2,B6,D+_B6*%
%TO.N,Net-(U5-UD+)*%
X41080000Y-28150000D03*
%TO.P,J2,B7,D-_B7*%
%TO.N,Net-(U5-UD-)*%
X41080000Y-26650000D03*
%TO.P,J2,B8,SBU2_B8*%
%TO.N,unconnected-(J2-SBU2-PadB8)*%
X41080000Y-25650000D03*
D25*
%TO.P,J2,B9,VBUS_B9*%
%TO.N,/VCC*%
X41080000Y-25000000D03*
%TO.P,J2,B12,GND_B12*%
%TO.N,/GND*%
X41080000Y-24200000D03*
D27*
%TO.P,J2,SH,SHIELD_SH*%
X40505000Y-23080000D03*
D28*
X36325000Y-23080000D03*
D27*
X40505000Y-31720000D03*
D28*
X36325000Y-31720000D03*
%TD*%
D18*
%TO.P,SW2,1,1_1*%
%TO.N,/VCC*%
X67550000Y-67100000D03*
X74050000Y-67100000D03*
%TO.P,SW2,2,2_2*%
%TO.N,/SW2*%
X67550000Y-71600000D03*
X74050000Y-71600000D03*
%TD*%
D29*
%TO.P,U5,1,GND_1*%
%TO.N,Net-(U5-GND)*%
X43550000Y-18670000D03*
%TO.P,U5,2,TXD_2*%
%TO.N,/CH340C_Tx*%
X43550000Y-17400000D03*
%TO.P,U5,3,RXD_3*%
%TO.N,/CH340C_Rx*%
X43550000Y-16130000D03*
%TO.P,U5,4,V3_4*%
%TO.N,Net-(U5-V3)*%
X43550000Y-14860000D03*
%TO.P,U5,5,UD+_5*%
%TO.N,Net-(U5-UD+)*%
X43550000Y-13590000D03*
%TO.P,U5,6,UD-_6*%
%TO.N,Net-(U5-UD-)*%
X43550000Y-12320000D03*
%TO.P,U5,7,NC_7*%
%TO.N,unconnected-(U5-NC-Pad7)*%
X43550000Y-11050000D03*
%TO.P,U5,8,NC_8*%
%TO.N,unconnected-(U5-NC-Pad8)*%
X43550000Y-9780000D03*
%TO.P,U5,9,~{CTS}_9*%
%TO.N,unconnected-(U5-~{CTS}-Pad9)*%
X38600000Y-9780000D03*
%TO.P,U5,10,~{DSR}_10*%
%TO.N,unconnected-(U5-~{DSR}-Pad10)*%
X38600000Y-11050000D03*
%TO.P,U5,11,~{RI}_11*%
%TO.N,unconnected-(U5-~{RI}-Pad11)*%
X38600000Y-12320000D03*
%TO.P,U5,12,~{DCD}_12*%
%TO.N,unconnected-(U5-~{DCD}-Pad12)*%
X38600000Y-13590000D03*
%TO.P,U5,13,~{DTR}_13*%
%TO.N,unconnected-(U5-~{DTR}-Pad13)*%
X38600000Y-14860000D03*
%TO.P,U5,14,~{RTS}_14*%
%TO.N,unconnected-(U5-~{RTS}-Pad14)*%
X38600000Y-16130000D03*
%TO.P,U5,15,R232_15*%
%TO.N,unconnected-(U5-R232-Pad15)*%
X38600000Y-17400000D03*
%TO.P,U5,16,VCC_16*%
%TO.N,/VCC*%
X38600000Y-18670000D03*
%TD*%
D22*
%TO.P,R7,1*%
%TO.N,Net-(DS1-LED(+))*%
X77650000Y31400000D03*
%TO.P,R7,2*%
%TO.N,/VCC*%
X80750000Y31400000D03*
%TD*%
D14*
%TO.P,R4,1*%
%TO.N,Net-(U6-~{BSTB})*%
X38200000Y28650000D03*
%TO.P,R4,2*%
%TO.N,/VCC*%
X38200000Y31750000D03*
%TD*%
D19*
%TO.P,C2,1*%
%TO.N,Net-(U5-GND)*%
X41362500Y-20600000D03*
%TO.P,C2,2*%
%TO.N,/VCC*%
X38237500Y-20600000D03*
%TD*%
D30*
%TO.P,U7,1,D_{2}_1*%
%TO.N,/D2*%
X112620000Y-48360000D03*
D21*
%TO.P,U7,2,D_{7}_2*%
%TO.N,/D7*%
X110080000Y-48360000D03*
%TO.P,U7,3,D_{6}_3*%
%TO.N,/D6*%
X107540000Y-48360000D03*
%TO.P,U7,4,~{CE}_4*%
%TO.N,/A3*%
X105000000Y-48360000D03*
%TO.P,U7,5,C/~{D}_5*%
%TO.N,/A1*%
X102460000Y-48360000D03*
%TO.P,U7,6,NC_6*%
%TO.N,unconnected-(U7-NC-Pad6)*%
X99920000Y-48360000D03*
%TO.P,U7,7,B/~{A}_7*%
%TO.N,/A0*%
X97380000Y-48360000D03*
%TO.P,U7,8,PA_{7}_8*%
%TO.N,/6850_E*%
X94840000Y-48360000D03*
%TO.P,U7,9,PA_{6}_9*%
%TO.N,/6850_RW*%
X92300000Y-48360000D03*
%TO.P,U7,10,PA_{5}_10*%
%TO.N,/6850_RS*%
X89760000Y-48360000D03*
%TO.P,U7,11,PA_{4}_11*%
%TO.N,/J5*%
X87220000Y-48360000D03*
%TO.P,U7,12,NC_12*%
%TO.N,unconnected-(U7-NC-Pad12)*%
X84680000Y-48360000D03*
%TO.P,U7,13,GND_13*%
%TO.N,/GND*%
X82140000Y-48360000D03*
%TO.P,U7,14,PA_{3}_14*%
%TO.N,/J4*%
X79600000Y-48360000D03*
%TO.P,U7,15,PA_{2}_15*%
%TO.N,/J3*%
X77060000Y-48360000D03*
%TO.P,U7,16,PA_{1}_16*%
%TO.N,/J2*%
X74520000Y-48360000D03*
%TO.P,U7,17,PA_{0}_17*%
%TO.N,/J1*%
X71980000Y-48360000D03*
%TO.P,U7,18,~{ASTB}_18*%
%TO.N,Net-(U7-~{ASTB})*%
X69440000Y-48360000D03*
%TO.P,U7,19,~{BSTB}_19*%
%TO.N,Net-(U7-~{BSTB})*%
X66900000Y-48360000D03*
%TO.P,U7,20,ARDY_20*%
%TO.N,unconnected-(U7-ARDY-Pad20)*%
X64360000Y-48360000D03*
%TO.P,U7,21,D_{0}_21*%
%TO.N,/D0*%
X64360000Y-63600000D03*
%TO.P,U7,22,D_{1}_22*%
%TO.N,/D1*%
X66900000Y-63600000D03*
%TO.P,U7,23,BRDY_23*%
%TO.N,unconnected-(U7-BRDY-Pad23)*%
X69440000Y-63600000D03*
%TO.P,U7,24,NC_24*%
%TO.N,unconnected-(U7-NC-Pad24)*%
X71980000Y-63600000D03*
%TO.P,U7,25,NC_25*%
%TO.N,unconnected-(U7-NC-Pad25)*%
X74520000Y-63600000D03*
%TO.P,U7,26,IEO_26*%
%TO.N,unconnected-(U7-IEO-Pad26)*%
X77060000Y-63600000D03*
%TO.P,U7,27,~{INT}_27*%
%TO.N,/~{INT}*%
X79600000Y-63600000D03*
%TO.P,U7,28,IEI_28*%
%TO.N,/PIO1IE0*%
X82140000Y-63600000D03*
%TO.P,U7,29,CLK_29*%
%TO.N,/~{CLK}*%
X84680000Y-63600000D03*
%TO.P,U7,30,V_{CC}_30*%
%TO.N,/VCC*%
X87220000Y-63600000D03*
%TO.P,U7,31,PB_{0}_31*%
%TO.N,/SW1*%
X89760000Y-63600000D03*
%TO.P,U7,32,PB_{1}_32*%
%TO.N,/SW2*%
X92300000Y-63600000D03*
%TO.P,U7,33,PB_{2}_33*%
%TO.N,/SW3*%
X94840000Y-63600000D03*
%TO.P,U7,34,PB_{3}_34*%
%TO.N,/SW4*%
X97380000Y-63600000D03*
%TO.P,U7,35,PB_{4}_35*%
%TO.N,/SW5*%
X99920000Y-63600000D03*
%TO.P,U7,36,PB_{5}_36*%
%TO.N,/SW6*%
X102460000Y-63600000D03*
%TO.P,U7,37,PB_{6}_37*%
%TO.N,unconnected-(U7-PB_{6}-Pad37)*%
X105000000Y-63600000D03*
%TO.P,U7,38,PB_{7}_38*%
%TO.N,unconnected-(U7-PB_{7}-Pad38)*%
X107540000Y-63600000D03*
%TO.P,U7,39,~{RD}_39*%
%TO.N,/~{RD}*%
X110080000Y-63600000D03*
%TO.P,U7,40,~{IORQ}_40*%
%TO.N,/~{IORQ}*%
X112620000Y-63600000D03*
%TD*%
D31*
%TO.P,U4,1,VSS_1*%
%TO.N,/GND*%
X39130000Y-7020000D03*
D21*
%TO.P,U4,2,Rx_Data_2*%
%TO.N,/CH340C_Tx*%
X41670000Y-7020000D03*
%TO.P,U4,3,Rx_CLK_3*%
%TO.N,Net-(U4-Rx_CLK)*%
X44210000Y-7020000D03*
%TO.P,U4,4,Tx_CLK_4*%
X46750000Y-7020000D03*
%TO.P,U4,5,~{RTS}_5*%
%TO.N,unconnected-(U4-~{RTS}-Pad5)*%
X49290000Y-7020000D03*
%TO.P,U4,6,Tx_Data_6*%
%TO.N,/CH340C_Rx*%
X51830000Y-7020000D03*
%TO.P,U4,7,~{IRQ}_7*%
%TO.N,unconnected-(U4-~{IRQ}-Pad7)*%
X54370000Y-7020000D03*
%TO.P,U4,8,CS0_8*%
%TO.N,/VCC*%
X56910000Y-7020000D03*
%TO.P,U4,9,CS2_9*%
%TO.N,/GND*%
X59450000Y-7020000D03*
%TO.P,U4,10,CS1_10*%
%TO.N,/VCC*%
X61990000Y-7020000D03*
%TO.P,U4,11,RS_11*%
%TO.N,/6850_RS*%
X64530000Y-7020000D03*
%TO.P,U4,12,VCC_12*%
%TO.N,/VCC*%
X67070000Y-7020000D03*
%TO.P,U4,13,R/~{W}_13*%
%TO.N,/6850_RW*%
X67070000Y8220000D03*
%TO.P,U4,14,E_14*%
%TO.N,/6850_E*%
X64530000Y8220000D03*
%TO.P,U4,15,D7_15*%
%TO.N,/6850_D7*%
X61990000Y8220000D03*
%TO.P,U4,16,D6_16*%
%TO.N,/6850_D6*%
X59450000Y8220000D03*
%TO.P,U4,17,D5_17*%
%TO.N,/6850_D5*%
X56910000Y8220000D03*
%TO.P,U4,18,D4_18*%
%TO.N,/6850_D4*%
X54370000Y8220000D03*
%TO.P,U4,19,D3_19*%
%TO.N,/6850_D3*%
X51830000Y8220000D03*
%TO.P,U4,20,D2_20*%
%TO.N,/6850_D2*%
X49290000Y8220000D03*
%TO.P,U4,21,D1_21*%
%TO.N,/6850_D1*%
X46750000Y8220000D03*
%TO.P,U4,22,D0_22*%
%TO.N,/6850_D0*%
X44210000Y8220000D03*
%TO.P,U4,23,~{DCD}_23*%
%TO.N,/GND*%
X41670000Y8220000D03*
%TO.P,U4,24,~{CTS}_24*%
X39130000Y8220000D03*
%TD*%
D32*
%TO.P,U1,1,A_{11}_1*%
%TO.N,/A11*%
X46180000Y-9730000D03*
D21*
%TO.P,U1,2,A_{12}_2*%
%TO.N,/A12*%
X46180000Y-12270000D03*
%TO.P,U1,3,A_{13}_3*%
%TO.N,/A13*%
X46180000Y-14810000D03*
%TO.P,U1,4,A_{14}_4*%
%TO.N,/A14*%
X46180000Y-17350000D03*
%TO.P,U1,5,A_{15}_5*%
%TO.N,/A15*%
X46180000Y-19890000D03*
%TO.P,U1,6,NC_6*%
%TO.N,unconnected-(U1-NC-Pad6)*%
X46180000Y-22430000D03*
%TO.P,U1,7,~{CLK}_7*%
%TO.N,/~{CLK}*%
X46180000Y-24970000D03*
%TO.P,U1,8,D_{4}_8*%
%TO.N,/D4*%
X46180000Y-27510000D03*
%TO.P,U1,9,D_{3}_9*%
%TO.N,/D3*%
X46180000Y-30050000D03*
%TO.P,U1,10,D_{5}_10*%
%TO.N,/D5*%
X46180000Y-32590000D03*
%TO.P,U1,11,D_{6}_11*%
%TO.N,/D6*%
X46180000Y-35130000D03*
%TO.P,U1,12,NC_12*%
%TO.N,unconnected-(U1-NC-Pad12)*%
X46180000Y-37670000D03*
%TO.P,U1,13,V_{CC}_13*%
%TO.N,/VCC*%
X46180000Y-40210000D03*
%TO.P,U1,14,D_{2}_14*%
%TO.N,/D2*%
X46180000Y-42750000D03*
%TO.P,U1,15,D_{7}_15*%
%TO.N,/D7*%
X46180000Y-45290000D03*
%TO.P,U1,16,D_{0}_16*%
%TO.N,/D0*%
X46180000Y-47830000D03*
%TO.P,U1,17,D_{1}_17*%
%TO.N,/D1*%
X46180000Y-50370000D03*
%TO.P,U1,18,~{INT}_18*%
%TO.N,/~{INT}*%
X46180000Y-52910000D03*
%TO.P,U1,19,~{NMI}_19*%
%TO.N,/~{NMI}*%
X46180000Y-55450000D03*
%TO.P,U1,20,~{HALT}_20*%
%TO.N,/~{HALT}*%
X46180000Y-57990000D03*
%TO.P,U1,21,~{MREQ}_21*%
%TO.N,/~{MREQ}*%
X61420000Y-57990000D03*
%TO.P,U1,22,~{IORQ}_22*%
%TO.N,/~{IORQ}*%
X61420000Y-55450000D03*
%TO.P,U1,23,~{RD}_23*%
%TO.N,/~{RD}*%
X61420000Y-52910000D03*
%TO.P,U1,24,NC_24*%
%TO.N,unconnected-(U1-NC-Pad24)*%
X61420000Y-50370000D03*
%TO.P,U1,25,NC_25*%
%TO.N,unconnected-(U1-NC-Pad25)*%
X61420000Y-47830000D03*
%TO.P,U1,26,~{WR}_26*%
%TO.N,/~{WR}*%
X61420000Y-45290000D03*
%TO.P,U1,27,~{BUSACK}_27*%
%TO.N,/~{BUSACK}*%
X61420000Y-42750000D03*
%TO.P,U1,28,~{WAIT}_28*%
%TO.N,/~{WAIT}*%
X61420000Y-40210000D03*
%TO.P,U1,29,~{BUSREQ}_29*%
%TO.N,/~{BUSREQ}*%
X61420000Y-37670000D03*
%TO.P,U1,30,~{RESET}_30*%
%TO.N,/~{RESET}*%
X61420000Y-35130000D03*
%TO.P,U1,31,~{M1}_31*%
%TO.N,/~{M1}*%
X61420000Y-32590000D03*
%TO.P,U1,32,~{RFSH}_32*%
%TO.N,/~{RFSH}*%
X61420000Y-30050000D03*
%TO.P,U1,33,GND_33*%
%TO.N,/GND*%
X61420000Y-27510000D03*
%TO.P,U1,34,A_{0}_34*%
%TO.N,/A0*%
X61420000Y-24970000D03*
%TO.P,U1,35,A_{1}_35*%
%TO.N,/A1*%
X61420000Y-22430000D03*
%TO.P,U1,36,A_{2}_36*%
%TO.N,/A2*%
X61420000Y-19890000D03*
%TO.P,U1,37,A_{3}_37*%
%TO.N,/A3*%
X61420000Y-17350000D03*
%TO.P,U1,38,A_{4}_38*%
%TO.N,/A4*%
X61420000Y-14810000D03*
%TO.P,U1,39,A_{5}_39*%
%TO.N,/A5*%
X61420000Y-12270000D03*
%TO.P,U1,40,A_{6}_40*%
%TO.N,/A6*%
X61420000Y-9730000D03*
%TD*%
D33*
%TO.P,C3,1*%
%TO.N,/GND*%
X70200000Y7162500D03*
%TO.P,C3,2*%
%TO.N,/VCC*%
X70200000Y4037500D03*
%TD*%
D34*
%TO.P,U10,1*%
%TO.N,/~{MREQ}*%
X87575000Y7820000D03*
%TO.P,U10,2*%
%TO.N,/A15*%
X86925000Y7820000D03*
%TO.P,U10,3*%
%TO.N,/SRAM_CS*%
X86275000Y7820000D03*
%TO.P,U10,4,GND_4*%
%TO.N,/GND*%
X85625000Y7820000D03*
%TO.P,U10,5*%
%TO.N,/~{MREQ}*%
X85625000Y3520000D03*
%TO.P,U10,6*%
%TO.N,Net-(U10-Pad6)*%
X86275000Y3520000D03*
%TO.P,U10,7*%
%TO.N,/EEPROM_CS*%
X86925000Y3520000D03*
%TO.P,U10,8,VCC_8*%
%TO.N,/VCC*%
X87575000Y3520000D03*
%TD*%
D18*
%TO.P,SW3,1,1_1*%
%TO.N,/VCC*%
X77375000Y-67100000D03*
X83875000Y-67100000D03*
%TO.P,SW3,2,2_2*%
%TO.N,/SW4*%
X77375000Y-71600000D03*
X83875000Y-71600000D03*
%TD*%
D30*
%TO.P,U6,1,D_{2}_1*%
%TO.N,/D2*%
X84000000Y26440000D03*
D21*
%TO.P,U6,2,D_{7}_2*%
%TO.N,/D7*%
X81460000Y26440000D03*
%TO.P,U6,3,D_{6}_3*%
%TO.N,/D6*%
X78920000Y26440000D03*
%TO.P,U6,4,~{CE}_4*%
%TO.N,/A2*%
X76380000Y26440000D03*
%TO.P,U6,5,C/~{D}_5*%
%TO.N,/A1*%
X73840000Y26440000D03*
%TO.P,U6,6,NC_6*%
%TO.N,unconnected-(U6-NC-Pad6)*%
X71300000Y26440000D03*
%TO.P,U6,7,B/~{A}_7*%
%TO.N,/A0*%
X68760000Y26440000D03*
%TO.P,U6,8,PA_{7}_8*%
%TO.N,/6850_D7*%
X66220000Y26440000D03*
%TO.P,U6,9,PA_{6}_9*%
%TO.N,/6850_D6*%
X63680000Y26440000D03*
%TO.P,U6,10,PA_{5}_10*%
%TO.N,/6850_D5*%
X61140000Y26440000D03*
%TO.P,U6,11,PA_{4}_11*%
%TO.N,/6850_D4*%
X58600000Y26440000D03*
%TO.P,U6,12,NC_12*%
%TO.N,unconnected-(U6-NC-Pad12)*%
X56060000Y26440000D03*
%TO.P,U6,13,GND_13*%
%TO.N,/GND*%
X53520000Y26440000D03*
%TO.P,U6,14,PA_{3}_14*%
%TO.N,/6850_D3*%
X50980000Y26440000D03*
%TO.P,U6,15,PA_{2}_15*%
%TO.N,/6850_D2*%
X48440000Y26440000D03*
%TO.P,U6,16,PA_{1}_16*%
%TO.N,/6850_D1*%
X45900000Y26440000D03*
%TO.P,U6,17,PA_{0}_17*%
%TO.N,/6850_D0*%
X43360000Y26440000D03*
%TO.P,U6,18,~{ASTB}_18*%
%TO.N,Net-(U6-~{ASTB})*%
X40820000Y26440000D03*
%TO.P,U6,19,~{BSTB}_19*%
%TO.N,Net-(U6-~{BSTB})*%
X38280000Y26440000D03*
%TO.P,U6,20,ARDY_20*%
%TO.N,unconnected-(U6-ARDY-Pad20)*%
X35740000Y26440000D03*
%TO.P,U6,21,D_{0}_21*%
%TO.N,/D0*%
X35740000Y11200000D03*
%TO.P,U6,22,D_{1}_22*%
%TO.N,/D1*%
X38280000Y11200000D03*
%TO.P,U6,23,BRDY_23*%
%TO.N,unconnected-(U6-BRDY-Pad23)*%
X40820000Y11200000D03*
%TO.P,U6,24,NC_24*%
%TO.N,unconnected-(U6-NC-Pad24)*%
X43360000Y11200000D03*
%TO.P,U6,25,NC_25*%
%TO.N,unconnected-(U6-NC-Pad25)*%
X45900000Y11200000D03*
%TO.P,U6,26,IEO_26*%
%TO.N,/PIO1IE0*%
X48440000Y11200000D03*
%TO.P,U6,27,~{INT}_27*%
%TO.N,/~{INT}*%
X50980000Y11200000D03*
%TO.P,U6,28,IEI_28*%
%TO.N,/VCC*%
X53520000Y11200000D03*
%TO.P,U6,29,CLK_29*%
%TO.N,/~{CLK}*%
X56060000Y11200000D03*
%TO.P,U6,30,V_{CC}_30*%
%TO.N,/VCC*%
X58600000Y11200000D03*
%TO.P,U6,31,PB_{0}_31*%
%TO.N,/1602_D4*%
X61140000Y11200000D03*
%TO.P,U6,32,PB_{1}_32*%
%TO.N,/1602_D5*%
X63680000Y11200000D03*
%TO.P,U6,33,PB_{2}_33*%
%TO.N,/1602_D6*%
X66220000Y11200000D03*
%TO.P,U6,34,PB_{3}_34*%
%TO.N,/1602_D7*%
X68760000Y11200000D03*
%TO.P,U6,35,PB_{4}_35*%
%TO.N,/1602_RS*%
X71300000Y11200000D03*
%TO.P,U6,36,PB_{5}_36*%
%TO.N,/1602_E*%
X73840000Y11200000D03*
%TO.P,U6,37,PB_{6}_37*%
%TO.N,unconnected-(U6-PB_{6}-Pad37)*%
X76380000Y11200000D03*
%TO.P,U6,38,PB_{7}_38*%
%TO.N,unconnected-(U6-PB_{7}-Pad38)*%
X78920000Y11200000D03*
%TO.P,U6,39,~{RD}_39*%
%TO.N,/~{RD}*%
X81460000Y11200000D03*
%TO.P,U6,40,~{IORQ}_40*%
%TO.N,/~{IORQ}*%
X84000000Y11200000D03*
%TD*%
D35*
%TO.P,U3,1,A14_1*%
%TO.N,/A14*%
X102940000Y-17040000D03*
D36*
%TO.P,U3,2,A12_2*%
%TO.N,/A12*%
X100400000Y-17040000D03*
%TO.P,U3,3,A7_3*%
%TO.N,/A7*%
X97860000Y-17040000D03*
%TO.P,U3,4,A6_4*%
%TO.N,/A6*%
X95320000Y-17040000D03*
%TO.P,U3,5,A5_5*%
%TO.N,/A5*%
X92780000Y-17040000D03*
%TO.P,U3,6,A4_6*%
%TO.N,/A4*%
X90240000Y-17040000D03*
%TO.P,U3,7,A3_7*%
%TO.N,/A3*%
X87700000Y-17040000D03*
%TO.P,U3,8,A2_8*%
%TO.N,/A2*%
X85160000Y-17040000D03*
%TO.P,U3,9,A1_9*%
%TO.N,/A1*%
X82620000Y-17040000D03*
%TO.P,U3,10,A0_10*%
%TO.N,/A0*%
X80080000Y-17040000D03*
%TO.P,U3,11,Q0_11*%
%TO.N,/D0*%
X77540000Y-17040000D03*
%TO.P,U3,12,Q1_12*%
%TO.N,/D1*%
X75000000Y-17040000D03*
%TO.P,U3,13,Q2_13*%
%TO.N,/D2*%
X72460000Y-17040000D03*
%TO.P,U3,14,GND_14*%
%TO.N,/GND*%
X69920000Y-17040000D03*
%TO.P,U3,15,Q3_15*%
%TO.N,/D3*%
X69920000Y-1800000D03*
%TO.P,U3,16,Q4_16*%
%TO.N,/D4*%
X72460000Y-1800000D03*
%TO.P,U3,17,Q5_17*%
%TO.N,/D5*%
X75000000Y-1800000D03*
%TO.P,U3,18,Q6_18*%
%TO.N,/D6*%
X77540000Y-1800000D03*
%TO.P,U3,19,Q7_19*%
%TO.N,/D7*%
X80080000Y-1800000D03*
%TO.P,U3,20,~{CS}_20*%
%TO.N,/SRAM_CS*%
X82620000Y-1800000D03*
%TO.P,U3,21,A10_21*%
%TO.N,/A10*%
X85160000Y-1800000D03*
%TO.P,U3,22,~{OE}_22*%
%TO.N,/~{RD}*%
X87700000Y-1800000D03*
%TO.P,U3,23,A11_23*%
%TO.N,/A11*%
X90240000Y-1800000D03*
%TO.P,U3,24,A9_24*%
%TO.N,/A9*%
X92780000Y-1800000D03*
%TO.P,U3,25,A8_25*%
%TO.N,/A8*%
X95320000Y-1800000D03*
%TO.P,U3,26,A13_26*%
%TO.N,/A13*%
X97860000Y-1800000D03*
%TO.P,U3,27,~{WE}_27*%
%TO.N,/~{WR}*%
X100400000Y-1800000D03*
%TO.P,U3,28,VCC_28*%
%TO.N,/VCC*%
X102940000Y-1800000D03*
%TD*%
D35*
%TO.P,U2,1,A14_1*%
%TO.N,/A14*%
X102940000Y-42000000D03*
D36*
%TO.P,U2,2,A12_2*%
%TO.N,/A12*%
X100400000Y-42000000D03*
%TO.P,U2,3,A7_3*%
%TO.N,/A7*%
X97860000Y-42000000D03*
%TO.P,U2,4,A6_4*%
%TO.N,/A6*%
X95320000Y-42000000D03*
%TO.P,U2,5,A5_5*%
%TO.N,/A5*%
X92780000Y-42000000D03*
%TO.P,U2,6,A4_6*%
%TO.N,/A4*%
X90240000Y-42000000D03*
%TO.P,U2,7,A3_7*%
%TO.N,/A3*%
X87700000Y-42000000D03*
%TO.P,U2,8,A2_8*%
%TO.N,/A2*%
X85160000Y-42000000D03*
%TO.P,U2,9,A1_9*%
%TO.N,/A1*%
X82620000Y-42000000D03*
%TO.P,U2,10,A0_10*%
%TO.N,/A0*%
X80080000Y-42000000D03*
%TO.P,U2,11,D0_11*%
%TO.N,/D0*%
X77540000Y-42000000D03*
%TO.P,U2,12,D1_12*%
%TO.N,/D1*%
X75000000Y-42000000D03*
%TO.P,U2,13,D2_13*%
%TO.N,/D2*%
X72460000Y-42000000D03*
%TO.P,U2,14,GND_14*%
%TO.N,/GND*%
X69920000Y-42000000D03*
%TO.P,U2,15,D3_15*%
%TO.N,/D3*%
X69920000Y-26760000D03*
%TO.P,U2,16,D4_16*%
%TO.N,/D4*%
X72460000Y-26760000D03*
%TO.P,U2,17,D5_17*%
%TO.N,/D5*%
X75000000Y-26760000D03*
%TO.P,U2,18,D6_18*%
%TO.N,/D6*%
X77540000Y-26760000D03*
%TO.P,U2,19,D7_19*%
%TO.N,/D7*%
X80080000Y-26760000D03*
%TO.P,U2,20,~{CS}_20*%
%TO.N,/EEPROM_CS*%
X82620000Y-26760000D03*
%TO.P,U2,21,A10_21*%
%TO.N,/A10*%
X85160000Y-26760000D03*
%TO.P,U2,22,~{OE}_22*%
%TO.N,/~{RD}*%
X87700000Y-26760000D03*
%TO.P,U2,23,A11_23*%
%TO.N,/A11*%
X90240000Y-26760000D03*
%TO.P,U2,24,A9_24*%
%TO.N,/A9*%
X92780000Y-26760000D03*
%TO.P,U2,25,A8_25*%
%TO.N,/A8*%
X95320000Y-26760000D03*
%TO.P,U2,26,A13_26*%
%TO.N,/A13*%
X97860000Y-26760000D03*
%TO.P,U2,27,~{WE}_27*%
%TO.N,/~{WR}*%
X100400000Y-26760000D03*
%TO.P,U2,28,VCC_28*%
%TO.N,/VCC*%
X102940000Y-26760000D03*
%TD*%
D37*
%TO.N,/GND*%
X89880000Y13100000D03*
X84800000Y8020000D03*
X59400000Y1400000D03*
X69924265Y-46324265D03*
X70940000Y-28400000D03*
X54400000Y-60800000D03*
%TO.N,/VCC*%
X102000000Y-7000000D03*
X42550000Y-39710000D03*
X41080000Y-25000000D03*
X41080000Y-29800000D03*
%TO.N,/~{CLK}*%
X63800000Y-40000000D03*
X48400000Y-24200000D03*
X75000000Y-43600000D03*
%TO.N,Net-(U4-Rx_CLK)*%
X50600000Y-7800000D03*
%TO.N,/J1*%
X39600000Y-65200000D03*
X67200000Y-62147917D03*
%TO.N,/J2*%
X39600000Y-69200000D03*
X68747919Y-61547917D03*
%TO.N,/J3*%
X69530148Y-60765685D03*
X39600000Y-73200000D03*
%TO.N,/J4*%
X54600000Y-65200000D03*
X70095837Y-60200000D03*
%TO.N,/J5*%
X54600000Y-69200000D03*
X59171014Y-66500000D03*
%TO.N,/A15*%
X81800000Y-18940000D03*
%TO.N,/D2*%
X112800000Y-40800000D03*
X74487047Y-413076D03*
X84000000Y17490000D03*
X73480000Y-37000000D03*
%TO.N,/D7*%
X110131672Y-37800000D03*
X80400000Y8800000D03*
X79000000Y-44000000D03*
X79160000Y-37800000D03*
%TO.N,/D6*%
X77600000Y7800000D03*
X77600000Y-33800000D03*
X107600000Y-37200000D03*
%TO.N,/A3*%
X88720000Y-32400000D03*
X104824265Y-33575735D03*
%TO.N,/A1*%
X82400000Y-22400000D03*
X83640000Y-40400000D03*
X102020000Y-40400000D03*
X82600000Y-4600000D03*
%TO.N,/A0*%
X97396499Y-43408525D03*
X81100000Y-25000000D03*
%TO.N,/6850_E*%
X94800000Y-39600000D03*
X97936984Y-5136984D03*
X98000000Y-10570000D03*
%TO.N,/6850_RW*%
X67000000Y-29600000D03*
X89400000Y-31200000D03*
X65800000Y-3200000D03*
%TO.N,/6850_RS*%
X68600000Y-46800000D03*
%TO.N,/D0*%
X73800000Y0D03*
X77600000Y-4200000D03*
%TO.N,/~{RD}*%
X85800000Y-45890000D03*
X95600000Y3200000D03*
%TO.N,/A11*%
X89220000Y-8400000D03*
%TO.N,/A12*%
X100400000Y-11200000D03*
%TO.N,/A13*%
X96840000Y-13600000D03*
%TO.N,/D3*%
X70000000Y-29000000D03*
%TO.N,/D5*%
X75000000Y-31400000D03*
%TO.N,/~{MREQ}*%
X85075735Y4875735D03*
X87600000Y6600000D03*
%TO.N,/~{WR}*%
X99200000Y-45200000D03*
%TO.N,/A2*%
X85200000Y-20000000D03*
X85200000Y-3800000D03*
%TO.N,/A4*%
X90200000Y-15000000D03*
%TO.N,/A5*%
X92800000Y-12400000D03*
%TO.N,/A6*%
X95400000Y-9800000D03*
%TO.N,/EEPROM_CS*%
X82800000Y-19000000D03*
X81800000Y-14210000D03*
%TD*%
%TO.N,Net-(J2-CC1)*%
D38*
X40406905Y-26150000D02*
X38400000Y-28156905D01*
X38400000Y-28156905D02*
X38400000Y-35050000D01*
X41080000Y-26150000D02*
X40406905Y-26150000D01*
%TO.N,/GND*%
X70432500Y6930000D02*
X70200000Y7162500D01*
X78940000Y8020000D02*
X78800000Y7880000D01*
X70940000Y-1097502D02*
X70940000Y-16020000D01*
X41080000Y-23655000D02*
X40505000Y-23080000D01*
X53520000Y26440000D02*
X52000000Y27960000D01*
X36325000Y-31720000D02*
X36325000Y-23080000D01*
X36325000Y-36075000D02*
X36325000Y-31720000D01*
X70940000Y-28400000D02*
X70940000Y-40980000D01*
X79800000Y34300000D02*
X79800000Y30540256D01*
X87320000Y25710000D02*
X83030000Y30000000D01*
X54400000Y-60800000D02*
X55800000Y-60800000D01*
X38750000Y-44150000D02*
X38750000Y-50650000D01*
X78800000Y7880000D02*
X78800000Y6930000D01*
X80340256Y30000000D02*
X83030000Y30000000D01*
X36325000Y-9825000D02*
X36325000Y-23080000D01*
X89880000Y23010000D02*
X89880000Y13100000D01*
X52000000Y27960000D02*
X52000000Y34440000D01*
X57230000Y-4800000D02*
X41350000Y-4800000D01*
X40505000Y-23080000D02*
X36325000Y-23080000D01*
X43600000Y36200000D02*
X42000000Y34600000D01*
X79800000Y30540256D02*
X80340256Y30000000D01*
X69920000Y-42000000D02*
X69920000Y-46320000D01*
X69920000Y-46320000D02*
X69924265Y-46324265D01*
X59450000Y-7020000D02*
X65970000Y-500000D01*
X41670000Y8220000D02*
X39130000Y8220000D01*
X40505000Y-31720000D02*
X40505000Y-31175000D01*
X41080000Y-24200000D02*
X41080000Y-23655000D01*
X64437500Y1400000D02*
X59400000Y1400000D01*
X39130000Y-7020000D02*
X36325000Y-9825000D01*
X70940000Y-16020000D02*
X69920000Y-17040000D01*
X85425000Y8020000D02*
X84800000Y8020000D01*
X59450000Y-7020000D02*
X57230000Y-4800000D01*
X69920000Y-17040000D02*
X70940000Y-18060000D01*
X50560000Y36200000D02*
X43600000Y36200000D01*
X85625000Y7820000D02*
X85425000Y8020000D01*
X70940000Y-40980000D02*
X69920000Y-42000000D01*
X80100000Y34600000D02*
X79800000Y34300000D01*
X84800000Y8020000D02*
X78940000Y8020000D01*
X92580000Y25710000D02*
X89880000Y23010000D01*
X52000000Y34440000D02*
X52160000Y34600000D01*
X38400000Y-38150000D02*
X40800000Y-38150000D01*
X38750000Y-44150000D02*
X38750000Y-38500000D01*
X38400000Y-38150000D02*
X36325000Y-36075000D01*
X41350000Y-4800000D02*
X39130000Y-7020000D01*
X38750000Y-38500000D02*
X38400000Y-38150000D01*
X92580000Y25710000D02*
X87320000Y25710000D01*
X70200000Y7162500D02*
X64437500Y1400000D01*
X70940000Y-18060000D02*
X70940000Y-28400000D01*
X65970000Y-500000D02*
X70342498Y-500000D01*
X78800000Y6930000D02*
X70432500Y6930000D01*
X40505000Y-31175000D02*
X41080000Y-30600000D01*
X70342498Y-500000D02*
X70940000Y-1097502D01*
X52160000Y34600000D02*
X50560000Y36200000D01*
%TO.N,/VCC*%
X40800000Y33000000D02*
X40800000Y36200000D01*
X82030000Y6200000D02*
X85363456Y6200000D01*
X52675000Y-60800000D02*
X47050000Y-60800000D01*
X41955000Y-24699999D02*
X41654999Y-25000000D01*
X38237500Y-20800000D02*
X38237500Y-19032500D01*
X38237500Y-20800000D02*
X39717500Y-22280000D01*
X83875000Y-67100000D02*
X77375000Y-67100000D01*
X39034744Y-9000000D02*
X37764448Y-9000000D01*
X88435000Y4380000D02*
X92580000Y4380000D01*
X60550000Y7764365D02*
X59905635Y7120000D01*
X47050000Y-60800000D02*
X43200000Y-56950000D01*
X46180000Y-40210000D02*
X43890000Y-40210000D01*
X44540000Y34340000D02*
X43200000Y33000000D01*
X78000000Y5320000D02*
X79600000Y5320000D01*
X56910000Y-7020000D02*
X55290000Y-5400000D01*
X55865000Y-63990000D02*
X52675000Y-60800000D01*
X40230000Y-7804744D02*
X39034744Y-9000000D01*
X80750000Y31400000D02*
X86630000Y31400000D01*
X101920000Y-2820000D02*
X102940000Y-1800000D01*
X43200000Y33000000D02*
X40800000Y33000000D01*
X44540000Y34600000D02*
X44540000Y34340000D01*
X55810000Y7764365D02*
X55810000Y8754314D01*
X41654999Y-25000000D02*
X41080000Y-25000000D01*
X41955000Y-22848629D02*
X41955000Y-24699999D01*
X79600000Y4220000D02*
X80100000Y3720000D01*
X74050000Y-67100000D02*
X67550000Y-67100000D01*
X38237500Y-19032500D02*
X38600000Y-18670000D01*
X70200000Y4037500D02*
X71017500Y3220000D01*
X38070000Y-18670000D02*
X38600000Y-18670000D01*
X41386371Y-22280000D02*
X41955000Y-22848629D01*
X59000000Y-63990000D02*
X59000000Y-65810000D01*
X37764448Y-9000000D02*
X37325000Y-9439448D01*
X87150000Y-67100000D02*
X87150000Y-63670000D01*
X79397056Y37400000D02*
X81300000Y35497056D01*
X53520000Y11044314D02*
X53520000Y11200000D01*
X44540000Y34200000D02*
X42090000Y31750000D01*
X92600000Y12000000D02*
X98690000Y18090000D01*
X58600000Y11200000D02*
X58600000Y10625635D01*
X87150000Y-63670000D02*
X87220000Y-63600000D01*
X77348184Y3220000D02*
X78000000Y3871816D01*
X40230000Y-6485686D02*
X40230000Y-7804744D01*
X107820000Y18090000D02*
X107820000Y25710000D01*
X58600000Y10625635D02*
X60550000Y8675635D01*
X81300000Y35497056D02*
X81300000Y31950000D01*
X102000000Y-7000000D02*
X101920000Y-7080000D01*
X59000000Y-65810000D02*
X57710000Y-67100000D01*
X41950000Y-55700000D02*
X41950000Y-42150000D01*
X43500000Y-40600000D02*
X43440000Y-40600000D01*
X85363456Y6200000D02*
X87575000Y3988456D01*
X96975000Y-67100000D02*
X103475000Y-67100000D01*
X41950000Y-42150000D02*
X43500000Y-40600000D01*
X81300000Y31950000D02*
X80750000Y31400000D01*
X80100000Y3720000D02*
X80100000Y4270000D01*
X54600000Y-73200000D02*
X54600000Y-72871522D01*
X101920000Y-25740000D02*
X101920000Y-7080000D01*
X60890000Y-8120000D02*
X61990000Y-7020000D01*
X40800000Y36200000D02*
X42000000Y37400000D01*
X87575000Y3520000D02*
X88435000Y4380000D01*
X44540000Y34600000D02*
X44540000Y34200000D01*
X43440000Y-40600000D02*
X42550000Y-39710000D01*
X87150000Y-67100000D02*
X93650000Y-67100000D01*
X86630000Y31400000D02*
X88030000Y30000000D01*
X103530000Y30000000D02*
X88030000Y30000000D01*
X59905635Y7120000D02*
X56454365Y7120000D01*
X55290000Y-5400000D02*
X41315686Y-5400000D01*
X55810000Y8754314D02*
X53520000Y11044314D01*
X98690000Y18090000D02*
X107820000Y18090000D01*
X37325000Y-17925000D02*
X38070000Y-18670000D01*
X59000000Y-63990000D02*
X55865000Y-63990000D01*
X71017500Y3220000D02*
X77348184Y3220000D01*
X37325000Y-9439448D02*
X37325000Y-17925000D01*
X60550000Y8675635D02*
X60550000Y7764365D01*
X57710000Y-69761522D02*
X57710000Y-67100000D01*
X107820000Y25710000D02*
X103530000Y30000000D01*
X41315686Y-5400000D02*
X40230000Y-6485686D01*
X42000000Y37400000D02*
X79397056Y37400000D01*
X87575000Y3988456D02*
X87575000Y3520000D01*
X113300000Y-67100000D02*
X57710000Y-67100000D01*
X101920000Y-7080000D02*
X101920000Y-2820000D01*
X79600000Y5320000D02*
X79600000Y4220000D01*
X78000000Y3871816D02*
X78000000Y5320000D01*
X57710000Y-67100000D02*
X64210000Y-67100000D01*
X42090000Y31750000D02*
X38200000Y31750000D01*
X61400000Y-63990000D02*
X59000000Y-63990000D01*
X102940000Y-26760000D02*
X101920000Y-25740000D01*
X56910000Y-7020000D02*
X58010000Y-8120000D01*
X92580000Y12000000D02*
X92600000Y12000000D01*
X54600000Y-72871522D02*
X57710000Y-69761522D01*
X80100000Y4270000D02*
X82030000Y6200000D01*
X106800000Y-67100000D02*
X113300000Y-67100000D01*
X56454365Y7120000D02*
X55810000Y7764365D01*
X58010000Y-8120000D02*
X60890000Y-8120000D01*
X43890000Y-40210000D02*
X43500000Y-40600000D01*
X43200000Y-56950000D02*
X41950000Y-55700000D01*
X39717500Y-22280000D02*
X41386371Y-22280000D01*
%TO.N,/1602_RS*%
X44674365Y6200000D02*
X61525635Y6200000D01*
X41685635Y10100000D02*
X43110000Y8675635D01*
X49620000Y34600000D02*
X42260000Y27240000D01*
X70200000Y10100000D02*
X71300000Y11200000D01*
X39720000Y10744365D02*
X40364365Y10100000D01*
X43110000Y7764365D02*
X44674365Y6200000D01*
X43110000Y8675635D02*
X43110000Y7764365D01*
X40364365Y10100000D02*
X41685635Y10100000D01*
X63090000Y7764365D02*
X63090000Y8675635D01*
X64514365Y10100000D02*
X70200000Y10100000D01*
X42260000Y27240000D02*
X42260000Y25984365D01*
X42260000Y25984365D02*
X39720000Y23444365D01*
X63090000Y8675635D02*
X64514365Y10100000D01*
X39720000Y23444365D02*
X39720000Y10744365D01*
X61525635Y6200000D02*
X63090000Y7764365D01*
%TO.N,/1602_E*%
X76220000Y28155635D02*
X77480000Y26895635D01*
X76220000Y35497056D02*
X76220000Y28155635D01*
X77480000Y26895635D02*
X77480000Y14840000D01*
X77480000Y14840000D02*
X73840000Y11200000D01*
X57100000Y37000000D02*
X74717056Y37000000D01*
X54700000Y34600000D02*
X57100000Y37000000D01*
X74717056Y37000000D02*
X76220000Y35497056D01*
%TO.N,/1602_D4*%
X67400000Y34600000D02*
X67400000Y17460000D01*
X67400000Y17460000D02*
X61140000Y11200000D01*
%TO.N,/1602_D5*%
X69940000Y17460000D02*
X69940000Y34600000D01*
X63680000Y11200000D02*
X69940000Y17460000D01*
%TO.N,/1602_D6*%
X72480000Y34600000D02*
X72480000Y17460000D01*
X72480000Y17460000D02*
X66220000Y11200000D01*
%TO.N,/1602_D7*%
X75020000Y17460000D02*
X68760000Y11200000D01*
X75020000Y34600000D02*
X75020000Y17460000D01*
%TO.N,Net-(DS1-LED(+))*%
X77560000Y34600000D02*
X77560000Y31490000D01*
X77560000Y31490000D02*
X77650000Y31400000D01*
%TO.N,Net-(U6-~{ASTB})*%
X40800000Y26460000D02*
X40820000Y26440000D01*
X40800000Y28650000D02*
X40800000Y26460000D01*
%TO.N,Net-(U5-GND)*%
X41362500Y-20800000D02*
X43800000Y-23237500D01*
X43800000Y-23237500D02*
X43800000Y-24162500D01*
X41420000Y-20800000D02*
X43550000Y-18670000D01*
X41362500Y-20800000D02*
X41420000Y-20800000D01*
%TO.N,Net-(U5-V3)*%
X43800000Y-21037500D02*
X44825000Y-20012500D01*
X43895552Y-14860000D02*
X43550000Y-14860000D01*
X44825000Y-20012500D02*
X44825000Y-15789448D01*
X44825000Y-15789448D02*
X43895552Y-14860000D01*
%TO.N,/SW1*%
X57710000Y-71600000D02*
X64210000Y-71600000D01*
%TO.N,/SW3*%
X87150000Y-71600000D02*
X93650000Y-71600000D01*
%TO.N,Net-(U7-~{BSTB})*%
X63790000Y-51470000D02*
X66900000Y-48360000D01*
X59000000Y-60890000D02*
X59000000Y-53600000D01*
X61130000Y-51470000D02*
X63790000Y-51470000D01*
X59000000Y-53600000D02*
X61130000Y-51470000D01*
%TO.N,/~{CLK}*%
X84680000Y-63600000D02*
X88320000Y-59960000D01*
X86905635Y-46490000D02*
X77890000Y-46490000D01*
X61535635Y-31150000D02*
X55350000Y-31150000D01*
X55350000Y-31150000D02*
X48400000Y-24200000D01*
X77890000Y-46490000D02*
X75000000Y-43600000D01*
X88320000Y-59960000D02*
X88320000Y-47904365D01*
X63800000Y-33414365D02*
X61535635Y-31150000D01*
X88320000Y-47904365D02*
X86905635Y-46490000D01*
X63800000Y-40000000D02*
X63800000Y-33414365D01*
%TO.N,/SW5*%
X96975000Y-71600000D02*
X103475000Y-71600000D01*
%TO.N,/~{INT}*%
X46180000Y-52910000D02*
X44140000Y-52910000D01*
X44140000Y-52910000D02*
X43200000Y-53850000D01*
%TO.N,Net-(J2-CC2)*%
X41955000Y-33895000D02*
X40800000Y-35050000D01*
X41080000Y-29150000D02*
X41645552Y-29150000D01*
X41645552Y-29150000D02*
X41955000Y-29459448D01*
X41955000Y-29459448D02*
X41955000Y-33895000D01*
%TO.N,/~{RESET}*%
X43250000Y-50650000D02*
X43250000Y-44150000D01*
X46972817Y-40972817D02*
X47280000Y-40665635D01*
X47280000Y-39754365D02*
X46635635Y-39110000D01*
X61420000Y-35130000D02*
X52815634Y-35130000D01*
X47280000Y-40665635D02*
X47280000Y-39754365D01*
X52815634Y-35130000D02*
X46972817Y-40972817D01*
X43250000Y-44150000D02*
X43250000Y-44060000D01*
X43250000Y-44060000D02*
X46000000Y-41310000D01*
X46000000Y-41310000D02*
X46635635Y-41310000D01*
X46635635Y-39110000D02*
X41890000Y-39110000D01*
X41890000Y-39110000D02*
X40400000Y-40600000D01*
X46635635Y-41310000D02*
X46972817Y-40972817D01*
%TO.N,Net-(U4-Rx_CLK)*%
X44210000Y-7020000D02*
X46750000Y-7020000D01*
X47850000Y-8120000D02*
X46750000Y-7020000D01*
X50280000Y-8120000D02*
X47850000Y-8120000D01*
X50600000Y-7800000D02*
X50280000Y-8120000D01*
%TO.N,/J1*%
X67200000Y-62147917D02*
X67690965Y-61656952D01*
X67690965Y-52649035D02*
X71980000Y-48360000D01*
X67690965Y-61656952D02*
X67690965Y-52649035D01*
%TO.N,/J2*%
X68747917Y-61547915D02*
X68747919Y-61547917D01*
X74520000Y-48360000D02*
X68747917Y-54132083D01*
X68747917Y-54132083D02*
X68747917Y-61547915D01*
%TO.N,/J3*%
X69495837Y-55924163D02*
X69495837Y-60731376D01*
X77060000Y-48360000D02*
X69495837Y-55924163D01*
X69495837Y-60731376D02*
X69530148Y-60765685D01*
%TO.N,/J4*%
X79600000Y-50600000D02*
X79600000Y-48360000D01*
X70095837Y-60200000D02*
X70095837Y-60104163D01*
X70095837Y-60104163D02*
X79600000Y-50600000D01*
%TO.N,/J5*%
X68340000Y-64660000D02*
X67200000Y-65800000D01*
X68984365Y-62500000D02*
X68400000Y-63084365D01*
X82340000Y-49460000D02*
X69300000Y-62500000D01*
X87220000Y-48360000D02*
X86120000Y-49460000D01*
X68400000Y-63084365D02*
X68340000Y-63144365D01*
X68340000Y-64055635D02*
X68340000Y-64660000D01*
X67200000Y-65800000D02*
X59871014Y-65800000D01*
X86120000Y-49460000D02*
X82340000Y-49460000D01*
X69300000Y-62500000D02*
X68984365Y-62500000D01*
X59871014Y-65800000D02*
X59171014Y-66500000D01*
X68340000Y-63144365D02*
X68340000Y-64055635D01*
%TO.N,Net-(U7-~{ASTB})*%
X63790000Y-54010000D02*
X61304365Y-54010000D01*
X69440000Y-48360000D02*
X63790000Y-54010000D01*
X60320000Y-59810000D02*
X61400000Y-60890000D01*
X61304365Y-54010000D02*
X60320000Y-54994365D01*
X60320000Y-54994365D02*
X60320000Y-59810000D01*
%TO.N,/SW6*%
X106800000Y-71600000D02*
X113300000Y-71600000D01*
%TO.N,/A15*%
X79600000Y5880000D02*
X80600000Y5880000D01*
X79450000Y6930000D02*
X79450000Y6030000D01*
X80600000Y6600000D02*
X86254999Y6600000D01*
X69000000Y3390256D02*
X69000000Y4684744D01*
X77182498Y2820000D02*
X69570256Y2820000D01*
X81800000Y-18940000D02*
X81800000Y-18194315D01*
X81100000Y-17494315D02*
X81100000Y-1097502D01*
X79450000Y6030000D02*
X79600000Y6180000D01*
X80600000Y5880000D02*
X80600000Y6600000D01*
X79600000Y6180000D02*
X79600000Y5880000D01*
X69570256Y2820000D02*
X69000000Y3390256D01*
X69000000Y4684744D02*
X70195256Y5880000D01*
X86254999Y6600000D02*
X86925000Y7270001D01*
X81100000Y-1097502D02*
X77182498Y2820000D01*
X79300000Y5880000D02*
X79450000Y6030000D01*
X86925000Y7270001D02*
X86925000Y7820000D01*
X81800000Y-18194315D02*
X81100000Y-17494315D01*
X70195256Y5880000D02*
X79300000Y5880000D01*
%TO.N,Net-(U10-Pad6)*%
X79300000Y3220000D02*
X78800000Y3720000D01*
X80600000Y3220000D02*
X79300000Y3220000D01*
X85000000Y5800000D02*
X82600000Y5800000D01*
X78800000Y3720000D02*
X78800000Y4270000D01*
X86275000Y4525000D02*
X85000000Y5800000D01*
X80600000Y3800000D02*
X80600000Y3220000D01*
X86275000Y3520000D02*
X86275000Y4525000D01*
X82600000Y5800000D02*
X80600000Y3800000D01*
%TO.N,Net-(U5-UD+)*%
X41955000Y-27417590D02*
X41955000Y-27882410D01*
X46635635Y-11170000D02*
X47680000Y-12214365D01*
X46417920Y-26287715D02*
X44087715Y-26287715D01*
X41955000Y-27882410D02*
X41687410Y-28150000D01*
X43225430Y-27150000D02*
X41080000Y-27150000D01*
X45244365Y-11650000D02*
X45724365Y-11170000D01*
X42604448Y-11650000D02*
X45244365Y-11650000D01*
X42275000Y-13289999D02*
X42275000Y-11979448D01*
X42275000Y-11979448D02*
X42604448Y-11650000D01*
X47680000Y-25025635D02*
X46417920Y-26287715D01*
X41080000Y-27150000D02*
X41687410Y-27150000D01*
X42575001Y-13590000D02*
X42275000Y-13289999D01*
X43550000Y-13590000D02*
X42575001Y-13590000D01*
X45724365Y-11170000D02*
X46635635Y-11170000D01*
X41687410Y-28150000D02*
X41080000Y-28150000D01*
X47680000Y-12214365D02*
X47680000Y-25025635D01*
X44087715Y-26287715D02*
X43225430Y-27150000D01*
X41687410Y-27150000D02*
X41955000Y-27417590D01*
%TO.N,Net-(U5-UD-)*%
X44900620Y-15299382D02*
X45851238Y-16250000D01*
X44524999Y-12320000D02*
X44900620Y-12695621D01*
X45851238Y-16250000D02*
X46635635Y-16250000D01*
X41080000Y-26650000D02*
X40472590Y-26650000D01*
X47280000Y-16894365D02*
X47280000Y-20345635D01*
X43550000Y-12320000D02*
X44524999Y-12320000D01*
X45000000Y-22054365D02*
X45000000Y-24809744D01*
X47280000Y-20345635D02*
X46425635Y-21200000D01*
X46425635Y-21200000D02*
X45854365Y-21200000D01*
X46635635Y-16250000D02*
X47280000Y-16894365D01*
X43159744Y-26650000D02*
X41080000Y-26650000D01*
X40200000Y-26922590D02*
X40200000Y-27377410D01*
X40200000Y-27377410D02*
X40472590Y-27650000D01*
X45854365Y-21200000D02*
X45000000Y-22054365D01*
X45000000Y-24809744D02*
X43159744Y-26650000D01*
X40472590Y-27650000D02*
X41080000Y-27650000D01*
X40472590Y-26650000D02*
X40200000Y-26922590D01*
X44900620Y-12695621D02*
X44900620Y-15299382D01*
%TO.N,/SW2*%
X67550000Y-71600000D02*
X74050000Y-71600000D01*
%TO.N,/CH340C_Tx*%
X43550000Y-17400000D02*
X42575001Y-17400000D01*
X42575001Y-17400000D02*
X41214365Y-16039364D01*
X41214365Y-7475635D02*
X41670000Y-7020000D01*
X41214365Y-16039364D02*
X41214365Y-7475635D01*
%TO.N,/CH340C_Rx*%
X42770000Y-7475635D02*
X42770000Y-6600000D01*
X42770000Y-6600000D02*
X43570000Y-5800000D01*
X41670000Y-8575635D02*
X42770000Y-7475635D01*
X50610000Y-5800000D02*
X51830000Y-7020000D01*
X43204448Y-16130000D02*
X41670000Y-14595552D01*
X41670000Y-14595552D02*
X41670000Y-8575635D01*
X43570000Y-5800000D02*
X50610000Y-5800000D01*
X43550000Y-16130000D02*
X43204448Y-16130000D01*
%TO.N,Net-(U6-~{BSTB})*%
X38200000Y28650000D02*
X38200000Y26520000D01*
X38200000Y26520000D02*
X38280000Y26440000D01*
%TO.N,/D2*%
X73480000Y-16020000D02*
X73480000Y-1420123D01*
X112800000Y-48180000D02*
X112800000Y-40800000D01*
X73480000Y-37000000D02*
X73480000Y-40980000D01*
X112620000Y-48360000D02*
X112800000Y-48180000D01*
X73480000Y-18060000D02*
X72460000Y-17040000D01*
X72460000Y-17040000D02*
X73480000Y-16020000D01*
X73480000Y-40980000D02*
X72460000Y-42000000D01*
X73480000Y-1420123D02*
X74487047Y-413076D01*
X84000000Y17490000D02*
X84000000Y26440000D01*
X73480000Y-37000000D02*
X73480000Y-18060000D01*
%TO.N,/D7*%
X79060000Y-2820000D02*
X80080000Y-1800000D01*
X80080000Y-26760000D02*
X79060000Y-25740000D01*
X80360000Y8840000D02*
X80400000Y8800000D01*
X81460000Y26440000D02*
X80360000Y25340000D01*
X110080000Y-37851672D02*
X110131672Y-37800000D01*
X79000000Y-27840000D02*
X80080000Y-26760000D01*
X79060000Y-25740000D02*
X79060000Y-2820000D01*
X80360000Y25340000D02*
X80360000Y8840000D01*
X110080000Y-48360000D02*
X110080000Y-37851672D01*
X79000000Y-44000000D02*
X79000000Y-27840000D01*
%TO.N,/D6*%
X77600000Y11435635D02*
X77600000Y7800000D01*
X107540000Y-48360000D02*
X107540000Y-37260000D01*
X77540000Y-32940000D02*
X77540000Y-26760000D01*
X77540000Y-26760000D02*
X76520000Y-25740000D01*
X76520000Y-2820000D02*
X77540000Y-1800000D01*
X77600000Y-33000000D02*
X77540000Y-32940000D01*
X78920000Y12755635D02*
X77600000Y11435635D01*
X77600000Y-33800000D02*
X77600000Y-33000000D01*
X76520000Y-25740000D02*
X76520000Y-2820000D01*
X107540000Y-37260000D02*
X107600000Y-37200000D01*
X78920000Y26440000D02*
X78920000Y12755635D01*
%TO.N,/A3*%
X105000000Y-48360000D02*
X105000000Y-33751470D01*
X88720000Y-40980000D02*
X87700000Y-42000000D01*
X105000000Y-33751470D02*
X104824265Y-33575735D01*
X88720000Y-18060000D02*
X88720000Y-32400000D01*
X88720000Y-32400000D02*
X88720000Y-40980000D01*
X87700000Y-17040000D02*
X88720000Y-18060000D01*
%TO.N,/A1*%
X83640000Y-40400000D02*
X83640000Y-22400000D01*
X82620000Y-42000000D02*
X83640000Y-40980000D01*
X101920000Y-40500000D02*
X102020000Y-40400000D01*
X101920000Y-47820000D02*
X101920000Y-40500000D01*
X83640000Y-18060000D02*
X82620000Y-17040000D01*
X102460000Y-48360000D02*
X101920000Y-47820000D01*
X83640000Y-22400000D02*
X83640000Y-18060000D01*
X82620000Y-4620000D02*
X82620000Y-17040000D01*
X83640000Y-40980000D02*
X83640000Y-40400000D01*
X82400000Y-22400000D02*
X83640000Y-22400000D01*
X82600000Y-4600000D02*
X82620000Y-4620000D01*
%TO.N,/A0*%
X97380000Y-48360000D02*
X97380000Y-43425024D01*
X80080000Y-17040000D02*
X81100000Y-18060000D01*
X81100000Y-25000000D02*
X81100000Y-40980000D01*
X81100000Y-40980000D02*
X80080000Y-42000000D01*
X81100000Y-18060000D02*
X81100000Y-25000000D01*
X97380000Y-43425024D02*
X97396499Y-43408525D01*
%TO.N,/6850_E*%
X94300000Y-47820000D02*
X94300000Y-40100000D01*
X97936984Y-10506984D02*
X98000000Y-10570000D01*
X94840000Y-48360000D02*
X94300000Y-47820000D01*
X97936984Y-5136984D02*
X97936984Y-10506984D01*
X94300000Y-40100000D02*
X94800000Y-39600000D01*
%TO.N,/6850_RW*%
X89400000Y-32568529D02*
X89400000Y-31200000D01*
X92300000Y-48360000D02*
X89120000Y-45180000D01*
X89120000Y-32848529D02*
X89400000Y-32568529D01*
X89120000Y-45180000D02*
X89120000Y-32848529D01*
X65800000Y-3200000D02*
X65800000Y-28400000D01*
X65800000Y-28400000D02*
X67000000Y-29600000D01*
%TO.N,/6850_RS*%
X64530000Y-7020000D02*
X64530000Y-42730000D01*
X64530000Y-42730000D02*
X68600000Y-46800000D01*
%TO.N,/D0*%
X77540000Y-17040000D02*
X78560000Y-18060000D01*
X45080000Y-50825635D02*
X45724365Y-51470000D01*
X46180000Y-47830000D02*
X45080000Y-48930000D01*
X63760000Y-63000000D02*
X64360000Y-63600000D01*
X54959196Y-59793561D02*
X55152756Y-59600000D01*
X55152756Y-59600000D02*
X56447244Y-59600000D01*
X78560000Y-40980000D02*
X77540000Y-42000000D01*
X77600000Y-16980000D02*
X77540000Y-17040000D01*
X56447244Y-59600000D02*
X56762500Y-59915256D01*
X56762500Y-59915256D02*
X56762500Y-61596865D01*
X77600000Y-4200000D02*
X77600000Y-16980000D01*
X35740000Y9488679D02*
X45228679Y0D01*
X45080000Y-48930000D02*
X45080000Y-50825635D01*
X56762500Y-61596865D02*
X58165635Y-63000000D01*
X78560000Y-18060000D02*
X78560000Y-40980000D01*
X46635635Y-51470000D02*
X54959196Y-59793561D01*
X58165635Y-63000000D02*
X63760000Y-63000000D01*
X45228679Y0D02*
X73800000Y0D01*
X35740000Y11200000D02*
X35740000Y9488679D01*
X45724365Y-51470000D02*
X46635635Y-51470000D01*
%TO.N,/D1*%
X62650000Y-57124314D02*
X62650000Y-59350000D01*
X74322498Y600000D02*
X45194365Y600000D01*
X76020000Y-1097502D02*
X74322498Y600000D01*
X76020000Y-40980000D02*
X75000000Y-42000000D01*
X57162500Y-59749571D02*
X57162500Y-61431179D01*
X46180000Y-50370000D02*
X55010000Y-59200000D01*
X38030000Y7764365D02*
X38030000Y10950000D01*
X59800000Y-62200000D02*
X65500000Y-62200000D01*
X75000000Y-42000000D02*
X70540000Y-46460000D01*
X57162500Y-61431179D02*
X58331321Y-62600000D01*
X55010000Y-59200000D02*
X56612930Y-59200000D01*
X70540000Y-46460000D02*
X70540000Y-49234314D01*
X38030000Y10950000D02*
X38280000Y11200000D01*
X75000000Y-17040000D02*
X76020000Y-16020000D01*
X76020000Y-18060000D02*
X76020000Y-40980000D01*
X62650000Y-59350000D02*
X66900000Y-63600000D01*
X75000000Y-17040000D02*
X76020000Y-18060000D01*
X76020000Y-16020000D02*
X76020000Y-1097502D01*
X58331321Y-62600000D02*
X59400000Y-62600000D01*
X65500000Y-62200000D02*
X66900000Y-63600000D01*
X59400000Y-62600000D02*
X59800000Y-62200000D01*
X56612930Y-59200000D02*
X57162500Y-59749571D01*
X70540000Y-49234314D02*
X62650000Y-57124314D01*
X45194365Y600000D02*
X38030000Y7764365D01*
%TO.N,/SW4*%
X77375000Y-71600000D02*
X83875000Y-71600000D01*
%TO.N,/~{RD}*%
X81460000Y11200000D02*
X83590000Y9070000D01*
X86580000Y-45110000D02*
X86580000Y-27880000D01*
X86580000Y-25640000D02*
X86580000Y-2920000D01*
X86580000Y-27880000D02*
X87700000Y-26760000D01*
X87700000Y-26760000D02*
X86580000Y-25640000D01*
X83590000Y9070000D02*
X93495686Y9070000D01*
X93495686Y9070000D02*
X95600000Y6965686D01*
X95600000Y6965686D02*
X95600000Y3200000D01*
X86580000Y-2920000D02*
X87700000Y-1800000D01*
X85800000Y-45890000D02*
X86580000Y-45110000D01*
%TO.N,/~{IORQ}*%
X112620000Y-63600000D02*
X113800000Y-62420000D01*
X93661372Y9470000D02*
X85730000Y9470000D01*
X113800000Y-62420000D02*
X113800000Y-10668628D01*
X85730000Y9470000D02*
X84000000Y11200000D01*
X113800000Y-10668628D02*
X93661372Y9470000D01*
%TO.N,/6850_D7*%
X60040000Y10170000D02*
X61990000Y8220000D01*
X60040000Y20260000D02*
X60040000Y10170000D01*
X66220000Y26440000D02*
X60040000Y20260000D01*
%TO.N,/6850_D6*%
X59450000Y8220000D02*
X57500000Y10170000D01*
X57500000Y10170000D02*
X57500000Y20260000D01*
X57500000Y20260000D02*
X63680000Y26440000D01*
%TO.N,/6850_D5*%
X54960000Y20260000D02*
X61140000Y26440000D01*
X56910000Y8220000D02*
X54960000Y10170000D01*
X54960000Y10170000D02*
X54960000Y20260000D01*
%TO.N,/6850_D4*%
X54370000Y8220000D02*
X52420000Y10170000D01*
X52420000Y10170000D02*
X52420000Y20260000D01*
X52420000Y20260000D02*
X58600000Y26440000D01*
%TO.N,/6850_D3*%
X51830000Y8220000D02*
X49880000Y10170000D01*
X49880000Y10170000D02*
X49880000Y25340000D01*
X49880000Y25340000D02*
X50980000Y26440000D01*
%TO.N,/6850_D2*%
X49290000Y8220000D02*
X47340000Y10170000D01*
X47340000Y10170000D02*
X47340000Y25340000D01*
X47340000Y25340000D02*
X48440000Y26440000D01*
%TO.N,/6850_D1*%
X44800000Y25340000D02*
X45900000Y26440000D01*
X46750000Y8220000D02*
X44800000Y10170000D01*
X44800000Y10170000D02*
X44800000Y25340000D01*
%TO.N,/6850_D0*%
X42260000Y25340000D02*
X43360000Y26440000D01*
X42260000Y10170000D02*
X42260000Y25340000D01*
X44210000Y8220000D02*
X42260000Y10170000D01*
%TO.N,/A11*%
X89220000Y-8400000D02*
X89220000Y-2820000D01*
X89220000Y-2820000D02*
X90240000Y-1800000D01*
X90240000Y-26760000D02*
X89220000Y-25740000D01*
X89220000Y-25740000D02*
X89220000Y-8400000D01*
%TO.N,/A12*%
X100400000Y-17040000D02*
X101420000Y-18060000D01*
X101420000Y-18060000D02*
X101420000Y-40980000D01*
X101420000Y-40980000D02*
X100400000Y-42000000D01*
X100400000Y-11200000D02*
X100400000Y-17040000D01*
%TO.N,/A13*%
X96840000Y-2820000D02*
X97860000Y-1800000D01*
X97860000Y-26760000D02*
X96840000Y-25740000D01*
X96840000Y-25740000D02*
X96840000Y-13600000D01*
X96840000Y-13600000D02*
X96840000Y-2820000D01*
%TO.N,/A14*%
X103960000Y-40980000D02*
X102940000Y-42000000D01*
X102940000Y-17040000D02*
X103960000Y-18060000D01*
X103960000Y-18060000D02*
X103960000Y-40980000D01*
%TO.N,/D4*%
X71440000Y-25740000D02*
X71440000Y-2820000D01*
X72460000Y-26760000D02*
X71440000Y-25740000D01*
X71440000Y-2820000D02*
X72460000Y-1800000D01*
%TO.N,/D3*%
X68900000Y-25740000D02*
X69920000Y-26760000D01*
X69920000Y-28920000D02*
X69920000Y-26760000D01*
X70000000Y-29000000D02*
X69920000Y-28920000D01*
X69920000Y-1800000D02*
X68900000Y-2820000D01*
X68900000Y-2820000D02*
X68900000Y-25740000D01*
%TO.N,/D5*%
X73980000Y-25740000D02*
X73980000Y-2820000D01*
X73980000Y-2820000D02*
X75000000Y-1800000D01*
X75000000Y-26760000D02*
X73980000Y-25740000D01*
X75000000Y-31400000D02*
X75000000Y-26760000D01*
%TO.N,/~{MREQ}*%
X87600000Y6600000D02*
X87600000Y7795000D01*
X87600000Y7795000D02*
X87575000Y7820000D01*
X85075735Y4069265D02*
X85625000Y3520000D01*
X85075735Y4875735D02*
X85075735Y4069265D01*
%TO.N,/~{WR}*%
X99200000Y-45200000D02*
X99280000Y-45120000D01*
X99280000Y-27880000D02*
X100400000Y-26760000D01*
X99380000Y-2820000D02*
X100400000Y-1800000D01*
X99280000Y-45120000D02*
X99280000Y-27880000D01*
X100400000Y-26760000D02*
X99380000Y-25740000D01*
X99380000Y-25740000D02*
X99380000Y-2820000D01*
%TO.N,/A2*%
X85200000Y-20000000D02*
X86180000Y-20000000D01*
X85160000Y-17040000D02*
X86180000Y-18060000D01*
X85200000Y-3800000D02*
X85160000Y-3840000D01*
X86180000Y-20000000D02*
X86180000Y-40980000D01*
X86180000Y-40980000D02*
X85160000Y-42000000D01*
X86180000Y-18060000D02*
X86180000Y-20000000D01*
X85160000Y-3840000D02*
X85160000Y-17040000D01*
%TO.N,/A4*%
X90240000Y-15040000D02*
X90240000Y-17040000D01*
X90200000Y-15000000D02*
X90240000Y-15040000D01*
X91260000Y-40980000D02*
X90240000Y-42000000D01*
X91260000Y-18060000D02*
X91260000Y-40980000D01*
X90240000Y-17040000D02*
X91260000Y-18060000D01*
%TO.N,/A5*%
X92800000Y-12400000D02*
X92780000Y-12420000D01*
X92780000Y-17040000D02*
X93800000Y-18060000D01*
X93800000Y-18060000D02*
X93800000Y-40980000D01*
X93800000Y-40980000D02*
X92780000Y-42000000D01*
X92780000Y-12420000D02*
X92780000Y-17040000D01*
%TO.N,/A6*%
X95320000Y-17040000D02*
X96340000Y-18060000D01*
X96340000Y-40980000D02*
X95320000Y-42000000D01*
X95320000Y-9880000D02*
X95320000Y-17040000D01*
X96340000Y-18060000D02*
X96340000Y-40980000D01*
X95400000Y-9800000D02*
X95320000Y-9880000D01*
%TO.N,/SRAM_CS*%
X91500000Y-500000D02*
X83920000Y-500000D01*
X95000000Y3000000D02*
X91500000Y-500000D01*
X86275000Y7820000D02*
X86275000Y8288456D01*
X86275000Y8288456D02*
X86656544Y8670000D01*
X83920000Y-500000D02*
X82620000Y-1800000D01*
X93330000Y8670000D02*
X95000000Y7000000D01*
X86656544Y8670000D02*
X93330000Y8670000D01*
X95000000Y7000000D02*
X95000000Y3000000D01*
%TO.N,/EEPROM_CS*%
X86925000Y3520000D02*
X86925000Y3051544D01*
X82800000Y-19000000D02*
X81800000Y-20000000D01*
X81600000Y-14010000D02*
X81800000Y-14210000D01*
X86543456Y2670000D02*
X85367502Y2670000D01*
X86925000Y3051544D02*
X86543456Y2670000D01*
X85367502Y2670000D02*
X81600000Y-1097502D01*
X81800000Y-25940000D02*
X82620000Y-26760000D01*
X81600000Y-1097502D02*
X81600000Y-14010000D01*
X81800000Y-20000000D02*
X81800000Y-25940000D01*
%TO.N,/A7*%
X98880000Y-40980000D02*
X97860000Y-42000000D01*
X98880000Y-18060000D02*
X98880000Y-40980000D01*
X97860000Y-17040000D02*
X98880000Y-18060000D01*
%TO.N,/A10*%
X84040000Y-2920000D02*
X84040000Y-25640000D01*
X85160000Y-1800000D02*
X84040000Y-2920000D01*
X84040000Y-25640000D02*
X85160000Y-26760000D01*
%TO.N,/A9*%
X91760000Y-2820000D02*
X92780000Y-1800000D01*
X92780000Y-26760000D02*
X91760000Y-25740000D01*
X91760000Y-25740000D02*
X91760000Y-2820000D01*
%TO.N,/A8*%
X94300000Y-2820000D02*
X95320000Y-1800000D01*
X94300000Y-25740000D02*
X94300000Y-2820000D01*
X95320000Y-26760000D02*
X94300000Y-25740000D01*
%TD*%
M02*
