%TF.GenerationSoftware,KiCad,Pcbnew,10.0.1*%
%TF.CreationDate,2026-07-02T23:40:43+08:00*%
%TF.ProjectId,Z80Badge,5a383042-6164-4676-952e-6b696361645f,rev?*%
%TF.SameCoordinates,Original*%
%TF.FileFunction,Legend,Top*%
%TF.FilePolarity,Positive*%
%FSLAX46Y46*%
G04 Gerber Fmt 4.6, Leading zero omitted, Abs format (unit mm)*
G04 Created by KiCad (PCBNEW 10.0.1) date 2026-07-02 23:40:43*
%MOMM*%
%LPD*%
G01*
G04 APERTURE LIST*
%ADD10C,0.100000*%
%ADD11C,0.750000*%
%ADD12C,0.150000*%
%ADD13C,0.120000*%
%ADD14C,0.127000*%
%ADD15C,0.200000*%
%ADD16C,0.300000*%
G04 APERTURE END LIST*
D10*
G36*
X68951499Y-44372205D02*
G01*
X68951499Y-45040453D01*
X68307980Y-47021751D01*
X68951499Y-47021751D01*
X68951499Y-47690000D01*
X67361112Y-47690000D01*
X67361112Y-47205300D01*
X68025147Y-45040453D01*
X67438964Y-45040453D01*
X67438964Y-44372205D01*
X68951499Y-44372205D01*
G37*
G36*
X70395863Y-44331475D02*
G01*
X70605931Y-44378995D01*
X70759929Y-44449168D01*
X70870332Y-44538534D01*
X70957742Y-44656030D01*
X71022788Y-44798595D01*
X71064408Y-44971349D01*
X71079343Y-45180771D01*
X71069746Y-45358539D01*
X71045175Y-45481640D01*
X71010650Y-45563804D01*
X70956410Y-45634109D01*
X70866329Y-45711299D01*
X70728915Y-45796629D01*
X70843369Y-45855471D01*
X70936034Y-45928978D01*
X71009734Y-46017730D01*
X71055474Y-46126026D01*
X71092364Y-46340446D01*
X71108102Y-46718035D01*
X71097277Y-46989285D01*
X71069376Y-47181424D01*
X71030250Y-47312644D01*
X70964694Y-47428811D01*
X70865688Y-47532978D01*
X70726900Y-47626252D01*
X70571555Y-47690602D01*
X70373374Y-47733032D01*
X70122399Y-47748618D01*
X69877908Y-47733587D01*
X69686600Y-47692848D01*
X69538232Y-47631381D01*
X69405289Y-47542309D01*
X69303801Y-47439179D01*
X69229753Y-47320887D01*
X69183444Y-47186788D01*
X69149793Y-46980387D01*
X69136513Y-46677002D01*
X69145399Y-46468175D01*
X69964496Y-46468175D01*
X69964496Y-46896271D01*
X69977480Y-47090745D01*
X70004430Y-47171594D01*
X70054503Y-47216790D01*
X70130459Y-47232777D01*
X70206228Y-47216185D01*
X70249345Y-47170678D01*
X70270026Y-47088988D01*
X70280119Y-46890226D01*
X70280119Y-46468175D01*
X70267771Y-46295208D01*
X70241101Y-46216482D01*
X70192092Y-46170354D01*
X70118186Y-46154200D01*
X70046552Y-46169914D01*
X70000400Y-46214467D01*
X69976014Y-46291681D01*
X69964496Y-46468175D01*
X69145399Y-46468175D01*
X69148951Y-46384702D01*
X69182675Y-46152552D01*
X69233293Y-46017931D01*
X69327026Y-45900290D01*
X69472652Y-45796629D01*
X69378902Y-45738602D01*
X69302567Y-45662070D01*
X69242026Y-45564720D01*
X69201274Y-45455862D01*
X69174831Y-45322725D01*
X69165273Y-45160437D01*
X69170184Y-45099255D01*
X69980983Y-45099255D01*
X69980983Y-45345268D01*
X69991036Y-45479374D01*
X70013772Y-45547318D01*
X70056434Y-45588504D01*
X70124414Y-45603189D01*
X70195270Y-45588344D01*
X70235056Y-45548234D01*
X70254605Y-45478470D01*
X70263816Y-45321271D01*
X70263816Y-45099255D01*
X70254353Y-44949488D01*
X70234141Y-44882367D01*
X70193421Y-44843893D01*
X70120384Y-44829427D01*
X70049703Y-44844694D01*
X70009559Y-44886397D01*
X69989893Y-44956007D01*
X69980983Y-45099255D01*
X69170184Y-45099255D01*
X69182206Y-44949482D01*
X69229255Y-44778044D01*
X69302939Y-44638543D01*
X69402860Y-44525345D01*
X69526235Y-44438287D01*
X69681049Y-44372234D01*
X69874196Y-44329226D01*
X70114156Y-44313586D01*
X70395863Y-44331475D01*
G37*
G36*
X72534811Y-44324703D02*
G01*
X72696523Y-44356801D01*
X72842837Y-44408658D01*
X72980738Y-44480590D01*
X73086183Y-44558006D01*
X73164505Y-44640566D01*
X73253827Y-44785856D01*
X73309036Y-44949045D01*
X73335588Y-45146232D01*
X73346955Y-45496760D01*
X73346955Y-46600249D01*
X73334654Y-46950637D01*
X73305922Y-47147780D01*
X73244175Y-47311606D01*
X73135929Y-47468715D01*
X73043396Y-47559245D01*
X72939989Y-47630355D01*
X72824336Y-47683222D01*
X72635131Y-47731642D01*
X72416572Y-47748618D01*
X72133020Y-47729896D01*
X71922713Y-47680291D01*
X71798006Y-47624764D01*
X71694394Y-47553660D01*
X71609106Y-47466700D01*
X71508219Y-47315831D01*
X71443143Y-47161153D01*
X71408743Y-46977052D01*
X71394050Y-46651357D01*
X71394050Y-45496760D01*
X71403705Y-45223635D01*
X72221850Y-45223635D01*
X72221850Y-46828494D01*
X72231498Y-47087546D01*
X72249510Y-47173975D01*
X72290358Y-47216581D01*
X72369311Y-47232777D01*
X72447515Y-47214450D01*
X72490212Y-47163717D01*
X72509517Y-47073347D01*
X72518971Y-46852857D01*
X72518971Y-45223635D01*
X72510332Y-44985436D01*
X72493326Y-44895556D01*
X72452978Y-44847342D01*
X72373525Y-44829427D01*
X72295198Y-44847944D01*
X72251525Y-44899586D01*
X72231672Y-44992229D01*
X72221850Y-45223635D01*
X71403705Y-45223635D01*
X71404890Y-45190127D01*
X71433045Y-44968768D01*
X71472818Y-44814223D01*
X71541338Y-44675169D01*
X71644182Y-44554678D01*
X71786426Y-44450607D01*
X71948185Y-44376459D01*
X72136010Y-44329972D01*
X72355206Y-44313586D01*
X72534811Y-44324703D01*
G37*
G36*
X76236103Y-45380439D02*
G01*
X75434865Y-45380439D01*
X75434865Y-45132777D01*
X75424769Y-44975554D01*
X75404090Y-44912042D01*
X75364745Y-44877237D01*
X75301691Y-44864598D01*
X75232804Y-44880508D01*
X75183722Y-44927430D01*
X75155265Y-44999550D01*
X75143788Y-45117756D01*
X75156765Y-45270453D01*
X75188851Y-45364869D01*
X75257136Y-45445081D01*
X75432666Y-45568567D01*
X75814753Y-45818328D01*
X76040751Y-46002064D01*
X76158251Y-46135150D01*
X76217119Y-46245249D01*
X76264152Y-46393203D01*
X76296016Y-46588530D01*
X76307911Y-46842233D01*
X76296452Y-47079944D01*
X76266835Y-47248780D01*
X76224929Y-47364851D01*
X76157293Y-47465296D01*
X76053322Y-47559105D01*
X75904177Y-47646585D01*
X75741967Y-47708347D01*
X75558715Y-47746881D01*
X75350784Y-47760341D01*
X75123011Y-47744637D01*
X74927709Y-47700163D01*
X74759655Y-47629549D01*
X74609137Y-47529420D01*
X74504893Y-47418832D01*
X74438903Y-47296524D01*
X74400036Y-47159011D01*
X74373210Y-46971742D01*
X74363066Y-46722431D01*
X74363066Y-46505910D01*
X75164305Y-46505910D01*
X75164305Y-46906713D01*
X75175271Y-47074809D01*
X75198010Y-47144666D01*
X75242381Y-47183202D01*
X75317994Y-47197606D01*
X75393759Y-47180379D01*
X75446039Y-47130195D01*
X75476148Y-47052994D01*
X75488171Y-46929427D01*
X75476140Y-46732751D01*
X75446980Y-46613571D01*
X75408303Y-46546760D01*
X75293355Y-46446769D01*
X75004387Y-46245059D01*
X74712089Y-46042527D01*
X74578122Y-45935115D01*
X74485471Y-45824676D01*
X74405015Y-45668768D01*
X74355184Y-45485432D01*
X74336321Y-45234260D01*
X74349779Y-44979032D01*
X74384477Y-44799301D01*
X74433591Y-44676837D01*
X74509584Y-44570425D01*
X74612930Y-44478796D01*
X74748298Y-44401331D01*
X74896388Y-44347906D01*
X75069777Y-44313925D01*
X75272932Y-44301863D01*
X75495079Y-44315115D01*
X75684361Y-44352422D01*
X75845742Y-44411039D01*
X75993851Y-44495743D01*
X76095129Y-44587221D01*
X76159167Y-44685812D01*
X76197162Y-44800678D01*
X76225037Y-44980684D01*
X76236103Y-45248731D01*
X76236103Y-45380439D01*
G37*
G36*
X77637485Y-44933280D02*
G01*
X77795732Y-44961650D01*
X77931454Y-45006198D01*
X78059211Y-45069730D01*
X78160769Y-45141758D01*
X78239933Y-45221987D01*
X78332832Y-45359720D01*
X78388493Y-45496210D01*
X78416632Y-45655862D01*
X78428427Y-45925956D01*
X78428427Y-46590907D01*
X78417386Y-46932840D01*
X78391424Y-47128180D01*
X78334471Y-47291519D01*
X78233704Y-47447283D01*
X78146105Y-47537032D01*
X78043272Y-47609846D01*
X77923211Y-47666369D01*
X77724918Y-47718383D01*
X77487787Y-47736894D01*
X77224495Y-47720543D01*
X77022504Y-47676627D01*
X76900694Y-47627405D01*
X76803203Y-47566565D01*
X76726299Y-47494544D01*
X76636859Y-47361826D01*
X76575723Y-47199804D01*
X76543912Y-47005281D01*
X76530660Y-46681032D01*
X76530660Y-45985307D01*
X76541492Y-45731829D01*
X76543085Y-45721158D01*
X77358643Y-45721158D01*
X77358643Y-46947196D01*
X77366616Y-47122939D01*
X77383190Y-47197972D01*
X77418678Y-47241126D01*
X77479544Y-47256224D01*
X77542421Y-47242019D01*
X77576813Y-47203101D01*
X77592769Y-47134546D01*
X77600444Y-46973757D01*
X77600444Y-45721158D01*
X77592902Y-45531270D01*
X77577912Y-45458108D01*
X77544126Y-45418346D01*
X77481559Y-45403886D01*
X77418562Y-45418284D01*
X77383190Y-45458108D01*
X77366853Y-45531330D01*
X77358643Y-45721158D01*
X76543085Y-45721158D01*
X76570341Y-45538564D01*
X76612542Y-45393995D01*
X76680908Y-45262735D01*
X76778066Y-45149433D01*
X76907649Y-45052177D01*
X77055226Y-44983219D01*
X77234665Y-44939077D01*
X77452982Y-44923217D01*
X77637485Y-44933280D01*
G37*
G36*
X80596388Y-44970111D02*
G01*
X80596388Y-47690000D01*
X79754116Y-47690000D01*
X79768404Y-47460839D01*
X79670682Y-47583292D01*
X79556279Y-47668018D01*
X79423154Y-47719103D01*
X79266302Y-47736894D01*
X79089900Y-47719250D01*
X78956724Y-47671315D01*
X78848535Y-47593675D01*
X78775374Y-47497292D01*
X78727894Y-47385880D01*
X78702651Y-47271062D01*
X78688362Y-46803032D01*
X78688362Y-44970111D01*
X79516346Y-44970111D01*
X79516346Y-46819884D01*
X79523246Y-47106710D01*
X79535763Y-47196873D01*
X79569512Y-47239967D01*
X79641276Y-47256224D01*
X79717835Y-47239146D01*
X79751002Y-47194858D01*
X79762199Y-47101052D01*
X79768404Y-46799368D01*
X79768404Y-44970111D01*
X80596388Y-44970111D01*
G37*
G36*
X82380886Y-44935173D02*
G01*
X82490877Y-44969740D01*
X82588860Y-45026531D01*
X82673746Y-45102186D01*
X82730776Y-45181249D01*
X82764165Y-45265034D01*
X82788340Y-45423516D01*
X82798970Y-45723356D01*
X82798970Y-46867145D01*
X82785522Y-47210879D01*
X82754823Y-47394160D01*
X82715168Y-47491589D01*
X82655676Y-47574109D01*
X82574571Y-47643838D01*
X82479787Y-47694592D01*
X82371177Y-47725939D01*
X82245576Y-47736894D01*
X82097070Y-47718691D01*
X81960728Y-47664537D01*
X81837900Y-47577046D01*
X81720943Y-47449665D01*
X81720943Y-48076880D01*
X80893143Y-48076880D01*
X80893143Y-45762008D01*
X81720943Y-45762008D01*
X81720943Y-46887845D01*
X81729221Y-47111007D01*
X81745489Y-47194858D01*
X81782886Y-47239928D01*
X81852101Y-47256224D01*
X81918966Y-47240928D01*
X81951386Y-47199987D01*
X81964421Y-47123980D01*
X81970986Y-46926680D01*
X81970986Y-45762008D01*
X81964548Y-45534162D01*
X81952485Y-45457192D01*
X81920672Y-45418822D01*
X81850086Y-45403886D01*
X81780953Y-45420226D01*
X81744390Y-45465252D01*
X81728790Y-45547897D01*
X81720943Y-45762008D01*
X80893143Y-45762008D01*
X80893143Y-44970111D01*
X81735414Y-44970111D01*
X81720943Y-45213560D01*
X81840157Y-45083312D01*
X81964758Y-44995390D01*
X82103503Y-44941435D01*
X82255835Y-44923217D01*
X82380886Y-44935173D01*
G37*
G36*
X84245989Y-44942779D02*
G01*
X84451570Y-44994713D01*
X84601482Y-45071777D01*
X84728228Y-45182089D01*
X84811651Y-45302679D01*
X84857754Y-45436310D01*
X84886943Y-45708838D01*
X84900801Y-46326025D01*
X84900801Y-47690000D01*
X84095350Y-47690000D01*
X84095350Y-47444535D01*
X84006520Y-47574620D01*
X83899528Y-47663804D01*
X83771193Y-47717843D01*
X83613764Y-47736894D01*
X83472599Y-47723316D01*
X83340566Y-47683052D01*
X83215159Y-47615261D01*
X83143742Y-47547146D01*
X83087469Y-47444038D01*
X83048701Y-47294316D01*
X83033809Y-47082568D01*
X83033809Y-46923199D01*
X83810501Y-46923199D01*
X83819550Y-47115186D01*
X83838162Y-47195041D01*
X83877871Y-47240044D01*
X83947888Y-47256224D01*
X84014805Y-47242910D01*
X84049188Y-47208230D01*
X84064776Y-47141120D01*
X84072818Y-46955989D01*
X84072818Y-46398199D01*
X83944222Y-46503208D01*
X83873601Y-46582037D01*
X83842192Y-46641282D01*
X83819676Y-46750156D01*
X83810501Y-46923199D01*
X83033809Y-46923199D01*
X83033809Y-46859635D01*
X83047644Y-46656561D01*
X83082231Y-46525232D01*
X83130163Y-46444544D01*
X83204746Y-46380965D01*
X83352138Y-46296823D01*
X83607535Y-46186807D01*
X83967202Y-46029225D01*
X84044059Y-45971934D01*
X84063638Y-45902066D01*
X84072818Y-45746437D01*
X84062480Y-45551667D01*
X84040944Y-45468550D01*
X83998905Y-45420165D01*
X83935432Y-45403886D01*
X83864643Y-45418976D01*
X83831018Y-45458292D01*
X83817484Y-45533577D01*
X83810501Y-45740209D01*
X83810501Y-46025240D01*
X83033809Y-46025240D01*
X83033809Y-45842974D01*
X83043502Y-45631895D01*
X83069171Y-45473239D01*
X83106532Y-45356442D01*
X83167205Y-45252215D01*
X83262010Y-45151817D01*
X83398525Y-45054375D01*
X83550275Y-44984560D01*
X83737568Y-44939510D01*
X83968404Y-44923217D01*
X84245989Y-44942779D01*
G37*
G36*
X87964523Y-45814214D02*
G01*
X87101735Y-45814214D01*
X87101735Y-45239572D01*
X87092401Y-45012041D01*
X87074074Y-44926880D01*
X87032542Y-44881649D01*
X86952075Y-44864598D01*
X86886077Y-44874195D01*
X86843167Y-44899584D01*
X86816703Y-44940436D01*
X86797439Y-45037860D01*
X86788127Y-45268148D01*
X86788127Y-46808344D01*
X86797407Y-47029378D01*
X86816703Y-47123967D01*
X86842758Y-47163840D01*
X86883904Y-47188405D01*
X86946030Y-47197606D01*
X87005286Y-47188504D01*
X87045588Y-47163856D01*
X87072059Y-47123234D01*
X87091877Y-47024061D01*
X87101735Y-46773539D01*
X87101735Y-46353503D01*
X87964523Y-46353503D01*
X87964523Y-46483379D01*
X87954015Y-46833549D01*
X87927566Y-47068664D01*
X87891799Y-47217939D01*
X87827304Y-47350864D01*
X87722704Y-47476841D01*
X87569948Y-47597493D01*
X87397097Y-47685685D01*
X87194717Y-47740862D01*
X86956288Y-47760341D01*
X86706391Y-47743395D01*
X86500619Y-47696282D01*
X86331271Y-47622955D01*
X86183073Y-47517155D01*
X86076160Y-47391312D01*
X86005390Y-47242669D01*
X85965085Y-47077280D01*
X85936521Y-46840206D01*
X85925522Y-46511772D01*
X85925522Y-45542189D01*
X85932732Y-45205955D01*
X85950069Y-45004000D01*
X85976539Y-44888156D01*
X86024703Y-44773519D01*
X86096614Y-44658702D01*
X86186358Y-44557727D01*
X86298037Y-44470678D01*
X86434769Y-44397301D01*
X86581759Y-44345439D01*
X86746463Y-44313122D01*
X86931742Y-44301863D01*
X87182372Y-44319924D01*
X87389476Y-44370297D01*
X87560789Y-44449141D01*
X87712434Y-44559963D01*
X87818703Y-44681674D01*
X87886670Y-44815872D01*
X87925694Y-44966012D01*
X87953657Y-45186923D01*
X87964523Y-45499508D01*
X87964523Y-45814214D01*
G37*
G36*
X89331833Y-44933280D02*
G01*
X89490080Y-44961650D01*
X89625801Y-45006198D01*
X89753559Y-45069730D01*
X89855117Y-45141758D01*
X89934280Y-45221987D01*
X90027180Y-45359720D01*
X90082841Y-45496210D01*
X90110980Y-45655862D01*
X90122775Y-45925956D01*
X90122775Y-46590907D01*
X90111733Y-46932840D01*
X90085772Y-47128180D01*
X90028819Y-47291519D01*
X89928052Y-47447283D01*
X89840452Y-47537032D01*
X89737620Y-47609846D01*
X89617558Y-47666369D01*
X89419266Y-47718383D01*
X89182134Y-47736894D01*
X88918843Y-47720543D01*
X88716852Y-47676627D01*
X88595042Y-47627405D01*
X88497551Y-47566565D01*
X88420646Y-47494544D01*
X88331207Y-47361826D01*
X88270070Y-47199804D01*
X88238260Y-47005281D01*
X88225008Y-46681032D01*
X88225008Y-45985307D01*
X88235840Y-45731829D01*
X88237433Y-45721158D01*
X89052991Y-45721158D01*
X89052991Y-46947196D01*
X89060964Y-47122939D01*
X89077537Y-47197972D01*
X89113025Y-47241126D01*
X89173891Y-47256224D01*
X89236769Y-47242019D01*
X89271161Y-47203101D01*
X89287116Y-47134546D01*
X89294791Y-46973757D01*
X89294791Y-45721158D01*
X89287249Y-45531270D01*
X89272260Y-45458108D01*
X89238473Y-45418346D01*
X89175906Y-45403886D01*
X89112910Y-45418284D01*
X89077537Y-45458108D01*
X89061200Y-45531330D01*
X89052991Y-45721158D01*
X88237433Y-45721158D01*
X88264689Y-45538564D01*
X88306890Y-45393995D01*
X88375255Y-45262735D01*
X88472414Y-45149433D01*
X88601996Y-45052177D01*
X88749573Y-44983219D01*
X88929012Y-44939077D01*
X89147330Y-44923217D01*
X89331833Y-44933280D01*
G37*
G36*
X91477262Y-44933280D02*
G01*
X91635509Y-44961650D01*
X91771231Y-45006198D01*
X91898988Y-45069730D01*
X92000546Y-45141758D01*
X92079709Y-45221987D01*
X92172609Y-45359720D01*
X92228270Y-45496210D01*
X92256409Y-45655862D01*
X92268204Y-45925956D01*
X92268204Y-46590907D01*
X92257162Y-46932840D01*
X92231201Y-47128180D01*
X92174248Y-47291519D01*
X92073481Y-47447283D01*
X91985881Y-47537032D01*
X91883049Y-47609846D01*
X91762987Y-47666369D01*
X91564695Y-47718383D01*
X91327563Y-47736894D01*
X91064272Y-47720543D01*
X90862281Y-47676627D01*
X90740471Y-47627405D01*
X90642980Y-47566565D01*
X90566075Y-47494544D01*
X90476636Y-47361826D01*
X90415500Y-47199804D01*
X90383689Y-47005281D01*
X90370437Y-46681032D01*
X90370437Y-45985307D01*
X90381269Y-45731829D01*
X90382862Y-45721158D01*
X91198420Y-45721158D01*
X91198420Y-46947196D01*
X91206393Y-47122939D01*
X91222966Y-47197972D01*
X91258455Y-47241126D01*
X91319320Y-47256224D01*
X91382198Y-47242019D01*
X91416590Y-47203101D01*
X91432545Y-47134546D01*
X91440220Y-46973757D01*
X91440220Y-45721158D01*
X91432678Y-45531270D01*
X91417689Y-45458108D01*
X91383902Y-45418346D01*
X91321335Y-45403886D01*
X91258339Y-45418284D01*
X91222966Y-45458108D01*
X91206629Y-45531330D01*
X91198420Y-45721158D01*
X90382862Y-45721158D01*
X90410118Y-45538564D01*
X90452319Y-45393995D01*
X90520684Y-45262735D01*
X90617843Y-45149433D01*
X90747426Y-45052177D01*
X90895002Y-44983219D01*
X91074442Y-44939077D01*
X91292759Y-44923217D01*
X91477262Y-44933280D01*
G37*
G36*
X93393125Y-44372205D02*
G01*
X93393125Y-47690000D01*
X92540596Y-47690000D01*
X92540596Y-44372205D01*
X93393125Y-44372205D01*
G37*
G36*
X95696345Y-44390659D02*
G01*
X95931114Y-44435403D01*
X96061590Y-44491556D01*
X96173855Y-44575790D01*
X96270367Y-44691125D01*
X96335883Y-44826833D01*
X96381744Y-45026584D01*
X96399510Y-45311746D01*
X96386641Y-45504322D01*
X96354048Y-45632853D01*
X96308286Y-45715113D01*
X96238453Y-45778245D01*
X96124087Y-45837476D01*
X95948699Y-45890418D01*
X96140749Y-45951669D01*
X96270888Y-46027666D01*
X96354448Y-46115915D01*
X96409233Y-46226695D01*
X96446758Y-46382980D01*
X96461060Y-46598784D01*
X96461060Y-46907629D01*
X96450465Y-47134098D01*
X96423022Y-47295903D01*
X96384123Y-47407899D01*
X96322286Y-47505515D01*
X96241567Y-47578753D01*
X96139209Y-47630282D01*
X96020608Y-47658536D01*
X95805418Y-47680773D01*
X95450627Y-47690000D01*
X94452651Y-47690000D01*
X94452651Y-47127264D01*
X95315438Y-47127264D01*
X95478924Y-47105860D01*
X95548080Y-47069378D01*
X95581993Y-46996737D01*
X95598272Y-46814572D01*
X95598272Y-46502063D01*
X95583083Y-46309226D01*
X95553209Y-46241212D01*
X95487921Y-46209471D01*
X95315438Y-46189371D01*
X95315438Y-47127264D01*
X94452651Y-47127264D01*
X94452651Y-45673531D01*
X95315438Y-45673531D01*
X95401534Y-45671516D01*
X95483512Y-45662829D01*
X95534124Y-45641013D01*
X95563467Y-45609050D01*
X95586227Y-45517991D01*
X95598272Y-45250929D01*
X95589465Y-45106953D01*
X95569512Y-45032393D01*
X95534839Y-44979568D01*
X95494774Y-44953442D01*
X95437763Y-44941790D01*
X95315438Y-44934940D01*
X95315438Y-45673531D01*
X94452651Y-45673531D01*
X94452651Y-44372205D01*
X95313423Y-44372205D01*
X95696345Y-44390659D01*
G37*
G36*
X97921635Y-44942779D02*
G01*
X98127216Y-44994713D01*
X98277127Y-45071777D01*
X98403874Y-45182089D01*
X98487296Y-45302679D01*
X98533399Y-45436310D01*
X98562588Y-45708838D01*
X98576447Y-46326025D01*
X98576447Y-47690000D01*
X97770995Y-47690000D01*
X97770995Y-47444535D01*
X97682166Y-47574620D01*
X97575173Y-47663804D01*
X97446838Y-47717843D01*
X97289409Y-47736894D01*
X97148244Y-47723316D01*
X97016211Y-47683052D01*
X96890805Y-47615261D01*
X96819388Y-47547146D01*
X96763115Y-47444038D01*
X96724347Y-47294316D01*
X96709455Y-47082568D01*
X96709455Y-46923199D01*
X97486147Y-46923199D01*
X97495195Y-47115186D01*
X97513807Y-47195041D01*
X97553517Y-47240044D01*
X97623533Y-47256224D01*
X97690450Y-47242910D01*
X97724833Y-47208230D01*
X97740421Y-47141120D01*
X97748464Y-46955989D01*
X97748464Y-46398199D01*
X97619868Y-46503208D01*
X97549246Y-46582037D01*
X97517837Y-46641282D01*
X97495322Y-46750156D01*
X97486147Y-46923199D01*
X96709455Y-46923199D01*
X96709455Y-46859635D01*
X96723290Y-46656561D01*
X96757876Y-46525232D01*
X96805808Y-46444544D01*
X96880392Y-46380965D01*
X97027783Y-46296823D01*
X97283181Y-46186807D01*
X97642848Y-46029225D01*
X97719704Y-45971934D01*
X97739284Y-45902066D01*
X97748464Y-45746437D01*
X97738126Y-45551667D01*
X97716590Y-45468550D01*
X97674550Y-45420165D01*
X97611077Y-45403886D01*
X97540288Y-45418976D01*
X97506663Y-45458292D01*
X97493130Y-45533577D01*
X97486147Y-45740209D01*
X97486147Y-46025240D01*
X96709455Y-46025240D01*
X96709455Y-45842974D01*
X96719147Y-45631895D01*
X96744817Y-45473239D01*
X96782178Y-45356442D01*
X96842850Y-45252215D01*
X96937656Y-45151817D01*
X97074170Y-45054375D01*
X97225921Y-44984560D01*
X97413214Y-44939510D01*
X97644050Y-44923217D01*
X97921635Y-44942779D01*
G37*
G36*
X100745873Y-47690000D02*
G01*
X99917890Y-47690000D01*
X99917890Y-47489781D01*
X99793321Y-47599790D01*
X99667846Y-47675162D01*
X99533442Y-47721501D01*
X99393256Y-47736894D01*
X99268066Y-47725168D01*
X99157676Y-47691259D01*
X99059132Y-47635594D01*
X98973098Y-47561360D01*
X98914003Y-47483634D01*
X98877781Y-47401304D01*
X98849898Y-47247349D01*
X98837848Y-46967529D01*
X98837848Y-45696795D01*
X98839578Y-45655579D01*
X99665831Y-45655579D01*
X99665831Y-46986031D01*
X99673735Y-47137601D01*
X99690377Y-47204017D01*
X99724974Y-47242460D01*
X99784716Y-47256224D01*
X99852914Y-47240733D01*
X99891145Y-47197972D01*
X99908931Y-47118809D01*
X99917890Y-46912391D01*
X99917890Y-45655579D01*
X99909783Y-45518741D01*
X99892244Y-45455177D01*
X99856029Y-45417739D01*
X99790761Y-45403886D01*
X99726842Y-45416523D01*
X99691477Y-45450048D01*
X99674202Y-45510336D01*
X99665831Y-45655579D01*
X98839578Y-45655579D01*
X98850042Y-45406320D01*
X98877781Y-45252761D01*
X98914073Y-45171958D01*
X98973728Y-45095569D01*
X99061147Y-45022501D01*
X99161041Y-44968155D01*
X99274128Y-44934808D01*
X99403514Y-44923217D01*
X99552431Y-44937558D01*
X99685248Y-44979270D01*
X99806116Y-45048208D01*
X99917890Y-45147065D01*
X99917890Y-44372205D01*
X100745873Y-44372205D01*
X100745873Y-47690000D01*
G37*
G36*
X101732358Y-44939532D02*
G01*
X101865848Y-44987147D01*
X101985333Y-45065390D01*
X102094460Y-45178572D01*
X102153811Y-44970111D01*
X102924458Y-44970111D01*
X102924458Y-47064616D01*
X102918032Y-47452018D01*
X102904858Y-47612880D01*
X102863906Y-47733908D01*
X102766555Y-47875013D01*
X102680237Y-47957528D01*
X102571270Y-48028059D01*
X102435728Y-48086222D01*
X102292433Y-48124573D01*
X102116390Y-48149785D01*
X101901752Y-48158946D01*
X101640294Y-48142123D01*
X101431817Y-48096086D01*
X101266477Y-48025772D01*
X101166059Y-47948459D01*
X101090798Y-47841026D01*
X101040158Y-47696090D01*
X101018448Y-47502421D01*
X101821885Y-47502421D01*
X101839211Y-47607021D01*
X101882286Y-47660112D01*
X101953043Y-47678276D01*
X102034819Y-47662947D01*
X102077973Y-47623321D01*
X102098877Y-47552868D01*
X102108748Y-47392695D01*
X102108748Y-47188813D01*
X101997673Y-47275127D01*
X101884350Y-47335542D01*
X101763879Y-47372743D01*
X101637420Y-47385184D01*
X101490745Y-47374136D01*
X101369620Y-47343291D01*
X101269407Y-47294876D01*
X101181865Y-47227051D01*
X101116810Y-47148555D01*
X101071754Y-47058021D01*
X101033789Y-46895309D01*
X101018448Y-46640366D01*
X101018448Y-45694047D01*
X101846431Y-45694047D01*
X101846431Y-46612156D01*
X101853778Y-46779431D01*
X101868963Y-46849926D01*
X101902501Y-46890092D01*
X101963301Y-46904515D01*
X102032029Y-46887333D01*
X102069730Y-46838752D01*
X102086312Y-46752314D01*
X102094460Y-46540165D01*
X102094460Y-45694047D01*
X102087303Y-45523540D01*
X102072844Y-45455361D01*
X102040212Y-45417813D01*
X101977590Y-45403886D01*
X101915823Y-45418928D01*
X101876107Y-45462688D01*
X101855827Y-45535784D01*
X101846431Y-45694047D01*
X101018448Y-45694047D01*
X101018448Y-45651549D01*
X101037389Y-45395224D01*
X101086524Y-45215825D01*
X101157850Y-45093576D01*
X101233275Y-45021516D01*
X101326356Y-44968788D01*
X101440869Y-44935267D01*
X101582099Y-44923217D01*
X101732358Y-44939532D01*
G37*
G36*
X104341459Y-44939419D02*
G01*
X104530714Y-44984567D01*
X104687037Y-45055108D01*
X104825528Y-45154867D01*
X104930071Y-45270864D01*
X105004674Y-45404802D01*
X105051645Y-45553217D01*
X105083797Y-45753118D01*
X105095899Y-46017180D01*
X105095899Y-46376950D01*
X104024100Y-46376950D01*
X104024100Y-46965148D01*
X104032790Y-47133255D01*
X104050662Y-47202918D01*
X104087961Y-47241982D01*
X104153244Y-47256224D01*
X104233514Y-47237555D01*
X104279090Y-47185516D01*
X104300899Y-47098152D01*
X104310964Y-46911659D01*
X104310964Y-46552805D01*
X105095899Y-46552805D01*
X105095899Y-46753572D01*
X105086665Y-46991048D01*
X105064025Y-47140819D01*
X105014194Y-47274433D01*
X104915465Y-47429698D01*
X104830672Y-47523565D01*
X104732498Y-47600045D01*
X104619442Y-47660141D01*
X104497438Y-47700872D01*
X104349120Y-47727338D01*
X104169547Y-47736894D01*
X103916707Y-47717009D01*
X103706279Y-47661240D01*
X103577901Y-47601991D01*
X103474959Y-47532635D01*
X103393771Y-47453511D01*
X103298855Y-47313928D01*
X103239165Y-47162984D01*
X103208647Y-46986318D01*
X103196117Y-46701549D01*
X103196117Y-45909469D01*
X103205344Y-45734713D01*
X104024100Y-45734713D01*
X104024100Y-45931451D01*
X104265901Y-45931451D01*
X104265901Y-45734713D01*
X104258514Y-45543947D01*
X104243369Y-45464886D01*
X104209521Y-45419438D01*
X104151229Y-45403886D01*
X104078236Y-45418530D01*
X104044617Y-45455727D01*
X104031141Y-45528655D01*
X104024100Y-45734713D01*
X103205344Y-45734713D01*
X103208632Y-45672432D01*
X103242314Y-45488589D01*
X103292471Y-45347833D01*
X103369578Y-45222392D01*
X103473571Y-45117965D01*
X103608094Y-45032759D01*
X103757879Y-44973025D01*
X103924885Y-44936052D01*
X104112211Y-44923217D01*
X104341459Y-44939419D01*
G37*
G36*
X106276142Y-44372205D02*
G01*
X106140770Y-46869344D01*
X105501464Y-46869344D01*
X105366276Y-44372205D01*
X106276142Y-44372205D01*
G37*
G36*
X106208547Y-47021751D02*
G01*
X106208547Y-47690000D01*
X105433870Y-47690000D01*
X105433870Y-47021751D01*
X106208547Y-47021751D01*
G37*
D11*
G36*
X71967594Y-3720481D02*
G01*
X71967594Y-7050000D01*
X71093082Y-7050000D01*
X71093082Y-5654884D01*
X70846702Y-5654884D01*
X70846702Y-7050000D01*
X69972191Y-7050000D01*
X69972191Y-3720481D01*
X70846702Y-3720481D01*
X70846702Y-4904570D01*
X71093082Y-4904570D01*
X71093082Y-3720481D01*
X71967594Y-3720481D01*
G37*
G36*
X73405260Y-4287798D02*
G01*
X73595554Y-4333249D01*
X73752887Y-4404300D01*
X73892270Y-4504746D01*
X73997475Y-4621533D01*
X74072540Y-4756376D01*
X74119919Y-4905780D01*
X74152314Y-5106567D01*
X74164497Y-5371318D01*
X74164497Y-5736950D01*
X73092698Y-5736950D01*
X73092698Y-6319286D01*
X73101084Y-6485887D01*
X73118161Y-6553393D01*
X73153850Y-6590874D01*
X73215980Y-6604501D01*
X73292999Y-6586502D01*
X73337063Y-6536174D01*
X73358069Y-6450932D01*
X73367838Y-6265797D01*
X73367838Y-5901081D01*
X74164497Y-5901081D01*
X74164497Y-6107711D01*
X74155218Y-6345943D01*
X74132440Y-6496606D01*
X74082272Y-6631125D01*
X73982780Y-6787500D01*
X73897333Y-6882042D01*
X73798428Y-6959069D01*
X73684560Y-7019591D01*
X73561805Y-7060625D01*
X73412693Y-7087275D01*
X73232283Y-7096894D01*
X72978364Y-7076873D01*
X72766817Y-7020690D01*
X72637636Y-6961123D01*
X72533962Y-6891280D01*
X72452110Y-6811496D01*
X72356400Y-6670785D01*
X72296222Y-6518771D01*
X72265566Y-6341211D01*
X72252991Y-6055687D01*
X72252991Y-5263607D01*
X72262245Y-5088852D01*
X73092698Y-5088852D01*
X73092698Y-5279727D01*
X73322775Y-5279727D01*
X73322775Y-5088852D01*
X73315641Y-4899300D01*
X73301160Y-4822505D01*
X73268859Y-4778747D01*
X73213965Y-4763886D01*
X73144385Y-4777853D01*
X73112299Y-4813346D01*
X73099476Y-4883974D01*
X73092698Y-5088852D01*
X72262245Y-5088852D01*
X72265586Y-5025755D01*
X72299510Y-4840975D01*
X72350078Y-4699223D01*
X72427769Y-4572768D01*
X72532492Y-4467556D01*
X72667899Y-4381769D01*
X72818681Y-4321621D01*
X72986664Y-4284408D01*
X73174947Y-4271493D01*
X73405260Y-4287798D01*
G37*
G36*
X75287404Y-3720481D02*
G01*
X75287404Y-7050000D01*
X74423150Y-7050000D01*
X74423150Y-3720481D01*
X75287404Y-3720481D01*
G37*
G36*
X76436322Y-3720481D02*
G01*
X76436322Y-7050000D01*
X75572069Y-7050000D01*
X75572069Y-3720481D01*
X76436322Y-3720481D01*
G37*
G36*
X77809655Y-4281614D02*
G01*
X77968704Y-4310163D01*
X78105294Y-4355024D01*
X78233852Y-4418990D01*
X78336078Y-4491566D01*
X78415788Y-4572461D01*
X78509431Y-4711175D01*
X78565448Y-4848700D01*
X78593855Y-5009247D01*
X78605748Y-5280094D01*
X78605748Y-5945045D01*
X78594661Y-6287573D01*
X78568562Y-6483784D01*
X78511228Y-6648205D01*
X78409560Y-6805268D01*
X78321299Y-6895677D01*
X78217737Y-6968975D01*
X78096868Y-7025819D01*
X77897457Y-7078246D01*
X77659246Y-7096894D01*
X77395029Y-7080454D01*
X77191948Y-7036261D01*
X77069351Y-6986704D01*
X76971126Y-6925318D01*
X76893545Y-6852529D01*
X76803159Y-6718694D01*
X76741503Y-6555774D01*
X76709551Y-6360198D01*
X76696257Y-6035170D01*
X76696257Y-5339445D01*
X76707148Y-5085266D01*
X76708639Y-5075296D01*
X77535964Y-5075296D01*
X77535964Y-6301334D01*
X77543634Y-6475865D01*
X77559412Y-6548630D01*
X77593385Y-6590076D01*
X77651003Y-6604501D01*
X77710609Y-6590928D01*
X77743510Y-6553576D01*
X77758668Y-6487312D01*
X77766041Y-6327896D01*
X77766041Y-5075296D01*
X77758752Y-4886608D01*
X77744426Y-4815727D01*
X77712294Y-4777682D01*
X77653018Y-4763886D01*
X77593292Y-4777651D01*
X77559412Y-4815910D01*
X77543863Y-4886825D01*
X77535964Y-5075296D01*
X76708639Y-5075296D01*
X76736178Y-4891116D01*
X76778689Y-4745568D01*
X76847527Y-4613417D01*
X76945404Y-4499324D01*
X77075994Y-4401369D01*
X77224581Y-4331900D01*
X77405059Y-4287455D01*
X77624441Y-4271493D01*
X77809655Y-4281614D01*
G37*
G36*
X80504064Y-3720481D02*
G01*
X80504064Y-7050000D01*
X79629553Y-7050000D01*
X79629553Y-3720481D01*
X80504064Y-3720481D01*
G37*
G36*
X81642175Y-4318387D02*
G01*
X81628803Y-4563668D01*
X81726611Y-4441553D01*
X81848255Y-4349528D01*
X81990153Y-4291489D01*
X82154535Y-4271493D01*
X82313527Y-4290642D01*
X82450586Y-4346160D01*
X82570979Y-4439069D01*
X82677337Y-4575392D01*
X82787908Y-4442776D01*
X82909979Y-4349528D01*
X83048773Y-4291237D01*
X83203803Y-4271493D01*
X83342599Y-4283913D01*
X83458802Y-4318996D01*
X83556795Y-4375174D01*
X83640595Y-4451226D01*
X83699366Y-4535155D01*
X83735947Y-4628515D01*
X83763476Y-4801402D01*
X83775331Y-5112848D01*
X83775331Y-7050000D01*
X82960170Y-7050000D01*
X82960170Y-5272217D01*
X82952330Y-4956987D01*
X82937273Y-4844303D01*
X82914959Y-4798855D01*
X82881303Y-4773053D01*
X82832859Y-4763886D01*
X82782842Y-4773030D01*
X82747836Y-4798674D01*
X82724232Y-4843387D01*
X82707874Y-4955462D01*
X82699319Y-5272217D01*
X82699319Y-7050000D01*
X81884342Y-7050000D01*
X81884342Y-5317280D01*
X81877671Y-4956703D01*
X81865474Y-4841189D01*
X81845473Y-4797941D01*
X81812733Y-4772965D01*
X81763075Y-4763886D01*
X81714406Y-4773855D01*
X81672950Y-4804187D01*
X81644130Y-4848598D01*
X81631550Y-4903654D01*
X81627520Y-5159560D01*
X81627520Y-7050000D01*
X80812543Y-7050000D01*
X80812543Y-4318387D01*
X81642175Y-4318387D01*
G37*
G36*
X86075183Y-3720481D02*
G01*
X86075183Y-7050000D01*
X85235659Y-7050000D01*
X85235659Y-5262691D01*
X85229270Y-4914252D01*
X85217524Y-4801256D01*
X85184671Y-4735267D01*
X85118422Y-4685851D01*
X85011871Y-4659524D01*
X84751692Y-4646650D01*
X84663764Y-4646650D01*
X84663764Y-4252076D01*
X84904007Y-4185728D01*
X85112063Y-4098688D01*
X85291877Y-3992149D01*
X85446657Y-3866333D01*
X85578759Y-3720481D01*
X86075183Y-3720481D01*
G37*
G36*
X88180861Y-6475540D02*
G01*
X88180861Y-7050000D01*
X86347208Y-7050000D01*
X86347208Y-6573543D01*
X87072369Y-5368257D01*
X87309647Y-4938825D01*
X87402460Y-4723699D01*
X87448943Y-4565606D01*
X87462055Y-4451378D01*
X87449242Y-4328518D01*
X87417358Y-4253907D01*
X87362408Y-4206210D01*
X87281437Y-4189427D01*
X87201232Y-4207660D01*
X87145516Y-4260868D01*
X87114948Y-4351259D01*
X87100819Y-4549014D01*
X87100819Y-4869399D01*
X86347208Y-4869399D01*
X86347208Y-4742271D01*
X86355399Y-4477073D01*
X86375968Y-4300252D01*
X86424626Y-4142444D01*
X86518483Y-3980600D01*
X86601632Y-3884340D01*
X86699449Y-3805356D01*
X86813590Y-3742646D01*
X86937297Y-3699197D01*
X87081166Y-3671625D01*
X87248647Y-3661863D01*
X87498215Y-3679687D01*
X87701250Y-3729058D01*
X87866243Y-3805729D01*
X87999877Y-3908243D01*
X88111168Y-4039345D01*
X88189944Y-4184837D01*
X88238043Y-4347662D01*
X88254684Y-4531978D01*
X88239803Y-4719813D01*
X88193401Y-4920262D01*
X88111802Y-5136113D01*
X87996788Y-5355666D01*
X87743412Y-5770685D01*
X87278140Y-6475540D01*
X88180861Y-6475540D01*
G37*
G36*
X89792131Y-4318387D02*
G01*
X89792131Y-4933330D01*
X89184333Y-6487264D01*
X89792131Y-6487264D01*
X89792131Y-7050000D01*
X88368440Y-7050000D01*
X88368440Y-6467663D01*
X88990710Y-4881123D01*
X88432004Y-4881123D01*
X88432004Y-4318387D01*
X89792131Y-4318387D01*
G37*
G36*
X91807501Y-5361793D02*
G01*
X91015055Y-5361793D01*
X91015055Y-5040491D01*
X91006943Y-4890385D01*
X90989410Y-4820490D01*
X90953777Y-4778398D01*
X90895804Y-4763886D01*
X90837489Y-4776899D01*
X90804213Y-4812796D01*
X90788507Y-4877549D01*
X90780765Y-5038476D01*
X90780765Y-6319652D01*
X90791178Y-6453716D01*
X90816486Y-6534159D01*
X90861499Y-6587646D01*
X90920350Y-6604501D01*
X90987642Y-6585955D01*
X91029160Y-6530495D01*
X91048829Y-6439338D01*
X91057920Y-6244914D01*
X91057920Y-5912805D01*
X91807501Y-5912805D01*
X91799545Y-6224712D01*
X91783871Y-6410511D01*
X91740478Y-6572210D01*
X91645568Y-6747932D01*
X91559646Y-6854116D01*
X91458685Y-6940656D01*
X91341120Y-7008967D01*
X91212840Y-7055957D01*
X91059774Y-7086106D01*
X90877302Y-7096894D01*
X90644609Y-7081551D01*
X90461651Y-7039798D01*
X90318780Y-6976360D01*
X90193673Y-6884337D01*
X90097178Y-6772511D01*
X90026605Y-6638389D01*
X89982688Y-6490362D01*
X89952468Y-6289545D01*
X89941058Y-6022897D01*
X89941058Y-5251334D01*
X89950609Y-5018410D01*
X89975570Y-4848103D01*
X90011217Y-4727067D01*
X90071299Y-4619021D01*
X90168201Y-4513873D01*
X90310537Y-4410528D01*
X90468732Y-4335219D01*
X90652456Y-4288094D01*
X90867044Y-4271493D01*
X91080302Y-4287982D01*
X91264122Y-4334924D01*
X91423551Y-4410162D01*
X91564702Y-4514409D01*
X91665262Y-4630388D01*
X91731114Y-4759673D01*
X91770190Y-4903081D01*
X91797249Y-5099406D01*
X91807501Y-5361793D01*
G37*
G36*
X93223078Y-4291174D02*
G01*
X93429907Y-4343470D01*
X93581071Y-4421153D01*
X93708804Y-4532397D01*
X93792812Y-4653897D01*
X93839174Y-4788433D01*
X93868628Y-5062334D01*
X93882588Y-5680163D01*
X93882588Y-7050000D01*
X93065413Y-7050000D01*
X93065413Y-6822670D01*
X92985885Y-6935997D01*
X92878567Y-7023072D01*
X92748722Y-7077661D01*
X92589689Y-7096894D01*
X92447346Y-7083166D01*
X92314037Y-7042430D01*
X92187238Y-6973796D01*
X92114977Y-6904957D01*
X92058082Y-6800902D01*
X92018912Y-6649975D01*
X92003872Y-6436706D01*
X92003872Y-6277337D01*
X92792288Y-6277337D01*
X92801034Y-6467955D01*
X92818850Y-6545516D01*
X92857067Y-6588954D01*
X92923813Y-6604501D01*
X92987596Y-6591840D01*
X93020350Y-6558888D01*
X93035156Y-6493935D01*
X93042882Y-6310127D01*
X93042882Y-5763878D01*
X92921707Y-5863211D01*
X92854256Y-5939288D01*
X92823613Y-5997801D01*
X92801378Y-6105273D01*
X92792288Y-6277337D01*
X92003872Y-6277337D01*
X92003872Y-6213773D01*
X92017842Y-6009287D01*
X92052803Y-5876727D01*
X92101325Y-5795019D01*
X92176778Y-5730676D01*
X92325109Y-5645887D01*
X92581263Y-5535450D01*
X92939319Y-5379068D01*
X93015038Y-5323142D01*
X93033960Y-5254775D01*
X93042882Y-5100575D01*
X93032844Y-4907153D01*
X93012107Y-4826168D01*
X92971702Y-4779505D01*
X92911357Y-4763886D01*
X92843980Y-4778298D01*
X92811889Y-4815910D01*
X92799008Y-4888902D01*
X92792288Y-5094347D01*
X92792288Y-5385240D01*
X92003872Y-5385240D01*
X92003872Y-5197112D01*
X92013627Y-4985203D01*
X92039481Y-4825676D01*
X92077145Y-4708016D01*
X92138383Y-4602878D01*
X92233921Y-4501688D01*
X92371336Y-4403567D01*
X92524097Y-4333242D01*
X92712431Y-4287889D01*
X92944330Y-4271493D01*
X93223078Y-4291174D01*
G37*
G36*
X94996519Y-4499555D02*
G01*
X95098222Y-4402722D01*
X95216521Y-4331027D01*
X95348259Y-4286588D01*
X95492759Y-4271493D01*
X95657110Y-4285730D01*
X95790430Y-4325348D01*
X95903685Y-4391411D01*
X95983321Y-4476474D01*
X96037676Y-4575572D01*
X96063189Y-4666983D01*
X96076561Y-5061008D01*
X96076561Y-6284848D01*
X96064675Y-6565372D01*
X96036261Y-6731995D01*
X95998687Y-6823606D01*
X95936796Y-6908573D01*
X95846667Y-6988267D01*
X95742619Y-7047945D01*
X95625726Y-7084309D01*
X95492759Y-7096894D01*
X95350261Y-7080659D01*
X95218536Y-7032414D01*
X95099811Y-6955065D01*
X94993405Y-6848316D01*
X94941931Y-7050000D01*
X94156995Y-7050000D01*
X94156995Y-5097827D01*
X94996519Y-5097827D01*
X94996519Y-6268545D01*
X95004672Y-6466992D01*
X95021065Y-6545516D01*
X95056796Y-6589252D01*
X95117786Y-6604501D01*
X95179666Y-6588685D01*
X95214139Y-6543501D01*
X95229217Y-6460462D01*
X95236854Y-6241983D01*
X95236854Y-5097827D01*
X95228481Y-4906339D01*
X95211209Y-4825985D01*
X95174160Y-4779844D01*
X95111557Y-4763886D01*
X95050898Y-4778225D01*
X95018135Y-4817925D01*
X95003873Y-4892715D01*
X94996519Y-5097827D01*
X94156995Y-5097827D01*
X94156995Y-3720481D01*
X94996519Y-3720481D01*
X94996519Y-4499555D01*
G37*
G36*
X70846702Y-8760481D02*
G01*
X70846702Y-12090000D01*
X69972191Y-12090000D01*
X69972191Y-8760481D01*
X70846702Y-8760481D01*
G37*
G36*
X72758025Y-8760481D02*
G01*
X72758025Y-12090000D01*
X71893771Y-12090000D01*
X71893771Y-8760481D01*
X72758025Y-8760481D01*
G37*
G36*
X74131358Y-9321614D02*
G01*
X74290407Y-9350163D01*
X74426997Y-9395024D01*
X74555555Y-9458990D01*
X74657780Y-9531566D01*
X74737491Y-9612461D01*
X74831134Y-9751175D01*
X74887151Y-9888700D01*
X74915558Y-10049247D01*
X74927451Y-10320094D01*
X74927451Y-10985045D01*
X74916364Y-11327573D01*
X74890265Y-11523784D01*
X74832931Y-11688205D01*
X74731263Y-11845268D01*
X74643001Y-11935677D01*
X74539440Y-12008975D01*
X74418571Y-12065819D01*
X74219160Y-12118246D01*
X73980949Y-12136894D01*
X73716732Y-12120454D01*
X73513651Y-12076261D01*
X73391054Y-12026704D01*
X73292828Y-11965318D01*
X73215247Y-11892529D01*
X73124862Y-11758694D01*
X73063206Y-11595774D01*
X73031254Y-11400198D01*
X73017960Y-11075170D01*
X73017960Y-10379445D01*
X73028851Y-10125266D01*
X73030342Y-10115296D01*
X73857667Y-10115296D01*
X73857667Y-11341334D01*
X73865336Y-11515865D01*
X73881114Y-11588630D01*
X73915088Y-11630076D01*
X73972705Y-11644501D01*
X74032312Y-11630928D01*
X74065212Y-11593576D01*
X74080370Y-11527312D01*
X74087744Y-11367896D01*
X74087744Y-10115296D01*
X74080455Y-9926608D01*
X74066128Y-9855727D01*
X74033997Y-9817682D01*
X73974720Y-9803886D01*
X73914994Y-9817651D01*
X73881114Y-9855910D01*
X73865566Y-9926825D01*
X73857667Y-10115296D01*
X73030342Y-10115296D01*
X73057881Y-9931116D01*
X73100392Y-9785568D01*
X73169230Y-9653417D01*
X73267107Y-9539324D01*
X73397697Y-9441369D01*
X73546283Y-9371900D01*
X73726762Y-9327455D01*
X73946144Y-9311493D01*
X74131358Y-9321614D01*
G37*
G36*
X76911863Y-9358387D02*
G01*
X76522967Y-12090000D01*
X75432850Y-12090000D01*
X75015012Y-9358387D01*
X75766608Y-9358387D01*
X75993204Y-11360019D01*
X76077468Y-10282541D01*
X76159900Y-9358387D01*
X76911863Y-9358387D01*
G37*
G36*
X78150410Y-9327798D02*
G01*
X78340704Y-9373249D01*
X78498037Y-9444300D01*
X78637420Y-9544746D01*
X78742625Y-9661533D01*
X78817690Y-9796376D01*
X78865069Y-9945780D01*
X78897464Y-10146567D01*
X78909647Y-10411318D01*
X78909647Y-10776950D01*
X77837848Y-10776950D01*
X77837848Y-11359286D01*
X77846234Y-11525887D01*
X77863311Y-11593393D01*
X77899000Y-11630874D01*
X77961130Y-11644501D01*
X78038149Y-11626502D01*
X78082213Y-11576174D01*
X78103219Y-11490932D01*
X78112988Y-11305797D01*
X78112988Y-10941081D01*
X78909647Y-10941081D01*
X78909647Y-11147711D01*
X78900368Y-11385943D01*
X78877590Y-11536606D01*
X78827422Y-11671125D01*
X78727930Y-11827500D01*
X78642483Y-11922042D01*
X78543578Y-11999069D01*
X78429710Y-12059591D01*
X78306955Y-12100625D01*
X78157843Y-12127275D01*
X77977433Y-12136894D01*
X77723514Y-12116873D01*
X77511967Y-12060690D01*
X77382786Y-12001123D01*
X77279112Y-11931280D01*
X77197260Y-11851496D01*
X77101550Y-11710785D01*
X77041372Y-11558771D01*
X77010716Y-11381211D01*
X76998142Y-11095687D01*
X76998142Y-10303607D01*
X77007395Y-10128852D01*
X77837848Y-10128852D01*
X77837848Y-10319727D01*
X78067925Y-10319727D01*
X78067925Y-10128852D01*
X78060791Y-9939300D01*
X78046310Y-9862505D01*
X78014009Y-9818747D01*
X77959115Y-9803886D01*
X77889535Y-9817853D01*
X77857449Y-9853346D01*
X77844626Y-9923974D01*
X77837848Y-10128852D01*
X77007395Y-10128852D01*
X77010736Y-10065755D01*
X77044660Y-9880975D01*
X77095228Y-9739223D01*
X77172919Y-9612768D01*
X77277642Y-9507556D01*
X77413049Y-9421769D01*
X77563831Y-9361621D01*
X77731814Y-9324408D01*
X77920097Y-9311493D01*
X78150410Y-9327798D01*
G37*
G36*
X81110419Y-8775384D02*
G01*
X81376927Y-8807742D01*
X81512262Y-8855235D01*
X81629591Y-8934753D01*
X81731934Y-9049909D01*
X81802165Y-9187735D01*
X81850790Y-9387534D01*
X81869504Y-9669614D01*
X81855025Y-9930795D01*
X81819414Y-10095418D01*
X81771685Y-10192599D01*
X81695245Y-10263746D01*
X81573413Y-10317264D01*
X81388285Y-10348121D01*
X81558082Y-10398619D01*
X81668911Y-10454896D01*
X81736697Y-10514633D01*
X81811999Y-10623657D01*
X81847705Y-10713203D01*
X81861993Y-10841200D01*
X81869504Y-11206878D01*
X81869504Y-12090000D01*
X81056542Y-12090000D01*
X81056542Y-10978267D01*
X81042775Y-10738353D01*
X81015875Y-10651104D01*
X80982198Y-10620900D01*
X80917836Y-10598645D01*
X80805949Y-10589371D01*
X80805949Y-12090000D01*
X79931437Y-12090000D01*
X79931437Y-10061807D01*
X80805949Y-10061807D01*
X80932301Y-10050245D01*
X81000122Y-10023155D01*
X81026162Y-9989985D01*
X81047245Y-9914523D01*
X81056542Y-9768166D01*
X81056542Y-9585533D01*
X81039897Y-9446968D01*
X81001953Y-9382751D01*
X80934448Y-9349156D01*
X80805949Y-9334940D01*
X80805949Y-10061807D01*
X79931437Y-10061807D01*
X79931437Y-8760481D01*
X80548028Y-8760481D01*
X81110419Y-8775384D01*
G37*
G36*
X83294165Y-9327798D02*
G01*
X83484458Y-9373249D01*
X83641791Y-9444300D01*
X83781174Y-9544746D01*
X83886380Y-9661533D01*
X83961444Y-9796376D01*
X84008824Y-9945780D01*
X84041219Y-10146567D01*
X84053401Y-10411318D01*
X84053401Y-10776950D01*
X82981603Y-10776950D01*
X82981603Y-11359286D01*
X82989988Y-11525887D01*
X83007065Y-11593393D01*
X83042755Y-11630874D01*
X83104884Y-11644501D01*
X83181903Y-11626502D01*
X83225968Y-11576174D01*
X83246974Y-11490932D01*
X83256742Y-11305797D01*
X83256742Y-10941081D01*
X84053401Y-10941081D01*
X84053401Y-11147711D01*
X84044122Y-11385943D01*
X84021345Y-11536606D01*
X83971177Y-11671125D01*
X83871685Y-11827500D01*
X83786237Y-11922042D01*
X83687332Y-11999069D01*
X83573464Y-12059591D01*
X83450709Y-12100625D01*
X83301597Y-12127275D01*
X83121188Y-12136894D01*
X82867268Y-12116873D01*
X82655722Y-12060690D01*
X82526541Y-12001123D01*
X82422866Y-11931280D01*
X82341015Y-11851496D01*
X82245305Y-11710785D01*
X82185127Y-11558771D01*
X82154470Y-11381211D01*
X82141896Y-11095687D01*
X82141896Y-10303607D01*
X82151150Y-10128852D01*
X82981603Y-10128852D01*
X82981603Y-10319727D01*
X83211680Y-10319727D01*
X83211680Y-10128852D01*
X83204546Y-9939300D01*
X83190064Y-9862505D01*
X83157763Y-9818747D01*
X83102869Y-9803886D01*
X83033289Y-9817853D01*
X83001203Y-9853346D01*
X82988381Y-9923974D01*
X82981603Y-10128852D01*
X82151150Y-10128852D01*
X82154491Y-10065755D01*
X82188414Y-9880975D01*
X82238982Y-9739223D01*
X82316673Y-9612768D01*
X82421397Y-9507556D01*
X82556803Y-9421769D01*
X82707585Y-9361621D01*
X82875569Y-9324408D01*
X83063852Y-9311493D01*
X83294165Y-9327798D01*
G37*
G36*
X85196641Y-8994954D02*
G01*
X85196641Y-9428729D01*
X85420123Y-9428729D01*
X85420123Y-9874228D01*
X85196641Y-9874228D01*
X85196641Y-11321001D01*
X85206567Y-11559000D01*
X85222653Y-11615741D01*
X85270968Y-11633910D01*
X85454928Y-11644501D01*
X85454928Y-12090000D01*
X85114942Y-12090000D01*
X84851748Y-12082832D01*
X84709560Y-12066369D01*
X84594955Y-12027318D01*
X84493954Y-11956826D01*
X84417297Y-11863168D01*
X84377634Y-11760272D01*
X84362462Y-11613669D01*
X84354919Y-11244797D01*
X84354919Y-9874228D01*
X84176683Y-9874228D01*
X84176683Y-9428729D01*
X84354919Y-9428729D01*
X84354919Y-8994954D01*
X85196641Y-8994954D01*
G37*
G36*
X86430006Y-9358387D02*
G01*
X86390806Y-9729331D01*
X86474368Y-9577447D01*
X86568132Y-9465085D01*
X86672109Y-9385515D01*
X86788052Y-9334590D01*
X86919286Y-9311127D01*
X86919286Y-10284556D01*
X86704922Y-10302354D01*
X86582780Y-10344823D01*
X86497346Y-10417943D01*
X86453637Y-10512801D01*
X86437483Y-10655453D01*
X86429457Y-11013988D01*
X86429457Y-12090000D01*
X85589933Y-12090000D01*
X85589933Y-9358387D01*
X86430006Y-9358387D01*
G37*
G36*
X88179230Y-9321614D02*
G01*
X88338278Y-9350163D01*
X88474869Y-9395024D01*
X88603427Y-9458990D01*
X88705652Y-9531566D01*
X88785362Y-9612461D01*
X88879005Y-9751175D01*
X88935022Y-9888700D01*
X88963430Y-10049247D01*
X88975322Y-10320094D01*
X88975322Y-10985045D01*
X88964235Y-11327573D01*
X88938136Y-11523784D01*
X88880802Y-11688205D01*
X88779134Y-11845268D01*
X88690873Y-11935677D01*
X88587311Y-12008975D01*
X88466442Y-12065819D01*
X88267032Y-12118246D01*
X88028820Y-12136894D01*
X87764603Y-12120454D01*
X87561523Y-12076261D01*
X87438925Y-12026704D01*
X87340700Y-11965318D01*
X87263119Y-11892529D01*
X87172734Y-11758694D01*
X87111078Y-11595774D01*
X87079126Y-11400198D01*
X87065832Y-11075170D01*
X87065832Y-10379445D01*
X87076723Y-10125266D01*
X87078214Y-10115296D01*
X87905539Y-10115296D01*
X87905539Y-11341334D01*
X87913208Y-11515865D01*
X87928986Y-11588630D01*
X87962959Y-11630076D01*
X88020577Y-11644501D01*
X88080184Y-11630928D01*
X88113084Y-11593576D01*
X88128242Y-11527312D01*
X88135615Y-11367896D01*
X88135615Y-10115296D01*
X88128326Y-9926608D01*
X88114000Y-9855727D01*
X88081869Y-9817682D01*
X88022592Y-9803886D01*
X87962866Y-9817651D01*
X87928986Y-9855910D01*
X87913438Y-9926825D01*
X87905539Y-10115296D01*
X87078214Y-10115296D01*
X87105753Y-9931116D01*
X87148264Y-9785568D01*
X87217101Y-9653417D01*
X87314979Y-9539324D01*
X87445568Y-9441369D01*
X87594155Y-9371900D01*
X87774634Y-9327455D01*
X87994016Y-9311493D01*
X88179230Y-9321614D01*
G37*
G36*
X91748700Y-8760481D02*
G01*
X91748700Y-9440453D01*
X91236339Y-9440453D01*
X91236339Y-12090000D01*
X90361828Y-12090000D01*
X90361828Y-9440453D01*
X89851482Y-9440453D01*
X89851482Y-8760481D01*
X91748700Y-8760481D01*
G37*
G36*
X92860668Y-9327798D02*
G01*
X93050962Y-9373249D01*
X93208295Y-9444300D01*
X93347678Y-9544746D01*
X93452883Y-9661533D01*
X93527948Y-9796376D01*
X93575328Y-9945780D01*
X93607722Y-10146567D01*
X93619905Y-10411318D01*
X93619905Y-10776950D01*
X92548107Y-10776950D01*
X92548107Y-11359286D01*
X92556492Y-11525887D01*
X92573569Y-11593393D01*
X92609259Y-11630874D01*
X92671388Y-11644501D01*
X92748407Y-11626502D01*
X92792472Y-11576174D01*
X92813477Y-11490932D01*
X92823246Y-11305797D01*
X92823246Y-10941081D01*
X93619905Y-10941081D01*
X93619905Y-11147711D01*
X93610626Y-11385943D01*
X93587848Y-11536606D01*
X93537680Y-11671125D01*
X93438189Y-11827500D01*
X93352741Y-11922042D01*
X93253836Y-11999069D01*
X93139968Y-12059591D01*
X93017213Y-12100625D01*
X92868101Y-12127275D01*
X92687691Y-12136894D01*
X92433772Y-12116873D01*
X92222226Y-12060690D01*
X92093045Y-12001123D01*
X91989370Y-11931280D01*
X91907519Y-11851496D01*
X91811808Y-11710785D01*
X91751631Y-11558771D01*
X91720974Y-11381211D01*
X91708400Y-11095687D01*
X91708400Y-10303607D01*
X91717654Y-10128852D01*
X92548107Y-10128852D01*
X92548107Y-10319727D01*
X92778183Y-10319727D01*
X92778183Y-10128852D01*
X92771050Y-9939300D01*
X92756568Y-9862505D01*
X92724267Y-9818747D01*
X92669373Y-9803886D01*
X92599793Y-9817853D01*
X92567707Y-9853346D01*
X92554885Y-9923974D01*
X92548107Y-10128852D01*
X91717654Y-10128852D01*
X91720995Y-10065755D01*
X91754918Y-9880975D01*
X91805486Y-9739223D01*
X91883177Y-9612768D01*
X91987900Y-9507556D01*
X92123307Y-9421769D01*
X92274089Y-9361621D01*
X92442072Y-9324408D01*
X92630355Y-9311493D01*
X92860668Y-9327798D01*
G37*
G36*
X95720272Y-10401793D02*
G01*
X94927826Y-10401793D01*
X94927826Y-10080491D01*
X94919714Y-9930385D01*
X94902180Y-9860490D01*
X94866548Y-9818398D01*
X94808574Y-9803886D01*
X94750260Y-9816899D01*
X94716983Y-9852796D01*
X94701277Y-9917549D01*
X94693536Y-10078476D01*
X94693536Y-11359652D01*
X94703949Y-11493716D01*
X94729256Y-11574159D01*
X94774269Y-11627646D01*
X94833121Y-11644501D01*
X94900413Y-11625955D01*
X94941931Y-11570495D01*
X94961599Y-11479338D01*
X94970690Y-11284914D01*
X94970690Y-10952805D01*
X95720272Y-10952805D01*
X95712315Y-11264712D01*
X95696641Y-11450511D01*
X95653249Y-11612210D01*
X95558339Y-11787932D01*
X95472417Y-11894116D01*
X95371455Y-11980656D01*
X95253890Y-12048967D01*
X95125610Y-12095957D01*
X94972544Y-12126106D01*
X94790073Y-12136894D01*
X94557380Y-12121551D01*
X94374421Y-12079798D01*
X94231550Y-12016360D01*
X94106444Y-11924337D01*
X94009949Y-11812511D01*
X93939375Y-11678389D01*
X93895459Y-11530362D01*
X93865238Y-11329545D01*
X93853829Y-11062897D01*
X93853829Y-10291334D01*
X93863379Y-10058410D01*
X93888341Y-9888103D01*
X93923988Y-9767067D01*
X93984070Y-9659021D01*
X94080972Y-9553873D01*
X94223307Y-9450528D01*
X94381503Y-9375219D01*
X94565226Y-9328094D01*
X94779815Y-9311493D01*
X94993072Y-9327982D01*
X95176892Y-9374924D01*
X95336322Y-9450162D01*
X95477472Y-9554409D01*
X95578032Y-9670388D01*
X95643885Y-9799673D01*
X95682960Y-9943081D01*
X95710020Y-10139406D01*
X95720272Y-10401793D01*
G37*
G36*
X96793169Y-8760481D02*
G01*
X96793169Y-9503101D01*
X96897515Y-9422345D01*
X97015736Y-9361868D01*
X97144304Y-9324256D01*
X97283365Y-9311493D01*
X97425788Y-9324592D01*
X97548987Y-9362148D01*
X97656690Y-9423234D01*
X97749774Y-9505331D01*
X97810895Y-9590660D01*
X97845184Y-9680788D01*
X97868778Y-9856189D01*
X97879439Y-10210184D01*
X97879439Y-12090000D01*
X97039733Y-12090000D01*
X97039733Y-10170800D01*
X97032202Y-9955160D01*
X97017018Y-9869099D01*
X96981393Y-9820764D01*
X96916451Y-9803886D01*
X96856159Y-9820679D01*
X96818815Y-9871114D01*
X96801390Y-9955548D01*
X96793169Y-10144239D01*
X96793169Y-12090000D01*
X95953646Y-12090000D01*
X95953646Y-8760481D01*
X96793169Y-8760481D01*
G37*
G36*
X99854143Y-10237662D02*
G01*
X99108775Y-10237662D01*
X99108775Y-10085254D01*
X99101891Y-9916107D01*
X99088258Y-9851514D01*
X99055651Y-9817426D01*
X98985493Y-9803886D01*
X98925904Y-9815482D01*
X98885476Y-9848033D01*
X98861584Y-9899343D01*
X98852137Y-9982123D01*
X98857233Y-10097775D01*
X98869173Y-10163290D01*
X98899326Y-10218052D01*
X98972304Y-10289136D01*
X99083234Y-10361743D01*
X99328410Y-10490636D01*
X99566064Y-10621021D01*
X99716754Y-10731011D01*
X99803951Y-10823845D01*
X99863465Y-10934746D01*
X99902981Y-11083133D01*
X99917707Y-11279602D01*
X99906000Y-11502048D01*
X99875238Y-11665622D01*
X99830696Y-11783169D01*
X99761691Y-11885904D01*
X99666464Y-11972991D01*
X99540535Y-12045303D01*
X99402030Y-12094514D01*
X99240228Y-12125798D01*
X99051072Y-12136894D01*
X98841462Y-12124862D01*
X98662010Y-12090940D01*
X98508304Y-12037609D01*
X98367536Y-11959361D01*
X98266323Y-11869606D01*
X98197627Y-11767965D01*
X98154466Y-11650553D01*
X98124354Y-11484125D01*
X98112814Y-11254506D01*
X98112814Y-11116936D01*
X98858182Y-11116936D01*
X98858182Y-11296638D01*
X98866886Y-11497525D01*
X98884743Y-11580753D01*
X98923434Y-11627996D01*
X98989706Y-11644501D01*
X99065742Y-11632634D01*
X99108225Y-11602552D01*
X99130976Y-11547282D01*
X99141564Y-11421202D01*
X99127301Y-11248374D01*
X99098150Y-11181599D01*
X99004849Y-11115751D01*
X98617847Y-10892172D01*
X98379403Y-10740356D01*
X98240566Y-10617870D01*
X98170882Y-10518480D01*
X98127323Y-10403574D01*
X98099923Y-10271584D01*
X98090282Y-10119509D01*
X98102190Y-9901087D01*
X98133106Y-9745011D01*
X98177294Y-9636641D01*
X98245786Y-9543580D01*
X98342040Y-9463491D01*
X98471667Y-9396123D01*
X98612344Y-9350331D01*
X98771729Y-9321570D01*
X98952704Y-9311493D01*
X99212909Y-9330051D01*
X99415055Y-9380369D01*
X99588977Y-9463704D01*
X99708147Y-9562636D01*
X99793836Y-9677734D01*
X99832344Y-9772929D01*
X99847657Y-9883312D01*
X99854143Y-10074630D01*
X99854143Y-10237662D01*
G37*
G36*
X101502599Y-9921123D02*
G01*
X101502599Y-10612819D01*
X100865858Y-10612819D01*
X100865858Y-9921123D01*
X101502599Y-9921123D01*
G37*
G36*
X101502599Y-11398304D02*
G01*
X101502599Y-12090000D01*
X100865858Y-12090000D01*
X100865858Y-11398304D01*
X101502599Y-11398304D01*
G37*
G36*
X102964457Y-8778699D02*
G01*
X103236235Y-8818183D01*
X103378239Y-8867648D01*
X103488887Y-8931339D01*
X103573656Y-9008326D01*
X103668419Y-9149379D01*
X103718370Y-9302700D01*
X103738121Y-9503086D01*
X103747313Y-9936510D01*
X103747313Y-11098435D01*
X103733781Y-11509345D01*
X103704815Y-11697807D01*
X103645263Y-11835418D01*
X103556620Y-11935943D01*
X103441091Y-12007901D01*
X103296135Y-12056111D01*
X103122123Y-12080029D01*
X102831585Y-12090000D01*
X101737438Y-12090000D01*
X101737438Y-11515540D01*
X102611950Y-11515540D01*
X102727887Y-11504822D01*
X102795176Y-11478832D01*
X102830853Y-11442634D01*
X102858395Y-11337761D01*
X102872801Y-11037618D01*
X102872801Y-9742887D01*
X102868127Y-9537197D01*
X102858696Y-9454924D01*
X102835437Y-9400376D01*
X102795315Y-9363883D01*
X102734771Y-9343892D01*
X102611950Y-9334940D01*
X102611950Y-11515540D01*
X101737438Y-11515540D01*
X101737438Y-8760481D01*
X102388834Y-8760481D01*
X102964457Y-8778699D01*
G37*
D12*
X40684819Y-36766666D02*
X40208628Y-37099999D01*
X40684819Y-37338094D02*
X39684819Y-37338094D01*
X39684819Y-37338094D02*
X39684819Y-36957142D01*
X39684819Y-36957142D02*
X39732438Y-36861904D01*
X39732438Y-36861904D02*
X39780057Y-36814285D01*
X39780057Y-36814285D02*
X39875295Y-36766666D01*
X39875295Y-36766666D02*
X40018152Y-36766666D01*
X40018152Y-36766666D02*
X40113390Y-36814285D01*
X40113390Y-36814285D02*
X40161009Y-36861904D01*
X40161009Y-36861904D02*
X40208628Y-36957142D01*
X40208628Y-36957142D02*
X40208628Y-37338094D01*
X40684819Y-36290475D02*
X40684819Y-36099999D01*
X40684819Y-36099999D02*
X40637200Y-36004761D01*
X40637200Y-36004761D02*
X40589580Y-35957142D01*
X40589580Y-35957142D02*
X40446723Y-35861904D01*
X40446723Y-35861904D02*
X40256247Y-35814285D01*
X40256247Y-35814285D02*
X39875295Y-35814285D01*
X39875295Y-35814285D02*
X39780057Y-35861904D01*
X39780057Y-35861904D02*
X39732438Y-35909523D01*
X39732438Y-35909523D02*
X39684819Y-36004761D01*
X39684819Y-36004761D02*
X39684819Y-36195237D01*
X39684819Y-36195237D02*
X39732438Y-36290475D01*
X39732438Y-36290475D02*
X39780057Y-36338094D01*
X39780057Y-36338094D02*
X39875295Y-36385713D01*
X39875295Y-36385713D02*
X40113390Y-36385713D01*
X40113390Y-36385713D02*
X40208628Y-36338094D01*
X40208628Y-36338094D02*
X40256247Y-36290475D01*
X40256247Y-36290475D02*
X40303866Y-36195237D01*
X40303866Y-36195237D02*
X40303866Y-36004761D01*
X40303866Y-36004761D02*
X40256247Y-35909523D01*
X40256247Y-35909523D02*
X40208628Y-35861904D01*
X40208628Y-35861904D02*
X40113390Y-35814285D01*
X34965714Y37955180D02*
X34965714Y38955180D01*
X34965714Y38955180D02*
X35203809Y38955180D01*
X35203809Y38955180D02*
X35346666Y38907561D01*
X35346666Y38907561D02*
X35441904Y38812323D01*
X35441904Y38812323D02*
X35489523Y38717085D01*
X35489523Y38717085D02*
X35537142Y38526609D01*
X35537142Y38526609D02*
X35537142Y38383752D01*
X35537142Y38383752D02*
X35489523Y38193276D01*
X35489523Y38193276D02*
X35441904Y38098038D01*
X35441904Y38098038D02*
X35346666Y38002800D01*
X35346666Y38002800D02*
X35203809Y37955180D01*
X35203809Y37955180D02*
X34965714Y37955180D01*
X35918095Y38002800D02*
X36060952Y37955180D01*
X36060952Y37955180D02*
X36299047Y37955180D01*
X36299047Y37955180D02*
X36394285Y38002800D01*
X36394285Y38002800D02*
X36441904Y38050419D01*
X36441904Y38050419D02*
X36489523Y38145657D01*
X36489523Y38145657D02*
X36489523Y38240895D01*
X36489523Y38240895D02*
X36441904Y38336133D01*
X36441904Y38336133D02*
X36394285Y38383752D01*
X36394285Y38383752D02*
X36299047Y38431371D01*
X36299047Y38431371D02*
X36108571Y38478990D01*
X36108571Y38478990D02*
X36013333Y38526609D01*
X36013333Y38526609D02*
X35965714Y38574228D01*
X35965714Y38574228D02*
X35918095Y38669466D01*
X35918095Y38669466D02*
X35918095Y38764704D01*
X35918095Y38764704D02*
X35965714Y38859942D01*
X35965714Y38859942D02*
X36013333Y38907561D01*
X36013333Y38907561D02*
X36108571Y38955180D01*
X36108571Y38955180D02*
X36346666Y38955180D01*
X36346666Y38955180D02*
X36489523Y38907561D01*
X37441904Y37955180D02*
X36870476Y37955180D01*
X37156190Y37955180D02*
X37156190Y38955180D01*
X37156190Y38955180D02*
X37060952Y38812323D01*
X37060952Y38812323D02*
X36965714Y38717085D01*
X36965714Y38717085D02*
X36870476Y38669466D01*
X39424819Y30033333D02*
X38948628Y29700000D01*
X39424819Y29461905D02*
X38424819Y29461905D01*
X38424819Y29461905D02*
X38424819Y29842857D01*
X38424819Y29842857D02*
X38472438Y29938095D01*
X38472438Y29938095D02*
X38520057Y29985714D01*
X38520057Y29985714D02*
X38615295Y30033333D01*
X38615295Y30033333D02*
X38758152Y30033333D01*
X38758152Y30033333D02*
X38853390Y29985714D01*
X38853390Y29985714D02*
X38901009Y29938095D01*
X38901009Y29938095D02*
X38948628Y29842857D01*
X38948628Y29842857D02*
X38948628Y29461905D01*
X38424819Y30366667D02*
X38424819Y30985714D01*
X38424819Y30985714D02*
X38805771Y30652381D01*
X38805771Y30652381D02*
X38805771Y30795238D01*
X38805771Y30795238D02*
X38853390Y30890476D01*
X38853390Y30890476D02*
X38901009Y30938095D01*
X38901009Y30938095D02*
X38996247Y30985714D01*
X38996247Y30985714D02*
X39234342Y30985714D01*
X39234342Y30985714D02*
X39329580Y30938095D01*
X39329580Y30938095D02*
X39377200Y30890476D01*
X39377200Y30890476D02*
X39424819Y30795238D01*
X39424819Y30795238D02*
X39424819Y30509524D01*
X39424819Y30509524D02*
X39377200Y30414286D01*
X39377200Y30414286D02*
X39329580Y30366667D01*
X84834761Y27045180D02*
X84501428Y27521371D01*
X84263333Y27045180D02*
X84263333Y28045180D01*
X84263333Y28045180D02*
X84644285Y28045180D01*
X84644285Y28045180D02*
X84739523Y27997561D01*
X84739523Y27997561D02*
X84787142Y27949942D01*
X84787142Y27949942D02*
X84834761Y27854704D01*
X84834761Y27854704D02*
X84834761Y27711847D01*
X84834761Y27711847D02*
X84787142Y27616609D01*
X84787142Y27616609D02*
X84739523Y27568990D01*
X84739523Y27568990D02*
X84644285Y27521371D01*
X84644285Y27521371D02*
X84263333Y27521371D01*
X85120476Y28045180D02*
X85453809Y27045180D01*
X85453809Y27045180D02*
X85787142Y28045180D01*
X86644285Y27045180D02*
X86072857Y27045180D01*
X86358571Y27045180D02*
X86358571Y28045180D01*
X86358571Y28045180D02*
X86263333Y27902323D01*
X86263333Y27902323D02*
X86168095Y27807085D01*
X86168095Y27807085D02*
X86072857Y27759466D01*
X42309580Y-22766666D02*
X42357200Y-22814285D01*
X42357200Y-22814285D02*
X42404819Y-22957142D01*
X42404819Y-22957142D02*
X42404819Y-23052380D01*
X42404819Y-23052380D02*
X42357200Y-23195237D01*
X42357200Y-23195237D02*
X42261961Y-23290475D01*
X42261961Y-23290475D02*
X42166723Y-23338094D01*
X42166723Y-23338094D02*
X41976247Y-23385713D01*
X41976247Y-23385713D02*
X41833390Y-23385713D01*
X41833390Y-23385713D02*
X41642914Y-23338094D01*
X41642914Y-23338094D02*
X41547676Y-23290475D01*
X41547676Y-23290475D02*
X41452438Y-23195237D01*
X41452438Y-23195237D02*
X41404819Y-23052380D01*
X41404819Y-23052380D02*
X41404819Y-22957142D01*
X41404819Y-22957142D02*
X41452438Y-22814285D01*
X41452438Y-22814285D02*
X41500057Y-22766666D01*
X42404819Y-21814285D02*
X42404819Y-22385713D01*
X42404819Y-22099999D02*
X41404819Y-22099999D01*
X41404819Y-22099999D02*
X41547676Y-22195237D01*
X41547676Y-22195237D02*
X41642914Y-22290475D01*
X41642914Y-22290475D02*
X41690533Y-22385713D01*
X59641667Y-65567200D02*
X59784524Y-65614819D01*
X59784524Y-65614819D02*
X60022619Y-65614819D01*
X60022619Y-65614819D02*
X60117857Y-65567200D01*
X60117857Y-65567200D02*
X60165476Y-65519580D01*
X60165476Y-65519580D02*
X60213095Y-65424342D01*
X60213095Y-65424342D02*
X60213095Y-65329104D01*
X60213095Y-65329104D02*
X60165476Y-65233866D01*
X60165476Y-65233866D02*
X60117857Y-65186247D01*
X60117857Y-65186247D02*
X60022619Y-65138628D01*
X60022619Y-65138628D02*
X59832143Y-65091009D01*
X59832143Y-65091009D02*
X59736905Y-65043390D01*
X59736905Y-65043390D02*
X59689286Y-64995771D01*
X59689286Y-64995771D02*
X59641667Y-64900533D01*
X59641667Y-64900533D02*
X59641667Y-64805295D01*
X59641667Y-64805295D02*
X59689286Y-64710057D01*
X59689286Y-64710057D02*
X59736905Y-64662438D01*
X59736905Y-64662438D02*
X59832143Y-64614819D01*
X59832143Y-64614819D02*
X60070238Y-64614819D01*
X60070238Y-64614819D02*
X60213095Y-64662438D01*
X60546429Y-64614819D02*
X60784524Y-65614819D01*
X60784524Y-65614819D02*
X60975000Y-64900533D01*
X60975000Y-64900533D02*
X61165476Y-65614819D01*
X61165476Y-65614819D02*
X61403572Y-64614819D01*
X62308333Y-65614819D02*
X61736905Y-65614819D01*
X62022619Y-65614819D02*
X62022619Y-64614819D01*
X62022619Y-64614819D02*
X61927381Y-64757676D01*
X61927381Y-64757676D02*
X61832143Y-64852914D01*
X61832143Y-64852914D02*
X61736905Y-64900533D01*
X89066667Y-65507200D02*
X89209524Y-65554819D01*
X89209524Y-65554819D02*
X89447619Y-65554819D01*
X89447619Y-65554819D02*
X89542857Y-65507200D01*
X89542857Y-65507200D02*
X89590476Y-65459580D01*
X89590476Y-65459580D02*
X89638095Y-65364342D01*
X89638095Y-65364342D02*
X89638095Y-65269104D01*
X89638095Y-65269104D02*
X89590476Y-65173866D01*
X89590476Y-65173866D02*
X89542857Y-65126247D01*
X89542857Y-65126247D02*
X89447619Y-65078628D01*
X89447619Y-65078628D02*
X89257143Y-65031009D01*
X89257143Y-65031009D02*
X89161905Y-64983390D01*
X89161905Y-64983390D02*
X89114286Y-64935771D01*
X89114286Y-64935771D02*
X89066667Y-64840533D01*
X89066667Y-64840533D02*
X89066667Y-64745295D01*
X89066667Y-64745295D02*
X89114286Y-64650057D01*
X89114286Y-64650057D02*
X89161905Y-64602438D01*
X89161905Y-64602438D02*
X89257143Y-64554819D01*
X89257143Y-64554819D02*
X89495238Y-64554819D01*
X89495238Y-64554819D02*
X89638095Y-64602438D01*
X89971429Y-64554819D02*
X90209524Y-65554819D01*
X90209524Y-65554819D02*
X90400000Y-64840533D01*
X90400000Y-64840533D02*
X90590476Y-65554819D01*
X90590476Y-65554819D02*
X90828572Y-64554819D01*
X91638095Y-64888152D02*
X91638095Y-65554819D01*
X91400000Y-64507200D02*
X91161905Y-65221485D01*
X91161905Y-65221485D02*
X91780952Y-65221485D01*
X54070833Y-63009580D02*
X54023214Y-63057200D01*
X54023214Y-63057200D02*
X53880357Y-63104819D01*
X53880357Y-63104819D02*
X53785119Y-63104819D01*
X53785119Y-63104819D02*
X53642262Y-63057200D01*
X53642262Y-63057200D02*
X53547024Y-62961961D01*
X53547024Y-62961961D02*
X53499405Y-62866723D01*
X53499405Y-62866723D02*
X53451786Y-62676247D01*
X53451786Y-62676247D02*
X53451786Y-62533390D01*
X53451786Y-62533390D02*
X53499405Y-62342914D01*
X53499405Y-62342914D02*
X53547024Y-62247676D01*
X53547024Y-62247676D02*
X53642262Y-62152438D01*
X53642262Y-62152438D02*
X53785119Y-62104819D01*
X53785119Y-62104819D02*
X53880357Y-62104819D01*
X53880357Y-62104819D02*
X54023214Y-62152438D01*
X54023214Y-62152438D02*
X54070833Y-62200057D01*
X54927976Y-62438152D02*
X54927976Y-63104819D01*
X54689881Y-62057200D02*
X54451786Y-62771485D01*
X54451786Y-62771485D02*
X55070833Y-62771485D01*
X61284819Y-62606666D02*
X60808628Y-62939999D01*
X61284819Y-63178094D02*
X60284819Y-63178094D01*
X60284819Y-63178094D02*
X60284819Y-62797142D01*
X60284819Y-62797142D02*
X60332438Y-62701904D01*
X60332438Y-62701904D02*
X60380057Y-62654285D01*
X60380057Y-62654285D02*
X60475295Y-62606666D01*
X60475295Y-62606666D02*
X60618152Y-62606666D01*
X60618152Y-62606666D02*
X60713390Y-62654285D01*
X60713390Y-62654285D02*
X60761009Y-62701904D01*
X60761009Y-62701904D02*
X60808628Y-62797142D01*
X60808628Y-62797142D02*
X60808628Y-63178094D01*
X60284819Y-61749523D02*
X60284819Y-61939999D01*
X60284819Y-61939999D02*
X60332438Y-62035237D01*
X60332438Y-62035237D02*
X60380057Y-62082856D01*
X60380057Y-62082856D02*
X60522914Y-62178094D01*
X60522914Y-62178094D02*
X60713390Y-62225713D01*
X60713390Y-62225713D02*
X61094342Y-62225713D01*
X61094342Y-62225713D02*
X61189580Y-62178094D01*
X61189580Y-62178094D02*
X61237200Y-62130475D01*
X61237200Y-62130475D02*
X61284819Y-62035237D01*
X61284819Y-62035237D02*
X61284819Y-61844761D01*
X61284819Y-61844761D02*
X61237200Y-61749523D01*
X61237200Y-61749523D02*
X61189580Y-61701904D01*
X61189580Y-61701904D02*
X61094342Y-61654285D01*
X61094342Y-61654285D02*
X60856247Y-61654285D01*
X60856247Y-61654285D02*
X60761009Y-61701904D01*
X60761009Y-61701904D02*
X60713390Y-61749523D01*
X60713390Y-61749523D02*
X60665771Y-61844761D01*
X60665771Y-61844761D02*
X60665771Y-62035237D01*
X60665771Y-62035237D02*
X60713390Y-62130475D01*
X60713390Y-62130475D02*
X60761009Y-62178094D01*
X60761009Y-62178094D02*
X60856247Y-62225713D01*
X99723809Y14471371D02*
X99723809Y13995180D01*
X99390476Y14995180D02*
X99723809Y14471371D01*
X99723809Y14471371D02*
X100057142Y14995180D01*
X100914285Y13995180D02*
X100342857Y13995180D01*
X100628571Y13995180D02*
X100628571Y14995180D01*
X100628571Y14995180D02*
X100533333Y14852323D01*
X100533333Y14852323D02*
X100438095Y14757085D01*
X100438095Y14757085D02*
X100342857Y14709466D01*
X98891667Y-65507200D02*
X99034524Y-65554819D01*
X99034524Y-65554819D02*
X99272619Y-65554819D01*
X99272619Y-65554819D02*
X99367857Y-65507200D01*
X99367857Y-65507200D02*
X99415476Y-65459580D01*
X99415476Y-65459580D02*
X99463095Y-65364342D01*
X99463095Y-65364342D02*
X99463095Y-65269104D01*
X99463095Y-65269104D02*
X99415476Y-65173866D01*
X99415476Y-65173866D02*
X99367857Y-65126247D01*
X99367857Y-65126247D02*
X99272619Y-65078628D01*
X99272619Y-65078628D02*
X99082143Y-65031009D01*
X99082143Y-65031009D02*
X98986905Y-64983390D01*
X98986905Y-64983390D02*
X98939286Y-64935771D01*
X98939286Y-64935771D02*
X98891667Y-64840533D01*
X98891667Y-64840533D02*
X98891667Y-64745295D01*
X98891667Y-64745295D02*
X98939286Y-64650057D01*
X98939286Y-64650057D02*
X98986905Y-64602438D01*
X98986905Y-64602438D02*
X99082143Y-64554819D01*
X99082143Y-64554819D02*
X99320238Y-64554819D01*
X99320238Y-64554819D02*
X99463095Y-64602438D01*
X99796429Y-64554819D02*
X100034524Y-65554819D01*
X100034524Y-65554819D02*
X100225000Y-64840533D01*
X100225000Y-64840533D02*
X100415476Y-65554819D01*
X100415476Y-65554819D02*
X100653572Y-64554819D01*
X101510714Y-64554819D02*
X101034524Y-64554819D01*
X101034524Y-64554819D02*
X100986905Y-65031009D01*
X100986905Y-65031009D02*
X101034524Y-64983390D01*
X101034524Y-64983390D02*
X101129762Y-64935771D01*
X101129762Y-64935771D02*
X101367857Y-64935771D01*
X101367857Y-64935771D02*
X101463095Y-64983390D01*
X101463095Y-64983390D02*
X101510714Y-65031009D01*
X101510714Y-65031009D02*
X101558333Y-65126247D01*
X101558333Y-65126247D02*
X101558333Y-65364342D01*
X101558333Y-65364342D02*
X101510714Y-65459580D01*
X101510714Y-65459580D02*
X101463095Y-65507200D01*
X101463095Y-65507200D02*
X101367857Y-65554819D01*
X101367857Y-65554819D02*
X101129762Y-65554819D01*
X101129762Y-65554819D02*
X101034524Y-65507200D01*
X101034524Y-65507200D02*
X100986905Y-65459580D01*
X45484819Y-55566666D02*
X45008628Y-55899999D01*
X45484819Y-56138094D02*
X44484819Y-56138094D01*
X44484819Y-56138094D02*
X44484819Y-55757142D01*
X44484819Y-55757142D02*
X44532438Y-55661904D01*
X44532438Y-55661904D02*
X44580057Y-55614285D01*
X44580057Y-55614285D02*
X44675295Y-55566666D01*
X44675295Y-55566666D02*
X44818152Y-55566666D01*
X44818152Y-55566666D02*
X44913390Y-55614285D01*
X44913390Y-55614285D02*
X44961009Y-55661904D01*
X44961009Y-55661904D02*
X45008628Y-55757142D01*
X45008628Y-55757142D02*
X45008628Y-56138094D01*
X44580057Y-55185713D02*
X44532438Y-55138094D01*
X44532438Y-55138094D02*
X44484819Y-55042856D01*
X44484819Y-55042856D02*
X44484819Y-54804761D01*
X44484819Y-54804761D02*
X44532438Y-54709523D01*
X44532438Y-54709523D02*
X44580057Y-54661904D01*
X44580057Y-54661904D02*
X44675295Y-54614285D01*
X44675295Y-54614285D02*
X44770533Y-54614285D01*
X44770533Y-54614285D02*
X44913390Y-54661904D01*
X44913390Y-54661904D02*
X45484819Y-55233332D01*
X45484819Y-55233332D02*
X45484819Y-54614285D01*
X43084819Y-36766666D02*
X42608628Y-37099999D01*
X43084819Y-37338094D02*
X42084819Y-37338094D01*
X42084819Y-37338094D02*
X42084819Y-36957142D01*
X42084819Y-36957142D02*
X42132438Y-36861904D01*
X42132438Y-36861904D02*
X42180057Y-36814285D01*
X42180057Y-36814285D02*
X42275295Y-36766666D01*
X42275295Y-36766666D02*
X42418152Y-36766666D01*
X42418152Y-36766666D02*
X42513390Y-36814285D01*
X42513390Y-36814285D02*
X42561009Y-36861904D01*
X42561009Y-36861904D02*
X42608628Y-36957142D01*
X42608628Y-36957142D02*
X42608628Y-37338094D01*
X42513390Y-36195237D02*
X42465771Y-36290475D01*
X42465771Y-36290475D02*
X42418152Y-36338094D01*
X42418152Y-36338094D02*
X42322914Y-36385713D01*
X42322914Y-36385713D02*
X42275295Y-36385713D01*
X42275295Y-36385713D02*
X42180057Y-36338094D01*
X42180057Y-36338094D02*
X42132438Y-36290475D01*
X42132438Y-36290475D02*
X42084819Y-36195237D01*
X42084819Y-36195237D02*
X42084819Y-36004761D01*
X42084819Y-36004761D02*
X42132438Y-35909523D01*
X42132438Y-35909523D02*
X42180057Y-35861904D01*
X42180057Y-35861904D02*
X42275295Y-35814285D01*
X42275295Y-35814285D02*
X42322914Y-35814285D01*
X42322914Y-35814285D02*
X42418152Y-35861904D01*
X42418152Y-35861904D02*
X42465771Y-35909523D01*
X42465771Y-35909523D02*
X42513390Y-36004761D01*
X42513390Y-36004761D02*
X42513390Y-36195237D01*
X42513390Y-36195237D02*
X42561009Y-36290475D01*
X42561009Y-36290475D02*
X42608628Y-36338094D01*
X42608628Y-36338094D02*
X42703866Y-36385713D01*
X42703866Y-36385713D02*
X42894342Y-36385713D01*
X42894342Y-36385713D02*
X42989580Y-36338094D01*
X42989580Y-36338094D02*
X43037200Y-36290475D01*
X43037200Y-36290475D02*
X43084819Y-36195237D01*
X43084819Y-36195237D02*
X43084819Y-36004761D01*
X43084819Y-36004761D02*
X43037200Y-35909523D01*
X43037200Y-35909523D02*
X42989580Y-35861904D01*
X42989580Y-35861904D02*
X42894342Y-35814285D01*
X42894342Y-35814285D02*
X42703866Y-35814285D01*
X42703866Y-35814285D02*
X42608628Y-35861904D01*
X42608628Y-35861904D02*
X42561009Y-35909523D01*
X42561009Y-35909523D02*
X42513390Y-36004761D01*
X41783333Y-39224819D02*
X41450000Y-38748628D01*
X41211905Y-39224819D02*
X41211905Y-38224819D01*
X41211905Y-38224819D02*
X41592857Y-38224819D01*
X41592857Y-38224819D02*
X41688095Y-38272438D01*
X41688095Y-38272438D02*
X41735714Y-38320057D01*
X41735714Y-38320057D02*
X41783333Y-38415295D01*
X41783333Y-38415295D02*
X41783333Y-38558152D01*
X41783333Y-38558152D02*
X41735714Y-38653390D01*
X41735714Y-38653390D02*
X41688095Y-38701009D01*
X41688095Y-38701009D02*
X41592857Y-38748628D01*
X41592857Y-38748628D02*
X41211905Y-38748628D01*
X42735714Y-39224819D02*
X42164286Y-39224819D01*
X42450000Y-39224819D02*
X42450000Y-38224819D01*
X42450000Y-38224819D02*
X42354762Y-38367676D01*
X42354762Y-38367676D02*
X42259524Y-38462914D01*
X42259524Y-38462914D02*
X42164286Y-38510533D01*
X45657200Y-48733332D02*
X45704819Y-48590475D01*
X45704819Y-48590475D02*
X45704819Y-48352380D01*
X45704819Y-48352380D02*
X45657200Y-48257142D01*
X45657200Y-48257142D02*
X45609580Y-48209523D01*
X45609580Y-48209523D02*
X45514342Y-48161904D01*
X45514342Y-48161904D02*
X45419104Y-48161904D01*
X45419104Y-48161904D02*
X45323866Y-48209523D01*
X45323866Y-48209523D02*
X45276247Y-48257142D01*
X45276247Y-48257142D02*
X45228628Y-48352380D01*
X45228628Y-48352380D02*
X45181009Y-48542856D01*
X45181009Y-48542856D02*
X45133390Y-48638094D01*
X45133390Y-48638094D02*
X45085771Y-48685713D01*
X45085771Y-48685713D02*
X44990533Y-48733332D01*
X44990533Y-48733332D02*
X44895295Y-48733332D01*
X44895295Y-48733332D02*
X44800057Y-48685713D01*
X44800057Y-48685713D02*
X44752438Y-48638094D01*
X44752438Y-48638094D02*
X44704819Y-48542856D01*
X44704819Y-48542856D02*
X44704819Y-48304761D01*
X44704819Y-48304761D02*
X44752438Y-48161904D01*
X44704819Y-47828570D02*
X45704819Y-47590475D01*
X45704819Y-47590475D02*
X44990533Y-47399999D01*
X44990533Y-47399999D02*
X45704819Y-47209523D01*
X45704819Y-47209523D02*
X44704819Y-46971428D01*
X44704819Y-46685713D02*
X44704819Y-46019047D01*
X44704819Y-46019047D02*
X45704819Y-46447618D01*
X99723809Y15661371D02*
X99723809Y15185180D01*
X99390476Y16185180D02*
X99723809Y15661371D01*
X99723809Y15661371D02*
X100057142Y16185180D01*
X100342857Y16089942D02*
X100390476Y16137561D01*
X100390476Y16137561D02*
X100485714Y16185180D01*
X100485714Y16185180D02*
X100723809Y16185180D01*
X100723809Y16185180D02*
X100819047Y16137561D01*
X100819047Y16137561D02*
X100866666Y16089942D01*
X100866666Y16089942D02*
X100914285Y15994704D01*
X100914285Y15994704D02*
X100914285Y15899466D01*
X100914285Y15899466D02*
X100866666Y15756609D01*
X100866666Y15756609D02*
X100295238Y15185180D01*
X100295238Y15185180D02*
X100914285Y15185180D01*
X43063095Y-62172200D02*
X43205952Y-62219819D01*
X43205952Y-62219819D02*
X43444047Y-62219819D01*
X43444047Y-62219819D02*
X43539285Y-62172200D01*
X43539285Y-62172200D02*
X43586904Y-62124580D01*
X43586904Y-62124580D02*
X43634523Y-62029342D01*
X43634523Y-62029342D02*
X43634523Y-61934104D01*
X43634523Y-61934104D02*
X43586904Y-61838866D01*
X43586904Y-61838866D02*
X43539285Y-61791247D01*
X43539285Y-61791247D02*
X43444047Y-61743628D01*
X43444047Y-61743628D02*
X43253571Y-61696009D01*
X43253571Y-61696009D02*
X43158333Y-61648390D01*
X43158333Y-61648390D02*
X43110714Y-61600771D01*
X43110714Y-61600771D02*
X43063095Y-61505533D01*
X43063095Y-61505533D02*
X43063095Y-61410295D01*
X43063095Y-61410295D02*
X43110714Y-61315057D01*
X43110714Y-61315057D02*
X43158333Y-61267438D01*
X43158333Y-61267438D02*
X43253571Y-61219819D01*
X43253571Y-61219819D02*
X43491666Y-61219819D01*
X43491666Y-61219819D02*
X43634523Y-61267438D01*
X44586904Y-62219819D02*
X44015476Y-62219819D01*
X44301190Y-62219819D02*
X44301190Y-61219819D01*
X44301190Y-61219819D02*
X44205952Y-61362676D01*
X44205952Y-61362676D02*
X44110714Y-61457914D01*
X44110714Y-61457914D02*
X44015476Y-61505533D01*
X63684819Y-62606666D02*
X63208628Y-62939999D01*
X63684819Y-63178094D02*
X62684819Y-63178094D01*
X62684819Y-63178094D02*
X62684819Y-62797142D01*
X62684819Y-62797142D02*
X62732438Y-62701904D01*
X62732438Y-62701904D02*
X62780057Y-62654285D01*
X62780057Y-62654285D02*
X62875295Y-62606666D01*
X62875295Y-62606666D02*
X63018152Y-62606666D01*
X63018152Y-62606666D02*
X63113390Y-62654285D01*
X63113390Y-62654285D02*
X63161009Y-62701904D01*
X63161009Y-62701904D02*
X63208628Y-62797142D01*
X63208628Y-62797142D02*
X63208628Y-63178094D01*
X62684819Y-61701904D02*
X62684819Y-62178094D01*
X62684819Y-62178094D02*
X63161009Y-62225713D01*
X63161009Y-62225713D02*
X63113390Y-62178094D01*
X63113390Y-62178094D02*
X63065771Y-62082856D01*
X63065771Y-62082856D02*
X63065771Y-61844761D01*
X63065771Y-61844761D02*
X63113390Y-61749523D01*
X63113390Y-61749523D02*
X63161009Y-61701904D01*
X63161009Y-61701904D02*
X63256247Y-61654285D01*
X63256247Y-61654285D02*
X63494342Y-61654285D01*
X63494342Y-61654285D02*
X63589580Y-61701904D01*
X63589580Y-61701904D02*
X63637200Y-61749523D01*
X63637200Y-61749523D02*
X63684819Y-61844761D01*
X63684819Y-61844761D02*
X63684819Y-62082856D01*
X63684819Y-62082856D02*
X63637200Y-62178094D01*
X63637200Y-62178094D02*
X63589580Y-62225713D01*
X108716667Y-65507200D02*
X108859524Y-65554819D01*
X108859524Y-65554819D02*
X109097619Y-65554819D01*
X109097619Y-65554819D02*
X109192857Y-65507200D01*
X109192857Y-65507200D02*
X109240476Y-65459580D01*
X109240476Y-65459580D02*
X109288095Y-65364342D01*
X109288095Y-65364342D02*
X109288095Y-65269104D01*
X109288095Y-65269104D02*
X109240476Y-65173866D01*
X109240476Y-65173866D02*
X109192857Y-65126247D01*
X109192857Y-65126247D02*
X109097619Y-65078628D01*
X109097619Y-65078628D02*
X108907143Y-65031009D01*
X108907143Y-65031009D02*
X108811905Y-64983390D01*
X108811905Y-64983390D02*
X108764286Y-64935771D01*
X108764286Y-64935771D02*
X108716667Y-64840533D01*
X108716667Y-64840533D02*
X108716667Y-64745295D01*
X108716667Y-64745295D02*
X108764286Y-64650057D01*
X108764286Y-64650057D02*
X108811905Y-64602438D01*
X108811905Y-64602438D02*
X108907143Y-64554819D01*
X108907143Y-64554819D02*
X109145238Y-64554819D01*
X109145238Y-64554819D02*
X109288095Y-64602438D01*
X109621429Y-64554819D02*
X109859524Y-65554819D01*
X109859524Y-65554819D02*
X110050000Y-64840533D01*
X110050000Y-64840533D02*
X110240476Y-65554819D01*
X110240476Y-65554819D02*
X110478572Y-64554819D01*
X111288095Y-64554819D02*
X111097619Y-64554819D01*
X111097619Y-64554819D02*
X111002381Y-64602438D01*
X111002381Y-64602438D02*
X110954762Y-64650057D01*
X110954762Y-64650057D02*
X110859524Y-64792914D01*
X110859524Y-64792914D02*
X110811905Y-64983390D01*
X110811905Y-64983390D02*
X110811905Y-65364342D01*
X110811905Y-65364342D02*
X110859524Y-65459580D01*
X110859524Y-65459580D02*
X110907143Y-65507200D01*
X110907143Y-65507200D02*
X111002381Y-65554819D01*
X111002381Y-65554819D02*
X111192857Y-65554819D01*
X111192857Y-65554819D02*
X111288095Y-65507200D01*
X111288095Y-65507200D02*
X111335714Y-65459580D01*
X111335714Y-65459580D02*
X111383333Y-65364342D01*
X111383333Y-65364342D02*
X111383333Y-65126247D01*
X111383333Y-65126247D02*
X111335714Y-65031009D01*
X111335714Y-65031009D02*
X111288095Y-64983390D01*
X111288095Y-64983390D02*
X111192857Y-64935771D01*
X111192857Y-64935771D02*
X111002381Y-64935771D01*
X111002381Y-64935771D02*
X110907143Y-64983390D01*
X110907143Y-64983390D02*
X110859524Y-65031009D01*
X110859524Y-65031009D02*
X110811905Y-65126247D01*
X80904819Y4838095D02*
X81714342Y4838095D01*
X81714342Y4838095D02*
X81809580Y4885714D01*
X81809580Y4885714D02*
X81857200Y4933333D01*
X81857200Y4933333D02*
X81904819Y5028571D01*
X81904819Y5028571D02*
X81904819Y5219047D01*
X81904819Y5219047D02*
X81857200Y5314285D01*
X81857200Y5314285D02*
X81809580Y5361904D01*
X81809580Y5361904D02*
X81714342Y5409523D01*
X81714342Y5409523D02*
X80904819Y5409523D01*
X81333390Y6028571D02*
X81285771Y5933333D01*
X81285771Y5933333D02*
X81238152Y5885714D01*
X81238152Y5885714D02*
X81142914Y5838095D01*
X81142914Y5838095D02*
X81095295Y5838095D01*
X81095295Y5838095D02*
X81000057Y5885714D01*
X81000057Y5885714D02*
X80952438Y5933333D01*
X80952438Y5933333D02*
X80904819Y6028571D01*
X80904819Y6028571D02*
X80904819Y6219047D01*
X80904819Y6219047D02*
X80952438Y6314285D01*
X80952438Y6314285D02*
X81000057Y6361904D01*
X81000057Y6361904D02*
X81095295Y6409523D01*
X81095295Y6409523D02*
X81142914Y6409523D01*
X81142914Y6409523D02*
X81238152Y6361904D01*
X81238152Y6361904D02*
X81285771Y6314285D01*
X81285771Y6314285D02*
X81333390Y6219047D01*
X81333390Y6219047D02*
X81333390Y6028571D01*
X81333390Y6028571D02*
X81381009Y5933333D01*
X81381009Y5933333D02*
X81428628Y5885714D01*
X81428628Y5885714D02*
X81523866Y5838095D01*
X81523866Y5838095D02*
X81714342Y5838095D01*
X81714342Y5838095D02*
X81809580Y5885714D01*
X81809580Y5885714D02*
X81857200Y5933333D01*
X81857200Y5933333D02*
X81904819Y6028571D01*
X81904819Y6028571D02*
X81904819Y6219047D01*
X81904819Y6219047D02*
X81857200Y6314285D01*
X81857200Y6314285D02*
X81809580Y6361904D01*
X81809580Y6361904D02*
X81714342Y6409523D01*
X81714342Y6409523D02*
X81523866Y6409523D01*
X81523866Y6409523D02*
X81428628Y6361904D01*
X81428628Y6361904D02*
X81381009Y6314285D01*
X81381009Y6314285D02*
X81333390Y6219047D01*
X43445180Y-27066666D02*
X42730895Y-27066666D01*
X42730895Y-27066666D02*
X42588038Y-27019047D01*
X42588038Y-27019047D02*
X42492800Y-26923809D01*
X42492800Y-26923809D02*
X42445180Y-26780952D01*
X42445180Y-26780952D02*
X42445180Y-26685714D01*
X43349942Y-27495238D02*
X43397561Y-27542857D01*
X43397561Y-27542857D02*
X43445180Y-27638095D01*
X43445180Y-27638095D02*
X43445180Y-27876190D01*
X43445180Y-27876190D02*
X43397561Y-27971428D01*
X43397561Y-27971428D02*
X43349942Y-28019047D01*
X43349942Y-28019047D02*
X43254704Y-28066666D01*
X43254704Y-28066666D02*
X43159466Y-28066666D01*
X43159466Y-28066666D02*
X43016609Y-28019047D01*
X43016609Y-28019047D02*
X42445180Y-27447619D01*
X42445180Y-27447619D02*
X42445180Y-28066666D01*
X69466667Y-65507200D02*
X69609524Y-65554819D01*
X69609524Y-65554819D02*
X69847619Y-65554819D01*
X69847619Y-65554819D02*
X69942857Y-65507200D01*
X69942857Y-65507200D02*
X69990476Y-65459580D01*
X69990476Y-65459580D02*
X70038095Y-65364342D01*
X70038095Y-65364342D02*
X70038095Y-65269104D01*
X70038095Y-65269104D02*
X69990476Y-65173866D01*
X69990476Y-65173866D02*
X69942857Y-65126247D01*
X69942857Y-65126247D02*
X69847619Y-65078628D01*
X69847619Y-65078628D02*
X69657143Y-65031009D01*
X69657143Y-65031009D02*
X69561905Y-64983390D01*
X69561905Y-64983390D02*
X69514286Y-64935771D01*
X69514286Y-64935771D02*
X69466667Y-64840533D01*
X69466667Y-64840533D02*
X69466667Y-64745295D01*
X69466667Y-64745295D02*
X69514286Y-64650057D01*
X69514286Y-64650057D02*
X69561905Y-64602438D01*
X69561905Y-64602438D02*
X69657143Y-64554819D01*
X69657143Y-64554819D02*
X69895238Y-64554819D01*
X69895238Y-64554819D02*
X70038095Y-64602438D01*
X70371429Y-64554819D02*
X70609524Y-65554819D01*
X70609524Y-65554819D02*
X70800000Y-64840533D01*
X70800000Y-64840533D02*
X70990476Y-65554819D01*
X70990476Y-65554819D02*
X71228572Y-64554819D01*
X71561905Y-64650057D02*
X71609524Y-64602438D01*
X71609524Y-64602438D02*
X71704762Y-64554819D01*
X71704762Y-64554819D02*
X71942857Y-64554819D01*
X71942857Y-64554819D02*
X72038095Y-64602438D01*
X72038095Y-64602438D02*
X72085714Y-64650057D01*
X72085714Y-64650057D02*
X72133333Y-64745295D01*
X72133333Y-64745295D02*
X72133333Y-64840533D01*
X72133333Y-64840533D02*
X72085714Y-64983390D01*
X72085714Y-64983390D02*
X71514286Y-65554819D01*
X71514286Y-65554819D02*
X72133333Y-65554819D01*
X40313095Y-19579819D02*
X40313095Y-20389342D01*
X40313095Y-20389342D02*
X40360714Y-20484580D01*
X40360714Y-20484580D02*
X40408333Y-20532200D01*
X40408333Y-20532200D02*
X40503571Y-20579819D01*
X40503571Y-20579819D02*
X40694047Y-20579819D01*
X40694047Y-20579819D02*
X40789285Y-20532200D01*
X40789285Y-20532200D02*
X40836904Y-20484580D01*
X40836904Y-20484580D02*
X40884523Y-20389342D01*
X40884523Y-20389342D02*
X40884523Y-19579819D01*
X41836904Y-19579819D02*
X41360714Y-19579819D01*
X41360714Y-19579819D02*
X41313095Y-20056009D01*
X41313095Y-20056009D02*
X41360714Y-20008390D01*
X41360714Y-20008390D02*
X41455952Y-19960771D01*
X41455952Y-19960771D02*
X41694047Y-19960771D01*
X41694047Y-19960771D02*
X41789285Y-20008390D01*
X41789285Y-20008390D02*
X41836904Y-20056009D01*
X41836904Y-20056009D02*
X41884523Y-20151247D01*
X41884523Y-20151247D02*
X41884523Y-20389342D01*
X41884523Y-20389342D02*
X41836904Y-20484580D01*
X41836904Y-20484580D02*
X41789285Y-20532200D01*
X41789285Y-20532200D02*
X41694047Y-20579819D01*
X41694047Y-20579819D02*
X41455952Y-20579819D01*
X41455952Y-20579819D02*
X41360714Y-20532200D01*
X41360714Y-20532200D02*
X41313095Y-20484580D01*
X79033333Y32775180D02*
X78700000Y33251371D01*
X78461905Y32775180D02*
X78461905Y33775180D01*
X78461905Y33775180D02*
X78842857Y33775180D01*
X78842857Y33775180D02*
X78938095Y33727561D01*
X78938095Y33727561D02*
X78985714Y33679942D01*
X78985714Y33679942D02*
X79033333Y33584704D01*
X79033333Y33584704D02*
X79033333Y33441847D01*
X79033333Y33441847D02*
X78985714Y33346609D01*
X78985714Y33346609D02*
X78938095Y33298990D01*
X78938095Y33298990D02*
X78842857Y33251371D01*
X78842857Y33251371D02*
X78461905Y33251371D01*
X79366667Y33775180D02*
X80033333Y33775180D01*
X80033333Y33775180D02*
X79604762Y32775180D01*
X78652322Y-43356479D02*
X78652322Y-42356479D01*
X78652322Y-42356479D02*
X78985655Y-43070764D01*
X78985655Y-43070764D02*
X79318988Y-42356479D01*
X79318988Y-42356479D02*
X79318988Y-43356479D01*
X80223750Y-43356479D02*
X80223750Y-42832669D01*
X80223750Y-42832669D02*
X80176131Y-42737431D01*
X80176131Y-42737431D02*
X80080893Y-42689812D01*
X80080893Y-42689812D02*
X79890417Y-42689812D01*
X79890417Y-42689812D02*
X79795179Y-42737431D01*
X80223750Y-43308860D02*
X80128512Y-43356479D01*
X80128512Y-43356479D02*
X79890417Y-43356479D01*
X79890417Y-43356479D02*
X79795179Y-43308860D01*
X79795179Y-43308860D02*
X79747560Y-43213621D01*
X79747560Y-43213621D02*
X79747560Y-43118383D01*
X79747560Y-43118383D02*
X79795179Y-43023145D01*
X79795179Y-43023145D02*
X79890417Y-42975526D01*
X79890417Y-42975526D02*
X80128512Y-42975526D01*
X80128512Y-42975526D02*
X80223750Y-42927907D01*
X81128512Y-43356479D02*
X81128512Y-42356479D01*
X81128512Y-43308860D02*
X81033274Y-43356479D01*
X81033274Y-43356479D02*
X80842798Y-43356479D01*
X80842798Y-43356479D02*
X80747560Y-43308860D01*
X80747560Y-43308860D02*
X80699941Y-43261240D01*
X80699941Y-43261240D02*
X80652322Y-43166002D01*
X80652322Y-43166002D02*
X80652322Y-42880288D01*
X80652322Y-42880288D02*
X80699941Y-42785050D01*
X80699941Y-42785050D02*
X80747560Y-42737431D01*
X80747560Y-42737431D02*
X80842798Y-42689812D01*
X80842798Y-42689812D02*
X81033274Y-42689812D01*
X81033274Y-42689812D02*
X81128512Y-42737431D01*
X81985655Y-43308860D02*
X81890417Y-43356479D01*
X81890417Y-43356479D02*
X81699941Y-43356479D01*
X81699941Y-43356479D02*
X81604703Y-43308860D01*
X81604703Y-43308860D02*
X81557084Y-43213621D01*
X81557084Y-43213621D02*
X81557084Y-42832669D01*
X81557084Y-42832669D02*
X81604703Y-42737431D01*
X81604703Y-42737431D02*
X81699941Y-42689812D01*
X81699941Y-42689812D02*
X81890417Y-42689812D01*
X81890417Y-42689812D02*
X81985655Y-42737431D01*
X81985655Y-42737431D02*
X82033274Y-42832669D01*
X82033274Y-42832669D02*
X82033274Y-42927907D01*
X82033274Y-42927907D02*
X81557084Y-43023145D01*
X83223751Y-43356479D02*
X83223751Y-42356479D01*
X83699941Y-42689812D02*
X83699941Y-43356479D01*
X83699941Y-42785050D02*
X83747560Y-42737431D01*
X83747560Y-42737431D02*
X83842798Y-42689812D01*
X83842798Y-42689812D02*
X83985655Y-42689812D01*
X83985655Y-42689812D02*
X84080893Y-42737431D01*
X84080893Y-42737431D02*
X84128512Y-42832669D01*
X84128512Y-42832669D02*
X84128512Y-43356479D01*
X85699941Y-42832669D02*
X85366608Y-42832669D01*
X85366608Y-43356479D02*
X85366608Y-42356479D01*
X85366608Y-42356479D02*
X85842798Y-42356479D01*
X86652322Y-43356479D02*
X86652322Y-42832669D01*
X86652322Y-42832669D02*
X86604703Y-42737431D01*
X86604703Y-42737431D02*
X86509465Y-42689812D01*
X86509465Y-42689812D02*
X86318989Y-42689812D01*
X86318989Y-42689812D02*
X86223751Y-42737431D01*
X86652322Y-43308860D02*
X86557084Y-43356479D01*
X86557084Y-43356479D02*
X86318989Y-43356479D01*
X86318989Y-43356479D02*
X86223751Y-43308860D01*
X86223751Y-43308860D02*
X86176132Y-43213621D01*
X86176132Y-43213621D02*
X86176132Y-43118383D01*
X86176132Y-43118383D02*
X86223751Y-43023145D01*
X86223751Y-43023145D02*
X86318989Y-42975526D01*
X86318989Y-42975526D02*
X86557084Y-42975526D01*
X86557084Y-42975526D02*
X86652322Y-42927907D01*
X87271370Y-43356479D02*
X87176132Y-43308860D01*
X87176132Y-43308860D02*
X87128513Y-43213621D01*
X87128513Y-43213621D02*
X87128513Y-42356479D01*
X87795180Y-43356479D02*
X87699942Y-43308860D01*
X87699942Y-43308860D02*
X87652323Y-43213621D01*
X87652323Y-43213621D02*
X87652323Y-42356479D01*
X88318990Y-43356479D02*
X88223752Y-43308860D01*
X88223752Y-43308860D02*
X88176133Y-43261240D01*
X88176133Y-43261240D02*
X88128514Y-43166002D01*
X88128514Y-43166002D02*
X88128514Y-42880288D01*
X88128514Y-42880288D02*
X88176133Y-42785050D01*
X88176133Y-42785050D02*
X88223752Y-42737431D01*
X88223752Y-42737431D02*
X88318990Y-42689812D01*
X88318990Y-42689812D02*
X88461847Y-42689812D01*
X88461847Y-42689812D02*
X88557085Y-42737431D01*
X88557085Y-42737431D02*
X88604704Y-42785050D01*
X88604704Y-42785050D02*
X88652323Y-42880288D01*
X88652323Y-42880288D02*
X88652323Y-43166002D01*
X88652323Y-43166002D02*
X88604704Y-43261240D01*
X88604704Y-43261240D02*
X88557085Y-43308860D01*
X88557085Y-43308860D02*
X88461847Y-43356479D01*
X88461847Y-43356479D02*
X88318990Y-43356479D01*
X89509466Y-42689812D02*
X89509466Y-43356479D01*
X89080895Y-42689812D02*
X89080895Y-43213621D01*
X89080895Y-43213621D02*
X89128514Y-43308860D01*
X89128514Y-43308860D02*
X89223752Y-43356479D01*
X89223752Y-43356479D02*
X89366609Y-43356479D01*
X89366609Y-43356479D02*
X89461847Y-43308860D01*
X89461847Y-43308860D02*
X89509466Y-43261240D01*
X89842800Y-42689812D02*
X90223752Y-42689812D01*
X89985657Y-42356479D02*
X89985657Y-43213621D01*
X89985657Y-43213621D02*
X90033276Y-43308860D01*
X90033276Y-43308860D02*
X90128514Y-43356479D01*
X90128514Y-43356479D02*
X90223752Y-43356479D01*
X73890417Y-25761240D02*
X73842798Y-25808860D01*
X73842798Y-25808860D02*
X73699941Y-25856479D01*
X73699941Y-25856479D02*
X73604703Y-25856479D01*
X73604703Y-25856479D02*
X73461846Y-25808860D01*
X73461846Y-25808860D02*
X73366608Y-25713621D01*
X73366608Y-25713621D02*
X73318989Y-25618383D01*
X73318989Y-25618383D02*
X73271370Y-25427907D01*
X73271370Y-25427907D02*
X73271370Y-25285050D01*
X73271370Y-25285050D02*
X73318989Y-25094574D01*
X73318989Y-25094574D02*
X73366608Y-24999336D01*
X73366608Y-24999336D02*
X73461846Y-24904098D01*
X73461846Y-24904098D02*
X73604703Y-24856479D01*
X73604703Y-24856479D02*
X73699941Y-24856479D01*
X73699941Y-24856479D02*
X73842798Y-24904098D01*
X73842798Y-24904098D02*
X73890417Y-24951717D01*
X74318989Y-25856479D02*
X74318989Y-24856479D01*
X74747560Y-25856479D02*
X74747560Y-25332669D01*
X74747560Y-25332669D02*
X74699941Y-25237431D01*
X74699941Y-25237431D02*
X74604703Y-25189812D01*
X74604703Y-25189812D02*
X74461846Y-25189812D01*
X74461846Y-25189812D02*
X74366608Y-25237431D01*
X74366608Y-25237431D02*
X74318989Y-25285050D01*
X75604703Y-25808860D02*
X75509465Y-25856479D01*
X75509465Y-25856479D02*
X75318989Y-25856479D01*
X75318989Y-25856479D02*
X75223751Y-25808860D01*
X75223751Y-25808860D02*
X75176132Y-25713621D01*
X75176132Y-25713621D02*
X75176132Y-25332669D01*
X75176132Y-25332669D02*
X75223751Y-25237431D01*
X75223751Y-25237431D02*
X75318989Y-25189812D01*
X75318989Y-25189812D02*
X75509465Y-25189812D01*
X75509465Y-25189812D02*
X75604703Y-25237431D01*
X75604703Y-25237431D02*
X75652322Y-25332669D01*
X75652322Y-25332669D02*
X75652322Y-25427907D01*
X75652322Y-25427907D02*
X75176132Y-25523145D01*
X76509465Y-25808860D02*
X76414227Y-25856479D01*
X76414227Y-25856479D02*
X76223751Y-25856479D01*
X76223751Y-25856479D02*
X76128513Y-25808860D01*
X76128513Y-25808860D02*
X76080894Y-25761240D01*
X76080894Y-25761240D02*
X76033275Y-25666002D01*
X76033275Y-25666002D02*
X76033275Y-25380288D01*
X76033275Y-25380288D02*
X76080894Y-25285050D01*
X76080894Y-25285050D02*
X76128513Y-25237431D01*
X76128513Y-25237431D02*
X76223751Y-25189812D01*
X76223751Y-25189812D02*
X76414227Y-25189812D01*
X76414227Y-25189812D02*
X76509465Y-25237431D01*
X76938037Y-25856479D02*
X76938037Y-24856479D01*
X77033275Y-25475526D02*
X77318989Y-25856479D01*
X77318989Y-25189812D02*
X76938037Y-25570764D01*
X78699942Y-24856479D02*
X78890418Y-24856479D01*
X78890418Y-24856479D02*
X78985656Y-24904098D01*
X78985656Y-24904098D02*
X79080894Y-24999336D01*
X79080894Y-24999336D02*
X79128513Y-25189812D01*
X79128513Y-25189812D02*
X79128513Y-25523145D01*
X79128513Y-25523145D02*
X79080894Y-25713621D01*
X79080894Y-25713621D02*
X78985656Y-25808860D01*
X78985656Y-25808860D02*
X78890418Y-25856479D01*
X78890418Y-25856479D02*
X78699942Y-25856479D01*
X78699942Y-25856479D02*
X78604704Y-25808860D01*
X78604704Y-25808860D02*
X78509466Y-25713621D01*
X78509466Y-25713621D02*
X78461847Y-25523145D01*
X78461847Y-25523145D02*
X78461847Y-25189812D01*
X78461847Y-25189812D02*
X78509466Y-24999336D01*
X78509466Y-24999336D02*
X78604704Y-24904098D01*
X78604704Y-24904098D02*
X78699942Y-24856479D01*
X79985656Y-25189812D02*
X79985656Y-25856479D01*
X79557085Y-25189812D02*
X79557085Y-25713621D01*
X79557085Y-25713621D02*
X79604704Y-25808860D01*
X79604704Y-25808860D02*
X79699942Y-25856479D01*
X79699942Y-25856479D02*
X79842799Y-25856479D01*
X79842799Y-25856479D02*
X79938037Y-25808860D01*
X79938037Y-25808860D02*
X79985656Y-25761240D01*
X80318990Y-25189812D02*
X80699942Y-25189812D01*
X80461847Y-24856479D02*
X80461847Y-25713621D01*
X80461847Y-25713621D02*
X80509466Y-25808860D01*
X80509466Y-25808860D02*
X80604704Y-25856479D01*
X80604704Y-25856479D02*
X80699942Y-25856479D01*
X81795181Y-25856479D02*
X81795181Y-24856479D01*
X81795181Y-24856479D02*
X82128514Y-25570764D01*
X82128514Y-25570764D02*
X82461847Y-24856479D01*
X82461847Y-24856479D02*
X82461847Y-25856479D01*
X82842800Y-25189812D02*
X83080895Y-25856479D01*
X83318990Y-25189812D02*
X83080895Y-25856479D01*
X83080895Y-25856479D02*
X82985657Y-26094574D01*
X82985657Y-26094574D02*
X82938038Y-26142193D01*
X82938038Y-26142193D02*
X82842800Y-26189812D01*
X84985657Y-24904098D02*
X84890419Y-24856479D01*
X84890419Y-24856479D02*
X84747562Y-24856479D01*
X84747562Y-24856479D02*
X84604705Y-24904098D01*
X84604705Y-24904098D02*
X84509467Y-24999336D01*
X84509467Y-24999336D02*
X84461848Y-25094574D01*
X84461848Y-25094574D02*
X84414229Y-25285050D01*
X84414229Y-25285050D02*
X84414229Y-25427907D01*
X84414229Y-25427907D02*
X84461848Y-25618383D01*
X84461848Y-25618383D02*
X84509467Y-25713621D01*
X84509467Y-25713621D02*
X84604705Y-25808860D01*
X84604705Y-25808860D02*
X84747562Y-25856479D01*
X84747562Y-25856479D02*
X84842800Y-25856479D01*
X84842800Y-25856479D02*
X84985657Y-25808860D01*
X84985657Y-25808860D02*
X85033276Y-25761240D01*
X85033276Y-25761240D02*
X85033276Y-25427907D01*
X85033276Y-25427907D02*
X84842800Y-25427907D01*
X85461848Y-25856479D02*
X85461848Y-25189812D01*
X85461848Y-24856479D02*
X85414229Y-24904098D01*
X85414229Y-24904098D02*
X85461848Y-24951717D01*
X85461848Y-24951717D02*
X85509467Y-24904098D01*
X85509467Y-24904098D02*
X85461848Y-24856479D01*
X85461848Y-24856479D02*
X85461848Y-24951717D01*
X85795181Y-25189812D02*
X86176133Y-25189812D01*
X85938038Y-24856479D02*
X85938038Y-25713621D01*
X85938038Y-25713621D02*
X85985657Y-25808860D01*
X85985657Y-25808860D02*
X86080895Y-25856479D01*
X86080895Y-25856479D02*
X86176133Y-25856479D01*
X86509467Y-25856479D02*
X86509467Y-24856479D01*
X86938038Y-25856479D02*
X86938038Y-25332669D01*
X86938038Y-25332669D02*
X86890419Y-25237431D01*
X86890419Y-25237431D02*
X86795181Y-25189812D01*
X86795181Y-25189812D02*
X86652324Y-25189812D01*
X86652324Y-25189812D02*
X86557086Y-25237431D01*
X86557086Y-25237431D02*
X86509467Y-25285050D01*
X87842800Y-25189812D02*
X87842800Y-25856479D01*
X87414229Y-25189812D02*
X87414229Y-25713621D01*
X87414229Y-25713621D02*
X87461848Y-25808860D01*
X87461848Y-25808860D02*
X87557086Y-25856479D01*
X87557086Y-25856479D02*
X87699943Y-25856479D01*
X87699943Y-25856479D02*
X87795181Y-25808860D01*
X87795181Y-25808860D02*
X87842800Y-25761240D01*
X88318991Y-25856479D02*
X88318991Y-24856479D01*
X88318991Y-25237431D02*
X88414229Y-25189812D01*
X88414229Y-25189812D02*
X88604705Y-25189812D01*
X88604705Y-25189812D02*
X88699943Y-25237431D01*
X88699943Y-25237431D02*
X88747562Y-25285050D01*
X88747562Y-25285050D02*
X88795181Y-25380288D01*
X88795181Y-25380288D02*
X88795181Y-25666002D01*
X88795181Y-25666002D02*
X88747562Y-25761240D01*
X88747562Y-25761240D02*
X88699943Y-25808860D01*
X88699943Y-25808860D02*
X88604705Y-25856479D01*
X88604705Y-25856479D02*
X88414229Y-25856479D01*
X88414229Y-25856479D02*
X88318991Y-25808860D01*
X89985658Y-25856479D02*
X89985658Y-24856479D01*
X89985658Y-24856479D02*
X90366610Y-24856479D01*
X90366610Y-24856479D02*
X90461848Y-24904098D01*
X90461848Y-24904098D02*
X90509467Y-24951717D01*
X90509467Y-24951717D02*
X90557086Y-25046955D01*
X90557086Y-25046955D02*
X90557086Y-25189812D01*
X90557086Y-25189812D02*
X90509467Y-25285050D01*
X90509467Y-25285050D02*
X90461848Y-25332669D01*
X90461848Y-25332669D02*
X90366610Y-25380288D01*
X90366610Y-25380288D02*
X89985658Y-25380288D01*
X91414229Y-25856479D02*
X91414229Y-25332669D01*
X91414229Y-25332669D02*
X91366610Y-25237431D01*
X91366610Y-25237431D02*
X91271372Y-25189812D01*
X91271372Y-25189812D02*
X91080896Y-25189812D01*
X91080896Y-25189812D02*
X90985658Y-25237431D01*
X91414229Y-25808860D02*
X91318991Y-25856479D01*
X91318991Y-25856479D02*
X91080896Y-25856479D01*
X91080896Y-25856479D02*
X90985658Y-25808860D01*
X90985658Y-25808860D02*
X90938039Y-25713621D01*
X90938039Y-25713621D02*
X90938039Y-25618383D01*
X90938039Y-25618383D02*
X90985658Y-25523145D01*
X90985658Y-25523145D02*
X91080896Y-25475526D01*
X91080896Y-25475526D02*
X91318991Y-25475526D01*
X91318991Y-25475526D02*
X91414229Y-25427907D01*
X92318991Y-25189812D02*
X92318991Y-25999336D01*
X92318991Y-25999336D02*
X92271372Y-26094574D01*
X92271372Y-26094574D02*
X92223753Y-26142193D01*
X92223753Y-26142193D02*
X92128515Y-26189812D01*
X92128515Y-26189812D02*
X91985658Y-26189812D01*
X91985658Y-26189812D02*
X91890420Y-26142193D01*
X92318991Y-25808860D02*
X92223753Y-25856479D01*
X92223753Y-25856479D02*
X92033277Y-25856479D01*
X92033277Y-25856479D02*
X91938039Y-25808860D01*
X91938039Y-25808860D02*
X91890420Y-25761240D01*
X91890420Y-25761240D02*
X91842801Y-25666002D01*
X91842801Y-25666002D02*
X91842801Y-25380288D01*
X91842801Y-25380288D02*
X91890420Y-25285050D01*
X91890420Y-25285050D02*
X91938039Y-25237431D01*
X91938039Y-25237431D02*
X92033277Y-25189812D01*
X92033277Y-25189812D02*
X92223753Y-25189812D01*
X92223753Y-25189812D02*
X92318991Y-25237431D01*
X93176134Y-25808860D02*
X93080896Y-25856479D01*
X93080896Y-25856479D02*
X92890420Y-25856479D01*
X92890420Y-25856479D02*
X92795182Y-25808860D01*
X92795182Y-25808860D02*
X92747563Y-25713621D01*
X92747563Y-25713621D02*
X92747563Y-25332669D01*
X92747563Y-25332669D02*
X92795182Y-25237431D01*
X92795182Y-25237431D02*
X92890420Y-25189812D01*
X92890420Y-25189812D02*
X93080896Y-25189812D01*
X93080896Y-25189812D02*
X93176134Y-25237431D01*
X93176134Y-25237431D02*
X93223753Y-25332669D01*
X93223753Y-25332669D02*
X93223753Y-25427907D01*
X93223753Y-25427907D02*
X92747563Y-25523145D01*
X94414230Y-25761240D02*
X94461849Y-25808860D01*
X94461849Y-25808860D02*
X94414230Y-25856479D01*
X94414230Y-25856479D02*
X94366611Y-25808860D01*
X94366611Y-25808860D02*
X94414230Y-25761240D01*
X94414230Y-25761240D02*
X94414230Y-25856479D01*
X94414230Y-25237431D02*
X94461849Y-25285050D01*
X94461849Y-25285050D02*
X94414230Y-25332669D01*
X94414230Y-25332669D02*
X94366611Y-25285050D01*
X94366611Y-25285050D02*
X94414230Y-25237431D01*
X94414230Y-25237431D02*
X94414230Y-25332669D01*
X94890420Y-25856479D02*
X94890420Y-24856479D01*
X94890420Y-24856479D02*
X95128515Y-24856479D01*
X95128515Y-24856479D02*
X95271372Y-24904098D01*
X95271372Y-24904098D02*
X95366610Y-24999336D01*
X95366610Y-24999336D02*
X95414229Y-25094574D01*
X95414229Y-25094574D02*
X95461848Y-25285050D01*
X95461848Y-25285050D02*
X95461848Y-25427907D01*
X95461848Y-25427907D02*
X95414229Y-25618383D01*
X95414229Y-25618383D02*
X95366610Y-25713621D01*
X95366610Y-25713621D02*
X95271372Y-25808860D01*
X95271372Y-25808860D02*
X95128515Y-25856479D01*
X95128515Y-25856479D02*
X94890420Y-25856479D01*
X36824819Y30033333D02*
X36348628Y29700000D01*
X36824819Y29461905D02*
X35824819Y29461905D01*
X35824819Y29461905D02*
X35824819Y29842857D01*
X35824819Y29842857D02*
X35872438Y29938095D01*
X35872438Y29938095D02*
X35920057Y29985714D01*
X35920057Y29985714D02*
X36015295Y30033333D01*
X36015295Y30033333D02*
X36158152Y30033333D01*
X36158152Y30033333D02*
X36253390Y29985714D01*
X36253390Y29985714D02*
X36301009Y29938095D01*
X36301009Y29938095D02*
X36348628Y29842857D01*
X36348628Y29842857D02*
X36348628Y29461905D01*
X36158152Y30890476D02*
X36824819Y30890476D01*
X35777200Y30652381D02*
X36491485Y30414286D01*
X36491485Y30414286D02*
X36491485Y31033333D01*
X39633333Y-22809580D02*
X39585714Y-22857200D01*
X39585714Y-22857200D02*
X39442857Y-22904819D01*
X39442857Y-22904819D02*
X39347619Y-22904819D01*
X39347619Y-22904819D02*
X39204762Y-22857200D01*
X39204762Y-22857200D02*
X39109524Y-22761961D01*
X39109524Y-22761961D02*
X39061905Y-22666723D01*
X39061905Y-22666723D02*
X39014286Y-22476247D01*
X39014286Y-22476247D02*
X39014286Y-22333390D01*
X39014286Y-22333390D02*
X39061905Y-22142914D01*
X39061905Y-22142914D02*
X39109524Y-22047676D01*
X39109524Y-22047676D02*
X39204762Y-21952438D01*
X39204762Y-21952438D02*
X39347619Y-21904819D01*
X39347619Y-21904819D02*
X39442857Y-21904819D01*
X39442857Y-21904819D02*
X39585714Y-21952438D01*
X39585714Y-21952438D02*
X39633333Y-22000057D01*
X40014286Y-22000057D02*
X40061905Y-21952438D01*
X40061905Y-21952438D02*
X40157143Y-21904819D01*
X40157143Y-21904819D02*
X40395238Y-21904819D01*
X40395238Y-21904819D02*
X40490476Y-21952438D01*
X40490476Y-21952438D02*
X40538095Y-22000057D01*
X40538095Y-22000057D02*
X40585714Y-22095295D01*
X40585714Y-22095295D02*
X40585714Y-22190533D01*
X40585714Y-22190533D02*
X40538095Y-22333390D01*
X40538095Y-22333390D02*
X39966667Y-22904819D01*
X39966667Y-22904819D02*
X40585714Y-22904819D01*
X114404819Y-56741904D02*
X115214342Y-56741904D01*
X115214342Y-56741904D02*
X115309580Y-56694285D01*
X115309580Y-56694285D02*
X115357200Y-56646666D01*
X115357200Y-56646666D02*
X115404819Y-56551428D01*
X115404819Y-56551428D02*
X115404819Y-56360952D01*
X115404819Y-56360952D02*
X115357200Y-56265714D01*
X115357200Y-56265714D02*
X115309580Y-56218095D01*
X115309580Y-56218095D02*
X115214342Y-56170476D01*
X115214342Y-56170476D02*
X114404819Y-56170476D01*
X114404819Y-55789523D02*
X114404819Y-55122857D01*
X114404819Y-55122857D02*
X115404819Y-55551428D01*
X36254819Y-161904D02*
X37064342Y-161904D01*
X37064342Y-161904D02*
X37159580Y-114285D01*
X37159580Y-114285D02*
X37207200Y-66666D01*
X37207200Y-66666D02*
X37254819Y28571D01*
X37254819Y28571D02*
X37254819Y219047D01*
X37254819Y219047D02*
X37207200Y314285D01*
X37207200Y314285D02*
X37159580Y361904D01*
X37159580Y361904D02*
X37064342Y409523D01*
X37064342Y409523D02*
X36254819Y409523D01*
X36588152Y1314285D02*
X37254819Y1314285D01*
X36207200Y1076190D02*
X36921485Y838095D01*
X36921485Y838095D02*
X36921485Y1457142D01*
X53038095Y-6854819D02*
X53038095Y-7664342D01*
X53038095Y-7664342D02*
X53085714Y-7759580D01*
X53085714Y-7759580D02*
X53133333Y-7807200D01*
X53133333Y-7807200D02*
X53228571Y-7854819D01*
X53228571Y-7854819D02*
X53419047Y-7854819D01*
X53419047Y-7854819D02*
X53514285Y-7807200D01*
X53514285Y-7807200D02*
X53561904Y-7759580D01*
X53561904Y-7759580D02*
X53609523Y-7664342D01*
X53609523Y-7664342D02*
X53609523Y-6854819D01*
X54609523Y-7854819D02*
X54038095Y-7854819D01*
X54323809Y-7854819D02*
X54323809Y-6854819D01*
X54323809Y-6854819D02*
X54228571Y-6997676D01*
X54228571Y-6997676D02*
X54133333Y-7092914D01*
X54133333Y-7092914D02*
X54038095Y-7140533D01*
X72409580Y5433333D02*
X72457200Y5385714D01*
X72457200Y5385714D02*
X72504819Y5242857D01*
X72504819Y5242857D02*
X72504819Y5147619D01*
X72504819Y5147619D02*
X72457200Y5004762D01*
X72457200Y5004762D02*
X72361961Y4909524D01*
X72361961Y4909524D02*
X72266723Y4861905D01*
X72266723Y4861905D02*
X72076247Y4814286D01*
X72076247Y4814286D02*
X71933390Y4814286D01*
X71933390Y4814286D02*
X71742914Y4861905D01*
X71742914Y4861905D02*
X71647676Y4909524D01*
X71647676Y4909524D02*
X71552438Y5004762D01*
X71552438Y5004762D02*
X71504819Y5147619D01*
X71504819Y5147619D02*
X71504819Y5242857D01*
X71504819Y5242857D02*
X71552438Y5385714D01*
X71552438Y5385714D02*
X71600057Y5433333D01*
X71504819Y5766667D02*
X71504819Y6385714D01*
X71504819Y6385714D02*
X71885771Y6052381D01*
X71885771Y6052381D02*
X71885771Y6195238D01*
X71885771Y6195238D02*
X71933390Y6290476D01*
X71933390Y6290476D02*
X71981009Y6338095D01*
X71981009Y6338095D02*
X72076247Y6385714D01*
X72076247Y6385714D02*
X72314342Y6385714D01*
X72314342Y6385714D02*
X72409580Y6338095D01*
X72409580Y6338095D02*
X72457200Y6290476D01*
X72457200Y6290476D02*
X72504819Y6195238D01*
X72504819Y6195238D02*
X72504819Y5909524D01*
X72504819Y5909524D02*
X72457200Y5814286D01*
X72457200Y5814286D02*
X72409580Y5766667D01*
X88726819Y4431905D02*
X89536342Y4431905D01*
X89536342Y4431905D02*
X89631580Y4479524D01*
X89631580Y4479524D02*
X89679200Y4527143D01*
X89679200Y4527143D02*
X89726819Y4622381D01*
X89726819Y4622381D02*
X89726819Y4812857D01*
X89726819Y4812857D02*
X89679200Y4908095D01*
X89679200Y4908095D02*
X89631580Y4955714D01*
X89631580Y4955714D02*
X89536342Y5003333D01*
X89536342Y5003333D02*
X88726819Y5003333D01*
X89726819Y6003333D02*
X89726819Y5431905D01*
X89726819Y5717619D02*
X88726819Y5717619D01*
X88726819Y5717619D02*
X88869676Y5622381D01*
X88869676Y5622381D02*
X88964914Y5527143D01*
X88964914Y5527143D02*
X89012533Y5431905D01*
X88726819Y6622381D02*
X88726819Y6717619D01*
X88726819Y6717619D02*
X88774438Y6812857D01*
X88774438Y6812857D02*
X88822057Y6860476D01*
X88822057Y6860476D02*
X88917295Y6908095D01*
X88917295Y6908095D02*
X89107771Y6955714D01*
X89107771Y6955714D02*
X89345866Y6955714D01*
X89345866Y6955714D02*
X89536342Y6908095D01*
X89536342Y6908095D02*
X89631580Y6860476D01*
X89631580Y6860476D02*
X89679200Y6812857D01*
X89679200Y6812857D02*
X89726819Y6717619D01*
X89726819Y6717619D02*
X89726819Y6622381D01*
X89726819Y6622381D02*
X89679200Y6527143D01*
X89679200Y6527143D02*
X89631580Y6479524D01*
X89631580Y6479524D02*
X89536342Y6431905D01*
X89536342Y6431905D02*
X89345866Y6384286D01*
X89345866Y6384286D02*
X89107771Y6384286D01*
X89107771Y6384286D02*
X88917295Y6431905D01*
X88917295Y6431905D02*
X88822057Y6479524D01*
X88822057Y6479524D02*
X88774438Y6527143D01*
X88774438Y6527143D02*
X88726819Y6622381D01*
X79291667Y-65507200D02*
X79434524Y-65554819D01*
X79434524Y-65554819D02*
X79672619Y-65554819D01*
X79672619Y-65554819D02*
X79767857Y-65507200D01*
X79767857Y-65507200D02*
X79815476Y-65459580D01*
X79815476Y-65459580D02*
X79863095Y-65364342D01*
X79863095Y-65364342D02*
X79863095Y-65269104D01*
X79863095Y-65269104D02*
X79815476Y-65173866D01*
X79815476Y-65173866D02*
X79767857Y-65126247D01*
X79767857Y-65126247D02*
X79672619Y-65078628D01*
X79672619Y-65078628D02*
X79482143Y-65031009D01*
X79482143Y-65031009D02*
X79386905Y-64983390D01*
X79386905Y-64983390D02*
X79339286Y-64935771D01*
X79339286Y-64935771D02*
X79291667Y-64840533D01*
X79291667Y-64840533D02*
X79291667Y-64745295D01*
X79291667Y-64745295D02*
X79339286Y-64650057D01*
X79339286Y-64650057D02*
X79386905Y-64602438D01*
X79386905Y-64602438D02*
X79482143Y-64554819D01*
X79482143Y-64554819D02*
X79720238Y-64554819D01*
X79720238Y-64554819D02*
X79863095Y-64602438D01*
X80196429Y-64554819D02*
X80434524Y-65554819D01*
X80434524Y-65554819D02*
X80625000Y-64840533D01*
X80625000Y-64840533D02*
X80815476Y-65554819D01*
X80815476Y-65554819D02*
X81053572Y-64554819D01*
X81339286Y-64554819D02*
X81958333Y-64554819D01*
X81958333Y-64554819D02*
X81625000Y-64935771D01*
X81625000Y-64935771D02*
X81767857Y-64935771D01*
X81767857Y-64935771D02*
X81863095Y-64983390D01*
X81863095Y-64983390D02*
X81910714Y-65031009D01*
X81910714Y-65031009D02*
X81958333Y-65126247D01*
X81958333Y-65126247D02*
X81958333Y-65364342D01*
X81958333Y-65364342D02*
X81910714Y-65459580D01*
X81910714Y-65459580D02*
X81863095Y-65507200D01*
X81863095Y-65507200D02*
X81767857Y-65554819D01*
X81767857Y-65554819D02*
X81482143Y-65554819D01*
X81482143Y-65554819D02*
X81386905Y-65507200D01*
X81386905Y-65507200D02*
X81339286Y-65459580D01*
X85784819Y18058095D02*
X86594342Y18058095D01*
X86594342Y18058095D02*
X86689580Y18105714D01*
X86689580Y18105714D02*
X86737200Y18153333D01*
X86737200Y18153333D02*
X86784819Y18248571D01*
X86784819Y18248571D02*
X86784819Y18439047D01*
X86784819Y18439047D02*
X86737200Y18534285D01*
X86737200Y18534285D02*
X86689580Y18581904D01*
X86689580Y18581904D02*
X86594342Y18629523D01*
X86594342Y18629523D02*
X85784819Y18629523D01*
X85784819Y19534285D02*
X85784819Y19343809D01*
X85784819Y19343809D02*
X85832438Y19248571D01*
X85832438Y19248571D02*
X85880057Y19200952D01*
X85880057Y19200952D02*
X86022914Y19105714D01*
X86022914Y19105714D02*
X86213390Y19058095D01*
X86213390Y19058095D02*
X86594342Y19058095D01*
X86594342Y19058095D02*
X86689580Y19105714D01*
X86689580Y19105714D02*
X86737200Y19153333D01*
X86737200Y19153333D02*
X86784819Y19248571D01*
X86784819Y19248571D02*
X86784819Y19439047D01*
X86784819Y19439047D02*
X86737200Y19534285D01*
X86737200Y19534285D02*
X86689580Y19581904D01*
X86689580Y19581904D02*
X86594342Y19629523D01*
X86594342Y19629523D02*
X86356247Y19629523D01*
X86356247Y19629523D02*
X86261009Y19581904D01*
X86261009Y19581904D02*
X86213390Y19534285D01*
X86213390Y19534285D02*
X86165771Y19439047D01*
X86165771Y19439047D02*
X86165771Y19248571D01*
X86165771Y19248571D02*
X86213390Y19153333D01*
X86213390Y19153333D02*
X86261009Y19105714D01*
X86261009Y19105714D02*
X86356247Y19058095D01*
%TO.C,R9*%
D13*
X37490000Y-35872936D02*
X37490000Y-37327064D01*
X39310000Y-35872936D02*
X39310000Y-37327064D01*
%TO.C,DS1*%
X33860000Y37240000D02*
X33860000Y960000D01*
X33860000Y960000D02*
X114140000Y960000D01*
X33870000Y37240000D02*
X34660000Y37240000D01*
X37000000Y31600000D02*
X110000000Y31600000D01*
X37000000Y6600000D02*
X37000000Y31600000D01*
X40500000Y37600000D02*
X43500000Y37600000D01*
X41700280Y12100680D02*
X41700280Y26100000D01*
X42200000Y26600000D02*
X105700000Y26600000D01*
X105700660Y11600000D02*
X42200000Y11600000D01*
X106200000Y26100000D02*
X106200000Y12100000D01*
X110000000Y31600000D02*
X110000000Y6600000D01*
X110000000Y6600000D02*
X37000000Y6600000D01*
X114140000Y37240000D02*
X34660000Y37240000D01*
X114140000Y960000D02*
X114140000Y37240000D01*
X41700280Y26101160D02*
G75*
G02*
X42200660Y26601540I500380J0D01*
G01*
X42200660Y11600300D02*
G75*
G02*
X41700280Y12100680I0J500380D01*
G01*
X105700000Y26600000D02*
G75*
G02*
X106200000Y26100000I0J-500000D01*
G01*
X106201040Y12100680D02*
G75*
G02*
X105700660Y11600360I-500340J20D01*
G01*
%TO.C,R3*%
X39890000Y29472936D02*
X39890000Y30927064D01*
X41710000Y29472936D02*
X41710000Y30927064D01*
%TO.C,RV1*%
X82220000Y30520000D02*
X82220000Y34500000D01*
X82220000Y28790000D02*
X82220000Y29480000D01*
X82320000Y28790000D02*
X82220000Y28790000D01*
X82320000Y28590000D02*
X82320000Y28790000D01*
X83530000Y35810000D02*
X85020000Y35810000D01*
X83740000Y28790000D02*
X83740000Y28590000D01*
X83740000Y28590000D02*
X82320000Y28590000D01*
X86040000Y35810000D02*
X87530000Y35810000D01*
X87320000Y28790000D02*
X83740000Y28790000D01*
X87320000Y28790000D02*
X87320000Y28590000D01*
X88740000Y28790000D02*
X88840000Y28790000D01*
X88740000Y28590000D02*
X87320000Y28590000D01*
X88740000Y28590000D02*
X88740000Y28790000D01*
X88840000Y34500000D02*
X88840000Y30960000D01*
X88840000Y28790000D02*
X88840000Y29040000D01*
X82220000Y34500000D02*
G75*
G02*
X83530000Y35810000I1310000J0D01*
G01*
X87530000Y35810000D02*
G75*
G02*
X88840000Y34500000I0J-1310000D01*
G01*
%TO.C,C1*%
X42890000Y-23311252D02*
X42890000Y-21888748D01*
X44710000Y-23311252D02*
X44710000Y-21888748D01*
%TO.C,SW1*%
X57460000Y-68600000D02*
X57460000Y-70100000D01*
X58710000Y-72600000D02*
X63210000Y-72600000D01*
X63210000Y-66100000D02*
X58710000Y-66100000D01*
X64460000Y-70100000D02*
X64460000Y-68600000D01*
%TO.C,SW4*%
X86900000Y-68600000D02*
X86900000Y-70100000D01*
X88150000Y-72600000D02*
X92650000Y-72600000D01*
X92650000Y-66100000D02*
X88150000Y-66100000D01*
X93900000Y-70100000D02*
X93900000Y-68600000D01*
%TO.C,C4*%
X54948752Y-59890000D02*
X53526248Y-59890000D01*
X54948752Y-61710000D02*
X53526248Y-61710000D01*
%TO.C,R6*%
X58090000Y-61712936D02*
X58090000Y-63167064D01*
X59910000Y-61712936D02*
X59910000Y-63167064D01*
%TO.C,Y1*%
X89750000Y27600000D02*
X89750000Y16200000D01*
X90500000Y15450000D02*
X109900000Y15450000D01*
X110650000Y28350000D02*
X90500000Y28350000D01*
X110650000Y16200000D02*
X110650000Y28350000D01*
X89750000Y27600000D02*
G75*
G02*
X90500000Y28350000I750000J0D01*
G01*
X90500000Y15450000D02*
G75*
G02*
X89750000Y16200000I0J750000D01*
G01*
X110650000Y16200000D02*
G75*
G02*
X109900000Y15450000I-750000J0D01*
G01*
%TO.C,SW5*%
X96725000Y-68600000D02*
X96725000Y-70100000D01*
X97975000Y-72600000D02*
X102475000Y-72600000D01*
X102475000Y-66100000D02*
X97975000Y-66100000D01*
X103725000Y-70100000D02*
X103725000Y-68600000D01*
%TO.C,R2*%
X42290000Y-54672936D02*
X42290000Y-56127064D01*
X44110000Y-54672936D02*
X44110000Y-56127064D01*
%TO.C,R8*%
X39890000Y-35872936D02*
X39890000Y-37327064D01*
X41710000Y-35872936D02*
X41710000Y-37327064D01*
%TO.C,R1*%
X41222936Y-39690000D02*
X42677064Y-39690000D01*
X41222936Y-41510000D02*
X42677064Y-41510000D01*
%TO.C,SW7*%
X37750000Y-45150000D02*
X37750000Y-49650000D01*
X40250000Y-50900000D02*
X41750000Y-50900000D01*
X41750000Y-43900000D02*
X40250000Y-43900000D01*
X44250000Y-49650000D02*
X44250000Y-45150000D01*
%TO.C,Y2*%
X89750000Y13890000D02*
X89750000Y1740000D01*
X89750000Y1740000D02*
X109900000Y1740000D01*
X109900000Y14640000D02*
X90500000Y14640000D01*
X110650000Y2490000D02*
X110650000Y13890000D01*
X89750000Y13890000D02*
G75*
G02*
X90500000Y14640000I750000J0D01*
G01*
X109900000Y14640000D02*
G75*
G02*
X110650000Y13890000I0J-750000D01*
G01*
X110650000Y2490000D02*
G75*
G02*
X109900000Y1740000I-750000J0D01*
G01*
%TO.C,S1*%
D14*
X40900000Y-63000000D02*
X45180000Y-63000000D01*
X40900000Y-63930000D02*
X40900000Y-63000000D01*
X40900000Y-74470000D02*
X40900000Y-75400000D01*
X40900000Y-75400000D02*
X41680000Y-75400000D01*
X45520000Y-75400000D02*
X48680000Y-75400000D01*
X49020000Y-63000000D02*
X53300000Y-63000000D01*
X52520000Y-75400000D02*
X53300000Y-75400000D01*
X53300000Y-63000000D02*
X53300000Y-63930000D01*
X53300000Y-75400000D02*
X53300000Y-74470000D01*
D15*
X39300000Y-63475000D02*
G75*
G02*
X39100000Y-63475000I-100000J0D01*
G01*
X39100000Y-63475000D02*
G75*
G02*
X39300000Y-63475000I100000J0D01*
G01*
%TO.C,R5*%
D13*
X60490000Y-61712936D02*
X60490000Y-63167064D01*
X62310000Y-61712936D02*
X62310000Y-63167064D01*
%TO.C,SW6*%
X106550000Y-68600000D02*
X106550000Y-70100000D01*
X107800000Y-72600000D02*
X112300000Y-72600000D01*
X112300000Y-66100000D02*
X107800000Y-66100000D01*
X113550000Y-70100000D02*
X113550000Y-68600000D01*
%TO.C,U8*%
X78180000Y7949500D02*
X78180000Y3250500D01*
X78180000Y3250500D02*
X80720000Y3250500D01*
X80275500Y7949500D02*
X78180000Y7949500D01*
X80720000Y3250500D02*
X80720000Y7505000D01*
D15*
X80656500Y7822500D02*
G75*
G02*
X80529500Y7822500I-63500J0D01*
G01*
X80529500Y7822500D02*
G75*
G02*
X80656500Y7822500I63500J0D01*
G01*
%TO.C,J2*%
D13*
X37500000Y-22730000D02*
X39200000Y-22730000D01*
X37500000Y-32070000D02*
X39200000Y-32070000D01*
%TO.C,SW2*%
X67300000Y-68600000D02*
X67300000Y-70100000D01*
X68550000Y-72600000D02*
X73050000Y-72600000D01*
X73050000Y-66100000D02*
X68550000Y-66100000D01*
X74300000Y-70100000D02*
X74300000Y-68600000D01*
%TO.C,U5*%
X39015000Y-9165000D02*
X43135000Y-9165000D01*
X39015000Y-9220000D02*
X39015000Y-9165000D01*
X39015000Y-19285000D02*
X39015000Y-19230000D01*
X43135000Y-9165000D02*
X43135000Y-9220000D01*
X43135000Y-19230000D02*
X43135000Y-19285000D01*
X43135000Y-19285000D02*
X39015000Y-19285000D01*
X43915000Y-19565000D02*
X43435000Y-19565000D01*
X43675000Y-19235000D01*
X43915000Y-19565000D01*
G36*
X43915000Y-19565000D02*
G01*
X43435000Y-19565000D01*
X43675000Y-19235000D01*
X43915000Y-19565000D01*
G37*
%TO.C,R7*%
X78472936Y32310000D02*
X79927064Y32310000D01*
X78472936Y30490000D02*
X79927064Y30490000D01*
%TO.C,Made In Fallout*%
G36*
X77116609Y-26901660D02*
G01*
X77616609Y-26901660D01*
X77616609Y-27401660D01*
X77116609Y-27401660D01*
X77116609Y-26901660D01*
G37*
G36*
X77116609Y-27401660D02*
G01*
X77616609Y-27401660D01*
X77616609Y-27901660D01*
X77116609Y-27901660D01*
X77116609Y-27401660D01*
G37*
G36*
X77116609Y-27901660D02*
G01*
X77616609Y-27901660D01*
X77616609Y-28401660D01*
X77116609Y-28401660D01*
X77116609Y-27901660D01*
G37*
G36*
X77116609Y-28401660D02*
G01*
X77616609Y-28401660D01*
X77616609Y-28901660D01*
X77116609Y-28901660D01*
X77116609Y-28401660D01*
G37*
G36*
X77116609Y-28901660D02*
G01*
X77616609Y-28901660D01*
X77616609Y-29401660D01*
X77116609Y-29401660D01*
X77116609Y-28901660D01*
G37*
G36*
X77116609Y-29401660D02*
G01*
X77616609Y-29401660D01*
X77616609Y-29901660D01*
X77116609Y-29901660D01*
X77116609Y-29401660D01*
G37*
G36*
X77116609Y-29901660D02*
G01*
X77616609Y-29901660D01*
X77616609Y-30401660D01*
X77116609Y-30401660D01*
X77116609Y-29901660D01*
G37*
G36*
X77116609Y-30901660D02*
G01*
X77616609Y-30901660D01*
X77616609Y-31401660D01*
X77116609Y-31401660D01*
X77116609Y-30901660D01*
G37*
G36*
X77116609Y-32401660D02*
G01*
X77616609Y-32401660D01*
X77616609Y-32901660D01*
X77116609Y-32901660D01*
X77116609Y-32401660D01*
G37*
G36*
X77116609Y-33901660D02*
G01*
X77616609Y-33901660D01*
X77616609Y-34401660D01*
X77116609Y-34401660D01*
X77116609Y-33901660D01*
G37*
G36*
X77116609Y-34901660D02*
G01*
X77616609Y-34901660D01*
X77616609Y-35401660D01*
X77116609Y-35401660D01*
X77116609Y-34901660D01*
G37*
G36*
X77116609Y-35901660D02*
G01*
X77616609Y-35901660D01*
X77616609Y-36401660D01*
X77116609Y-36401660D01*
X77116609Y-35901660D01*
G37*
G36*
X77116609Y-36901660D02*
G01*
X77616609Y-36901660D01*
X77616609Y-37401660D01*
X77116609Y-37401660D01*
X77116609Y-36901660D01*
G37*
G36*
X77116609Y-37901660D02*
G01*
X77616609Y-37901660D01*
X77616609Y-38401660D01*
X77116609Y-38401660D01*
X77116609Y-37901660D01*
G37*
G36*
X77116609Y-38401660D02*
G01*
X77616609Y-38401660D01*
X77616609Y-38901660D01*
X77116609Y-38901660D01*
X77116609Y-38401660D01*
G37*
G36*
X77116609Y-38901660D02*
G01*
X77616609Y-38901660D01*
X77616609Y-39401660D01*
X77116609Y-39401660D01*
X77116609Y-38901660D01*
G37*
G36*
X77116609Y-39401660D02*
G01*
X77616609Y-39401660D01*
X77616609Y-39901660D01*
X77116609Y-39901660D01*
X77116609Y-39401660D01*
G37*
G36*
X77116609Y-39901660D02*
G01*
X77616609Y-39901660D01*
X77616609Y-40401660D01*
X77116609Y-40401660D01*
X77116609Y-39901660D01*
G37*
G36*
X77116609Y-40401660D02*
G01*
X77616609Y-40401660D01*
X77616609Y-40901660D01*
X77116609Y-40901660D01*
X77116609Y-40401660D01*
G37*
G36*
X77116609Y-40901660D02*
G01*
X77616609Y-40901660D01*
X77616609Y-41401660D01*
X77116609Y-41401660D01*
X77116609Y-40901660D01*
G37*
G36*
X77616609Y-26901660D02*
G01*
X78116609Y-26901660D01*
X78116609Y-27401660D01*
X77616609Y-27401660D01*
X77616609Y-26901660D01*
G37*
G36*
X77616609Y-29901660D02*
G01*
X78116609Y-29901660D01*
X78116609Y-30401660D01*
X77616609Y-30401660D01*
X77616609Y-29901660D01*
G37*
G36*
X77616609Y-31901660D02*
G01*
X78116609Y-31901660D01*
X78116609Y-32401660D01*
X77616609Y-32401660D01*
X77616609Y-31901660D01*
G37*
G36*
X77616609Y-33401660D02*
G01*
X78116609Y-33401660D01*
X78116609Y-33901660D01*
X77616609Y-33901660D01*
X77616609Y-33401660D01*
G37*
G36*
X77616609Y-34401660D02*
G01*
X78116609Y-34401660D01*
X78116609Y-34901660D01*
X77616609Y-34901660D01*
X77616609Y-34401660D01*
G37*
G36*
X77616609Y-34901660D02*
G01*
X78116609Y-34901660D01*
X78116609Y-35401660D01*
X77616609Y-35401660D01*
X77616609Y-34901660D01*
G37*
G36*
X77616609Y-37901660D02*
G01*
X78116609Y-37901660D01*
X78116609Y-38401660D01*
X77616609Y-38401660D01*
X77616609Y-37901660D01*
G37*
G36*
X77616609Y-40901660D02*
G01*
X78116609Y-40901660D01*
X78116609Y-41401660D01*
X77616609Y-41401660D01*
X77616609Y-40901660D01*
G37*
G36*
X78116609Y-26901660D02*
G01*
X78616609Y-26901660D01*
X78616609Y-27401660D01*
X78116609Y-27401660D01*
X78116609Y-26901660D01*
G37*
G36*
X78116609Y-27901660D02*
G01*
X78616609Y-27901660D01*
X78616609Y-28401660D01*
X78116609Y-28401660D01*
X78116609Y-27901660D01*
G37*
G36*
X78116609Y-28401660D02*
G01*
X78616609Y-28401660D01*
X78616609Y-28901660D01*
X78116609Y-28901660D01*
X78116609Y-28401660D01*
G37*
G36*
X78116609Y-28901660D02*
G01*
X78616609Y-28901660D01*
X78616609Y-29401660D01*
X78116609Y-29401660D01*
X78116609Y-28901660D01*
G37*
G36*
X78116609Y-29901660D02*
G01*
X78616609Y-29901660D01*
X78616609Y-30401660D01*
X78116609Y-30401660D01*
X78116609Y-29901660D01*
G37*
G36*
X78116609Y-32401660D02*
G01*
X78616609Y-32401660D01*
X78616609Y-32901660D01*
X78116609Y-32901660D01*
X78116609Y-32401660D01*
G37*
G36*
X78116609Y-33401660D02*
G01*
X78616609Y-33401660D01*
X78616609Y-33901660D01*
X78116609Y-33901660D01*
X78116609Y-33401660D01*
G37*
G36*
X78116609Y-36401660D02*
G01*
X78616609Y-36401660D01*
X78616609Y-36901660D01*
X78116609Y-36901660D01*
X78116609Y-36401660D01*
G37*
G36*
X78116609Y-36901660D02*
G01*
X78616609Y-36901660D01*
X78616609Y-37401660D01*
X78116609Y-37401660D01*
X78116609Y-36901660D01*
G37*
G36*
X78116609Y-37901660D02*
G01*
X78616609Y-37901660D01*
X78616609Y-38401660D01*
X78116609Y-38401660D01*
X78116609Y-37901660D01*
G37*
G36*
X78116609Y-38901660D02*
G01*
X78616609Y-38901660D01*
X78616609Y-39401660D01*
X78116609Y-39401660D01*
X78116609Y-38901660D01*
G37*
G36*
X78116609Y-39401660D02*
G01*
X78616609Y-39401660D01*
X78616609Y-39901660D01*
X78116609Y-39901660D01*
X78116609Y-39401660D01*
G37*
G36*
X78116609Y-39901660D02*
G01*
X78616609Y-39901660D01*
X78616609Y-40401660D01*
X78116609Y-40401660D01*
X78116609Y-39901660D01*
G37*
G36*
X78116609Y-40901660D02*
G01*
X78616609Y-40901660D01*
X78616609Y-41401660D01*
X78116609Y-41401660D01*
X78116609Y-40901660D01*
G37*
G36*
X78616609Y-26901660D02*
G01*
X79116609Y-26901660D01*
X79116609Y-27401660D01*
X78616609Y-27401660D01*
X78616609Y-26901660D01*
G37*
G36*
X78616609Y-27901660D02*
G01*
X79116609Y-27901660D01*
X79116609Y-28401660D01*
X78616609Y-28401660D01*
X78616609Y-27901660D01*
G37*
G36*
X78616609Y-28401660D02*
G01*
X79116609Y-28401660D01*
X79116609Y-28901660D01*
X78616609Y-28901660D01*
X78616609Y-28401660D01*
G37*
G36*
X78616609Y-28901660D02*
G01*
X79116609Y-28901660D01*
X79116609Y-29401660D01*
X78616609Y-29401660D01*
X78616609Y-28901660D01*
G37*
G36*
X78616609Y-29901660D02*
G01*
X79116609Y-29901660D01*
X79116609Y-30401660D01*
X78616609Y-30401660D01*
X78616609Y-29901660D01*
G37*
G36*
X78616609Y-30901660D02*
G01*
X79116609Y-30901660D01*
X79116609Y-31401660D01*
X78616609Y-31401660D01*
X78616609Y-30901660D01*
G37*
G36*
X78616609Y-32401660D02*
G01*
X79116609Y-32401660D01*
X79116609Y-32901660D01*
X78616609Y-32901660D01*
X78616609Y-32401660D01*
G37*
G36*
X78616609Y-33901660D02*
G01*
X79116609Y-33901660D01*
X79116609Y-34401660D01*
X78616609Y-34401660D01*
X78616609Y-33901660D01*
G37*
G36*
X78616609Y-35901660D02*
G01*
X79116609Y-35901660D01*
X79116609Y-36401660D01*
X78616609Y-36401660D01*
X78616609Y-35901660D01*
G37*
G36*
X78616609Y-36901660D02*
G01*
X79116609Y-36901660D01*
X79116609Y-37401660D01*
X78616609Y-37401660D01*
X78616609Y-36901660D01*
G37*
G36*
X78616609Y-37901660D02*
G01*
X79116609Y-37901660D01*
X79116609Y-38401660D01*
X78616609Y-38401660D01*
X78616609Y-37901660D01*
G37*
G36*
X78616609Y-38901660D02*
G01*
X79116609Y-38901660D01*
X79116609Y-39401660D01*
X78616609Y-39401660D01*
X78616609Y-38901660D01*
G37*
G36*
X78616609Y-39401660D02*
G01*
X79116609Y-39401660D01*
X79116609Y-39901660D01*
X78616609Y-39901660D01*
X78616609Y-39401660D01*
G37*
G36*
X78616609Y-39901660D02*
G01*
X79116609Y-39901660D01*
X79116609Y-40401660D01*
X78616609Y-40401660D01*
X78616609Y-39901660D01*
G37*
G36*
X78616609Y-40901660D02*
G01*
X79116609Y-40901660D01*
X79116609Y-41401660D01*
X78616609Y-41401660D01*
X78616609Y-40901660D01*
G37*
G36*
X79116609Y-26901660D02*
G01*
X79616609Y-26901660D01*
X79616609Y-27401660D01*
X79116609Y-27401660D01*
X79116609Y-26901660D01*
G37*
G36*
X79116609Y-27901660D02*
G01*
X79616609Y-27901660D01*
X79616609Y-28401660D01*
X79116609Y-28401660D01*
X79116609Y-27901660D01*
G37*
G36*
X79116609Y-28401660D02*
G01*
X79616609Y-28401660D01*
X79616609Y-28901660D01*
X79116609Y-28901660D01*
X79116609Y-28401660D01*
G37*
G36*
X79116609Y-28901660D02*
G01*
X79616609Y-28901660D01*
X79616609Y-29401660D01*
X79116609Y-29401660D01*
X79116609Y-28901660D01*
G37*
G36*
X79116609Y-29901660D02*
G01*
X79616609Y-29901660D01*
X79616609Y-30401660D01*
X79116609Y-30401660D01*
X79116609Y-29901660D01*
G37*
G36*
X79116609Y-31401660D02*
G01*
X79616609Y-31401660D01*
X79616609Y-31901660D01*
X79116609Y-31901660D01*
X79116609Y-31401660D01*
G37*
G36*
X79116609Y-31901660D02*
G01*
X79616609Y-31901660D01*
X79616609Y-32401660D01*
X79116609Y-32401660D01*
X79116609Y-31901660D01*
G37*
G36*
X79116609Y-32401660D02*
G01*
X79616609Y-32401660D01*
X79616609Y-32901660D01*
X79116609Y-32901660D01*
X79116609Y-32401660D01*
G37*
G36*
X79116609Y-32901660D02*
G01*
X79616609Y-32901660D01*
X79616609Y-33401660D01*
X79116609Y-33401660D01*
X79116609Y-32901660D01*
G37*
G36*
X79116609Y-33901660D02*
G01*
X79616609Y-33901660D01*
X79616609Y-34401660D01*
X79116609Y-34401660D01*
X79116609Y-33901660D01*
G37*
G36*
X79116609Y-34901660D02*
G01*
X79616609Y-34901660D01*
X79616609Y-35401660D01*
X79116609Y-35401660D01*
X79116609Y-34901660D01*
G37*
G36*
X79116609Y-36401660D02*
G01*
X79616609Y-36401660D01*
X79616609Y-36901660D01*
X79116609Y-36901660D01*
X79116609Y-36401660D01*
G37*
G36*
X79116609Y-37901660D02*
G01*
X79616609Y-37901660D01*
X79616609Y-38401660D01*
X79116609Y-38401660D01*
X79116609Y-37901660D01*
G37*
G36*
X79116609Y-38901660D02*
G01*
X79616609Y-38901660D01*
X79616609Y-39401660D01*
X79116609Y-39401660D01*
X79116609Y-38901660D01*
G37*
G36*
X79116609Y-39401660D02*
G01*
X79616609Y-39401660D01*
X79616609Y-39901660D01*
X79116609Y-39901660D01*
X79116609Y-39401660D01*
G37*
G36*
X79116609Y-39901660D02*
G01*
X79616609Y-39901660D01*
X79616609Y-40401660D01*
X79116609Y-40401660D01*
X79116609Y-39901660D01*
G37*
G36*
X79116609Y-40901660D02*
G01*
X79616609Y-40901660D01*
X79616609Y-41401660D01*
X79116609Y-41401660D01*
X79116609Y-40901660D01*
G37*
G36*
X79616609Y-26901660D02*
G01*
X80116609Y-26901660D01*
X80116609Y-27401660D01*
X79616609Y-27401660D01*
X79616609Y-26901660D01*
G37*
G36*
X79616609Y-29901660D02*
G01*
X80116609Y-29901660D01*
X80116609Y-30401660D01*
X79616609Y-30401660D01*
X79616609Y-29901660D01*
G37*
G36*
X79616609Y-30901660D02*
G01*
X80116609Y-30901660D01*
X80116609Y-31401660D01*
X79616609Y-31401660D01*
X79616609Y-30901660D01*
G37*
G36*
X79616609Y-31401660D02*
G01*
X80116609Y-31401660D01*
X80116609Y-31901660D01*
X79616609Y-31901660D01*
X79616609Y-31401660D01*
G37*
G36*
X79616609Y-31901660D02*
G01*
X80116609Y-31901660D01*
X80116609Y-32401660D01*
X79616609Y-32401660D01*
X79616609Y-31901660D01*
G37*
G36*
X79616609Y-32401660D02*
G01*
X80116609Y-32401660D01*
X80116609Y-32901660D01*
X79616609Y-32901660D01*
X79616609Y-32401660D01*
G37*
G36*
X79616609Y-33401660D02*
G01*
X80116609Y-33401660D01*
X80116609Y-33901660D01*
X79616609Y-33901660D01*
X79616609Y-33401660D01*
G37*
G36*
X79616609Y-33901660D02*
G01*
X80116609Y-33901660D01*
X80116609Y-34401660D01*
X79616609Y-34401660D01*
X79616609Y-33901660D01*
G37*
G36*
X79616609Y-36401660D02*
G01*
X80116609Y-36401660D01*
X80116609Y-36901660D01*
X79616609Y-36901660D01*
X79616609Y-36401660D01*
G37*
G36*
X79616609Y-36901660D02*
G01*
X80116609Y-36901660D01*
X80116609Y-37401660D01*
X79616609Y-37401660D01*
X79616609Y-36901660D01*
G37*
G36*
X79616609Y-37901660D02*
G01*
X80116609Y-37901660D01*
X80116609Y-38401660D01*
X79616609Y-38401660D01*
X79616609Y-37901660D01*
G37*
G36*
X79616609Y-40901660D02*
G01*
X80116609Y-40901660D01*
X80116609Y-41401660D01*
X79616609Y-41401660D01*
X79616609Y-40901660D01*
G37*
G36*
X80116609Y-26901660D02*
G01*
X80616609Y-26901660D01*
X80616609Y-27401660D01*
X80116609Y-27401660D01*
X80116609Y-26901660D01*
G37*
G36*
X80116609Y-27401660D02*
G01*
X80616609Y-27401660D01*
X80616609Y-27901660D01*
X80116609Y-27901660D01*
X80116609Y-27401660D01*
G37*
G36*
X80116609Y-27901660D02*
G01*
X80616609Y-27901660D01*
X80616609Y-28401660D01*
X80116609Y-28401660D01*
X80116609Y-27901660D01*
G37*
G36*
X80116609Y-28401660D02*
G01*
X80616609Y-28401660D01*
X80616609Y-28901660D01*
X80116609Y-28901660D01*
X80116609Y-28401660D01*
G37*
G36*
X80116609Y-28901660D02*
G01*
X80616609Y-28901660D01*
X80616609Y-29401660D01*
X80116609Y-29401660D01*
X80116609Y-28901660D01*
G37*
G36*
X80116609Y-29401660D02*
G01*
X80616609Y-29401660D01*
X80616609Y-29901660D01*
X80116609Y-29901660D01*
X80116609Y-29401660D01*
G37*
G36*
X80116609Y-29901660D02*
G01*
X80616609Y-29901660D01*
X80616609Y-30401660D01*
X80116609Y-30401660D01*
X80116609Y-29901660D01*
G37*
G36*
X80116609Y-30901660D02*
G01*
X80616609Y-30901660D01*
X80616609Y-31401660D01*
X80116609Y-31401660D01*
X80116609Y-30901660D01*
G37*
G36*
X80116609Y-31901660D02*
G01*
X80616609Y-31901660D01*
X80616609Y-32401660D01*
X80116609Y-32401660D01*
X80116609Y-31901660D01*
G37*
G36*
X80116609Y-32901660D02*
G01*
X80616609Y-32901660D01*
X80616609Y-33401660D01*
X80116609Y-33401660D01*
X80116609Y-32901660D01*
G37*
G36*
X80116609Y-33901660D02*
G01*
X80616609Y-33901660D01*
X80616609Y-34401660D01*
X80116609Y-34401660D01*
X80116609Y-33901660D01*
G37*
G36*
X80116609Y-34901660D02*
G01*
X80616609Y-34901660D01*
X80616609Y-35401660D01*
X80116609Y-35401660D01*
X80116609Y-34901660D01*
G37*
G36*
X80116609Y-35901660D02*
G01*
X80616609Y-35901660D01*
X80616609Y-36401660D01*
X80116609Y-36401660D01*
X80116609Y-35901660D01*
G37*
G36*
X80116609Y-36901660D02*
G01*
X80616609Y-36901660D01*
X80616609Y-37401660D01*
X80116609Y-37401660D01*
X80116609Y-36901660D01*
G37*
G36*
X80116609Y-37901660D02*
G01*
X80616609Y-37901660D01*
X80616609Y-38401660D01*
X80116609Y-38401660D01*
X80116609Y-37901660D01*
G37*
G36*
X80116609Y-38401660D02*
G01*
X80616609Y-38401660D01*
X80616609Y-38901660D01*
X80116609Y-38901660D01*
X80116609Y-38401660D01*
G37*
G36*
X80116609Y-38901660D02*
G01*
X80616609Y-38901660D01*
X80616609Y-39401660D01*
X80116609Y-39401660D01*
X80116609Y-38901660D01*
G37*
G36*
X80116609Y-39401660D02*
G01*
X80616609Y-39401660D01*
X80616609Y-39901660D01*
X80116609Y-39901660D01*
X80116609Y-39401660D01*
G37*
G36*
X80116609Y-39901660D02*
G01*
X80616609Y-39901660D01*
X80616609Y-40401660D01*
X80116609Y-40401660D01*
X80116609Y-39901660D01*
G37*
G36*
X80116609Y-40401660D02*
G01*
X80616609Y-40401660D01*
X80616609Y-40901660D01*
X80116609Y-40901660D01*
X80116609Y-40401660D01*
G37*
G36*
X80116609Y-40901660D02*
G01*
X80616609Y-40901660D01*
X80616609Y-41401660D01*
X80116609Y-41401660D01*
X80116609Y-40901660D01*
G37*
G36*
X80616609Y-35401660D02*
G01*
X81116609Y-35401660D01*
X81116609Y-35901660D01*
X80616609Y-35901660D01*
X80616609Y-35401660D01*
G37*
G36*
X80616609Y-36901660D02*
G01*
X81116609Y-36901660D01*
X81116609Y-37401660D01*
X80616609Y-37401660D01*
X80616609Y-36901660D01*
G37*
G36*
X81116609Y-29401660D02*
G01*
X81616609Y-29401660D01*
X81616609Y-29901660D01*
X81116609Y-29901660D01*
X81116609Y-29401660D01*
G37*
G36*
X81116609Y-29901660D02*
G01*
X81616609Y-29901660D01*
X81616609Y-30401660D01*
X81116609Y-30401660D01*
X81116609Y-29901660D01*
G37*
G36*
X81116609Y-30901660D02*
G01*
X81616609Y-30901660D01*
X81616609Y-31401660D01*
X81116609Y-31401660D01*
X81116609Y-30901660D01*
G37*
G36*
X81116609Y-31401660D02*
G01*
X81616609Y-31401660D01*
X81616609Y-31901660D01*
X81116609Y-31901660D01*
X81116609Y-31401660D01*
G37*
G36*
X81116609Y-32401660D02*
G01*
X81616609Y-32401660D01*
X81616609Y-32901660D01*
X81116609Y-32901660D01*
X81116609Y-32401660D01*
G37*
G36*
X81116609Y-33401660D02*
G01*
X81616609Y-33401660D01*
X81616609Y-33901660D01*
X81116609Y-33901660D01*
X81116609Y-33401660D01*
G37*
G36*
X81116609Y-34401660D02*
G01*
X81616609Y-34401660D01*
X81616609Y-34901660D01*
X81116609Y-34901660D01*
X81116609Y-34401660D01*
G37*
G36*
X81116609Y-34901660D02*
G01*
X81616609Y-34901660D01*
X81616609Y-35401660D01*
X81116609Y-35401660D01*
X81116609Y-34901660D01*
G37*
G36*
X81116609Y-35401660D02*
G01*
X81616609Y-35401660D01*
X81616609Y-35901660D01*
X81116609Y-35901660D01*
X81116609Y-35401660D01*
G37*
G36*
X81116609Y-36401660D02*
G01*
X81616609Y-36401660D01*
X81616609Y-36901660D01*
X81116609Y-36901660D01*
X81116609Y-36401660D01*
G37*
G36*
X81116609Y-37401660D02*
G01*
X81616609Y-37401660D01*
X81616609Y-37901660D01*
X81116609Y-37901660D01*
X81116609Y-37401660D01*
G37*
G36*
X81116609Y-38401660D02*
G01*
X81616609Y-38401660D01*
X81616609Y-38901660D01*
X81116609Y-38901660D01*
X81116609Y-38401660D01*
G37*
G36*
X81116609Y-39401660D02*
G01*
X81616609Y-39401660D01*
X81616609Y-39901660D01*
X81116609Y-39901660D01*
X81116609Y-39401660D01*
G37*
G36*
X81116609Y-40901660D02*
G01*
X81616609Y-40901660D01*
X81616609Y-41401660D01*
X81116609Y-41401660D01*
X81116609Y-40901660D01*
G37*
G36*
X81616609Y-27901660D02*
G01*
X82116609Y-27901660D01*
X82116609Y-28401660D01*
X81616609Y-28401660D01*
X81616609Y-27901660D01*
G37*
G36*
X81616609Y-28901660D02*
G01*
X82116609Y-28901660D01*
X82116609Y-29401660D01*
X81616609Y-29401660D01*
X81616609Y-28901660D01*
G37*
G36*
X81616609Y-30401660D02*
G01*
X82116609Y-30401660D01*
X82116609Y-30901660D01*
X81616609Y-30901660D01*
X81616609Y-30401660D01*
G37*
G36*
X81616609Y-30901660D02*
G01*
X82116609Y-30901660D01*
X82116609Y-31401660D01*
X81616609Y-31401660D01*
X81616609Y-30901660D01*
G37*
G36*
X81616609Y-31901660D02*
G01*
X82116609Y-31901660D01*
X82116609Y-32401660D01*
X81616609Y-32401660D01*
X81616609Y-31901660D01*
G37*
G36*
X81616609Y-33401660D02*
G01*
X82116609Y-33401660D01*
X82116609Y-33901660D01*
X81616609Y-33901660D01*
X81616609Y-33401660D01*
G37*
G36*
X81616609Y-33901660D02*
G01*
X82116609Y-33901660D01*
X82116609Y-34401660D01*
X81616609Y-34401660D01*
X81616609Y-33901660D01*
G37*
G36*
X81616609Y-34401660D02*
G01*
X82116609Y-34401660D01*
X82116609Y-34901660D01*
X81616609Y-34901660D01*
X81616609Y-34401660D01*
G37*
G36*
X81616609Y-34901660D02*
G01*
X82116609Y-34901660D01*
X82116609Y-35401660D01*
X81616609Y-35401660D01*
X81616609Y-34901660D01*
G37*
G36*
X81616609Y-35401660D02*
G01*
X82116609Y-35401660D01*
X82116609Y-35901660D01*
X81616609Y-35901660D01*
X81616609Y-35401660D01*
G37*
G36*
X81616609Y-35901660D02*
G01*
X82116609Y-35901660D01*
X82116609Y-36401660D01*
X81616609Y-36401660D01*
X81616609Y-35901660D01*
G37*
G36*
X81616609Y-36401660D02*
G01*
X82116609Y-36401660D01*
X82116609Y-36901660D01*
X81616609Y-36901660D01*
X81616609Y-36401660D01*
G37*
G36*
X81616609Y-36901660D02*
G01*
X82116609Y-36901660D01*
X82116609Y-37401660D01*
X81616609Y-37401660D01*
X81616609Y-36901660D01*
G37*
G36*
X81616609Y-38901660D02*
G01*
X82116609Y-38901660D01*
X82116609Y-39401660D01*
X81616609Y-39401660D01*
X81616609Y-38901660D01*
G37*
G36*
X81616609Y-39401660D02*
G01*
X82116609Y-39401660D01*
X82116609Y-39901660D01*
X81616609Y-39901660D01*
X81616609Y-39401660D01*
G37*
G36*
X81616609Y-39901660D02*
G01*
X82116609Y-39901660D01*
X82116609Y-40401660D01*
X81616609Y-40401660D01*
X81616609Y-39901660D01*
G37*
G36*
X81616609Y-40401660D02*
G01*
X82116609Y-40401660D01*
X82116609Y-40901660D01*
X81616609Y-40901660D01*
X81616609Y-40401660D01*
G37*
G36*
X82116609Y-26901660D02*
G01*
X82616609Y-26901660D01*
X82616609Y-27401660D01*
X82116609Y-27401660D01*
X82116609Y-26901660D01*
G37*
G36*
X82116609Y-29901660D02*
G01*
X82616609Y-29901660D01*
X82616609Y-30401660D01*
X82116609Y-30401660D01*
X82116609Y-29901660D01*
G37*
G36*
X82116609Y-30401660D02*
G01*
X82616609Y-30401660D01*
X82616609Y-30901660D01*
X82116609Y-30901660D01*
X82116609Y-30401660D01*
G37*
G36*
X82116609Y-30901660D02*
G01*
X82616609Y-30901660D01*
X82616609Y-31401660D01*
X82116609Y-31401660D01*
X82116609Y-30901660D01*
G37*
G36*
X82116609Y-31901660D02*
G01*
X82616609Y-31901660D01*
X82616609Y-32401660D01*
X82116609Y-32401660D01*
X82116609Y-31901660D01*
G37*
G36*
X82116609Y-34401660D02*
G01*
X82616609Y-34401660D01*
X82616609Y-34901660D01*
X82116609Y-34901660D01*
X82116609Y-34401660D01*
G37*
G36*
X82116609Y-35401660D02*
G01*
X82616609Y-35401660D01*
X82616609Y-35901660D01*
X82116609Y-35901660D01*
X82116609Y-35401660D01*
G37*
G36*
X82116609Y-36901660D02*
G01*
X82616609Y-36901660D01*
X82616609Y-37401660D01*
X82116609Y-37401660D01*
X82116609Y-36901660D01*
G37*
G36*
X82116609Y-37401660D02*
G01*
X82616609Y-37401660D01*
X82616609Y-37901660D01*
X82116609Y-37901660D01*
X82116609Y-37401660D01*
G37*
G36*
X82116609Y-37901660D02*
G01*
X82616609Y-37901660D01*
X82616609Y-38401660D01*
X82116609Y-38401660D01*
X82116609Y-37901660D01*
G37*
G36*
X82116609Y-38401660D02*
G01*
X82616609Y-38401660D01*
X82616609Y-38901660D01*
X82116609Y-38901660D01*
X82116609Y-38401660D01*
G37*
G36*
X82116609Y-39901660D02*
G01*
X82616609Y-39901660D01*
X82616609Y-40401660D01*
X82116609Y-40401660D01*
X82116609Y-39901660D01*
G37*
G36*
X82116609Y-40901660D02*
G01*
X82616609Y-40901660D01*
X82616609Y-41401660D01*
X82116609Y-41401660D01*
X82116609Y-40901660D01*
G37*
G36*
X82616609Y-26901660D02*
G01*
X83116609Y-26901660D01*
X83116609Y-27401660D01*
X82616609Y-27401660D01*
X82616609Y-26901660D01*
G37*
G36*
X82616609Y-27401660D02*
G01*
X83116609Y-27401660D01*
X83116609Y-27901660D01*
X82616609Y-27901660D01*
X82616609Y-27401660D01*
G37*
G36*
X82616609Y-27901660D02*
G01*
X83116609Y-27901660D01*
X83116609Y-28401660D01*
X82616609Y-28401660D01*
X82616609Y-27901660D01*
G37*
G36*
X82616609Y-28401660D02*
G01*
X83116609Y-28401660D01*
X83116609Y-28901660D01*
X82616609Y-28901660D01*
X82616609Y-28401660D01*
G37*
G36*
X82616609Y-28901660D02*
G01*
X83116609Y-28901660D01*
X83116609Y-29401660D01*
X82616609Y-29401660D01*
X82616609Y-28901660D01*
G37*
G36*
X82616609Y-29401660D02*
G01*
X83116609Y-29401660D01*
X83116609Y-29901660D01*
X82616609Y-29901660D01*
X82616609Y-29401660D01*
G37*
G36*
X82616609Y-30901660D02*
G01*
X83116609Y-30901660D01*
X83116609Y-31401660D01*
X82616609Y-31401660D01*
X82616609Y-30901660D01*
G37*
G36*
X82616609Y-33401660D02*
G01*
X83116609Y-33401660D01*
X83116609Y-33901660D01*
X82616609Y-33901660D01*
X82616609Y-33401660D01*
G37*
G36*
X82616609Y-33901660D02*
G01*
X83116609Y-33901660D01*
X83116609Y-34401660D01*
X82616609Y-34401660D01*
X82616609Y-33901660D01*
G37*
G36*
X82616609Y-34401660D02*
G01*
X83116609Y-34401660D01*
X83116609Y-34901660D01*
X82616609Y-34901660D01*
X82616609Y-34401660D01*
G37*
G36*
X82616609Y-35401660D02*
G01*
X83116609Y-35401660D01*
X83116609Y-35901660D01*
X82616609Y-35901660D01*
X82616609Y-35401660D01*
G37*
G36*
X82616609Y-35901660D02*
G01*
X83116609Y-35901660D01*
X83116609Y-36401660D01*
X82616609Y-36401660D01*
X82616609Y-35901660D01*
G37*
G36*
X82616609Y-36901660D02*
G01*
X83116609Y-36901660D01*
X83116609Y-37401660D01*
X82616609Y-37401660D01*
X82616609Y-36901660D01*
G37*
G36*
X82616609Y-37401660D02*
G01*
X83116609Y-37401660D01*
X83116609Y-37901660D01*
X82616609Y-37901660D01*
X82616609Y-37401660D01*
G37*
G36*
X82616609Y-38401660D02*
G01*
X83116609Y-38401660D01*
X83116609Y-38901660D01*
X82616609Y-38901660D01*
X82616609Y-38401660D01*
G37*
G36*
X82616609Y-38901660D02*
G01*
X83116609Y-38901660D01*
X83116609Y-39401660D01*
X82616609Y-39401660D01*
X82616609Y-38901660D01*
G37*
G36*
X82616609Y-39401660D02*
G01*
X83116609Y-39401660D01*
X83116609Y-39901660D01*
X82616609Y-39901660D01*
X82616609Y-39401660D01*
G37*
G36*
X83116609Y-28401660D02*
G01*
X83616609Y-28401660D01*
X83616609Y-28901660D01*
X83116609Y-28901660D01*
X83116609Y-28401660D01*
G37*
G36*
X83116609Y-28901660D02*
G01*
X83616609Y-28901660D01*
X83616609Y-29401660D01*
X83116609Y-29401660D01*
X83116609Y-28901660D01*
G37*
G36*
X83116609Y-29901660D02*
G01*
X83616609Y-29901660D01*
X83616609Y-30401660D01*
X83116609Y-30401660D01*
X83116609Y-29901660D01*
G37*
G36*
X83116609Y-31401660D02*
G01*
X83616609Y-31401660D01*
X83616609Y-31901660D01*
X83116609Y-31901660D01*
X83116609Y-31401660D01*
G37*
G36*
X83116609Y-31901660D02*
G01*
X83616609Y-31901660D01*
X83616609Y-32401660D01*
X83116609Y-32401660D01*
X83116609Y-31901660D01*
G37*
G36*
X83116609Y-32401660D02*
G01*
X83616609Y-32401660D01*
X83616609Y-32901660D01*
X83116609Y-32901660D01*
X83116609Y-32401660D01*
G37*
G36*
X83116609Y-32901660D02*
G01*
X83616609Y-32901660D01*
X83616609Y-33401660D01*
X83116609Y-33401660D01*
X83116609Y-32901660D01*
G37*
G36*
X83116609Y-33901660D02*
G01*
X83616609Y-33901660D01*
X83616609Y-34401660D01*
X83116609Y-34401660D01*
X83116609Y-33901660D01*
G37*
G36*
X83116609Y-34401660D02*
G01*
X83616609Y-34401660D01*
X83616609Y-34901660D01*
X83116609Y-34901660D01*
X83116609Y-34401660D01*
G37*
G36*
X83116609Y-34901660D02*
G01*
X83616609Y-34901660D01*
X83616609Y-35401660D01*
X83116609Y-35401660D01*
X83116609Y-34901660D01*
G37*
G36*
X83116609Y-35401660D02*
G01*
X83616609Y-35401660D01*
X83616609Y-35901660D01*
X83116609Y-35901660D01*
X83116609Y-35401660D01*
G37*
G36*
X83116609Y-35901660D02*
G01*
X83616609Y-35901660D01*
X83616609Y-36401660D01*
X83116609Y-36401660D01*
X83116609Y-35901660D01*
G37*
G36*
X83116609Y-36401660D02*
G01*
X83616609Y-36401660D01*
X83616609Y-36901660D01*
X83116609Y-36901660D01*
X83116609Y-36401660D01*
G37*
G36*
X83116609Y-36901660D02*
G01*
X83616609Y-36901660D01*
X83616609Y-37401660D01*
X83116609Y-37401660D01*
X83116609Y-36901660D01*
G37*
G36*
X83116609Y-38901660D02*
G01*
X83616609Y-38901660D01*
X83616609Y-39401660D01*
X83116609Y-39401660D01*
X83116609Y-38901660D01*
G37*
G36*
X83116609Y-40901660D02*
G01*
X83616609Y-40901660D01*
X83616609Y-41401660D01*
X83116609Y-41401660D01*
X83116609Y-40901660D01*
G37*
G36*
X83616609Y-30901660D02*
G01*
X84116609Y-30901660D01*
X84116609Y-31401660D01*
X83616609Y-31401660D01*
X83616609Y-30901660D01*
G37*
G36*
X83616609Y-31401660D02*
G01*
X84116609Y-31401660D01*
X84116609Y-31901660D01*
X83616609Y-31901660D01*
X83616609Y-31401660D01*
G37*
G36*
X83616609Y-32401660D02*
G01*
X84116609Y-32401660D01*
X84116609Y-32901660D01*
X83616609Y-32901660D01*
X83616609Y-32401660D01*
G37*
G36*
X83616609Y-32901660D02*
G01*
X84116609Y-32901660D01*
X84116609Y-33401660D01*
X83616609Y-33401660D01*
X83616609Y-32901660D01*
G37*
G36*
X83616609Y-33401660D02*
G01*
X84116609Y-33401660D01*
X84116609Y-33901660D01*
X83616609Y-33901660D01*
X83616609Y-33401660D01*
G37*
G36*
X83616609Y-34401660D02*
G01*
X84116609Y-34401660D01*
X84116609Y-34901660D01*
X83616609Y-34901660D01*
X83616609Y-34401660D01*
G37*
G36*
X83616609Y-35401660D02*
G01*
X84116609Y-35401660D01*
X84116609Y-35901660D01*
X83616609Y-35901660D01*
X83616609Y-35401660D01*
G37*
G36*
X83616609Y-36901660D02*
G01*
X84116609Y-36901660D01*
X84116609Y-37401660D01*
X83616609Y-37401660D01*
X83616609Y-36901660D01*
G37*
G36*
X83616609Y-37401660D02*
G01*
X84116609Y-37401660D01*
X84116609Y-37901660D01*
X83616609Y-37901660D01*
X83616609Y-37401660D01*
G37*
G36*
X83616609Y-38401660D02*
G01*
X84116609Y-38401660D01*
X84116609Y-38901660D01*
X83616609Y-38901660D01*
X83616609Y-38401660D01*
G37*
G36*
X83616609Y-39401660D02*
G01*
X84116609Y-39401660D01*
X84116609Y-39901660D01*
X83616609Y-39901660D01*
X83616609Y-39401660D01*
G37*
G36*
X83616609Y-39901660D02*
G01*
X84116609Y-39901660D01*
X84116609Y-40401660D01*
X83616609Y-40401660D01*
X83616609Y-39901660D01*
G37*
G36*
X83616609Y-40901660D02*
G01*
X84116609Y-40901660D01*
X84116609Y-41401660D01*
X83616609Y-41401660D01*
X83616609Y-40901660D01*
G37*
G36*
X84116609Y-27401660D02*
G01*
X84616609Y-27401660D01*
X84616609Y-27901660D01*
X84116609Y-27901660D01*
X84116609Y-27401660D01*
G37*
G36*
X84116609Y-28401660D02*
G01*
X84616609Y-28401660D01*
X84616609Y-28901660D01*
X84116609Y-28901660D01*
X84116609Y-28401660D01*
G37*
G36*
X84116609Y-28901660D02*
G01*
X84616609Y-28901660D01*
X84616609Y-29401660D01*
X84116609Y-29401660D01*
X84116609Y-28901660D01*
G37*
G36*
X84116609Y-29901660D02*
G01*
X84616609Y-29901660D01*
X84616609Y-30401660D01*
X84116609Y-30401660D01*
X84116609Y-29901660D01*
G37*
G36*
X84116609Y-30401660D02*
G01*
X84616609Y-30401660D01*
X84616609Y-30901660D01*
X84116609Y-30901660D01*
X84116609Y-30401660D01*
G37*
G36*
X84116609Y-30901660D02*
G01*
X84616609Y-30901660D01*
X84616609Y-31401660D01*
X84116609Y-31401660D01*
X84116609Y-30901660D01*
G37*
G36*
X84116609Y-31401660D02*
G01*
X84616609Y-31401660D01*
X84616609Y-31901660D01*
X84116609Y-31901660D01*
X84116609Y-31401660D01*
G37*
G36*
X84116609Y-31901660D02*
G01*
X84616609Y-31901660D01*
X84616609Y-32401660D01*
X84116609Y-32401660D01*
X84116609Y-31901660D01*
G37*
G36*
X84116609Y-32401660D02*
G01*
X84616609Y-32401660D01*
X84616609Y-32901660D01*
X84116609Y-32901660D01*
X84116609Y-32401660D01*
G37*
G36*
X84116609Y-34401660D02*
G01*
X84616609Y-34401660D01*
X84616609Y-34901660D01*
X84116609Y-34901660D01*
X84116609Y-34401660D01*
G37*
G36*
X84116609Y-35401660D02*
G01*
X84616609Y-35401660D01*
X84616609Y-35901660D01*
X84116609Y-35901660D01*
X84116609Y-35401660D01*
G37*
G36*
X84116609Y-36401660D02*
G01*
X84616609Y-36401660D01*
X84616609Y-36901660D01*
X84116609Y-36901660D01*
X84116609Y-36401660D01*
G37*
G36*
X84116609Y-36901660D02*
G01*
X84616609Y-36901660D01*
X84616609Y-37401660D01*
X84116609Y-37401660D01*
X84116609Y-36901660D01*
G37*
G36*
X84116609Y-37401660D02*
G01*
X84616609Y-37401660D01*
X84616609Y-37901660D01*
X84116609Y-37901660D01*
X84116609Y-37401660D01*
G37*
G36*
X84116609Y-37901660D02*
G01*
X84616609Y-37901660D01*
X84616609Y-38401660D01*
X84116609Y-38401660D01*
X84116609Y-37901660D01*
G37*
G36*
X84116609Y-38901660D02*
G01*
X84616609Y-38901660D01*
X84616609Y-39401660D01*
X84116609Y-39401660D01*
X84116609Y-38901660D01*
G37*
G36*
X84116609Y-40401660D02*
G01*
X84616609Y-40401660D01*
X84616609Y-40901660D01*
X84116609Y-40901660D01*
X84116609Y-40401660D01*
G37*
G36*
X84116609Y-40901660D02*
G01*
X84616609Y-40901660D01*
X84616609Y-41401660D01*
X84116609Y-41401660D01*
X84116609Y-40901660D01*
G37*
G36*
X84616609Y-26901660D02*
G01*
X85116609Y-26901660D01*
X85116609Y-27401660D01*
X84616609Y-27401660D01*
X84616609Y-26901660D01*
G37*
G36*
X84616609Y-27401660D02*
G01*
X85116609Y-27401660D01*
X85116609Y-27901660D01*
X84616609Y-27901660D01*
X84616609Y-27401660D01*
G37*
G36*
X84616609Y-28901660D02*
G01*
X85116609Y-28901660D01*
X85116609Y-29401660D01*
X84616609Y-29401660D01*
X84616609Y-28901660D01*
G37*
G36*
X84616609Y-29401660D02*
G01*
X85116609Y-29401660D01*
X85116609Y-29901660D01*
X84616609Y-29901660D01*
X84616609Y-29401660D01*
G37*
G36*
X84616609Y-32901660D02*
G01*
X85116609Y-32901660D01*
X85116609Y-33401660D01*
X84616609Y-33401660D01*
X84616609Y-32901660D01*
G37*
G36*
X84616609Y-34401660D02*
G01*
X85116609Y-34401660D01*
X85116609Y-34901660D01*
X84616609Y-34901660D01*
X84616609Y-34401660D01*
G37*
G36*
X84616609Y-36401660D02*
G01*
X85116609Y-36401660D01*
X85116609Y-36901660D01*
X84616609Y-36901660D01*
X84616609Y-36401660D01*
G37*
G36*
X84616609Y-40401660D02*
G01*
X85116609Y-40401660D01*
X85116609Y-40901660D01*
X84616609Y-40901660D01*
X84616609Y-40401660D01*
G37*
G36*
X84616609Y-40901660D02*
G01*
X85116609Y-40901660D01*
X85116609Y-41401660D01*
X84616609Y-41401660D01*
X84616609Y-40901660D01*
G37*
G36*
X85116609Y-27901660D02*
G01*
X85616609Y-27901660D01*
X85616609Y-28401660D01*
X85116609Y-28401660D01*
X85116609Y-27901660D01*
G37*
G36*
X85116609Y-28901660D02*
G01*
X85616609Y-28901660D01*
X85616609Y-29401660D01*
X85116609Y-29401660D01*
X85116609Y-28901660D01*
G37*
G36*
X85116609Y-29401660D02*
G01*
X85616609Y-29401660D01*
X85616609Y-29901660D01*
X85116609Y-29901660D01*
X85116609Y-29401660D01*
G37*
G36*
X85116609Y-29901660D02*
G01*
X85616609Y-29901660D01*
X85616609Y-30401660D01*
X85116609Y-30401660D01*
X85116609Y-29901660D01*
G37*
G36*
X85116609Y-30401660D02*
G01*
X85616609Y-30401660D01*
X85616609Y-30901660D01*
X85116609Y-30901660D01*
X85116609Y-30401660D01*
G37*
G36*
X85116609Y-31401660D02*
G01*
X85616609Y-31401660D01*
X85616609Y-31901660D01*
X85116609Y-31901660D01*
X85116609Y-31401660D01*
G37*
G36*
X85116609Y-31901660D02*
G01*
X85616609Y-31901660D01*
X85616609Y-32401660D01*
X85116609Y-32401660D01*
X85116609Y-31901660D01*
G37*
G36*
X85116609Y-32401660D02*
G01*
X85616609Y-32401660D01*
X85616609Y-32901660D01*
X85116609Y-32901660D01*
X85116609Y-32401660D01*
G37*
G36*
X85116609Y-32901660D02*
G01*
X85616609Y-32901660D01*
X85616609Y-33401660D01*
X85116609Y-33401660D01*
X85116609Y-32901660D01*
G37*
G36*
X85116609Y-33901660D02*
G01*
X85616609Y-33901660D01*
X85616609Y-34401660D01*
X85116609Y-34401660D01*
X85116609Y-33901660D01*
G37*
G36*
X85116609Y-34901660D02*
G01*
X85616609Y-34901660D01*
X85616609Y-35401660D01*
X85116609Y-35401660D01*
X85116609Y-34901660D01*
G37*
G36*
X85116609Y-35401660D02*
G01*
X85616609Y-35401660D01*
X85616609Y-35901660D01*
X85116609Y-35901660D01*
X85116609Y-35401660D01*
G37*
G36*
X85116609Y-36901660D02*
G01*
X85616609Y-36901660D01*
X85616609Y-37401660D01*
X85116609Y-37401660D01*
X85116609Y-36901660D01*
G37*
G36*
X85116609Y-37401660D02*
G01*
X85616609Y-37401660D01*
X85616609Y-37901660D01*
X85116609Y-37901660D01*
X85116609Y-37401660D01*
G37*
G36*
X85116609Y-40401660D02*
G01*
X85616609Y-40401660D01*
X85616609Y-40901660D01*
X85116609Y-40901660D01*
X85116609Y-40401660D01*
G37*
G36*
X85116609Y-40901660D02*
G01*
X85616609Y-40901660D01*
X85616609Y-41401660D01*
X85116609Y-41401660D01*
X85116609Y-40901660D01*
G37*
G36*
X85616609Y-27901660D02*
G01*
X86116609Y-27901660D01*
X86116609Y-28401660D01*
X85616609Y-28401660D01*
X85616609Y-27901660D01*
G37*
G36*
X85616609Y-30401660D02*
G01*
X86116609Y-30401660D01*
X86116609Y-30901660D01*
X85616609Y-30901660D01*
X85616609Y-30401660D01*
G37*
G36*
X85616609Y-31401660D02*
G01*
X86116609Y-31401660D01*
X86116609Y-31901660D01*
X85616609Y-31901660D01*
X85616609Y-31401660D01*
G37*
G36*
X85616609Y-31901660D02*
G01*
X86116609Y-31901660D01*
X86116609Y-32401660D01*
X85616609Y-32401660D01*
X85616609Y-31901660D01*
G37*
G36*
X85616609Y-32901660D02*
G01*
X86116609Y-32901660D01*
X86116609Y-33401660D01*
X85616609Y-33401660D01*
X85616609Y-32901660D01*
G37*
G36*
X85616609Y-34401660D02*
G01*
X86116609Y-34401660D01*
X86116609Y-34901660D01*
X85616609Y-34901660D01*
X85616609Y-34401660D01*
G37*
G36*
X85616609Y-34901660D02*
G01*
X86116609Y-34901660D01*
X86116609Y-35401660D01*
X85616609Y-35401660D01*
X85616609Y-34901660D01*
G37*
G36*
X85616609Y-36401660D02*
G01*
X86116609Y-36401660D01*
X86116609Y-36901660D01*
X85616609Y-36901660D01*
X85616609Y-36401660D01*
G37*
G36*
X85616609Y-37401660D02*
G01*
X86116609Y-37401660D01*
X86116609Y-37901660D01*
X85616609Y-37901660D01*
X85616609Y-37401660D01*
G37*
G36*
X85616609Y-38901660D02*
G01*
X86116609Y-38901660D01*
X86116609Y-39401660D01*
X85616609Y-39401660D01*
X85616609Y-38901660D01*
G37*
G36*
X85616609Y-39401660D02*
G01*
X86116609Y-39401660D01*
X86116609Y-39901660D01*
X85616609Y-39901660D01*
X85616609Y-39401660D01*
G37*
G36*
X85616609Y-40401660D02*
G01*
X86116609Y-40401660D01*
X86116609Y-40901660D01*
X85616609Y-40901660D01*
X85616609Y-40401660D01*
G37*
G36*
X85616609Y-40901660D02*
G01*
X86116609Y-40901660D01*
X86116609Y-41401660D01*
X85616609Y-41401660D01*
X85616609Y-40901660D01*
G37*
G36*
X86116609Y-26901660D02*
G01*
X86616609Y-26901660D01*
X86616609Y-27401660D01*
X86116609Y-27401660D01*
X86116609Y-26901660D01*
G37*
G36*
X86116609Y-28401660D02*
G01*
X86616609Y-28401660D01*
X86616609Y-28901660D01*
X86116609Y-28901660D01*
X86116609Y-28401660D01*
G37*
G36*
X86116609Y-28901660D02*
G01*
X86616609Y-28901660D01*
X86616609Y-29401660D01*
X86116609Y-29401660D01*
X86116609Y-28901660D01*
G37*
G36*
X86116609Y-29901660D02*
G01*
X86616609Y-29901660D01*
X86616609Y-30401660D01*
X86116609Y-30401660D01*
X86116609Y-29901660D01*
G37*
G36*
X86116609Y-30401660D02*
G01*
X86616609Y-30401660D01*
X86616609Y-30901660D01*
X86116609Y-30901660D01*
X86116609Y-30401660D01*
G37*
G36*
X86116609Y-31901660D02*
G01*
X86616609Y-31901660D01*
X86616609Y-32401660D01*
X86116609Y-32401660D01*
X86116609Y-31901660D01*
G37*
G36*
X86116609Y-32901660D02*
G01*
X86616609Y-32901660D01*
X86616609Y-33401660D01*
X86116609Y-33401660D01*
X86116609Y-32901660D01*
G37*
G36*
X86116609Y-33401660D02*
G01*
X86616609Y-33401660D01*
X86616609Y-33901660D01*
X86116609Y-33901660D01*
X86116609Y-33401660D01*
G37*
G36*
X86116609Y-34401660D02*
G01*
X86616609Y-34401660D01*
X86616609Y-34901660D01*
X86116609Y-34901660D01*
X86116609Y-34401660D01*
G37*
G36*
X86116609Y-35401660D02*
G01*
X86616609Y-35401660D01*
X86616609Y-35901660D01*
X86116609Y-35901660D01*
X86116609Y-35401660D01*
G37*
G36*
X86116609Y-37901660D02*
G01*
X86616609Y-37901660D01*
X86616609Y-38401660D01*
X86116609Y-38401660D01*
X86116609Y-37901660D01*
G37*
G36*
X86116609Y-38401660D02*
G01*
X86616609Y-38401660D01*
X86616609Y-38901660D01*
X86116609Y-38901660D01*
X86116609Y-38401660D01*
G37*
G36*
X86116609Y-39901660D02*
G01*
X86616609Y-39901660D01*
X86616609Y-40401660D01*
X86116609Y-40401660D01*
X86116609Y-39901660D01*
G37*
G36*
X86116609Y-40901660D02*
G01*
X86616609Y-40901660D01*
X86616609Y-41401660D01*
X86116609Y-41401660D01*
X86116609Y-40901660D01*
G37*
G36*
X86616609Y-26901660D02*
G01*
X87116609Y-26901660D01*
X87116609Y-27401660D01*
X86616609Y-27401660D01*
X86616609Y-26901660D01*
G37*
G36*
X86616609Y-27901660D02*
G01*
X87116609Y-27901660D01*
X87116609Y-28401660D01*
X86616609Y-28401660D01*
X86616609Y-27901660D01*
G37*
G36*
X86616609Y-29401660D02*
G01*
X87116609Y-29401660D01*
X87116609Y-29901660D01*
X86616609Y-29901660D01*
X86616609Y-29401660D01*
G37*
G36*
X86616609Y-30401660D02*
G01*
X87116609Y-30401660D01*
X87116609Y-30901660D01*
X86616609Y-30901660D01*
X86616609Y-30401660D01*
G37*
G36*
X86616609Y-31901660D02*
G01*
X87116609Y-31901660D01*
X87116609Y-32401660D01*
X86616609Y-32401660D01*
X86616609Y-31901660D01*
G37*
G36*
X86616609Y-32401660D02*
G01*
X87116609Y-32401660D01*
X87116609Y-32901660D01*
X86616609Y-32901660D01*
X86616609Y-32401660D01*
G37*
G36*
X86616609Y-33401660D02*
G01*
X87116609Y-33401660D01*
X87116609Y-33901660D01*
X86616609Y-33901660D01*
X86616609Y-33401660D01*
G37*
G36*
X86616609Y-36901660D02*
G01*
X87116609Y-36901660D01*
X87116609Y-37401660D01*
X86616609Y-37401660D01*
X86616609Y-36901660D01*
G37*
G36*
X86616609Y-37401660D02*
G01*
X87116609Y-37401660D01*
X87116609Y-37901660D01*
X86616609Y-37901660D01*
X86616609Y-37401660D01*
G37*
G36*
X86616609Y-39401660D02*
G01*
X87116609Y-39401660D01*
X87116609Y-39901660D01*
X86616609Y-39901660D01*
X86616609Y-39401660D01*
G37*
G36*
X86616609Y-39901660D02*
G01*
X87116609Y-39901660D01*
X87116609Y-40401660D01*
X86616609Y-40401660D01*
X86616609Y-39901660D01*
G37*
G36*
X86616609Y-40401660D02*
G01*
X87116609Y-40401660D01*
X87116609Y-40901660D01*
X86616609Y-40901660D01*
X86616609Y-40401660D01*
G37*
G36*
X87116609Y-28401660D02*
G01*
X87616609Y-28401660D01*
X87616609Y-28901660D01*
X87116609Y-28901660D01*
X87116609Y-28401660D01*
G37*
G36*
X87116609Y-29401660D02*
G01*
X87616609Y-29401660D01*
X87616609Y-29901660D01*
X87116609Y-29901660D01*
X87116609Y-29401660D01*
G37*
G36*
X87116609Y-29901660D02*
G01*
X87616609Y-29901660D01*
X87616609Y-30401660D01*
X87116609Y-30401660D01*
X87116609Y-29901660D01*
G37*
G36*
X87116609Y-30901660D02*
G01*
X87616609Y-30901660D01*
X87616609Y-31401660D01*
X87116609Y-31401660D01*
X87116609Y-30901660D01*
G37*
G36*
X87116609Y-32401660D02*
G01*
X87616609Y-32401660D01*
X87616609Y-32901660D01*
X87116609Y-32901660D01*
X87116609Y-32401660D01*
G37*
G36*
X87116609Y-33901660D02*
G01*
X87616609Y-33901660D01*
X87616609Y-34401660D01*
X87116609Y-34401660D01*
X87116609Y-33901660D01*
G37*
G36*
X87116609Y-34401660D02*
G01*
X87616609Y-34401660D01*
X87616609Y-34901660D01*
X87116609Y-34901660D01*
X87116609Y-34401660D01*
G37*
G36*
X87116609Y-34901660D02*
G01*
X87616609Y-34901660D01*
X87616609Y-35401660D01*
X87116609Y-35401660D01*
X87116609Y-34901660D01*
G37*
G36*
X87116609Y-35401660D02*
G01*
X87616609Y-35401660D01*
X87616609Y-35901660D01*
X87116609Y-35901660D01*
X87116609Y-35401660D01*
G37*
G36*
X87116609Y-36401660D02*
G01*
X87616609Y-36401660D01*
X87616609Y-36901660D01*
X87116609Y-36901660D01*
X87116609Y-36401660D01*
G37*
G36*
X87116609Y-36901660D02*
G01*
X87616609Y-36901660D01*
X87616609Y-37401660D01*
X87116609Y-37401660D01*
X87116609Y-36901660D01*
G37*
G36*
X87116609Y-37401660D02*
G01*
X87616609Y-37401660D01*
X87616609Y-37901660D01*
X87116609Y-37901660D01*
X87116609Y-37401660D01*
G37*
G36*
X87116609Y-37901660D02*
G01*
X87616609Y-37901660D01*
X87616609Y-38401660D01*
X87116609Y-38401660D01*
X87116609Y-37901660D01*
G37*
G36*
X87116609Y-38401660D02*
G01*
X87616609Y-38401660D01*
X87616609Y-38901660D01*
X87116609Y-38901660D01*
X87116609Y-38401660D01*
G37*
G36*
X87116609Y-38901660D02*
G01*
X87616609Y-38901660D01*
X87616609Y-39401660D01*
X87116609Y-39401660D01*
X87116609Y-38901660D01*
G37*
G36*
X87116609Y-39401660D02*
G01*
X87616609Y-39401660D01*
X87616609Y-39901660D01*
X87116609Y-39901660D01*
X87116609Y-39401660D01*
G37*
G36*
X87116609Y-39901660D02*
G01*
X87616609Y-39901660D01*
X87616609Y-40401660D01*
X87116609Y-40401660D01*
X87116609Y-39901660D01*
G37*
G36*
X87116609Y-40401660D02*
G01*
X87616609Y-40401660D01*
X87616609Y-40901660D01*
X87116609Y-40901660D01*
X87116609Y-40401660D01*
G37*
G36*
X87116609Y-40901660D02*
G01*
X87616609Y-40901660D01*
X87616609Y-41401660D01*
X87116609Y-41401660D01*
X87116609Y-40901660D01*
G37*
G36*
X87616609Y-30901660D02*
G01*
X88116609Y-30901660D01*
X88116609Y-31401660D01*
X87616609Y-31401660D01*
X87616609Y-30901660D01*
G37*
G36*
X87616609Y-31901660D02*
G01*
X88116609Y-31901660D01*
X88116609Y-32401660D01*
X87616609Y-32401660D01*
X87616609Y-31901660D01*
G37*
G36*
X87616609Y-32901660D02*
G01*
X88116609Y-32901660D01*
X88116609Y-33401660D01*
X87616609Y-33401660D01*
X87616609Y-32901660D01*
G37*
G36*
X87616609Y-33401660D02*
G01*
X88116609Y-33401660D01*
X88116609Y-33901660D01*
X87616609Y-33901660D01*
X87616609Y-33401660D01*
G37*
G36*
X87616609Y-34401660D02*
G01*
X88116609Y-34401660D01*
X88116609Y-34901660D01*
X87616609Y-34901660D01*
X87616609Y-34401660D01*
G37*
G36*
X87616609Y-35401660D02*
G01*
X88116609Y-35401660D01*
X88116609Y-35901660D01*
X87616609Y-35901660D01*
X87616609Y-35401660D01*
G37*
G36*
X87616609Y-35901660D02*
G01*
X88116609Y-35901660D01*
X88116609Y-36401660D01*
X87616609Y-36401660D01*
X87616609Y-35901660D01*
G37*
G36*
X87616609Y-36401660D02*
G01*
X88116609Y-36401660D01*
X88116609Y-36901660D01*
X87616609Y-36901660D01*
X87616609Y-36401660D01*
G37*
G36*
X87616609Y-36901660D02*
G01*
X88116609Y-36901660D01*
X88116609Y-37401660D01*
X87616609Y-37401660D01*
X87616609Y-36901660D01*
G37*
G36*
X87616609Y-38901660D02*
G01*
X88116609Y-38901660D01*
X88116609Y-39401660D01*
X87616609Y-39401660D01*
X87616609Y-38901660D01*
G37*
G36*
X87616609Y-40401660D02*
G01*
X88116609Y-40401660D01*
X88116609Y-40901660D01*
X87616609Y-40901660D01*
X87616609Y-40401660D01*
G37*
G36*
X87616609Y-40901660D02*
G01*
X88116609Y-40901660D01*
X88116609Y-41401660D01*
X87616609Y-41401660D01*
X87616609Y-40901660D01*
G37*
G36*
X88116609Y-26901660D02*
G01*
X88616609Y-26901660D01*
X88616609Y-27401660D01*
X88116609Y-27401660D01*
X88116609Y-26901660D01*
G37*
G36*
X88116609Y-27401660D02*
G01*
X88616609Y-27401660D01*
X88616609Y-27901660D01*
X88116609Y-27901660D01*
X88116609Y-27401660D01*
G37*
G36*
X88116609Y-27901660D02*
G01*
X88616609Y-27901660D01*
X88616609Y-28401660D01*
X88116609Y-28401660D01*
X88116609Y-27901660D01*
G37*
G36*
X88116609Y-28401660D02*
G01*
X88616609Y-28401660D01*
X88616609Y-28901660D01*
X88116609Y-28901660D01*
X88116609Y-28401660D01*
G37*
G36*
X88116609Y-28901660D02*
G01*
X88616609Y-28901660D01*
X88616609Y-29401660D01*
X88116609Y-29401660D01*
X88116609Y-28901660D01*
G37*
G36*
X88116609Y-29401660D02*
G01*
X88616609Y-29401660D01*
X88616609Y-29901660D01*
X88116609Y-29901660D01*
X88116609Y-29401660D01*
G37*
G36*
X88116609Y-29901660D02*
G01*
X88616609Y-29901660D01*
X88616609Y-30401660D01*
X88116609Y-30401660D01*
X88116609Y-29901660D01*
G37*
G36*
X88116609Y-31401660D02*
G01*
X88616609Y-31401660D01*
X88616609Y-31901660D01*
X88116609Y-31901660D01*
X88116609Y-31401660D01*
G37*
G36*
X88116609Y-32901660D02*
G01*
X88616609Y-32901660D01*
X88616609Y-33401660D01*
X88116609Y-33401660D01*
X88116609Y-32901660D01*
G37*
G36*
X88116609Y-33901660D02*
G01*
X88616609Y-33901660D01*
X88616609Y-34401660D01*
X88116609Y-34401660D01*
X88116609Y-33901660D01*
G37*
G36*
X88116609Y-34401660D02*
G01*
X88616609Y-34401660D01*
X88616609Y-34901660D01*
X88116609Y-34901660D01*
X88116609Y-34401660D01*
G37*
G36*
X88116609Y-35401660D02*
G01*
X88616609Y-35401660D01*
X88616609Y-35901660D01*
X88116609Y-35901660D01*
X88116609Y-35401660D01*
G37*
G36*
X88116609Y-36901660D02*
G01*
X88616609Y-36901660D01*
X88616609Y-37401660D01*
X88116609Y-37401660D01*
X88116609Y-36901660D01*
G37*
G36*
X88116609Y-37901660D02*
G01*
X88616609Y-37901660D01*
X88616609Y-38401660D01*
X88116609Y-38401660D01*
X88116609Y-37901660D01*
G37*
G36*
X88116609Y-38901660D02*
G01*
X88616609Y-38901660D01*
X88616609Y-39401660D01*
X88116609Y-39401660D01*
X88116609Y-38901660D01*
G37*
G36*
X88116609Y-39401660D02*
G01*
X88616609Y-39401660D01*
X88616609Y-39901660D01*
X88116609Y-39901660D01*
X88116609Y-39401660D01*
G37*
G36*
X88116609Y-40901660D02*
G01*
X88616609Y-40901660D01*
X88616609Y-41401660D01*
X88116609Y-41401660D01*
X88116609Y-40901660D01*
G37*
G36*
X88616609Y-26901660D02*
G01*
X89116609Y-26901660D01*
X89116609Y-27401660D01*
X88616609Y-27401660D01*
X88616609Y-26901660D01*
G37*
G36*
X88616609Y-29901660D02*
G01*
X89116609Y-29901660D01*
X89116609Y-30401660D01*
X88616609Y-30401660D01*
X88616609Y-29901660D01*
G37*
G36*
X88616609Y-30901660D02*
G01*
X89116609Y-30901660D01*
X89116609Y-31401660D01*
X88616609Y-31401660D01*
X88616609Y-30901660D01*
G37*
G36*
X88616609Y-33901660D02*
G01*
X89116609Y-33901660D01*
X89116609Y-34401660D01*
X88616609Y-34401660D01*
X88616609Y-33901660D01*
G37*
G36*
X88616609Y-34901660D02*
G01*
X89116609Y-34901660D01*
X89116609Y-35401660D01*
X88616609Y-35401660D01*
X88616609Y-34901660D01*
G37*
G36*
X88616609Y-35401660D02*
G01*
X89116609Y-35401660D01*
X89116609Y-35901660D01*
X88616609Y-35901660D01*
X88616609Y-35401660D01*
G37*
G36*
X88616609Y-35901660D02*
G01*
X89116609Y-35901660D01*
X89116609Y-36401660D01*
X88616609Y-36401660D01*
X88616609Y-35901660D01*
G37*
G36*
X88616609Y-36401660D02*
G01*
X89116609Y-36401660D01*
X89116609Y-36901660D01*
X88616609Y-36901660D01*
X88616609Y-36401660D01*
G37*
G36*
X88616609Y-36901660D02*
G01*
X89116609Y-36901660D01*
X89116609Y-37401660D01*
X88616609Y-37401660D01*
X88616609Y-36901660D01*
G37*
G36*
X88616609Y-38901660D02*
G01*
X89116609Y-38901660D01*
X89116609Y-39401660D01*
X88616609Y-39401660D01*
X88616609Y-38901660D01*
G37*
G36*
X88616609Y-39401660D02*
G01*
X89116609Y-39401660D01*
X89116609Y-39901660D01*
X88616609Y-39901660D01*
X88616609Y-39401660D01*
G37*
G36*
X88616609Y-40901660D02*
G01*
X89116609Y-40901660D01*
X89116609Y-41401660D01*
X88616609Y-41401660D01*
X88616609Y-40901660D01*
G37*
G36*
X89116609Y-26901660D02*
G01*
X89616609Y-26901660D01*
X89616609Y-27401660D01*
X89116609Y-27401660D01*
X89116609Y-26901660D01*
G37*
G36*
X89116609Y-27901660D02*
G01*
X89616609Y-27901660D01*
X89616609Y-28401660D01*
X89116609Y-28401660D01*
X89116609Y-27901660D01*
G37*
G36*
X89116609Y-28401660D02*
G01*
X89616609Y-28401660D01*
X89616609Y-28901660D01*
X89116609Y-28901660D01*
X89116609Y-28401660D01*
G37*
G36*
X89116609Y-28901660D02*
G01*
X89616609Y-28901660D01*
X89616609Y-29401660D01*
X89116609Y-29401660D01*
X89116609Y-28901660D01*
G37*
G36*
X89116609Y-29901660D02*
G01*
X89616609Y-29901660D01*
X89616609Y-30401660D01*
X89116609Y-30401660D01*
X89116609Y-29901660D01*
G37*
G36*
X89116609Y-31901660D02*
G01*
X89616609Y-31901660D01*
X89616609Y-32401660D01*
X89116609Y-32401660D01*
X89116609Y-31901660D01*
G37*
G36*
X89116609Y-32401660D02*
G01*
X89616609Y-32401660D01*
X89616609Y-32901660D01*
X89116609Y-32901660D01*
X89116609Y-32401660D01*
G37*
G36*
X89116609Y-33901660D02*
G01*
X89616609Y-33901660D01*
X89616609Y-34401660D01*
X89116609Y-34401660D01*
X89116609Y-33901660D01*
G37*
G36*
X89116609Y-35901660D02*
G01*
X89616609Y-35901660D01*
X89616609Y-36401660D01*
X89116609Y-36401660D01*
X89116609Y-35901660D01*
G37*
G36*
X89116609Y-36401660D02*
G01*
X89616609Y-36401660D01*
X89616609Y-36901660D01*
X89116609Y-36901660D01*
X89116609Y-36401660D01*
G37*
G36*
X89116609Y-36901660D02*
G01*
X89616609Y-36901660D01*
X89616609Y-37401660D01*
X89116609Y-37401660D01*
X89116609Y-36901660D01*
G37*
G36*
X89116609Y-37401660D02*
G01*
X89616609Y-37401660D01*
X89616609Y-37901660D01*
X89116609Y-37901660D01*
X89116609Y-37401660D01*
G37*
G36*
X89116609Y-37901660D02*
G01*
X89616609Y-37901660D01*
X89616609Y-38401660D01*
X89116609Y-38401660D01*
X89116609Y-37901660D01*
G37*
G36*
X89116609Y-38401660D02*
G01*
X89616609Y-38401660D01*
X89616609Y-38901660D01*
X89116609Y-38901660D01*
X89116609Y-38401660D01*
G37*
G36*
X89116609Y-38901660D02*
G01*
X89616609Y-38901660D01*
X89616609Y-39401660D01*
X89116609Y-39401660D01*
X89116609Y-38901660D01*
G37*
G36*
X89116609Y-39401660D02*
G01*
X89616609Y-39401660D01*
X89616609Y-39901660D01*
X89116609Y-39901660D01*
X89116609Y-39401660D01*
G37*
G36*
X89116609Y-39901660D02*
G01*
X89616609Y-39901660D01*
X89616609Y-40401660D01*
X89116609Y-40401660D01*
X89116609Y-39901660D01*
G37*
G36*
X89116609Y-40401660D02*
G01*
X89616609Y-40401660D01*
X89616609Y-40901660D01*
X89116609Y-40901660D01*
X89116609Y-40401660D01*
G37*
G36*
X89116609Y-40901660D02*
G01*
X89616609Y-40901660D01*
X89616609Y-41401660D01*
X89116609Y-41401660D01*
X89116609Y-40901660D01*
G37*
G36*
X89616609Y-26901660D02*
G01*
X90116609Y-26901660D01*
X90116609Y-27401660D01*
X89616609Y-27401660D01*
X89616609Y-26901660D01*
G37*
G36*
X89616609Y-27901660D02*
G01*
X90116609Y-27901660D01*
X90116609Y-28401660D01*
X89616609Y-28401660D01*
X89616609Y-27901660D01*
G37*
G36*
X89616609Y-28401660D02*
G01*
X90116609Y-28401660D01*
X90116609Y-28901660D01*
X89616609Y-28901660D01*
X89616609Y-28401660D01*
G37*
G36*
X89616609Y-28901660D02*
G01*
X90116609Y-28901660D01*
X90116609Y-29401660D01*
X89616609Y-29401660D01*
X89616609Y-28901660D01*
G37*
G36*
X89616609Y-29901660D02*
G01*
X90116609Y-29901660D01*
X90116609Y-30401660D01*
X89616609Y-30401660D01*
X89616609Y-29901660D01*
G37*
G36*
X89616609Y-31401660D02*
G01*
X90116609Y-31401660D01*
X90116609Y-31901660D01*
X89616609Y-31901660D01*
X89616609Y-31401660D01*
G37*
G36*
X89616609Y-31901660D02*
G01*
X90116609Y-31901660D01*
X90116609Y-32401660D01*
X89616609Y-32401660D01*
X89616609Y-31901660D01*
G37*
G36*
X89616609Y-32901660D02*
G01*
X90116609Y-32901660D01*
X90116609Y-33401660D01*
X89616609Y-33401660D01*
X89616609Y-32901660D01*
G37*
G36*
X89616609Y-33901660D02*
G01*
X90116609Y-33901660D01*
X90116609Y-34401660D01*
X89616609Y-34401660D01*
X89616609Y-33901660D01*
G37*
G36*
X89616609Y-34401660D02*
G01*
X90116609Y-34401660D01*
X90116609Y-34901660D01*
X89616609Y-34901660D01*
X89616609Y-34401660D01*
G37*
G36*
X89616609Y-35401660D02*
G01*
X90116609Y-35401660D01*
X90116609Y-35901660D01*
X89616609Y-35901660D01*
X89616609Y-35401660D01*
G37*
G36*
X89616609Y-38401660D02*
G01*
X90116609Y-38401660D01*
X90116609Y-38901660D01*
X89616609Y-38901660D01*
X89616609Y-38401660D01*
G37*
G36*
X89616609Y-39401660D02*
G01*
X90116609Y-39401660D01*
X90116609Y-39901660D01*
X89616609Y-39901660D01*
X89616609Y-39401660D01*
G37*
G36*
X89616609Y-39901660D02*
G01*
X90116609Y-39901660D01*
X90116609Y-40401660D01*
X89616609Y-40401660D01*
X89616609Y-39901660D01*
G37*
G36*
X89616609Y-40901660D02*
G01*
X90116609Y-40901660D01*
X90116609Y-41401660D01*
X89616609Y-41401660D01*
X89616609Y-40901660D01*
G37*
G36*
X90116609Y-26901660D02*
G01*
X90616609Y-26901660D01*
X90616609Y-27401660D01*
X90116609Y-27401660D01*
X90116609Y-26901660D01*
G37*
G36*
X90116609Y-27901660D02*
G01*
X90616609Y-27901660D01*
X90616609Y-28401660D01*
X90116609Y-28401660D01*
X90116609Y-27901660D01*
G37*
G36*
X90116609Y-28401660D02*
G01*
X90616609Y-28401660D01*
X90616609Y-28901660D01*
X90116609Y-28901660D01*
X90116609Y-28401660D01*
G37*
G36*
X90116609Y-28901660D02*
G01*
X90616609Y-28901660D01*
X90616609Y-29401660D01*
X90116609Y-29401660D01*
X90116609Y-28901660D01*
G37*
G36*
X90116609Y-29901660D02*
G01*
X90616609Y-29901660D01*
X90616609Y-30401660D01*
X90116609Y-30401660D01*
X90116609Y-29901660D01*
G37*
G36*
X90116609Y-31901660D02*
G01*
X90616609Y-31901660D01*
X90616609Y-32401660D01*
X90116609Y-32401660D01*
X90116609Y-31901660D01*
G37*
G36*
X90116609Y-32401660D02*
G01*
X90616609Y-32401660D01*
X90616609Y-32901660D01*
X90116609Y-32901660D01*
X90116609Y-32401660D01*
G37*
G36*
X90116609Y-33901660D02*
G01*
X90616609Y-33901660D01*
X90616609Y-34401660D01*
X90116609Y-34401660D01*
X90116609Y-33901660D01*
G37*
G36*
X90116609Y-36901660D02*
G01*
X90616609Y-36901660D01*
X90616609Y-37401660D01*
X90116609Y-37401660D01*
X90116609Y-36901660D01*
G37*
G36*
X90116609Y-37401660D02*
G01*
X90616609Y-37401660D01*
X90616609Y-37901660D01*
X90116609Y-37901660D01*
X90116609Y-37401660D01*
G37*
G36*
X90116609Y-38401660D02*
G01*
X90616609Y-38401660D01*
X90616609Y-38901660D01*
X90116609Y-38901660D01*
X90116609Y-38401660D01*
G37*
G36*
X90116609Y-39401660D02*
G01*
X90616609Y-39401660D01*
X90616609Y-39901660D01*
X90116609Y-39901660D01*
X90116609Y-39401660D01*
G37*
G36*
X90116609Y-39901660D02*
G01*
X90616609Y-39901660D01*
X90616609Y-40401660D01*
X90116609Y-40401660D01*
X90116609Y-39901660D01*
G37*
G36*
X90616609Y-26901660D02*
G01*
X91116609Y-26901660D01*
X91116609Y-27401660D01*
X90616609Y-27401660D01*
X90616609Y-26901660D01*
G37*
G36*
X90616609Y-29901660D02*
G01*
X91116609Y-29901660D01*
X91116609Y-30401660D01*
X90616609Y-30401660D01*
X90616609Y-29901660D01*
G37*
G36*
X90616609Y-31901660D02*
G01*
X91116609Y-31901660D01*
X91116609Y-32401660D01*
X90616609Y-32401660D01*
X90616609Y-31901660D01*
G37*
G36*
X90616609Y-32401660D02*
G01*
X91116609Y-32401660D01*
X91116609Y-32901660D01*
X90616609Y-32901660D01*
X90616609Y-32401660D01*
G37*
G36*
X90616609Y-32901660D02*
G01*
X91116609Y-32901660D01*
X91116609Y-33401660D01*
X90616609Y-33401660D01*
X90616609Y-32901660D01*
G37*
G36*
X90616609Y-33901660D02*
G01*
X91116609Y-33901660D01*
X91116609Y-34401660D01*
X90616609Y-34401660D01*
X90616609Y-33901660D01*
G37*
G36*
X90616609Y-34401660D02*
G01*
X91116609Y-34401660D01*
X91116609Y-34901660D01*
X90616609Y-34901660D01*
X90616609Y-34401660D01*
G37*
G36*
X90616609Y-34901660D02*
G01*
X91116609Y-34901660D01*
X91116609Y-35401660D01*
X90616609Y-35401660D01*
X90616609Y-34901660D01*
G37*
G36*
X90616609Y-35901660D02*
G01*
X91116609Y-35901660D01*
X91116609Y-36401660D01*
X90616609Y-36401660D01*
X90616609Y-35901660D01*
G37*
G36*
X90616609Y-36401660D02*
G01*
X91116609Y-36401660D01*
X91116609Y-36901660D01*
X90616609Y-36901660D01*
X90616609Y-36401660D01*
G37*
G36*
X90616609Y-37401660D02*
G01*
X91116609Y-37401660D01*
X91116609Y-37901660D01*
X90616609Y-37901660D01*
X90616609Y-37401660D01*
G37*
G36*
X90616609Y-37901660D02*
G01*
X91116609Y-37901660D01*
X91116609Y-38401660D01*
X90616609Y-38401660D01*
X90616609Y-37901660D01*
G37*
G36*
X90616609Y-38401660D02*
G01*
X91116609Y-38401660D01*
X91116609Y-38901660D01*
X90616609Y-38901660D01*
X90616609Y-38401660D01*
G37*
G36*
X90616609Y-39401660D02*
G01*
X91116609Y-39401660D01*
X91116609Y-39901660D01*
X90616609Y-39901660D01*
X90616609Y-39401660D01*
G37*
G36*
X90616609Y-40401660D02*
G01*
X91116609Y-40401660D01*
X91116609Y-40901660D01*
X90616609Y-40901660D01*
X90616609Y-40401660D01*
G37*
G36*
X90616609Y-40901660D02*
G01*
X91116609Y-40901660D01*
X91116609Y-41401660D01*
X90616609Y-41401660D01*
X90616609Y-40901660D01*
G37*
G36*
X91116609Y-26901660D02*
G01*
X91616609Y-26901660D01*
X91616609Y-27401660D01*
X91116609Y-27401660D01*
X91116609Y-26901660D01*
G37*
G36*
X91116609Y-27401660D02*
G01*
X91616609Y-27401660D01*
X91616609Y-27901660D01*
X91116609Y-27901660D01*
X91116609Y-27401660D01*
G37*
G36*
X91116609Y-27901660D02*
G01*
X91616609Y-27901660D01*
X91616609Y-28401660D01*
X91116609Y-28401660D01*
X91116609Y-27901660D01*
G37*
G36*
X91116609Y-28401660D02*
G01*
X91616609Y-28401660D01*
X91616609Y-28901660D01*
X91116609Y-28901660D01*
X91116609Y-28401660D01*
G37*
G36*
X91116609Y-28901660D02*
G01*
X91616609Y-28901660D01*
X91616609Y-29401660D01*
X91116609Y-29401660D01*
X91116609Y-28901660D01*
G37*
G36*
X91116609Y-29401660D02*
G01*
X91616609Y-29401660D01*
X91616609Y-29901660D01*
X91116609Y-29901660D01*
X91116609Y-29401660D01*
G37*
G36*
X91116609Y-29901660D02*
G01*
X91616609Y-29901660D01*
X91616609Y-30401660D01*
X91116609Y-30401660D01*
X91116609Y-29901660D01*
G37*
G36*
X91116609Y-31401660D02*
G01*
X91616609Y-31401660D01*
X91616609Y-31901660D01*
X91116609Y-31901660D01*
X91116609Y-31401660D01*
G37*
G36*
X91116609Y-32901660D02*
G01*
X91616609Y-32901660D01*
X91616609Y-33401660D01*
X91116609Y-33401660D01*
X91116609Y-32901660D01*
G37*
G36*
X91116609Y-33901660D02*
G01*
X91616609Y-33901660D01*
X91616609Y-34401660D01*
X91116609Y-34401660D01*
X91116609Y-33901660D01*
G37*
G36*
X91116609Y-35401660D02*
G01*
X91616609Y-35401660D01*
X91616609Y-35901660D01*
X91116609Y-35901660D01*
X91116609Y-35401660D01*
G37*
G36*
X91116609Y-35901660D02*
G01*
X91616609Y-35901660D01*
X91616609Y-36401660D01*
X91116609Y-36401660D01*
X91116609Y-35901660D01*
G37*
G36*
X91116609Y-36401660D02*
G01*
X91616609Y-36401660D01*
X91616609Y-36901660D01*
X91116609Y-36901660D01*
X91116609Y-36401660D01*
G37*
G36*
X91116609Y-37401660D02*
G01*
X91616609Y-37401660D01*
X91616609Y-37901660D01*
X91116609Y-37901660D01*
X91116609Y-37401660D01*
G37*
G36*
X91116609Y-38401660D02*
G01*
X91616609Y-38401660D01*
X91616609Y-38901660D01*
X91116609Y-38901660D01*
X91116609Y-38401660D01*
G37*
G36*
X91116609Y-39901660D02*
G01*
X91616609Y-39901660D01*
X91616609Y-40401660D01*
X91116609Y-40401660D01*
X91116609Y-39901660D01*
G37*
%TO.C,R4*%
X37290000Y29472936D02*
X37290000Y30927064D01*
X39110000Y29472936D02*
X39110000Y30927064D01*
%TO.C,C2*%
X40511252Y-19690000D02*
X39088748Y-19690000D01*
X40511252Y-21510000D02*
X39088748Y-21510000D01*
%TO.C,U7*%
X63030000Y-49520000D02*
X63030000Y-62440000D01*
X63030000Y-62440000D02*
X113950000Y-62440000D01*
X113950000Y-49520000D02*
X63030000Y-49520000D01*
X113950000Y-54980000D02*
X113950000Y-49520000D01*
X113950000Y-62440000D02*
X113950000Y-56980000D01*
X113950000Y-56980000D02*
G75*
G02*
X113950000Y-54980000I0J1000000D01*
G01*
%TO.C,U4*%
X37800000Y7060000D02*
X37800000Y1600000D01*
X37800000Y-400000D02*
X37800000Y-5860000D01*
X37800000Y-5860000D02*
X68400000Y-5860000D01*
X68400000Y7060000D02*
X37800000Y7060000D01*
X68400000Y-5860000D02*
X68400000Y7060000D01*
X37800000Y1600000D02*
G75*
G02*
X37800000Y-400000I0J-1000000D01*
G01*
%TO.C,U1*%
X47340000Y-8400000D02*
X47340000Y-59320000D01*
X47340000Y-59320000D02*
X60260000Y-59320000D01*
X52800000Y-8400000D02*
X47340000Y-8400000D01*
X60260000Y-8400000D02*
X54800000Y-8400000D01*
X60260000Y-59320000D02*
X60260000Y-8400000D01*
X54800000Y-8400000D02*
G75*
G02*
X52800000Y-8400000I-1000000J0D01*
G01*
%TO.C,C3*%
X69290000Y6311252D02*
X69290000Y4888748D01*
X71110000Y6311252D02*
X71110000Y4888748D01*
%TO.C,U10*%
X84700000Y8670000D02*
X84700000Y2670000D01*
X84700000Y2670000D02*
X88500000Y2670000D01*
X87900000Y8670000D02*
X84700000Y8670000D01*
X88500000Y2670000D02*
X88500000Y8070000D01*
D16*
X88363500Y8470000D02*
G75*
G02*
X88236500Y8470000I-63500J0D01*
G01*
X88236500Y8470000D02*
G75*
G02*
X88363500Y8470000I63500J0D01*
G01*
%TO.C,SW3*%
D13*
X77125000Y-68600000D02*
X77125000Y-70100000D01*
X78375000Y-72600000D02*
X82875000Y-72600000D01*
X82875000Y-66100000D02*
X78375000Y-66100000D01*
X84125000Y-70100000D02*
X84125000Y-68600000D01*
%TO.C,U6*%
X34410000Y25280000D02*
X34410000Y12360000D01*
X34410000Y12360000D02*
X85330000Y12360000D01*
X85330000Y25280000D02*
X34410000Y25280000D01*
X85330000Y19820000D02*
X85330000Y25280000D01*
X85330000Y12360000D02*
X85330000Y17820000D01*
X85330000Y17820000D02*
G75*
G02*
X85330000Y19820000I0J1000000D01*
G01*
%TD*%
M02*
