%TF.GenerationSoftware,KiCad,Pcbnew,10.0.1*%
%TF.CreationDate,2026-07-02T23:40:43+08:00*%
%TF.ProjectId,Z80Badge,5a383042-6164-4676-952e-6b696361645f,rev?*%
%TF.SameCoordinates,Original*%
%TF.FileFunction,Paste,Top*%
%TF.FilePolarity,Positive*%
%FSLAX46Y46*%
G04 Gerber Fmt 4.6, Leading zero omitted, Abs format (unit mm)*
G04 Created by KiCad (PCBNEW 10.0.1) date 2026-07-02 23:40:43*
%MOMM*%
%LPD*%
G01*
G04 APERTURE LIST*
G04 Aperture macros list*
%AMRoundRect*
0 Rectangle with rounded corners*
0 $1 Rounding radius*
0 $2 $3 $4 $5 $6 $7 $8 $9 X,Y pos of 4 corners*
0 Add a 4 corners polygon primitive as box body*
4,1,4,$2,$3,$4,$5,$6,$7,$8,$9,$2,$3,0*
0 Add four circle primitives for the rounded corners*
1,1,$1+$1,$2,$3*
1,1,$1+$1,$4,$5*
1,1,$1+$1,$6,$7*
1,1,$1+$1,$8,$9*
0 Add four rect primitives between the rounded corners*
20,1,$1+$1,$2,$3,$4,$5,0*
20,1,$1+$1,$4,$5,$6,$7,0*
20,1,$1+$1,$6,$7,$8,$9,0*
20,1,$1+$1,$8,$9,$2,$3,0*%
G04 Aperture macros list end*
%ADD10RoundRect,0.250000X-0.625000X0.400000X-0.625000X-0.400000X0.625000X-0.400000X0.625000X0.400000X0*%
%ADD11RoundRect,0.250000X0.625000X-0.400000X0.625000X0.400000X-0.625000X0.400000X-0.625000X-0.400000X0*%
%ADD12RoundRect,0.250000X0.650000X-0.412500X0.650000X0.412500X-0.650000X0.412500X-0.650000X-0.412500X0*%
%ADD13RoundRect,0.250000X0.412500X0.650000X-0.412500X0.650000X-0.412500X-0.650000X0.412500X-0.650000X0*%
%ADD14RoundRect,0.250000X-0.400000X-0.625000X0.400000X-0.625000X0.400000X0.625000X-0.400000X0.625000X0*%
%ADD15R,2.000000X1.900000*%
%ADD16R,0.400000X1.500000*%
%ADD17RoundRect,0.150000X-0.425000X0.150000X-0.425000X-0.150000X0.425000X-0.150000X0.425000X0.150000X0*%
%ADD18RoundRect,0.075000X-0.500000X0.075000X-0.500000X-0.075000X0.500000X-0.075000X0.500000X0.075000X0*%
%ADD19O,2.100000X1.000000*%
%ADD20O,1.800000X1.000000*%
%ADD21RoundRect,0.150000X0.825000X0.150000X-0.825000X0.150000X-0.825000X-0.150000X0.825000X-0.150000X0*%
%ADD22RoundRect,0.250000X-0.650000X0.412500X-0.650000X-0.412500X0.650000X-0.412500X0.650000X0.412500X0*%
%ADD23RoundRect,0.100000X-0.100000X0.450000X-0.100000X-0.450000X0.100000X-0.450000X0.100000X0.450000X0*%
G04 APERTURE END LIST*
D10*
%TO.C,R9*%
X38400000Y-35050000D03*
X38400000Y-38150000D03*
%TD*%
D11*
%TO.C,R3*%
X40800000Y28650000D03*
X40800000Y31750000D03*
%TD*%
D12*
%TO.C,C1*%
X43800000Y-24162500D03*
X43800000Y-21037500D03*
%TD*%
D13*
%TO.C,C4*%
X55800000Y-60800000D03*
X52675000Y-60800000D03*
%TD*%
D10*
%TO.C,R6*%
X59000000Y-60890000D03*
X59000000Y-63990000D03*
%TD*%
%TO.C,R2*%
X43200000Y-53850000D03*
X43200000Y-56950000D03*
%TD*%
%TO.C,R8*%
X40800000Y-35050000D03*
X40800000Y-38150000D03*
%TD*%
D14*
%TO.C,R1*%
X40400000Y-40600000D03*
X43500000Y-40600000D03*
%TD*%
D15*
%TO.C,S1*%
X39600000Y-65200000D03*
X39600000Y-69200000D03*
X39600000Y-73200000D03*
X54600000Y-65200000D03*
X54600000Y-69200000D03*
X54600000Y-73200000D03*
%TD*%
D10*
%TO.C,R5*%
X61400000Y-60890000D03*
X61400000Y-63990000D03*
%TD*%
D16*
%TO.C,U8*%
X80100000Y6930000D03*
X79450000Y6930000D03*
X78800000Y6930000D03*
X78800000Y4270000D03*
X80100000Y4270000D03*
%TD*%
D17*
%TO.C,J2*%
X41080000Y-24200000D03*
X41080000Y-25000000D03*
D18*
X41080000Y-26150000D03*
X41080000Y-27150000D03*
X41080000Y-27650000D03*
X41080000Y-28650000D03*
D17*
X41080000Y-29800000D03*
X41080000Y-30600000D03*
X41080000Y-30600000D03*
X41080000Y-29800000D03*
D18*
X41080000Y-29150000D03*
X41080000Y-28150000D03*
X41080000Y-26650000D03*
X41080000Y-25650000D03*
D17*
X41080000Y-25000000D03*
X41080000Y-24200000D03*
D19*
X40505000Y-23080000D03*
D20*
X36325000Y-23080000D03*
D19*
X40505000Y-31720000D03*
D20*
X36325000Y-31720000D03*
%TD*%
D21*
%TO.C,U5*%
X43550000Y-18670000D03*
X43550000Y-17400000D03*
X43550000Y-16130000D03*
X43550000Y-14860000D03*
X43550000Y-13590000D03*
X43550000Y-12320000D03*
X43550000Y-11050000D03*
X43550000Y-9780000D03*
X38600000Y-9780000D03*
X38600000Y-11050000D03*
X38600000Y-12320000D03*
X38600000Y-13590000D03*
X38600000Y-14860000D03*
X38600000Y-16130000D03*
X38600000Y-17400000D03*
X38600000Y-18670000D03*
%TD*%
D14*
%TO.C,R7*%
X77650000Y31400000D03*
X80750000Y31400000D03*
%TD*%
D11*
%TO.C,R4*%
X38200000Y28650000D03*
X38200000Y31750000D03*
%TD*%
D13*
%TO.C,C2*%
X41362500Y-20600000D03*
X38237500Y-20600000D03*
%TD*%
D22*
%TO.C,C3*%
X70200000Y7162500D03*
X70200000Y4037500D03*
%TD*%
D23*
%TO.C,U10*%
X87575000Y7820000D03*
X86925000Y7820000D03*
X86275000Y7820000D03*
X85625000Y7820000D03*
X85625000Y3520000D03*
X86275000Y3520000D03*
X86925000Y3520000D03*
X87575000Y3520000D03*
%TD*%
M02*
