%TF.GenerationSoftware,KiCad,Pcbnew,10.0.1*%
%TF.CreationDate,2026-07-02T23:40:42+08:00*%
%TF.ProjectId,Z80Badge,5a383042-6164-4676-952e-6b696361645f,rev?*%
%TF.SameCoordinates,Original*%
%TF.FileFunction,Copper,L2,Bot*%
%TF.FilePolarity,Positive*%
%FSLAX46Y46*%
G04 Gerber Fmt 4.6, Leading zero omitted, Abs format (unit mm)*
G04 Created by KiCad (PCBNEW 10.0.1) date 2026-07-02 23:40:42*
%MOMM*%
%LPD*%
G01*
G04 APERTURE LIST*
G04 Aperture macros list*
%AMRoundRect*
0 Rectangle with rounded corners*
0 $1 Rounding radius*
0 $2 $3 $4 $5 $6 $7 $8 $9 X,Y pos of 4 corners*
0 Add a 4 corners polygon primitive as box body*
4,1,4,$2,$3,$4,$5,$6,$7,$8,$9,$2,$3,0*
0 Add four circle primitives for the rounded corners*
1,1,$1+$1,$2,$3*
1,1,$1+$1,$4,$5*
1,1,$1+$1,$6,$7*
1,1,$1+$1,$8,$9*
0 Add four rect primitives between the rounded corners*
20,1,$1+$1,$2,$3,$4,$5,0*
20,1,$1+$1,$4,$5,$6,$7,0*
20,1,$1+$1,$6,$7,$8,$9,0*
20,1,$1+$1,$8,$9,$2,$3,0*%
G04 Aperture macros list end*
%TA.AperFunction,ComponentPad*%
%ADD10C,3.000000*%
%TD*%
%TA.AperFunction,ComponentPad*%
%ADD11R,1.800000X2.600000*%
%TD*%
%TA.AperFunction,ComponentPad*%
%ADD12O,1.800000X2.600000*%
%TD*%
%TA.AperFunction,ComponentPad*%
%ADD13R,1.560000X1.560000*%
%TD*%
%TA.AperFunction,ComponentPad*%
%ADD14C,1.560000*%
%TD*%
%TA.AperFunction,ComponentPad*%
%ADD15C,2.000000*%
%TD*%
%TA.AperFunction,ComponentPad*%
%ADD16R,1.600000X1.600000*%
%TD*%
%TA.AperFunction,ComponentPad*%
%ADD17C,1.600000*%
%TD*%
%TA.AperFunction,ComponentPad*%
%ADD18O,2.100000X1.000000*%
%TD*%
%TA.AperFunction,ComponentPad*%
%ADD19O,1.800000X1.000000*%
%TD*%
%TA.AperFunction,ComponentPad*%
%ADD20RoundRect,0.250000X-0.550000X0.550000X-0.550000X-0.550000X0.550000X-0.550000X0.550000X0.550000X0*%
%TD*%
%TA.AperFunction,ComponentPad*%
%ADD21RoundRect,0.250000X0.550000X-0.550000X0.550000X0.550000X-0.550000X0.550000X-0.550000X-0.550000X0*%
%TD*%
%TA.AperFunction,ComponentPad*%
%ADD22RoundRect,0.250000X-0.550000X-0.550000X0.550000X-0.550000X0.550000X0.550000X-0.550000X0.550000X0*%
%TD*%
%TA.AperFunction,ComponentPad*%
%ADD23R,1.440000X2.000000*%
%TD*%
%TA.AperFunction,ComponentPad*%
%ADD24O,1.440000X2.000000*%
%TD*%
%TA.AperFunction,ViaPad*%
%ADD25C,0.600000*%
%TD*%
%TA.AperFunction,Conductor*%
%ADD26C,0.200000*%
%TD*%
G04 APERTURE END LIST*
D10*
%TO.P,DS1,*%
%TO.N,*%
X36500900Y34600000D03*
X36500900Y3599300D03*
X111499480Y3599300D03*
X111500000Y34600000D03*
D11*
%TO.P,DS1,1,VSS_1*%
%TO.N,/GND*%
X42000000Y34600000D03*
D12*
%TO.P,DS1,2,VDD_2*%
%TO.N,/VCC*%
X44540000Y34600000D03*
%TO.P,DS1,3,VO_3*%
%TO.N,Net-(DS1-VO)*%
X47080000Y34600000D03*
%TO.P,DS1,4,RS_4*%
%TO.N,/1602_RS*%
X49620000Y34600000D03*
%TO.P,DS1,5,R/W_5*%
%TO.N,/GND*%
X52160000Y34600000D03*
%TO.P,DS1,6,E_6*%
%TO.N,/1602_E*%
X54700000Y34600000D03*
%TO.P,DS1,7,D0_7*%
%TO.N,/1602_D0*%
X57240000Y34600000D03*
%TO.P,DS1,8,D1_8*%
%TO.N,/1602_D1*%
X59780000Y34600000D03*
%TO.P,DS1,9,D2_9*%
%TO.N,/1602_D2*%
X62320000Y34600000D03*
%TO.P,DS1,10,D3_10*%
%TO.N,/1602_D3*%
X64860000Y34600000D03*
%TO.P,DS1,11,D4_11*%
%TO.N,/1602_D4*%
X67400000Y34600000D03*
%TO.P,DS1,12,D5_12*%
%TO.N,/1602_D5*%
X69940000Y34600000D03*
%TO.P,DS1,13,D6_13*%
%TO.N,/1602_D6*%
X72480000Y34600000D03*
%TO.P,DS1,14,D7_14*%
%TO.N,/1602_D7*%
X75020000Y34600000D03*
%TO.P,DS1,15,LED(+)_15*%
%TO.N,Net-(DS1-LED(+))*%
X77560000Y34600000D03*
%TO.P,DS1,16,LED(-)_16*%
%TO.N,/GND*%
X80100000Y34600000D03*
%TD*%
D13*
%TO.P,RV1,1,1_1*%
%TO.N,/VCC*%
X88030000Y30000000D03*
D14*
%TO.P,RV1,2,2_2*%
%TO.N,Net-(DS1-VO)*%
X85530000Y35000000D03*
%TO.P,RV1,3,3_3*%
%TO.N,/GND*%
X83030000Y30000000D03*
%TD*%
D15*
%TO.P,SW1,1,1_1*%
%TO.N,/VCC*%
X57710000Y-67100000D03*
X64210000Y-67100000D03*
%TO.P,SW1,2,2_2*%
%TO.N,/SW1*%
X57710000Y-71600000D03*
X64210000Y-71600000D03*
%TD*%
%TO.P,SW4,1,1_1*%
%TO.N,/VCC*%
X87150000Y-67100000D03*
X93650000Y-67100000D03*
%TO.P,SW4,2,2_2*%
%TO.N,/SW3*%
X87150000Y-71600000D03*
X93650000Y-71600000D03*
%TD*%
D16*
%TO.P,Y1,1,EN_1*%
%TO.N,/VCC*%
X107820000Y25710000D03*
D17*
%TO.P,Y1,7,GND_7*%
%TO.N,/GND*%
X92580000Y25710000D03*
%TO.P,Y1,8,OUT_8*%
%TO.N,/~{CLK}*%
X92580000Y18090000D03*
%TO.P,Y1,14,Vcc_14*%
%TO.N,/VCC*%
X107820000Y18090000D03*
%TD*%
D15*
%TO.P,SW5,1,1_1*%
%TO.N,/VCC*%
X96975000Y-67100000D03*
X103475000Y-67100000D03*
%TO.P,SW5,2,2_2*%
%TO.N,/SW5*%
X96975000Y-71600000D03*
X103475000Y-71600000D03*
%TD*%
%TO.P,SW7,1,1_1*%
%TO.N,/~{RESET}*%
X43250000Y-44150000D03*
X43250000Y-50650000D03*
%TO.P,SW7,2,2_2*%
%TO.N,/GND*%
X38750000Y-44150000D03*
X38750000Y-50650000D03*
%TD*%
D16*
%TO.P,Y2,1,EN_1*%
%TO.N,/VCC*%
X92580000Y4380000D03*
D17*
%TO.P,Y2,7,GND_7*%
%TO.N,/GND*%
X107820000Y4380000D03*
%TO.P,Y2,8,OUT_8*%
%TO.N,Net-(U4-Rx_CLK)*%
X107820000Y12000000D03*
%TO.P,Y2,14,Vcc_14*%
%TO.N,/VCC*%
X92580000Y12000000D03*
%TD*%
D15*
%TO.P,SW6,1,1_1*%
%TO.N,/VCC*%
X106800000Y-67100000D03*
X113300000Y-67100000D03*
%TO.P,SW6,2,2_2*%
%TO.N,/SW6*%
X106800000Y-71600000D03*
X113300000Y-71600000D03*
%TD*%
D18*
%TO.P,J2,SH,SHIELD_SH*%
%TO.N,/GND*%
X40505000Y-23080000D03*
D19*
X36325000Y-23080000D03*
D18*
X40505000Y-31720000D03*
D19*
X36325000Y-31720000D03*
%TD*%
D15*
%TO.P,SW2,1,1_1*%
%TO.N,/VCC*%
X67550000Y-67100000D03*
X74050000Y-67100000D03*
%TO.P,SW2,2,2_2*%
%TO.N,/SW2*%
X67550000Y-71600000D03*
X74050000Y-71600000D03*
%TD*%
D20*
%TO.P,U7,1,D_{2}_1*%
%TO.N,/D2*%
X112620000Y-48360000D03*
D17*
%TO.P,U7,2,D_{7}_2*%
%TO.N,/D7*%
X110080000Y-48360000D03*
%TO.P,U7,3,D_{6}_3*%
%TO.N,/D6*%
X107540000Y-48360000D03*
%TO.P,U7,4,~{CE}_4*%
%TO.N,/A3*%
X105000000Y-48360000D03*
%TO.P,U7,5,C/~{D}_5*%
%TO.N,/A1*%
X102460000Y-48360000D03*
%TO.P,U7,6,NC_6*%
%TO.N,unconnected-(U7-NC-Pad6)*%
X99920000Y-48360000D03*
%TO.P,U7,7,B/~{A}_7*%
%TO.N,/A0*%
X97380000Y-48360000D03*
%TO.P,U7,8,PA_{7}_8*%
%TO.N,/6850_E*%
X94840000Y-48360000D03*
%TO.P,U7,9,PA_{6}_9*%
%TO.N,/6850_RW*%
X92300000Y-48360000D03*
%TO.P,U7,10,PA_{5}_10*%
%TO.N,/6850_RS*%
X89760000Y-48360000D03*
%TO.P,U7,11,PA_{4}_11*%
%TO.N,/J5*%
X87220000Y-48360000D03*
%TO.P,U7,12,NC_12*%
%TO.N,unconnected-(U7-NC-Pad12)*%
X84680000Y-48360000D03*
%TO.P,U7,13,GND_13*%
%TO.N,/GND*%
X82140000Y-48360000D03*
%TO.P,U7,14,PA_{3}_14*%
%TO.N,/J4*%
X79600000Y-48360000D03*
%TO.P,U7,15,PA_{2}_15*%
%TO.N,/J3*%
X77060000Y-48360000D03*
%TO.P,U7,16,PA_{1}_16*%
%TO.N,/J2*%
X74520000Y-48360000D03*
%TO.P,U7,17,PA_{0}_17*%
%TO.N,/J1*%
X71980000Y-48360000D03*
%TO.P,U7,18,~{ASTB}_18*%
%TO.N,Net-(U7-~{ASTB})*%
X69440000Y-48360000D03*
%TO.P,U7,19,~{BSTB}_19*%
%TO.N,Net-(U7-~{BSTB})*%
X66900000Y-48360000D03*
%TO.P,U7,20,ARDY_20*%
%TO.N,unconnected-(U7-ARDY-Pad20)*%
X64360000Y-48360000D03*
%TO.P,U7,21,D_{0}_21*%
%TO.N,/D0*%
X64360000Y-63600000D03*
%TO.P,U7,22,D_{1}_22*%
%TO.N,/D1*%
X66900000Y-63600000D03*
%TO.P,U7,23,BRDY_23*%
%TO.N,unconnected-(U7-BRDY-Pad23)*%
X69440000Y-63600000D03*
%TO.P,U7,24,NC_24*%
%TO.N,unconnected-(U7-NC-Pad24)*%
X71980000Y-63600000D03*
%TO.P,U7,25,NC_25*%
%TO.N,unconnected-(U7-NC-Pad25)*%
X74520000Y-63600000D03*
%TO.P,U7,26,IEO_26*%
%TO.N,unconnected-(U7-IEO-Pad26)*%
X77060000Y-63600000D03*
%TO.P,U7,27,~{INT}_27*%
%TO.N,/~{INT}*%
X79600000Y-63600000D03*
%TO.P,U7,28,IEI_28*%
%TO.N,/PIO1IE0*%
X82140000Y-63600000D03*
%TO.P,U7,29,CLK_29*%
%TO.N,/~{CLK}*%
X84680000Y-63600000D03*
%TO.P,U7,30,V_{CC}_30*%
%TO.N,/VCC*%
X87220000Y-63600000D03*
%TO.P,U7,31,PB_{0}_31*%
%TO.N,/SW1*%
X89760000Y-63600000D03*
%TO.P,U7,32,PB_{1}_32*%
%TO.N,/SW2*%
X92300000Y-63600000D03*
%TO.P,U7,33,PB_{2}_33*%
%TO.N,/SW3*%
X94840000Y-63600000D03*
%TO.P,U7,34,PB_{3}_34*%
%TO.N,/SW4*%
X97380000Y-63600000D03*
%TO.P,U7,35,PB_{4}_35*%
%TO.N,/SW5*%
X99920000Y-63600000D03*
%TO.P,U7,36,PB_{5}_36*%
%TO.N,/SW6*%
X102460000Y-63600000D03*
%TO.P,U7,37,PB_{6}_37*%
%TO.N,unconnected-(U7-PB_{6}-Pad37)*%
X105000000Y-63600000D03*
%TO.P,U7,38,PB_{7}_38*%
%TO.N,unconnected-(U7-PB_{7}-Pad38)*%
X107540000Y-63600000D03*
%TO.P,U7,39,~{RD}_39*%
%TO.N,/~{RD}*%
X110080000Y-63600000D03*
%TO.P,U7,40,~{IORQ}_40*%
%TO.N,/~{IORQ}*%
X112620000Y-63600000D03*
%TD*%
D21*
%TO.P,U4,1,VSS_1*%
%TO.N,/GND*%
X39130000Y-7020000D03*
D17*
%TO.P,U4,2,Rx_Data_2*%
%TO.N,/CH340C_Tx*%
X41670000Y-7020000D03*
%TO.P,U4,3,Rx_CLK_3*%
%TO.N,Net-(U4-Rx_CLK)*%
X44210000Y-7020000D03*
%TO.P,U4,4,Tx_CLK_4*%
X46750000Y-7020000D03*
%TO.P,U4,5,~{RTS}_5*%
%TO.N,unconnected-(U4-~{RTS}-Pad5)*%
X49290000Y-7020000D03*
%TO.P,U4,6,Tx_Data_6*%
%TO.N,/CH340C_Rx*%
X51830000Y-7020000D03*
%TO.P,U4,7,~{IRQ}_7*%
%TO.N,unconnected-(U4-~{IRQ}-Pad7)*%
X54370000Y-7020000D03*
%TO.P,U4,8,CS0_8*%
%TO.N,/VCC*%
X56910000Y-7020000D03*
%TO.P,U4,9,CS2_9*%
%TO.N,/GND*%
X59450000Y-7020000D03*
%TO.P,U4,10,CS1_10*%
%TO.N,/VCC*%
X61990000Y-7020000D03*
%TO.P,U4,11,RS_11*%
%TO.N,/6850_RS*%
X64530000Y-7020000D03*
%TO.P,U4,12,VCC_12*%
%TO.N,/VCC*%
X67070000Y-7020000D03*
%TO.P,U4,13,R/~{W}_13*%
%TO.N,/6850_RW*%
X67070000Y8220000D03*
%TO.P,U4,14,E_14*%
%TO.N,/6850_E*%
X64530000Y8220000D03*
%TO.P,U4,15,D7_15*%
%TO.N,/6850_D7*%
X61990000Y8220000D03*
%TO.P,U4,16,D6_16*%
%TO.N,/6850_D6*%
X59450000Y8220000D03*
%TO.P,U4,17,D5_17*%
%TO.N,/6850_D5*%
X56910000Y8220000D03*
%TO.P,U4,18,D4_18*%
%TO.N,/6850_D4*%
X54370000Y8220000D03*
%TO.P,U4,19,D3_19*%
%TO.N,/6850_D3*%
X51830000Y8220000D03*
%TO.P,U4,20,D2_20*%
%TO.N,/6850_D2*%
X49290000Y8220000D03*
%TO.P,U4,21,D1_21*%
%TO.N,/6850_D1*%
X46750000Y8220000D03*
%TO.P,U4,22,D0_22*%
%TO.N,/6850_D0*%
X44210000Y8220000D03*
%TO.P,U4,23,~{DCD}_23*%
%TO.N,/GND*%
X41670000Y8220000D03*
%TO.P,U4,24,~{CTS}_24*%
X39130000Y8220000D03*
%TD*%
D22*
%TO.P,U1,1,A_{11}_1*%
%TO.N,/A11*%
X46180000Y-9730000D03*
D17*
%TO.P,U1,2,A_{12}_2*%
%TO.N,/A12*%
X46180000Y-12270000D03*
%TO.P,U1,3,A_{13}_3*%
%TO.N,/A13*%
X46180000Y-14810000D03*
%TO.P,U1,4,A_{14}_4*%
%TO.N,/A14*%
X46180000Y-17350000D03*
%TO.P,U1,5,A_{15}_5*%
%TO.N,/A15*%
X46180000Y-19890000D03*
%TO.P,U1,6,NC_6*%
%TO.N,unconnected-(U1-NC-Pad6)*%
X46180000Y-22430000D03*
%TO.P,U1,7,~{CLK}_7*%
%TO.N,/~{CLK}*%
X46180000Y-24970000D03*
%TO.P,U1,8,D_{4}_8*%
%TO.N,/D4*%
X46180000Y-27510000D03*
%TO.P,U1,9,D_{3}_9*%
%TO.N,/D3*%
X46180000Y-30050000D03*
%TO.P,U1,10,D_{5}_10*%
%TO.N,/D5*%
X46180000Y-32590000D03*
%TO.P,U1,11,D_{6}_11*%
%TO.N,/D6*%
X46180000Y-35130000D03*
%TO.P,U1,12,NC_12*%
%TO.N,unconnected-(U1-NC-Pad12)*%
X46180000Y-37670000D03*
%TO.P,U1,13,V_{CC}_13*%
%TO.N,/VCC*%
X46180000Y-40210000D03*
%TO.P,U1,14,D_{2}_14*%
%TO.N,/D2*%
X46180000Y-42750000D03*
%TO.P,U1,15,D_{7}_15*%
%TO.N,/D7*%
X46180000Y-45290000D03*
%TO.P,U1,16,D_{0}_16*%
%TO.N,/D0*%
X46180000Y-47830000D03*
%TO.P,U1,17,D_{1}_17*%
%TO.N,/D1*%
X46180000Y-50370000D03*
%TO.P,U1,18,~{INT}_18*%
%TO.N,/~{INT}*%
X46180000Y-52910000D03*
%TO.P,U1,19,~{NMI}_19*%
%TO.N,/~{NMI}*%
X46180000Y-55450000D03*
%TO.P,U1,20,~{HALT}_20*%
%TO.N,/~{HALT}*%
X46180000Y-57990000D03*
%TO.P,U1,21,~{MREQ}_21*%
%TO.N,/~{MREQ}*%
X61420000Y-57990000D03*
%TO.P,U1,22,~{IORQ}_22*%
%TO.N,/~{IORQ}*%
X61420000Y-55450000D03*
%TO.P,U1,23,~{RD}_23*%
%TO.N,/~{RD}*%
X61420000Y-52910000D03*
%TO.P,U1,24,NC_24*%
%TO.N,unconnected-(U1-NC-Pad24)*%
X61420000Y-50370000D03*
%TO.P,U1,25,NC_25*%
%TO.N,unconnected-(U1-NC-Pad25)*%
X61420000Y-47830000D03*
%TO.P,U1,26,~{WR}_26*%
%TO.N,/~{WR}*%
X61420000Y-45290000D03*
%TO.P,U1,27,~{BUSACK}_27*%
%TO.N,/~{BUSACK}*%
X61420000Y-42750000D03*
%TO.P,U1,28,~{WAIT}_28*%
%TO.N,/~{WAIT}*%
X61420000Y-40210000D03*
%TO.P,U1,29,~{BUSREQ}_29*%
%TO.N,/~{BUSREQ}*%
X61420000Y-37670000D03*
%TO.P,U1,30,~{RESET}_30*%
%TO.N,/~{RESET}*%
X61420000Y-35130000D03*
%TO.P,U1,31,~{M1}_31*%
%TO.N,/~{M1}*%
X61420000Y-32590000D03*
%TO.P,U1,32,~{RFSH}_32*%
%TO.N,/~{RFSH}*%
X61420000Y-30050000D03*
%TO.P,U1,33,GND_33*%
%TO.N,/GND*%
X61420000Y-27510000D03*
%TO.P,U1,34,A_{0}_34*%
%TO.N,/A0*%
X61420000Y-24970000D03*
%TO.P,U1,35,A_{1}_35*%
%TO.N,/A1*%
X61420000Y-22430000D03*
%TO.P,U1,36,A_{2}_36*%
%TO.N,/A2*%
X61420000Y-19890000D03*
%TO.P,U1,37,A_{3}_37*%
%TO.N,/A3*%
X61420000Y-17350000D03*
%TO.P,U1,38,A_{4}_38*%
%TO.N,/A4*%
X61420000Y-14810000D03*
%TO.P,U1,39,A_{5}_39*%
%TO.N,/A5*%
X61420000Y-12270000D03*
%TO.P,U1,40,A_{6}_40*%
%TO.N,/A6*%
X61420000Y-9730000D03*
%TD*%
D15*
%TO.P,SW3,1,1_1*%
%TO.N,/VCC*%
X77375000Y-67100000D03*
X83875000Y-67100000D03*
%TO.P,SW3,2,2_2*%
%TO.N,/SW4*%
X77375000Y-71600000D03*
X83875000Y-71600000D03*
%TD*%
D20*
%TO.P,U6,1,D_{2}_1*%
%TO.N,/D2*%
X84000000Y26440000D03*
D17*
%TO.P,U6,2,D_{7}_2*%
%TO.N,/D7*%
X81460000Y26440000D03*
%TO.P,U6,3,D_{6}_3*%
%TO.N,/D6*%
X78920000Y26440000D03*
%TO.P,U6,4,~{CE}_4*%
%TO.N,/A2*%
X76380000Y26440000D03*
%TO.P,U6,5,C/~{D}_5*%
%TO.N,/A1*%
X73840000Y26440000D03*
%TO.P,U6,6,NC_6*%
%TO.N,unconnected-(U6-NC-Pad6)*%
X71300000Y26440000D03*
%TO.P,U6,7,B/~{A}_7*%
%TO.N,/A0*%
X68760000Y26440000D03*
%TO.P,U6,8,PA_{7}_8*%
%TO.N,/6850_D7*%
X66220000Y26440000D03*
%TO.P,U6,9,PA_{6}_9*%
%TO.N,/6850_D6*%
X63680000Y26440000D03*
%TO.P,U6,10,PA_{5}_10*%
%TO.N,/6850_D5*%
X61140000Y26440000D03*
%TO.P,U6,11,PA_{4}_11*%
%TO.N,/6850_D4*%
X58600000Y26440000D03*
%TO.P,U6,12,NC_12*%
%TO.N,unconnected-(U6-NC-Pad12)*%
X56060000Y26440000D03*
%TO.P,U6,13,GND_13*%
%TO.N,/GND*%
X53520000Y26440000D03*
%TO.P,U6,14,PA_{3}_14*%
%TO.N,/6850_D3*%
X50980000Y26440000D03*
%TO.P,U6,15,PA_{2}_15*%
%TO.N,/6850_D2*%
X48440000Y26440000D03*
%TO.P,U6,16,PA_{1}_16*%
%TO.N,/6850_D1*%
X45900000Y26440000D03*
%TO.P,U6,17,PA_{0}_17*%
%TO.N,/6850_D0*%
X43360000Y26440000D03*
%TO.P,U6,18,~{ASTB}_18*%
%TO.N,Net-(U6-~{ASTB})*%
X40820000Y26440000D03*
%TO.P,U6,19,~{BSTB}_19*%
%TO.N,Net-(U6-~{BSTB})*%
X38280000Y26440000D03*
%TO.P,U6,20,ARDY_20*%
%TO.N,unconnected-(U6-ARDY-Pad20)*%
X35740000Y26440000D03*
%TO.P,U6,21,D_{0}_21*%
%TO.N,/D0*%
X35740000Y11200000D03*
%TO.P,U6,22,D_{1}_22*%
%TO.N,/D1*%
X38280000Y11200000D03*
%TO.P,U6,23,BRDY_23*%
%TO.N,unconnected-(U6-BRDY-Pad23)*%
X40820000Y11200000D03*
%TO.P,U6,24,NC_24*%
%TO.N,unconnected-(U6-NC-Pad24)*%
X43360000Y11200000D03*
%TO.P,U6,25,NC_25*%
%TO.N,unconnected-(U6-NC-Pad25)*%
X45900000Y11200000D03*
%TO.P,U6,26,IEO_26*%
%TO.N,/PIO1IE0*%
X48440000Y11200000D03*
%TO.P,U6,27,~{INT}_27*%
%TO.N,/~{INT}*%
X50980000Y11200000D03*
%TO.P,U6,28,IEI_28*%
%TO.N,/VCC*%
X53520000Y11200000D03*
%TO.P,U6,29,CLK_29*%
%TO.N,/~{CLK}*%
X56060000Y11200000D03*
%TO.P,U6,30,V_{CC}_30*%
%TO.N,/VCC*%
X58600000Y11200000D03*
%TO.P,U6,31,PB_{0}_31*%
%TO.N,/1602_D4*%
X61140000Y11200000D03*
%TO.P,U6,32,PB_{1}_32*%
%TO.N,/1602_D5*%
X63680000Y11200000D03*
%TO.P,U6,33,PB_{2}_33*%
%TO.N,/1602_D6*%
X66220000Y11200000D03*
%TO.P,U6,34,PB_{3}_34*%
%TO.N,/1602_D7*%
X68760000Y11200000D03*
%TO.P,U6,35,PB_{4}_35*%
%TO.N,/1602_RS*%
X71300000Y11200000D03*
%TO.P,U6,36,PB_{5}_36*%
%TO.N,/1602_E*%
X73840000Y11200000D03*
%TO.P,U6,37,PB_{6}_37*%
%TO.N,unconnected-(U6-PB_{6}-Pad37)*%
X76380000Y11200000D03*
%TO.P,U6,38,PB_{7}_38*%
%TO.N,unconnected-(U6-PB_{7}-Pad38)*%
X78920000Y11200000D03*
%TO.P,U6,39,~{RD}_39*%
%TO.N,/~{RD}*%
X81460000Y11200000D03*
%TO.P,U6,40,~{IORQ}_40*%
%TO.N,/~{IORQ}*%
X84000000Y11200000D03*
%TD*%
D23*
%TO.P,U3,1,A14_1*%
%TO.N,/A14*%
X102940000Y-17040000D03*
D24*
%TO.P,U3,2,A12_2*%
%TO.N,/A12*%
X100400000Y-17040000D03*
%TO.P,U3,3,A7_3*%
%TO.N,/A7*%
X97860000Y-17040000D03*
%TO.P,U3,4,A6_4*%
%TO.N,/A6*%
X95320000Y-17040000D03*
%TO.P,U3,5,A5_5*%
%TO.N,/A5*%
X92780000Y-17040000D03*
%TO.P,U3,6,A4_6*%
%TO.N,/A4*%
X90240000Y-17040000D03*
%TO.P,U3,7,A3_7*%
%TO.N,/A3*%
X87700000Y-17040000D03*
%TO.P,U3,8,A2_8*%
%TO.N,/A2*%
X85160000Y-17040000D03*
%TO.P,U3,9,A1_9*%
%TO.N,/A1*%
X82620000Y-17040000D03*
%TO.P,U3,10,A0_10*%
%TO.N,/A0*%
X80080000Y-17040000D03*
%TO.P,U3,11,Q0_11*%
%TO.N,/D0*%
X77540000Y-17040000D03*
%TO.P,U3,12,Q1_12*%
%TO.N,/D1*%
X75000000Y-17040000D03*
%TO.P,U3,13,Q2_13*%
%TO.N,/D2*%
X72460000Y-17040000D03*
%TO.P,U3,14,GND_14*%
%TO.N,/GND*%
X69920000Y-17040000D03*
%TO.P,U3,15,Q3_15*%
%TO.N,/D3*%
X69920000Y-1800000D03*
%TO.P,U3,16,Q4_16*%
%TO.N,/D4*%
X72460000Y-1800000D03*
%TO.P,U3,17,Q5_17*%
%TO.N,/D5*%
X75000000Y-1800000D03*
%TO.P,U3,18,Q6_18*%
%TO.N,/D6*%
X77540000Y-1800000D03*
%TO.P,U3,19,Q7_19*%
%TO.N,/D7*%
X80080000Y-1800000D03*
%TO.P,U3,20,~{CS}_20*%
%TO.N,/SRAM_CS*%
X82620000Y-1800000D03*
%TO.P,U3,21,A10_21*%
%TO.N,/A10*%
X85160000Y-1800000D03*
%TO.P,U3,22,~{OE}_22*%
%TO.N,/~{RD}*%
X87700000Y-1800000D03*
%TO.P,U3,23,A11_23*%
%TO.N,/A11*%
X90240000Y-1800000D03*
%TO.P,U3,24,A9_24*%
%TO.N,/A9*%
X92780000Y-1800000D03*
%TO.P,U3,25,A8_25*%
%TO.N,/A8*%
X95320000Y-1800000D03*
%TO.P,U3,26,A13_26*%
%TO.N,/A13*%
X97860000Y-1800000D03*
%TO.P,U3,27,~{WE}_27*%
%TO.N,/~{WR}*%
X100400000Y-1800000D03*
%TO.P,U3,28,VCC_28*%
%TO.N,/VCC*%
X102940000Y-1800000D03*
%TD*%
D23*
%TO.P,U2,1,A14_1*%
%TO.N,/A14*%
X102940000Y-42000000D03*
D24*
%TO.P,U2,2,A12_2*%
%TO.N,/A12*%
X100400000Y-42000000D03*
%TO.P,U2,3,A7_3*%
%TO.N,/A7*%
X97860000Y-42000000D03*
%TO.P,U2,4,A6_4*%
%TO.N,/A6*%
X95320000Y-42000000D03*
%TO.P,U2,5,A5_5*%
%TO.N,/A5*%
X92780000Y-42000000D03*
%TO.P,U2,6,A4_6*%
%TO.N,/A4*%
X90240000Y-42000000D03*
%TO.P,U2,7,A3_7*%
%TO.N,/A3*%
X87700000Y-42000000D03*
%TO.P,U2,8,A2_8*%
%TO.N,/A2*%
X85160000Y-42000000D03*
%TO.P,U2,9,A1_9*%
%TO.N,/A1*%
X82620000Y-42000000D03*
%TO.P,U2,10,A0_10*%
%TO.N,/A0*%
X80080000Y-42000000D03*
%TO.P,U2,11,D0_11*%
%TO.N,/D0*%
X77540000Y-42000000D03*
%TO.P,U2,12,D1_12*%
%TO.N,/D1*%
X75000000Y-42000000D03*
%TO.P,U2,13,D2_13*%
%TO.N,/D2*%
X72460000Y-42000000D03*
%TO.P,U2,14,GND_14*%
%TO.N,/GND*%
X69920000Y-42000000D03*
%TO.P,U2,15,D3_15*%
%TO.N,/D3*%
X69920000Y-26760000D03*
%TO.P,U2,16,D4_16*%
%TO.N,/D4*%
X72460000Y-26760000D03*
%TO.P,U2,17,D5_17*%
%TO.N,/D5*%
X75000000Y-26760000D03*
%TO.P,U2,18,D6_18*%
%TO.N,/D6*%
X77540000Y-26760000D03*
%TO.P,U2,19,D7_19*%
%TO.N,/D7*%
X80080000Y-26760000D03*
%TO.P,U2,20,~{CS}_20*%
%TO.N,/EEPROM_CS*%
X82620000Y-26760000D03*
%TO.P,U2,21,A10_21*%
%TO.N,/A10*%
X85160000Y-26760000D03*
%TO.P,U2,22,~{OE}_22*%
%TO.N,/~{RD}*%
X87700000Y-26760000D03*
%TO.P,U2,23,A11_23*%
%TO.N,/A11*%
X90240000Y-26760000D03*
%TO.P,U2,24,A9_24*%
%TO.N,/A9*%
X92780000Y-26760000D03*
%TO.P,U2,25,A8_25*%
%TO.N,/A8*%
X95320000Y-26760000D03*
%TO.P,U2,26,A13_26*%
%TO.N,/A13*%
X97860000Y-26760000D03*
%TO.P,U2,27,~{WE}_27*%
%TO.N,/~{WR}*%
X100400000Y-26760000D03*
%TO.P,U2,28,VCC_28*%
%TO.N,/VCC*%
X102940000Y-26760000D03*
%TD*%
D25*
%TO.N,/GND*%
X89880000Y13100000D03*
X84800000Y8020000D03*
X59400000Y1400000D03*
X69924265Y-46324265D03*
X70940000Y-28400000D03*
X54400000Y-60800000D03*
%TO.N,/VCC*%
X102000000Y-7000000D03*
X42550000Y-39710000D03*
X41080000Y-25000000D03*
X41080000Y-29800000D03*
%TO.N,/~{CLK}*%
X63800000Y-40000000D03*
X48400000Y-24200000D03*
X75000000Y-43600000D03*
%TO.N,Net-(U4-Rx_CLK)*%
X50600000Y-7800000D03*
%TO.N,/J1*%
X39600000Y-65200000D03*
X67200000Y-62147917D03*
%TO.N,/J2*%
X39600000Y-69200000D03*
X68747919Y-61547917D03*
%TO.N,/J3*%
X69530148Y-60765685D03*
X39600000Y-73200000D03*
%TO.N,/J4*%
X54600000Y-65200000D03*
X70095837Y-60200000D03*
%TO.N,/J5*%
X54600000Y-69200000D03*
X59171014Y-66500000D03*
%TO.N,/A15*%
X81800000Y-18940000D03*
%TO.N,/D2*%
X112800000Y-40800000D03*
X74487047Y-413076D03*
X84000000Y17490000D03*
X73480000Y-37000000D03*
%TO.N,/D7*%
X110131672Y-37800000D03*
X80400000Y8800000D03*
X79000000Y-44000000D03*
X79160000Y-37800000D03*
%TO.N,/D6*%
X77600000Y7800000D03*
X77600000Y-33800000D03*
X107600000Y-37200000D03*
%TO.N,/A3*%
X88720000Y-32400000D03*
X104824265Y-33575735D03*
%TO.N,/A1*%
X82400000Y-22400000D03*
X83640000Y-40400000D03*
X102020000Y-40400000D03*
X82600000Y-4600000D03*
%TO.N,/A0*%
X97396499Y-43408525D03*
X81100000Y-25000000D03*
%TO.N,/6850_E*%
X94800000Y-39600000D03*
X97936984Y-5136984D03*
X98000000Y-10570000D03*
%TO.N,/6850_RW*%
X67000000Y-29600000D03*
X89400000Y-31200000D03*
X65800000Y-3200000D03*
%TO.N,/6850_RS*%
X68600000Y-46800000D03*
%TO.N,/D0*%
X73800000Y0D03*
X77600000Y-4200000D03*
%TO.N,/~{RD}*%
X85800000Y-45890000D03*
X95600000Y3200000D03*
%TO.N,/A11*%
X89220000Y-8400000D03*
%TO.N,/A12*%
X100400000Y-11200000D03*
%TO.N,/A13*%
X96840000Y-13600000D03*
%TO.N,/D3*%
X70000000Y-29000000D03*
%TO.N,/D5*%
X75000000Y-31400000D03*
%TO.N,/~{MREQ}*%
X85075735Y4875735D03*
X87600000Y6600000D03*
%TO.N,/~{WR}*%
X99200000Y-45200000D03*
%TO.N,/A2*%
X85200000Y-20000000D03*
X85200000Y-3800000D03*
%TO.N,/A4*%
X90200000Y-15000000D03*
%TO.N,/A5*%
X92800000Y-12400000D03*
%TO.N,/A6*%
X95400000Y-9800000D03*
%TO.N,/EEPROM_CS*%
X82800000Y-19000000D03*
X81800000Y-14210000D03*
%TD*%
%TO.N,/GND*%
D26*
X61420000Y-27510000D02*
X62310000Y-28400000D01*
X107820000Y4380000D02*
X99100000Y13100000D01*
X62310000Y-28400000D02*
X70940000Y-28400000D01*
X53520000Y26440000D02*
X41920000Y14840000D01*
X69924265Y-46324265D02*
X80104265Y-46324265D01*
X89880000Y13100000D02*
X84800000Y8020000D01*
X99100000Y13100000D02*
X89880000Y13100000D01*
X50150000Y-56550000D02*
X54400000Y-60800000D01*
X80104265Y-46324265D02*
X82140000Y-48360000D01*
X41920000Y14840000D02*
X41920000Y8470000D01*
X39130000Y8220000D02*
X39130000Y-7020000D01*
X41920000Y8470000D02*
X41670000Y8220000D01*
X59450000Y1350000D02*
X59400000Y1400000D01*
X44650000Y-56550000D02*
X50150000Y-56550000D01*
X38750000Y-50650000D02*
X44650000Y-56550000D01*
X59450000Y-7020000D02*
X59450000Y1350000D01*
X40505000Y-31720000D02*
X36325000Y-31720000D01*
%TO.N,/VCC*%
X61990000Y-7020000D02*
X63090000Y-8120000D01*
X102940000Y-1800000D02*
X96760000Y4380000D01*
X96760000Y4380000D02*
X92580000Y4380000D01*
X41080000Y-29800000D02*
X41080000Y-25000000D01*
X67070000Y-7020000D02*
X101980000Y-7020000D01*
X54620000Y12300000D02*
X53520000Y11200000D01*
X42550000Y-39710000D02*
X42550000Y-31270000D01*
X49540000Y29600000D02*
X51915635Y29600000D01*
X92580000Y4380000D02*
X92580000Y12000000D01*
X44540000Y34600000D02*
X49540000Y29600000D01*
X51915635Y29600000D02*
X54620000Y26895635D01*
X42550000Y-31270000D02*
X41080000Y-29800000D01*
X63090000Y-8120000D02*
X65970000Y-8120000D01*
X65970000Y-8120000D02*
X67070000Y-7020000D01*
X101980000Y-7020000D02*
X102000000Y-7000000D01*
X54620000Y26895635D02*
X54620000Y12300000D01*
%TO.N,Net-(DS1-VO)*%
X47080000Y34600000D02*
X48680000Y36200000D01*
X48680000Y36200000D02*
X84330000Y36200000D01*
X84330000Y36200000D02*
X85530000Y35000000D01*
%TO.N,/SW1*%
X64210000Y-71600000D02*
X67410000Y-68400000D01*
X84413478Y-68400000D02*
X85850000Y-66963478D01*
X85850000Y-66963478D02*
X85850000Y-66561522D01*
X67410000Y-68400000D02*
X84413478Y-68400000D01*
X85850000Y-66561522D02*
X88811522Y-63600000D01*
X88811522Y-63600000D02*
X89760000Y-63600000D01*
%TO.N,/SW3*%
X95600000Y-64360000D02*
X94840000Y-63600000D01*
X93650000Y-71600000D02*
X95600000Y-69650000D01*
X95600000Y-69650000D02*
X95600000Y-64360000D01*
%TO.N,/~{CLK}*%
X46950000Y-24200000D02*
X46180000Y-24970000D01*
X45080000Y-8945256D02*
X45080000Y-23870000D01*
X55810000Y1055635D02*
X48190000Y-6564365D01*
X75000000Y-43600000D02*
X74800000Y-43400000D01*
X45080000Y-23870000D02*
X46180000Y-24970000D01*
X45395256Y-8630000D02*
X45080000Y-8945256D01*
X63800000Y-40600000D02*
X63800000Y-40000000D01*
X62950000Y18090000D02*
X92580000Y18090000D01*
X48190000Y-7154314D02*
X46714314Y-8630000D01*
X56060000Y11200000D02*
X55810000Y10950000D01*
X48400000Y-24200000D02*
X46950000Y-24200000D01*
X46714314Y-8630000D02*
X45395256Y-8630000D01*
X55810000Y10950000D02*
X55810000Y1055635D01*
X48190000Y-6564365D02*
X48190000Y-7154314D01*
X74800000Y-43400000D02*
X66600000Y-43400000D01*
X66600000Y-43400000D02*
X63800000Y-40600000D01*
X56060000Y11200000D02*
X62950000Y18090000D01*
%TO.N,/SW5*%
X103475000Y-71600000D02*
X99920000Y-68045000D01*
X99920000Y-68045000D02*
X99920000Y-63600000D01*
%TO.N,/~{INT}*%
X40570000Y-8580000D02*
X40570000Y2684365D01*
X46180000Y-52910000D02*
X47358529Y-52910000D01*
X60320000Y-58445635D02*
X60964365Y-59090000D01*
X52448529Y-58000000D02*
X60320000Y-58000000D01*
X38211522Y-42850000D02*
X38113578Y-42947943D01*
X47984365Y12300000D02*
X49880000Y12300000D01*
X45650000Y7764365D02*
X45650000Y9054365D01*
X39952056Y-44786421D02*
X40050000Y-44688478D01*
X47164365Y-52910000D02*
X45080000Y-50825635D01*
X35000000Y-39834365D02*
X35000000Y-14150000D01*
X45080000Y-50825635D02*
X45080000Y-49914365D01*
X40050000Y-44688478D02*
X40050000Y-43611522D01*
X47340000Y10744365D02*
X47340000Y11655635D01*
X47358529Y-52910000D02*
X47164365Y-52910000D01*
X47358529Y-52910000D02*
X52448529Y-58000000D01*
X74390000Y-58390000D02*
X79600000Y-63600000D01*
X49880000Y12300000D02*
X50980000Y11200000D01*
X61875635Y-59090000D02*
X62520000Y-58445635D01*
X47340000Y11655635D02*
X47984365Y12300000D01*
X45080000Y-49914365D02*
X39952056Y-44786421D01*
X39288478Y-42850000D02*
X38211522Y-42850000D01*
X38113578Y-42947943D02*
X35000000Y-39834365D01*
X60964365Y-59090000D02*
X61875635Y-59090000D01*
X40050000Y-43611522D02*
X39288478Y-42850000D01*
X40570000Y2684365D02*
X45650000Y7764365D01*
X62520000Y-58445635D02*
X62520000Y-58390000D01*
X62520000Y-58390000D02*
X74390000Y-58390000D01*
X60320000Y-58000000D02*
X60320000Y-58445635D01*
X45650000Y9054365D02*
X47340000Y10744365D01*
X35000000Y-14150000D02*
X40570000Y-8580000D01*
%TO.N,Net-(U4-Rx_CLK)*%
X60800000Y-8200000D02*
X60800000Y-6654365D01*
X51494365Y-5800000D02*
X54705635Y-5800000D01*
X104495635Y-3400000D02*
X100522498Y-3400000D01*
X54705635Y-5800000D02*
X55810000Y-6904365D01*
X108920000Y10900000D02*
X108920000Y3924365D01*
X50600000Y-6694365D02*
X50600000Y-7800000D01*
X104495635Y-500000D02*
X104495635Y-3400000D01*
X100522498Y-3400000D02*
X98122498Y-5800000D01*
X60800000Y-6654365D02*
X61654365Y-5800000D01*
X61654365Y-5800000D02*
X98122498Y-5800000D01*
X51494365Y-5800000D02*
X50600000Y-6694365D01*
X56534365Y-8200000D02*
X60800000Y-8200000D01*
X108920000Y3924365D02*
X104495635Y-500000D01*
X55810000Y-6904365D02*
X55810000Y-7475635D01*
X107820000Y12000000D02*
X108920000Y10900000D01*
X55810000Y-7475635D02*
X56534365Y-8200000D01*
%TO.N,/J1*%
X66456448Y-62147917D02*
X65460000Y-63144365D01*
X41435785Y-76450000D02*
X38600000Y-73614214D01*
X65460000Y-64055635D02*
X64815635Y-64700000D01*
X59010000Y-68769849D02*
X59010000Y-72138478D01*
X38600000Y-66200000D02*
X39600000Y-65200000D01*
X63079849Y-64700000D02*
X59010000Y-68769849D01*
X67200000Y-62147917D02*
X66456448Y-62147917D01*
X65460000Y-63144365D02*
X65460000Y-64055635D01*
X38600000Y-73614214D02*
X38600000Y-66200000D01*
X54698478Y-76450000D02*
X41435785Y-76450000D01*
X59010000Y-72138478D02*
X54698478Y-76450000D01*
X64815635Y-64700000D02*
X63079849Y-64700000D01*
%TO.N,/J2*%
X52800000Y-75698528D02*
X52448528Y-76050000D01*
X39000000Y-73448529D02*
X39000000Y-69800000D01*
X68747919Y-61547917D02*
X64856448Y-61547917D01*
X41601471Y-76050000D02*
X39000000Y-73448529D01*
X61969240Y-65244923D02*
X52800000Y-74414163D01*
X61969240Y-64435125D02*
X61969240Y-65244923D01*
X52448528Y-76050000D02*
X41601471Y-76050000D01*
X39000000Y-69800000D02*
X39600000Y-69200000D01*
X64856448Y-61547917D02*
X61969240Y-64435125D01*
X52800000Y-74414163D02*
X52800000Y-75698528D01*
%TO.N,/J3*%
X62185786Y-60765685D02*
X49601471Y-73350000D01*
X69530148Y-60765685D02*
X62185786Y-60765685D01*
X39750000Y-73350000D02*
X39600000Y-73200000D01*
X49601471Y-73350000D02*
X39750000Y-73350000D01*
%TO.N,/J4*%
X59800000Y-60000000D02*
X54600000Y-65200000D01*
X70095837Y-60200000D02*
X69895837Y-60000000D01*
X69895837Y-60000000D02*
X59800000Y-60000000D01*
%TO.N,/J5*%
X59171014Y-66500000D02*
X59171014Y-67477464D01*
X59171014Y-67477464D02*
X57448478Y-69200000D01*
X57448478Y-69200000D02*
X54600000Y-69200000D01*
%TO.N,/SW6*%
X105385787Y-70185787D02*
X105385787Y-66525787D01*
X106800000Y-71600000D02*
X105385787Y-70185787D01*
X105385787Y-66525787D02*
X102460000Y-63600000D01*
%TO.N,/A15*%
X46180000Y-19890000D02*
X47330000Y-18740000D01*
X81600000Y-18740000D02*
X81800000Y-18940000D01*
X47330000Y-18740000D02*
X81600000Y-18740000D01*
%TO.N,/SW2*%
X74050000Y-71600000D02*
X75350000Y-70300000D01*
X75350000Y-70300000D02*
X85934314Y-70300000D01*
X85934314Y-70300000D02*
X92300000Y-63934314D01*
X92300000Y-63934314D02*
X92300000Y-63600000D01*
%TO.N,/D2*%
X74280000Y-37800000D02*
X78560000Y-37800000D01*
X67297502Y-39000000D02*
X68897502Y-40600000D01*
X49930000Y-39000000D02*
X67297502Y-39000000D01*
X74940000Y13940000D02*
X78490000Y17490000D01*
X110380201Y-38400000D02*
X110390101Y-38390101D01*
X78560000Y-38048529D02*
X78911471Y-38400000D01*
X78560000Y-37800000D02*
X78560000Y-38048529D01*
X71060000Y-40600000D02*
X72460000Y-42000000D01*
X79608529Y-38200000D02*
X109683143Y-38200000D01*
X73480000Y-37000000D02*
X74280000Y-37800000D01*
X109683143Y-38200000D02*
X109883143Y-38400000D01*
X78490000Y17490000D02*
X84000000Y17490000D01*
X79408529Y-38400000D02*
X79608529Y-38200000D01*
X74940000Y39877D02*
X74940000Y13940000D01*
X68897502Y-40600000D02*
X71060000Y-40600000D01*
X46180000Y-42750000D02*
X49930000Y-39000000D01*
X74487047Y-413076D02*
X74940000Y39877D01*
X110390101Y-38390101D02*
X112800000Y-40800000D01*
X109883143Y-38400000D02*
X110380201Y-38400000D01*
X78911471Y-38400000D02*
X79408529Y-38400000D01*
%TO.N,/D7*%
X75600000Y-43800000D02*
X78800000Y-43800000D01*
X74400000Y-43848529D02*
X74751471Y-44200000D01*
X78800000Y-43800000D02*
X79000000Y-44000000D01*
X75600000Y-43848529D02*
X75600000Y-43800000D01*
X74751471Y-44200000D02*
X75248529Y-44200000D01*
X60964365Y-44190000D02*
X61875635Y-44190000D01*
X75248529Y-44200000D02*
X75600000Y-43848529D01*
X60954365Y-44200000D02*
X60964365Y-44190000D01*
X62265635Y-43800000D02*
X74400000Y-43800000D01*
X46180000Y-45290000D02*
X47270000Y-44200000D01*
X80400000Y8800000D02*
X80080000Y8480000D01*
X47270000Y-44200000D02*
X60954365Y-44200000D01*
X74400000Y-43800000D02*
X74400000Y-43848529D01*
X110131672Y-37800000D02*
X79160000Y-37800000D01*
X80080000Y8480000D02*
X80080000Y-1800000D01*
X61875635Y-44190000D02*
X62265635Y-43800000D01*
%TO.N,/D6*%
X104200000Y-33800000D02*
X77600000Y-33800000D01*
X77540000Y7740000D02*
X77540000Y-1800000D01*
X107600000Y-37200000D02*
X104200000Y-33800000D01*
X77600000Y7800000D02*
X77540000Y7740000D01*
X46180000Y-35130000D02*
X47510000Y-33800000D01*
X47510000Y-33800000D02*
X77600000Y-33800000D01*
%TO.N,/A3*%
X103648530Y-32400000D02*
X88720000Y-32400000D01*
X62410000Y-18340000D02*
X86400000Y-18340000D01*
X104824265Y-33575735D02*
X103648530Y-32400000D01*
X86400000Y-18340000D02*
X87700000Y-17040000D01*
X61420000Y-17350000D02*
X62410000Y-18340000D01*
%TO.N,/A1*%
X80360000Y10640000D02*
X81600000Y9400000D01*
X93680000Y17634365D02*
X93035635Y16990000D01*
X93035635Y19190000D02*
X93680000Y18545635D01*
X102020000Y-40400000D02*
X83640000Y-40400000D01*
X82370000Y-22430000D02*
X82400000Y-22400000D01*
X92124365Y16990000D02*
X92114365Y17000000D01*
X81600000Y-3600000D02*
X82600000Y-4600000D01*
X61420000Y-22430000D02*
X82370000Y-22430000D01*
X73840000Y26440000D02*
X81090000Y19190000D01*
X92114365Y17000000D02*
X85704365Y17000000D01*
X80360000Y11655635D02*
X80360000Y10640000D01*
X81600000Y9400000D02*
X81600000Y-3600000D01*
X85704365Y17000000D02*
X80360000Y11655635D01*
X81090000Y19190000D02*
X93035635Y19190000D01*
X93680000Y18545635D02*
X93680000Y17634365D01*
X93035635Y16990000D02*
X92124365Y16990000D01*
%TO.N,/A0*%
X68760000Y26440000D02*
X68760000Y25455635D01*
X45724365Y-26070000D02*
X46635635Y-26070000D01*
X68760000Y25455635D02*
X54960000Y11655635D01*
X47735635Y-24970000D02*
X61420000Y-24970000D01*
X54960000Y10365635D02*
X53270000Y8675635D01*
X45650000Y-6564365D02*
X45650000Y-7809571D01*
X44680000Y-8779571D02*
X44680000Y-25025635D01*
X53270000Y1055635D02*
X45650000Y-6564365D01*
X54960000Y11655635D02*
X54960000Y10365635D01*
X81070000Y-24970000D02*
X81100000Y-25000000D01*
X46635635Y-26070000D02*
X47735635Y-24970000D01*
X61420000Y-24970000D02*
X81070000Y-24970000D01*
X81488525Y-43408525D02*
X80080000Y-42000000D01*
X44680000Y-25025635D02*
X45724365Y-26070000D01*
X97396499Y-43408525D02*
X81488525Y-43408525D01*
X45650000Y-7809571D02*
X44680000Y-8779571D01*
X53270000Y8675635D02*
X53270000Y1055635D01*
%TO.N,/6850_E*%
X71440000Y1310000D02*
X71440000Y-2502498D01*
X64530000Y8220000D02*
X71440000Y1310000D01*
X74137502Y-5200000D02*
X97873968Y-5200000D01*
X113400000Y-41048529D02*
X113048529Y-41400000D01*
X112317457Y-41400000D02*
X110517457Y-39600000D01*
X97873968Y-5200000D02*
X97936984Y-5136984D01*
X101170000Y-10570000D02*
X113400000Y-22800000D01*
X98000000Y-10570000D02*
X101170000Y-10570000D01*
X71440000Y-2502498D02*
X74137502Y-5200000D01*
X113400000Y-22800000D02*
X113400000Y-41048529D01*
X110517457Y-39600000D02*
X94800000Y-39600000D01*
X113048529Y-41400000D02*
X112317457Y-41400000D01*
%TO.N,/6850_RW*%
X89400000Y-31200000D02*
X87800000Y-29600000D01*
X63430000Y8675635D02*
X64074365Y9320000D01*
X63430000Y1570000D02*
X63430000Y8675635D01*
X64074365Y9320000D02*
X65970000Y9320000D01*
X65970000Y9320000D02*
X67070000Y8220000D01*
X87800000Y-29600000D02*
X67000000Y-29600000D01*
X65800000Y-800000D02*
X63430000Y1570000D01*
X65800000Y-3200000D02*
X65800000Y-800000D01*
%TO.N,/6850_RS*%
X70400000Y-45000000D02*
X68600000Y-46800000D01*
X80982944Y-44600000D02*
X80379899Y-44600000D01*
X74254416Y-45400000D02*
X73854415Y-45000000D01*
X85200000Y-45855686D02*
X83952839Y-44608525D01*
X78020100Y-45000000D02*
X76145584Y-45000000D01*
X83952839Y-44608525D02*
X80991469Y-44608525D01*
X86048529Y-46490000D02*
X85551471Y-46490000D01*
X85200000Y-46138529D02*
X85200000Y-45855686D01*
X75745586Y-45399999D02*
X74254416Y-45400000D01*
X73854415Y-45000000D02*
X70400000Y-45000000D01*
X76145584Y-45000000D02*
X75745586Y-45399999D01*
X89760000Y-48360000D02*
X87690000Y-46290000D01*
X85551471Y-46490000D02*
X85200000Y-46138529D01*
X78420100Y-45400000D02*
X78020100Y-45000000D01*
X80379899Y-44600000D02*
X79579900Y-45400000D01*
X87690000Y-46290000D02*
X86248529Y-46290000D01*
X79579900Y-45400000D02*
X78420100Y-45400000D01*
X80991469Y-44608525D02*
X80982944Y-44600000D01*
X86248529Y-46290000D02*
X86048529Y-46490000D01*
%TO.N,/D0*%
X73800000Y-4000000D02*
X73800000Y0D01*
X45724365Y-41650000D02*
X45080000Y-42294365D01*
X45080000Y-46730000D02*
X46180000Y-47830000D01*
X46635635Y-41650000D02*
X45724365Y-41650000D01*
X51885635Y-36400000D02*
X46635635Y-41650000D01*
X74000000Y-4200000D02*
X73800000Y-4000000D01*
X45080000Y-42294365D02*
X45080000Y-46730000D01*
X77600000Y-4200000D02*
X74000000Y-4200000D01*
X77540000Y-42000000D02*
X71940000Y-36400000D01*
X71940000Y-36400000D02*
X51885635Y-36400000D01*
%TO.N,/PIO1IE0*%
X47850000Y10610000D02*
X48440000Y11200000D01*
X43110000Y-28424365D02*
X43110000Y3024365D01*
X82140000Y-63600000D02*
X75340000Y-56800000D01*
X43110000Y3024365D02*
X47850000Y7764365D01*
X44680000Y-29994365D02*
X43110000Y-28424365D01*
X47850000Y7764365D02*
X47850000Y10610000D01*
X75340000Y-56800000D02*
X54505635Y-56800000D01*
X45724365Y-48930000D02*
X44680000Y-47885635D01*
X44680000Y-47885635D02*
X44680000Y-29994365D01*
X46635635Y-48930000D02*
X45724365Y-48930000D01*
X54505635Y-56800000D02*
X46635635Y-48930000D01*
%TO.N,/SW4*%
X85200000Y-71600000D02*
X92100000Y-64700000D01*
X83875000Y-71600000D02*
X85200000Y-71600000D01*
X93740000Y-64055635D02*
X93740000Y-63144365D01*
X93095635Y-64700000D02*
X93740000Y-64055635D01*
X92100000Y-64700000D02*
X93095635Y-64700000D01*
X94384365Y-62500000D02*
X96280000Y-62500000D01*
X96280000Y-62500000D02*
X97380000Y-63600000D01*
X93740000Y-63144365D02*
X94384365Y-62500000D01*
%TO.N,/~{RD}*%
X79414215Y-45000000D02*
X80000000Y-44414214D01*
X90860000Y-47904365D02*
X88845635Y-45890000D01*
X84118525Y-44208525D02*
X85800000Y-45890000D01*
X62600000Y-51730000D02*
X62600000Y-44675686D01*
X75979899Y-44600000D02*
X78185786Y-44600000D01*
X100625685Y-49460000D02*
X91844365Y-49460000D01*
X111180000Y-64700000D02*
X113075635Y-64700000D01*
X81148630Y-44200000D02*
X81157155Y-44208525D01*
X74420101Y-45000000D02*
X75579901Y-44999999D01*
X62675686Y-44600000D02*
X74020100Y-44600000D01*
X78585786Y-45000000D02*
X79414215Y-45000000D01*
X74020100Y-44600000D02*
X74420101Y-45000000D01*
X62600000Y-44675686D02*
X62675686Y-44600000D01*
X92700000Y3200000D02*
X87700000Y-1800000D01*
X80000000Y-44200000D02*
X81148630Y-44200000D01*
X90860000Y-48475635D02*
X90860000Y-47904365D01*
X80000000Y-44414214D02*
X80000000Y-44200000D01*
X95600000Y3200000D02*
X92700000Y3200000D01*
X113720000Y-64055635D02*
X113720000Y-62554315D01*
X81157155Y-44208525D02*
X84118525Y-44208525D01*
X113720000Y-62554315D02*
X100625685Y-49460000D01*
X75579901Y-44999999D02*
X75979899Y-44600000D01*
X113075635Y-64700000D02*
X113720000Y-64055635D01*
X61420000Y-52910000D02*
X62600000Y-51730000D01*
X78185786Y-44600000D02*
X78585786Y-45000000D01*
X88845635Y-45890000D02*
X85800000Y-45890000D01*
X110080000Y-63600000D02*
X111180000Y-64700000D01*
X91844365Y-49460000D02*
X90860000Y-48475635D01*
%TO.N,/~{IORQ}*%
X106050000Y-55450000D02*
X112620000Y-62020000D01*
X112620000Y-62020000D02*
X112620000Y-63600000D01*
X61420000Y-55450000D02*
X106050000Y-55450000D01*
%TO.N,/A11*%
X46180000Y-9730000D02*
X46710000Y-9200000D01*
X46710000Y-9200000D02*
X60394365Y-9200000D01*
X61875635Y-8630000D02*
X62445635Y-9200000D01*
X60394365Y-9200000D02*
X60964365Y-8630000D01*
X60964365Y-8630000D02*
X61875635Y-8630000D01*
X88420000Y-9200000D02*
X89220000Y-8400000D01*
X62445635Y-9200000D02*
X88420000Y-9200000D01*
%TO.N,/A12*%
X46180000Y-12270000D02*
X47280000Y-11170000D01*
X100370000Y-11170000D02*
X100400000Y-11200000D01*
X47280000Y-11170000D02*
X100370000Y-11170000D01*
%TO.N,/A13*%
X47390000Y-13600000D02*
X96840000Y-13600000D01*
X46180000Y-14810000D02*
X47390000Y-13600000D01*
%TO.N,/A14*%
X46180000Y-17350000D02*
X47280000Y-16250000D01*
X47280000Y-16250000D02*
X61875635Y-16250000D01*
X61875635Y-16250000D02*
X62385635Y-15740000D01*
X101640000Y-15740000D02*
X102940000Y-17040000D01*
X62385635Y-15740000D02*
X101640000Y-15740000D01*
%TO.N,/D4*%
X69497502Y-25460000D02*
X71160000Y-25460000D01*
X47280000Y-26410000D02*
X68547502Y-26410000D01*
X68547502Y-26410000D02*
X69497502Y-25460000D01*
X46180000Y-27510000D02*
X47280000Y-26410000D01*
X71160000Y-25460000D02*
X72460000Y-26760000D01*
%TO.N,/D3*%
X47280000Y-28950000D02*
X69950000Y-28950000D01*
X46180000Y-30050000D02*
X47280000Y-28950000D01*
X69950000Y-28950000D02*
X70000000Y-29000000D01*
%TO.N,/D5*%
X47370000Y-31400000D02*
X75000000Y-31400000D01*
X46180000Y-32590000D02*
X47370000Y-31400000D01*
%TO.N,/~{MREQ}*%
X108980000Y-64055635D02*
X110024365Y-65100000D01*
X61420000Y-57990000D02*
X75885635Y-57990000D01*
X114120000Y-64221320D02*
X114120000Y7255635D01*
X90124365Y-56600000D02*
X102435635Y-56600000D01*
X81684365Y-64700000D02*
X82595635Y-64700000D01*
X83240000Y-64055635D02*
X83240000Y-63484365D01*
X85475735Y4875735D02*
X85075735Y4875735D01*
X102435635Y-56600000D02*
X108980000Y-63144365D01*
X81040000Y-63144365D02*
X81040000Y-64055635D01*
X81040000Y-64055635D02*
X81684365Y-64700000D01*
X87600000Y6600000D02*
X87200000Y6600000D01*
X108980000Y-63144365D02*
X108980000Y-64055635D01*
X114120000Y7255635D02*
X107675635Y13700000D01*
X82595635Y-64700000D02*
X83240000Y-64055635D01*
X110024365Y-65100000D02*
X113241321Y-65100000D01*
X83240000Y-63484365D02*
X90124365Y-56600000D01*
X75885635Y-57990000D02*
X81040000Y-63144365D01*
X89631471Y13700000D02*
X84200000Y8268529D01*
X107675635Y13700000D02*
X89631471Y13700000D01*
X84200000Y5751470D02*
X85075735Y4875735D01*
X84200000Y8268529D02*
X84200000Y5751470D01*
X87200000Y6600000D02*
X85475735Y4875735D01*
X113241321Y-65100000D02*
X114120000Y-64221320D01*
%TO.N,/~{WR}*%
X97147970Y-44008525D02*
X97645028Y-44008525D01*
X74185785Y-44200000D02*
X74585786Y-44600000D01*
X78751471Y-44600000D02*
X79248529Y-44600000D01*
X79600000Y-44248529D02*
X79600000Y-43800000D01*
X78400000Y-44200000D02*
X78400000Y-44248529D01*
X79248529Y-44600000D02*
X79600000Y-44248529D01*
X74585786Y-44600000D02*
X75414215Y-44600000D01*
X78400000Y-44248529D02*
X78751471Y-44600000D01*
X61420000Y-45290000D02*
X62510000Y-44200000D01*
X97645028Y-44008525D02*
X97826777Y-43826777D01*
X81322840Y-43808525D02*
X96947970Y-43808525D01*
X75414215Y-44600000D02*
X75814214Y-44200000D01*
X79600000Y-43800000D02*
X81314315Y-43800000D01*
X62510000Y-44200000D02*
X74185785Y-44200000D01*
X81314315Y-43800000D02*
X81322840Y-43808525D01*
X97826777Y-43826777D02*
X99200000Y-45200000D01*
X96947970Y-43808525D02*
X97147970Y-44008525D01*
X75814214Y-44200000D02*
X78400000Y-44200000D01*
%TO.N,/A2*%
X85644365Y14400000D02*
X82900000Y11655635D01*
X83640000Y-640000D02*
X83640000Y-2240000D01*
X93201321Y19590000D02*
X94080000Y18711320D01*
X85090000Y-19890000D02*
X85200000Y-20000000D01*
X76380000Y26440000D02*
X83230000Y19590000D01*
X82900000Y100000D02*
X83640000Y-640000D01*
X83640000Y-2240000D02*
X85200000Y-3800000D01*
X91011321Y14400000D02*
X85644365Y14400000D01*
X94080000Y18711320D02*
X94080000Y17468679D01*
X61420000Y-19890000D02*
X85090000Y-19890000D01*
X82900000Y11655635D02*
X82900000Y100000D01*
X94080000Y17468679D02*
X91011321Y14400000D01*
X83230000Y19590000D02*
X93201321Y19590000D01*
%TO.N,/A4*%
X90010000Y-14810000D02*
X90200000Y-15000000D01*
X61420000Y-14810000D02*
X90010000Y-14810000D01*
%TO.N,/A5*%
X92670000Y-12270000D02*
X92800000Y-12400000D01*
X61420000Y-12270000D02*
X92670000Y-12270000D01*
%TO.N,/A6*%
X95330000Y-9730000D02*
X95400000Y-9800000D01*
X61420000Y-9730000D02*
X95330000Y-9730000D01*
%TO.N,/EEPROM_CS*%
X103960000Y-15740000D02*
X103960000Y-18340000D01*
X103300000Y-19000000D02*
X82800000Y-19000000D01*
X102430000Y-14210000D02*
X103960000Y-15740000D01*
X81800000Y-14210000D02*
X102430000Y-14210000D01*
X103960000Y-18340000D02*
X103300000Y-19000000D01*
%TD*%
M02*
