%TF.GenerationSoftware,KiCad,Pcbnew,10.0.1*%
%TF.CreationDate,2026-07-02T23:40:43+08:00*%
%TF.ProjectId,Z80Badge,5a383042-6164-4676-952e-6b696361645f,rev?*%
%TF.SameCoordinates,Original*%
%TF.FileFunction,Soldermask,Top*%
%TF.FilePolarity,Negative*%
%FSLAX46Y46*%
G04 Gerber Fmt 4.6, Leading zero omitted, Abs format (unit mm)*
G04 Created by KiCad (PCBNEW 10.0.1) date 2026-07-02 23:40:43*
%MOMM*%
%LPD*%
G01*
G04 APERTURE LIST*
G04 Aperture macros list*
%AMRoundRect*
0 Rectangle with rounded corners*
0 $1 Rounding radius*
0 $2 $3 $4 $5 $6 $7 $8 $9 X,Y pos of 4 corners*
0 Add a 4 corners polygon primitive as box body*
4,1,4,$2,$3,$4,$5,$6,$7,$8,$9,$2,$3,0*
0 Add four circle primitives for the rounded corners*
1,1,$1+$1,$2,$3*
1,1,$1+$1,$4,$5*
1,1,$1+$1,$6,$7*
1,1,$1+$1,$8,$9*
0 Add four rect primitives between the rounded corners*
20,1,$1+$1,$2,$3,$4,$5,0*
20,1,$1+$1,$4,$5,$6,$7,0*
20,1,$1+$1,$6,$7,$8,$9,0*
20,1,$1+$1,$8,$9,$2,$3,0*%
G04 Aperture macros list end*
%ADD10RoundRect,0.250000X-0.625000X0.400000X-0.625000X-0.400000X0.625000X-0.400000X0.625000X0.400000X0*%
%ADD11C,3.000000*%
%ADD12R,1.800000X2.600000*%
%ADD13O,1.800000X2.600000*%
%ADD14RoundRect,0.250000X0.625000X-0.400000X0.625000X0.400000X-0.625000X0.400000X-0.625000X-0.400000X0*%
%ADD15R,1.560000X1.560000*%
%ADD16C,1.560000*%
%ADD17RoundRect,0.250000X0.650000X-0.412500X0.650000X0.412500X-0.650000X0.412500X-0.650000X-0.412500X0*%
%ADD18C,2.000000*%
%ADD19RoundRect,0.250000X0.412500X0.650000X-0.412500X0.650000X-0.412500X-0.650000X0.412500X-0.650000X0*%
%ADD20R,1.600000X1.600000*%
%ADD21C,1.600000*%
%ADD22RoundRect,0.250000X-0.400000X-0.625000X0.400000X-0.625000X0.400000X0.625000X-0.400000X0.625000X0*%
%ADD23RoundRect,0.102000X-1.000000X-0.950000X1.000000X-0.950000X1.000000X0.950000X-1.000000X0.950000X0*%
%ADD24R,0.400000X1.500000*%
%ADD25C,0.650000*%
%ADD26RoundRect,0.150000X-0.425000X0.150000X-0.425000X-0.150000X0.425000X-0.150000X0.425000X0.150000X0*%
%ADD27RoundRect,0.075000X-0.500000X0.075000X-0.500000X-0.075000X0.500000X-0.075000X0.500000X0.075000X0*%
%ADD28O,2.100000X1.000000*%
%ADD29O,1.800000X1.000000*%
%ADD30RoundRect,0.150000X0.825000X0.150000X-0.825000X0.150000X-0.825000X-0.150000X0.825000X-0.150000X0*%
%ADD31RoundRect,0.250000X-0.550000X0.550000X-0.550000X-0.550000X0.550000X-0.550000X0.550000X0.550000X0*%
%ADD32RoundRect,0.250000X0.550000X-0.550000X0.550000X0.550000X-0.550000X0.550000X-0.550000X-0.550000X0*%
%ADD33RoundRect,0.250000X-0.550000X-0.550000X0.550000X-0.550000X0.550000X0.550000X-0.550000X0.550000X0*%
%ADD34RoundRect,0.250000X-0.650000X0.412500X-0.650000X-0.412500X0.650000X-0.412500X0.650000X0.412500X0*%
%ADD35RoundRect,0.100000X-0.100000X0.450000X-0.100000X-0.450000X0.100000X-0.450000X0.100000X0.450000X0*%
%ADD36R,1.440000X2.000000*%
%ADD37O,1.440000X2.000000*%
G04 APERTURE END LIST*
D10*
%TO.C,R9*%
X38400000Y-35050000D03*
X38400000Y-38150000D03*
%TD*%
D11*
%TO.C,DS1*%
X36500900Y34600000D03*
X36500900Y3599300D03*
X111499480Y3599300D03*
X111500000Y34600000D03*
D12*
X42000000Y34600000D03*
D13*
X44540000Y34600000D03*
X47080000Y34600000D03*
X49620000Y34600000D03*
X52160000Y34600000D03*
X54700000Y34600000D03*
X57240000Y34600000D03*
X59780000Y34600000D03*
X62320000Y34600000D03*
X64860000Y34600000D03*
X67400000Y34600000D03*
X69940000Y34600000D03*
X72480000Y34600000D03*
X75020000Y34600000D03*
X77560000Y34600000D03*
X80100000Y34600000D03*
%TD*%
D14*
%TO.C,R3*%
X40800000Y28650000D03*
X40800000Y31750000D03*
%TD*%
D15*
%TO.C,RV1*%
X88030000Y30000000D03*
D16*
X85530000Y35000000D03*
X83030000Y30000000D03*
%TD*%
D17*
%TO.C,C1*%
X43800000Y-24162500D03*
X43800000Y-21037500D03*
%TD*%
D18*
%TO.C,SW1*%
X57710000Y-67100000D03*
X64210000Y-67100000D03*
X57710000Y-71600000D03*
X64210000Y-71600000D03*
%TD*%
%TO.C,SW4*%
X87150000Y-67100000D03*
X93650000Y-67100000D03*
X87150000Y-71600000D03*
X93650000Y-71600000D03*
%TD*%
D19*
%TO.C,C4*%
X55800000Y-60800000D03*
X52675000Y-60800000D03*
%TD*%
D10*
%TO.C,R6*%
X59000000Y-60890000D03*
X59000000Y-63990000D03*
%TD*%
D20*
%TO.C,Y1*%
X107820000Y25710000D03*
D21*
X92580000Y25710000D03*
X92580000Y18090000D03*
X107820000Y18090000D03*
%TD*%
D18*
%TO.C,SW5*%
X96975000Y-67100000D03*
X103475000Y-67100000D03*
X96975000Y-71600000D03*
X103475000Y-71600000D03*
%TD*%
D10*
%TO.C,R2*%
X43200000Y-53850000D03*
X43200000Y-56950000D03*
%TD*%
%TO.C,R8*%
X40800000Y-35050000D03*
X40800000Y-38150000D03*
%TD*%
D22*
%TO.C,R1*%
X40400000Y-40600000D03*
X43500000Y-40600000D03*
%TD*%
D18*
%TO.C,SW7*%
X43250000Y-44150000D03*
X43250000Y-50650000D03*
X38750000Y-44150000D03*
X38750000Y-50650000D03*
%TD*%
D20*
%TO.C,Y2*%
X92580000Y4380000D03*
D21*
X107820000Y4380000D03*
X107820000Y12000000D03*
X92580000Y12000000D03*
%TD*%
%TO.C,S1*%
X44100000Y-72200000D03*
X50100000Y-66200000D03*
D23*
X39600000Y-65200000D03*
X39600000Y-69200000D03*
X39600000Y-73200000D03*
X54600000Y-65200000D03*
X54600000Y-69200000D03*
X54600000Y-73200000D03*
%TD*%
D10*
%TO.C,R5*%
X61400000Y-60890000D03*
X61400000Y-63990000D03*
%TD*%
D18*
%TO.C,SW6*%
X106800000Y-67100000D03*
X113300000Y-67100000D03*
X106800000Y-71600000D03*
X113300000Y-71600000D03*
%TD*%
D24*
%TO.C,U8*%
X80100000Y6930000D03*
X79450000Y6930000D03*
X78800000Y6930000D03*
X78800000Y4270000D03*
X80100000Y4270000D03*
%TD*%
D25*
%TO.C,J2*%
X40005000Y-24510000D03*
X40005000Y-30290000D03*
D26*
X41080000Y-24200000D03*
X41080000Y-25000000D03*
D27*
X41080000Y-26150000D03*
X41080000Y-27150000D03*
X41080000Y-27650000D03*
X41080000Y-28650000D03*
D26*
X41080000Y-29800000D03*
X41080000Y-30600000D03*
X41080000Y-30600000D03*
X41080000Y-29800000D03*
D27*
X41080000Y-29150000D03*
X41080000Y-28150000D03*
X41080000Y-26650000D03*
X41080000Y-25650000D03*
D26*
X41080000Y-25000000D03*
X41080000Y-24200000D03*
D28*
X40505000Y-23080000D03*
D29*
X36325000Y-23080000D03*
D28*
X40505000Y-31720000D03*
D29*
X36325000Y-31720000D03*
%TD*%
D18*
%TO.C,SW2*%
X67550000Y-67100000D03*
X74050000Y-67100000D03*
X67550000Y-71600000D03*
X74050000Y-71600000D03*
%TD*%
D30*
%TO.C,U5*%
X43550000Y-18670000D03*
X43550000Y-17400000D03*
X43550000Y-16130000D03*
X43550000Y-14860000D03*
X43550000Y-13590000D03*
X43550000Y-12320000D03*
X43550000Y-11050000D03*
X43550000Y-9780000D03*
X38600000Y-9780000D03*
X38600000Y-11050000D03*
X38600000Y-12320000D03*
X38600000Y-13590000D03*
X38600000Y-14860000D03*
X38600000Y-16130000D03*
X38600000Y-17400000D03*
X38600000Y-18670000D03*
%TD*%
D22*
%TO.C,R7*%
X77650000Y31400000D03*
X80750000Y31400000D03*
%TD*%
D14*
%TO.C,R4*%
X38200000Y28650000D03*
X38200000Y31750000D03*
%TD*%
D19*
%TO.C,C2*%
X41362500Y-20600000D03*
X38237500Y-20600000D03*
%TD*%
D31*
%TO.C,U7*%
X112620000Y-48360000D03*
D21*
X110080000Y-48360000D03*
X107540000Y-48360000D03*
X105000000Y-48360000D03*
X102460000Y-48360000D03*
X99920000Y-48360000D03*
X97380000Y-48360000D03*
X94840000Y-48360000D03*
X92300000Y-48360000D03*
X89760000Y-48360000D03*
X87220000Y-48360000D03*
X84680000Y-48360000D03*
X82140000Y-48360000D03*
X79600000Y-48360000D03*
X77060000Y-48360000D03*
X74520000Y-48360000D03*
X71980000Y-48360000D03*
X69440000Y-48360000D03*
X66900000Y-48360000D03*
X64360000Y-48360000D03*
X64360000Y-63600000D03*
X66900000Y-63600000D03*
X69440000Y-63600000D03*
X71980000Y-63600000D03*
X74520000Y-63600000D03*
X77060000Y-63600000D03*
X79600000Y-63600000D03*
X82140000Y-63600000D03*
X84680000Y-63600000D03*
X87220000Y-63600000D03*
X89760000Y-63600000D03*
X92300000Y-63600000D03*
X94840000Y-63600000D03*
X97380000Y-63600000D03*
X99920000Y-63600000D03*
X102460000Y-63600000D03*
X105000000Y-63600000D03*
X107540000Y-63600000D03*
X110080000Y-63600000D03*
X112620000Y-63600000D03*
%TD*%
D32*
%TO.C,U4*%
X39130000Y-7020000D03*
D21*
X41670000Y-7020000D03*
X44210000Y-7020000D03*
X46750000Y-7020000D03*
X49290000Y-7020000D03*
X51830000Y-7020000D03*
X54370000Y-7020000D03*
X56910000Y-7020000D03*
X59450000Y-7020000D03*
X61990000Y-7020000D03*
X64530000Y-7020000D03*
X67070000Y-7020000D03*
X67070000Y8220000D03*
X64530000Y8220000D03*
X61990000Y8220000D03*
X59450000Y8220000D03*
X56910000Y8220000D03*
X54370000Y8220000D03*
X51830000Y8220000D03*
X49290000Y8220000D03*
X46750000Y8220000D03*
X44210000Y8220000D03*
X41670000Y8220000D03*
X39130000Y8220000D03*
%TD*%
D33*
%TO.C,U1*%
X46180000Y-9730000D03*
D21*
X46180000Y-12270000D03*
X46180000Y-14810000D03*
X46180000Y-17350000D03*
X46180000Y-19890000D03*
X46180000Y-22430000D03*
X46180000Y-24970000D03*
X46180000Y-27510000D03*
X46180000Y-30050000D03*
X46180000Y-32590000D03*
X46180000Y-35130000D03*
X46180000Y-37670000D03*
X46180000Y-40210000D03*
X46180000Y-42750000D03*
X46180000Y-45290000D03*
X46180000Y-47830000D03*
X46180000Y-50370000D03*
X46180000Y-52910000D03*
X46180000Y-55450000D03*
X46180000Y-57990000D03*
X61420000Y-57990000D03*
X61420000Y-55450000D03*
X61420000Y-52910000D03*
X61420000Y-50370000D03*
X61420000Y-47830000D03*
X61420000Y-45290000D03*
X61420000Y-42750000D03*
X61420000Y-40210000D03*
X61420000Y-37670000D03*
X61420000Y-35130000D03*
X61420000Y-32590000D03*
X61420000Y-30050000D03*
X61420000Y-27510000D03*
X61420000Y-24970000D03*
X61420000Y-22430000D03*
X61420000Y-19890000D03*
X61420000Y-17350000D03*
X61420000Y-14810000D03*
X61420000Y-12270000D03*
X61420000Y-9730000D03*
%TD*%
D34*
%TO.C,C3*%
X70200000Y7162500D03*
X70200000Y4037500D03*
%TD*%
D35*
%TO.C,U10*%
X87575000Y7820000D03*
X86925000Y7820000D03*
X86275000Y7820000D03*
X85625000Y7820000D03*
X85625000Y3520000D03*
X86275000Y3520000D03*
X86925000Y3520000D03*
X87575000Y3520000D03*
%TD*%
D18*
%TO.C,SW3*%
X77375000Y-67100000D03*
X83875000Y-67100000D03*
X77375000Y-71600000D03*
X83875000Y-71600000D03*
%TD*%
D31*
%TO.C,U6*%
X84000000Y26440000D03*
D21*
X81460000Y26440000D03*
X78920000Y26440000D03*
X76380000Y26440000D03*
X73840000Y26440000D03*
X71300000Y26440000D03*
X68760000Y26440000D03*
X66220000Y26440000D03*
X63680000Y26440000D03*
X61140000Y26440000D03*
X58600000Y26440000D03*
X56060000Y26440000D03*
X53520000Y26440000D03*
X50980000Y26440000D03*
X48440000Y26440000D03*
X45900000Y26440000D03*
X43360000Y26440000D03*
X40820000Y26440000D03*
X38280000Y26440000D03*
X35740000Y26440000D03*
X35740000Y11200000D03*
X38280000Y11200000D03*
X40820000Y11200000D03*
X43360000Y11200000D03*
X45900000Y11200000D03*
X48440000Y11200000D03*
X50980000Y11200000D03*
X53520000Y11200000D03*
X56060000Y11200000D03*
X58600000Y11200000D03*
X61140000Y11200000D03*
X63680000Y11200000D03*
X66220000Y11200000D03*
X68760000Y11200000D03*
X71300000Y11200000D03*
X73840000Y11200000D03*
X76380000Y11200000D03*
X78920000Y11200000D03*
X81460000Y11200000D03*
X84000000Y11200000D03*
%TD*%
D36*
%TO.C,U3*%
X102940000Y-17040000D03*
D37*
X100400000Y-17040000D03*
X97860000Y-17040000D03*
X95320000Y-17040000D03*
X92780000Y-17040000D03*
X90240000Y-17040000D03*
X87700000Y-17040000D03*
X85160000Y-17040000D03*
X82620000Y-17040000D03*
X80080000Y-17040000D03*
X77540000Y-17040000D03*
X75000000Y-17040000D03*
X72460000Y-17040000D03*
X69920000Y-17040000D03*
X69920000Y-1800000D03*
X72460000Y-1800000D03*
X75000000Y-1800000D03*
X77540000Y-1800000D03*
X80080000Y-1800000D03*
X82620000Y-1800000D03*
X85160000Y-1800000D03*
X87700000Y-1800000D03*
X90240000Y-1800000D03*
X92780000Y-1800000D03*
X95320000Y-1800000D03*
X97860000Y-1800000D03*
X100400000Y-1800000D03*
X102940000Y-1800000D03*
%TD*%
D36*
%TO.C,U2*%
X102940000Y-42000000D03*
D37*
X100400000Y-42000000D03*
X97860000Y-42000000D03*
X95320000Y-42000000D03*
X92780000Y-42000000D03*
X90240000Y-42000000D03*
X87700000Y-42000000D03*
X85160000Y-42000000D03*
X82620000Y-42000000D03*
X80080000Y-42000000D03*
X77540000Y-42000000D03*
X75000000Y-42000000D03*
X72460000Y-42000000D03*
X69920000Y-42000000D03*
X69920000Y-26760000D03*
X72460000Y-26760000D03*
X75000000Y-26760000D03*
X77540000Y-26760000D03*
X80080000Y-26760000D03*
X82620000Y-26760000D03*
X85160000Y-26760000D03*
X87700000Y-26760000D03*
X90240000Y-26760000D03*
X92780000Y-26760000D03*
X95320000Y-26760000D03*
X97860000Y-26760000D03*
X100400000Y-26760000D03*
X102940000Y-26760000D03*
%TD*%
M02*
