M48
; DRILL file KiCad 10.0.1 date 2026-07-02T23:40:45
; FORMAT={-:-/ absolute / metric / decimal}
; #@! TF.CreationDate,2026-07-02T23:40:45+08:00
; #@! TF.GenerationSoftware,Kicad,Pcbnew,10.0.1
; #@! TF.FileFunction,Plated,1,2,PTH
FMAT,2
METRIC
; #@! TA.AperFunction,Plated,PTH,ViaDrill
T1C0.300
; #@! TA.AperFunction,Plated,PTH,ComponentDrill
T2C0.600
; #@! TA.AperFunction,Plated,PTH,ComponentDrill
T3C0.800
; #@! TA.AperFunction,Plated,PTH,ComponentDrill
T4C1.000
; #@! TA.AperFunction,Plated,PTH,ComponentDrill
T5C1.100
; #@! TA.AperFunction,Plated,PTH,ComponentDrill
T6C1.200
; #@! TA.AperFunction,Plated,PTH,ComponentDrill
T7C2.500
%
G90
G05
T1
X39.6Y-65.2
X39.6Y-69.2
X39.6Y-73.2
X41.08Y-25.0
X41.08Y-29.8
X42.55Y-39.71
X48.4Y-24.2
X50.6Y-7.8
X54.4Y-60.8
X54.6Y-65.2
X54.6Y-69.2
X59.171Y-66.5
X59.4Y1.4
X63.8Y-40.0
X65.8Y-3.2
X67.0Y-29.6
X67.2Y-62.148
X68.6Y-46.8
X68.748Y-61.548
X69.53Y-60.766
X69.924Y-46.324
X70.0Y-29.0
X70.096Y-60.2
X70.94Y-28.4
X73.48Y-37.0
X73.8Y0.0
X74.487Y-0.413
X75.0Y-31.4
X75.0Y-43.6
X77.6Y7.8
X77.6Y-4.2
X77.6Y-33.8
X79.0Y-44.0
X79.16Y-37.8
X80.4Y8.8
X81.1Y-25.0
X81.8Y-14.21
X81.8Y-18.94
X82.4Y-22.4
X82.6Y-4.6
X82.8Y-19.0
X83.64Y-40.4
X84.0Y17.49
X84.8Y8.02
X85.076Y4.876
X85.2Y-3.8
X85.2Y-20.0
X85.8Y-45.89
X87.6Y6.6
X88.72Y-32.4
X89.22Y-8.4
X89.4Y-31.2
X89.88Y13.1
X90.2Y-15.0
X92.8Y-12.4
X94.8Y-39.6
X95.4Y-9.8
X95.6Y3.2
X96.84Y-13.6
X97.396Y-43.409
X97.937Y-5.137
X98.0Y-10.57
X99.2Y-45.2
X100.4Y-11.2
X102.0Y-7.0
X102.02Y-40.4
X104.824Y-33.576
X107.6Y-37.2
X110.132Y-37.8
X112.8Y-40.8
T3
X35.74Y26.44
X35.74Y11.2
X38.28Y26.44
X38.28Y11.2
X39.13Y8.22
X39.13Y-7.02
X40.82Y26.44
X40.82Y11.2
X41.67Y8.22
X41.67Y-7.02
X43.36Y26.44
X43.36Y11.2
X44.21Y8.22
X44.21Y-7.02
X45.9Y26.44
X45.9Y11.2
X46.18Y-9.73
X46.18Y-12.27
X46.18Y-14.81
X46.18Y-17.35
X46.18Y-19.89
X46.18Y-22.43
X46.18Y-24.97
X46.18Y-27.51
X46.18Y-30.05
X46.18Y-32.59
X46.18Y-35.13
X46.18Y-37.67
X46.18Y-40.21
X46.18Y-42.75
X46.18Y-45.29
X46.18Y-47.83
X46.18Y-50.37
X46.18Y-52.91
X46.18Y-55.45
X46.18Y-57.99
X46.75Y8.22
X46.75Y-7.02
X48.44Y26.44
X48.44Y11.2
X49.29Y8.22
X49.29Y-7.02
X50.98Y26.44
X50.98Y11.2
X51.83Y8.22
X51.83Y-7.02
X53.52Y26.44
X53.52Y11.2
X54.37Y8.22
X54.37Y-7.02
X56.06Y26.44
X56.06Y11.2
X56.91Y8.22
X56.91Y-7.02
X58.6Y26.44
X58.6Y11.2
X59.45Y8.22
X59.45Y-7.02
X61.14Y26.44
X61.14Y11.2
X61.42Y-9.73
X61.42Y-12.27
X61.42Y-14.81
X61.42Y-17.35
X61.42Y-19.89
X61.42Y-22.43
X61.42Y-24.97
X61.42Y-27.51
X61.42Y-30.05
X61.42Y-32.59
X61.42Y-35.13
X61.42Y-37.67
X61.42Y-40.21
X61.42Y-42.75
X61.42Y-45.29
X61.42Y-47.83
X61.42Y-50.37
X61.42Y-52.91
X61.42Y-55.45
X61.42Y-57.99
X61.99Y8.22
X61.99Y-7.02
X63.68Y26.44
X63.68Y11.2
X64.36Y-48.36
X64.36Y-63.6
X64.53Y8.22
X64.53Y-7.02
X66.22Y26.44
X66.22Y11.2
X66.9Y-48.36
X66.9Y-63.6
X67.07Y8.22
X67.07Y-7.02
X68.76Y26.44
X68.76Y11.2
X69.44Y-48.36
X69.44Y-63.6
X71.3Y26.44
X71.3Y11.2
X71.98Y-48.36
X71.98Y-63.6
X73.84Y26.44
X73.84Y11.2
X74.52Y-48.36
X74.52Y-63.6
X76.38Y26.44
X76.38Y11.2
X77.06Y-48.36
X77.06Y-63.6
X78.92Y26.44
X78.92Y11.2
X79.6Y-48.36
X79.6Y-63.6
X81.46Y26.44
X81.46Y11.2
X82.14Y-48.36
X82.14Y-63.6
X84.0Y26.44
X84.0Y11.2
X84.68Y-48.36
X84.68Y-63.6
X87.22Y-48.36
X87.22Y-63.6
X89.76Y-48.36
X89.76Y-63.6
X92.3Y-48.36
X92.3Y-63.6
X92.58Y25.71
X92.58Y18.09
X92.58Y12.0
X92.58Y4.38
X94.84Y-48.36
X94.84Y-63.6
X97.38Y-48.36
X97.38Y-63.6
X99.92Y-48.36
X99.92Y-63.6
X102.46Y-48.36
X102.46Y-63.6
X105.0Y-48.36
X105.0Y-63.6
X107.54Y-48.36
X107.54Y-63.6
X107.82Y25.71
X107.82Y18.09
X107.82Y12.0
X107.82Y4.38
X110.08Y-48.36
X110.08Y-63.6
X112.62Y-48.36
X112.62Y-63.6
T4
X69.92Y-1.8
X69.92Y-17.04
X69.92Y-26.76
X69.92Y-42.0
X72.46Y-1.8
X72.46Y-17.04
X72.46Y-26.76
X72.46Y-42.0
X75.0Y-1.8
X75.0Y-17.04
X75.0Y-26.76
X75.0Y-42.0
X77.54Y-1.8
X77.54Y-17.04
X77.54Y-26.76
X77.54Y-42.0
X80.08Y-1.8
X80.08Y-17.04
X80.08Y-26.76
X80.08Y-42.0
X82.62Y-1.8
X82.62Y-17.04
X82.62Y-26.76
X82.62Y-42.0
X83.03Y30.0
X85.16Y-1.8
X85.16Y-17.04
X85.16Y-26.76
X85.16Y-42.0
X85.53Y35.0
X87.7Y-1.8
X87.7Y-17.04
X87.7Y-26.76
X87.7Y-42.0
X88.03Y30.0
X90.24Y-1.8
X90.24Y-17.04
X90.24Y-26.76
X90.24Y-42.0
X92.78Y-1.8
X92.78Y-17.04
X92.78Y-26.76
X92.78Y-42.0
X95.32Y-1.8
X95.32Y-17.04
X95.32Y-26.76
X95.32Y-42.0
X97.86Y-1.8
X97.86Y-17.04
X97.86Y-26.76
X97.86Y-42.0
X100.4Y-1.8
X100.4Y-17.04
X100.4Y-26.76
X100.4Y-42.0
X102.94Y-1.8
X102.94Y-17.04
X102.94Y-26.76
X102.94Y-42.0
T5
X38.75Y-44.15
X38.75Y-50.65
X43.25Y-44.15
X43.25Y-50.65
X57.71Y-67.1
X57.71Y-71.6
X64.21Y-67.1
X64.21Y-71.6
X67.55Y-67.1
X67.55Y-71.6
X74.05Y-67.1
X74.05Y-71.6
X77.375Y-67.1
X77.375Y-71.6
X83.875Y-67.1
X83.875Y-71.6
X87.15Y-67.1
X87.15Y-71.6
X93.65Y-67.1
X93.65Y-71.6
X96.975Y-67.1
X96.975Y-71.6
X103.475Y-67.1
X103.475Y-71.6
X106.8Y-67.1
X106.8Y-71.6
X113.3Y-67.1
X113.3Y-71.6
T6
X42.0Y34.6
X44.54Y34.6
X47.08Y34.6
X49.62Y34.6
X52.16Y34.6
X54.7Y34.6
X57.24Y34.6
X59.78Y34.6
X62.32Y34.6
X64.86Y34.6
X67.4Y34.6
X69.94Y34.6
X72.48Y34.6
X75.02Y34.6
X77.56Y34.6
X80.1Y34.6
T7
X36.501Y34.6
X36.501Y3.599
X111.499Y3.599
X111.5Y34.6
T2
G00X36.725Y-23.08
M15
G01X35.925Y-23.08
M16
G05
G00X36.725Y-31.72
M15
G01X35.925Y-31.72
M16
G05
G00X41.055Y-23.08
M15
G01X39.955Y-23.08
M16
G05
G00X41.055Y-31.72
M15
G01X39.955Y-31.72
M16
G05
M30
